<svg xmlns="http://www.w3.org/2000/svg" width="15.598" height="15.598" viewBox="0 0 15.598 15.598">
  <g id="Group_6432" data-name="Group 6432" transform="translate(-19.904 -668)">
    <g id="Group_6431" data-name="Group 6431">
      <g id="moon" transform="translate(17.496 661.298)">
        <g id="Group_6177" data-name="Group 6177" transform="translate(2.408 6.702)">
          <g id="Group_6176" data-name="Group 6176" transform="translate(0)">
            <path id="Path_3219" data-name="Path 3219" d="M28.74,16.718a.69.69,0,0,0-.85-.009,6.288,6.288,0,0,1-3.849,1.3,6.389,6.389,0,0,1-1.139-.1.274.274,0,0,0-.1.539,6.935,6.935,0,0,0,1.237.111,6.832,6.832,0,0,0,4.182-1.413.143.143,0,0,1,.217.173A7.587,7.587,0,1,1,18.385,7.263a.143.143,0,0,1,.173.217,6.9,6.9,0,0,0,3.322,10.731.274.274,0,0,0,.172-.52,6.348,6.348,0,0,1-3.059-9.878.691.691,0,0,0-.836-1.047,8.135,8.135,0,1,0,10.78,10.78A.69.69,0,0,0,28.74,16.718Z" transform="translate(-13.402 -6.702)" fill="#1f8ced"/>
          </g>
        </g>
      </g>
    </g>
  </g>
</svg>
