<?xml version="1.0" encoding="UTF-8"?>
<svg xmlns="http://www.w3.org/2000/svg" xmlns:xlink="http://www.w3.org/1999/xlink" width="396pt" height="305.999988pt" viewBox="0 0 396 305.999988" version="1.2">
<defs>
<clipPath id="clip1">
  <path d="M 278 218 L 365.769531 218 L 365.769531 237 L 278 237 Z M 278 218 "/>
</clipPath>
<clipPath id="clip2">
  <path d="M 348 108 L 365.769531 108 L 365.769531 236 L 348 236 Z M 348 108 "/>
</clipPath>
<clipPath id="clip3">
  <path d="M 325 292 L 339 292 L 339 305.945312 L 325 305.945312 Z M 325 292 "/>
</clipPath>
<clipPath id="clip4">
  <path d="M 295 292 L 310 292 L 310 305.945312 L 295 305.945312 Z M 295 292 "/>
</clipPath>
<clipPath id="clip5">
  <path d="M 26.769531 218 L 115 218 L 115 237 L 26.769531 237 Z M 26.769531 218 "/>
</clipPath>
<clipPath id="clip6">
  <path d="M 26.769531 108 L 45 108 L 45 236 L 26.769531 236 Z M 26.769531 108 "/>
</clipPath>
<clipPath id="clip7">
  <path d="M 54 292 L 68 292 L 68 305.945312 L 54 305.945312 Z M 54 292 "/>
</clipPath>
<clipPath id="clip8">
  <path d="M 83 292 L 97 292 L 97 305.945312 L 83 305.945312 Z M 83 292 "/>
</clipPath>
</defs>
<g id="surface1">
<path style=" stroke:none;fill-rule:nonzero;fill:rgb(25.489807%,19.999695%,28.239441%);fill-opacity:1;" d="M 293.605469 172.226562 C 293.605469 177.1875 289.570312 181.21875 284.585938 181.21875 L 108.265625 181.21875 C 103.289062 181.21875 99.25 177.191406 99.25 172.226562 C 99.25 167.253906 103.289062 163.230469 108.265625 163.230469 L 284.589844 163.230469 C 289.570312 163.230469 293.605469 167.253906 293.605469 172.226562 Z M 293.605469 172.226562 "/>
<path style=" stroke:none;fill-rule:nonzero;fill:rgb(25.489807%,19.999695%,28.239441%);fill-opacity:1;" d="M 341.550781 91.257812 C 341.550781 101.980469 332.835938 110.675781 322.085938 110.675781 C 311.332031 110.675781 302.621094 101.980469 302.621094 91.257812 L 302.621094 77.855469 C 302.621094 67.132812 311.335938 58.433594 322.085938 58.433594 C 332.835938 58.433594 341.550781 67.132812 341.550781 77.855469 Z M 341.550781 91.257812 "/>
<path style=" stroke:none;fill-rule:nonzero;fill:rgb(25.489807%,19.999695%,28.239441%);fill-opacity:1;" d="M 348.132812 200.453125 C 348.132812 190.960938 348.132812 140.640625 348.132812 140.640625 C 348.132812 127.320312 338.296875 116.523438 326.164062 116.523438 L 321.097656 116.523438 C 308.960938 116.523438 299.128906 127.320312 299.128906 140.640625 L 299.128906 218.445312 C 299.128906 218.445312 320.441406 218.445312 330.910156 218.445312 C 341.378906 218.445312 348.132812 209.949219 348.132812 200.453125 Z M 348.132812 200.453125 "/>
<g clip-path="url(#clip1)" clip-rule="nonzero">
<path style=" stroke:none;fill-rule:nonzero;fill:rgb(76.469421%,72.549438%,86.268616%);fill-opacity:1;" d="M 366.164062 227.441406 C 366.164062 232.402344 362.128906 236.4375 357.148438 236.4375 L 287.023438 236.4375 C 282.042969 236.4375 278.003906 232.40625 278.003906 227.441406 C 278.003906 222.472656 282.042969 218.449219 287.023438 218.449219 L 357.148438 218.449219 C 362.128906 218.445312 366.164062 222.472656 366.164062 227.441406 Z M 366.164062 227.441406 "/>
</g>
<path style=" stroke:none;fill-rule:nonzero;fill:rgb(25.489807%,19.999695%,28.239441%);fill-opacity:1;" d="M 329.597656 206.054688 C 329.597656 212.894531 324.039062 218.449219 317.175781 218.449219 L 268.882812 218.449219 C 262.027344 218.449219 256.464844 212.894531 256.464844 206.054688 C 256.464844 199.210938 262.027344 193.660156 268.882812 193.660156 L 317.175781 193.660156 C 324.039062 193.660156 329.597656 199.210938 329.597656 206.054688 Z M 329.597656 206.054688 "/>
<path style=" stroke:none;fill-rule:nonzero;fill:rgb(25.489807%,19.999695%,28.239441%);fill-opacity:1;" d="M 268.886719 193.660156 C 275.742188 193.660156 281.304688 199.210938 281.304688 206.054688 L 281.304688 288.707031 C 281.304688 295.554688 275.742188 301.097656 268.886719 301.097656 C 262.027344 301.097656 256.464844 295.554688 256.464844 288.707031 L 256.464844 206.050781 C 256.464844 199.210938 262.027344 193.660156 268.886719 193.660156 Z M 268.886719 193.660156 "/>
<g clip-path="url(#clip2)" clip-rule="nonzero">
<path style=" stroke:none;fill-rule:nonzero;fill:rgb(76.469421%,72.549438%,86.268616%);fill-opacity:1;" d="M 357.148438 108.679688 C 362.128906 108.679688 366.164062 112.703125 366.164062 117.671875 L 366.164062 226.546875 C 366.164062 231.511719 362.128906 235.539062 357.148438 235.539062 C 352.171875 235.539062 348.132812 231.515625 348.132812 226.546875 L 348.132812 117.671875 C 348.132812 112.707031 352.171875 108.679688 357.148438 108.679688 Z M 357.148438 108.679688 "/>
</g>
<path style=" stroke:none;fill-rule:nonzero;fill:rgb(76.469421%,72.549438%,86.268616%);fill-opacity:1;" d="M 312.136719 227.441406 L 322.15625 227.441406 L 322.15625 281.183594 L 312.136719 281.183594 Z M 312.136719 227.441406 "/>
<path style=" stroke:none;fill-rule:nonzero;fill:rgb(76.469421%,72.549438%,86.268616%);fill-opacity:1;" d="M 335.804688 295.796875 L 327.789062 295.796875 C 327.789062 289.941406 323.015625 285.179688 317.144531 285.179688 C 311.277344 285.179688 306.5 289.941406 306.5 295.796875 L 298.484375 295.796875 C 298.484375 285.53125 306.855469 277.183594 317.144531 277.183594 C 327.433594 277.183594 335.804688 285.535156 335.804688 295.796875 Z M 335.804688 295.796875 "/>
<g clip-path="url(#clip3)" clip-rule="nonzero">
<path style=" stroke:none;fill-rule:nonzero;fill:rgb(76.469421%,72.549438%,86.268616%);fill-opacity:1;" d="M 338.3125 299.167969 C 338.3125 299.597656 338.269531 300.019531 338.1875 300.4375 C 338.101562 300.855469 337.980469 301.261719 337.816406 301.65625 C 337.652344 302.050781 337.449219 302.425781 337.214844 302.777344 C 336.976562 303.132812 336.707031 303.460938 336.402344 303.761719 C 336.101562 304.066406 335.773438 304.335938 335.417969 304.570312 C 335.0625 304.808594 334.6875 305.007812 334.289062 305.171875 C 333.894531 305.335938 333.488281 305.457031 333.070312 305.542969 C 332.648438 305.625 332.226562 305.664062 331.800781 305.667969 C 331.371094 305.664062 330.949219 305.625 330.527344 305.542969 C 330.109375 305.457031 329.703125 305.335938 329.308594 305.171875 C 328.910156 305.007812 328.535156 304.808594 328.179688 304.570312 C 327.824219 304.335938 327.496094 304.066406 327.195312 303.761719 C 326.890625 303.460938 326.621094 303.132812 326.382812 302.777344 C 326.148438 302.425781 325.945312 302.050781 325.78125 301.65625 C 325.617188 301.261719 325.496094 300.855469 325.410156 300.4375 C 325.328125 300.019531 325.285156 299.597656 325.285156 299.167969 C 325.285156 298.742188 325.328125 298.320312 325.410156 297.902344 C 325.496094 297.484375 325.617188 297.078125 325.78125 296.683594 C 325.945312 296.289062 326.148438 295.914062 326.382812 295.5625 C 326.621094 295.207031 326.890625 294.878906 327.195312 294.578125 C 327.496094 294.273438 327.824219 294.003906 328.179688 293.769531 C 328.535156 293.53125 328.910156 293.332031 329.308594 293.167969 C 329.703125 293.003906 330.109375 292.882812 330.527344 292.796875 C 330.949219 292.714844 331.371094 292.671875 331.800781 292.671875 C 332.226562 292.671875 332.648438 292.714844 333.070312 292.796875 C 333.488281 292.882812 333.894531 293.003906 334.289062 293.167969 C 334.6875 293.332031 335.0625 293.53125 335.417969 293.769531 C 335.773438 294.003906 336.101562 294.273438 336.402344 294.578125 C 336.707031 294.878906 336.976562 295.207031 337.214844 295.5625 C 337.449219 295.914062 337.652344 296.289062 337.816406 296.683594 C 337.980469 297.078125 338.101562 297.484375 338.1875 297.902344 C 338.269531 298.320312 338.3125 298.742188 338.3125 299.167969 Z M 338.3125 299.167969 "/>
</g>
<g clip-path="url(#clip4)" clip-rule="nonzero">
<path style=" stroke:none;fill-rule:nonzero;fill:rgb(76.469421%,72.549438%,86.268616%);fill-opacity:1;" d="M 309.007812 299.167969 C 309.007812 299.597656 308.964844 300.019531 308.882812 300.4375 C 308.800781 300.855469 308.675781 301.261719 308.511719 301.65625 C 308.347656 302.050781 308.148438 302.425781 307.910156 302.777344 C 307.671875 303.132812 307.402344 303.460938 307.101562 303.761719 C 306.796875 304.066406 306.46875 304.335938 306.113281 304.570312 C 305.757812 304.808594 305.382812 305.007812 304.988281 305.171875 C 304.59375 305.335938 304.183594 305.457031 303.765625 305.542969 C 303.347656 305.625 302.921875 305.664062 302.496094 305.667969 C 302.066406 305.664062 301.644531 305.625 301.226562 305.542969 C 300.804688 305.457031 300.398438 305.335938 300.003906 305.171875 C 299.609375 305.007812 299.234375 304.808594 298.878906 304.570312 C 298.523438 304.335938 298.191406 304.066406 297.890625 303.761719 C 297.589844 303.460938 297.316406 303.132812 297.082031 302.777344 C 296.84375 302.425781 296.640625 302.050781 296.480469 301.65625 C 296.316406 301.261719 296.191406 300.855469 296.109375 300.4375 C 296.023438 300.019531 295.984375 299.597656 295.984375 299.167969 C 295.984375 298.742188 296.023438 298.320312 296.109375 297.902344 C 296.191406 297.484375 296.316406 297.078125 296.480469 296.683594 C 296.640625 296.289062 296.84375 295.914062 297.082031 295.5625 C 297.316406 295.207031 297.589844 294.878906 297.890625 294.578125 C 298.191406 294.273438 298.523438 294.003906 298.878906 293.769531 C 299.234375 293.53125 299.609375 293.332031 300.003906 293.167969 C 300.398438 293.003906 300.804688 292.882812 301.226562 292.796875 C 301.644531 292.714844 302.066406 292.671875 302.496094 292.671875 C 302.921875 292.671875 303.347656 292.714844 303.765625 292.796875 C 304.183594 292.882812 304.59375 293.003906 304.988281 293.167969 C 305.382812 293.332031 305.757812 293.53125 306.113281 293.769531 C 306.46875 294.003906 306.796875 294.273438 307.101562 294.578125 C 307.402344 294.878906 307.671875 295.207031 307.910156 295.5625 C 308.148438 295.914062 308.347656 296.289062 308.511719 296.683594 C 308.675781 297.078125 308.800781 297.484375 308.882812 297.902344 C 308.964844 298.320312 309.007812 298.742188 309.007812 299.167969 Z M 309.007812 299.167969 "/>
</g>
<path style=" stroke:none;fill-rule:nonzero;fill:rgb(25.489807%,19.999695%,28.239441%);fill-opacity:1;" d="M 51.367188 91.257812 C 51.367188 101.980469 60.078125 110.675781 70.828125 110.675781 C 81.578125 110.675781 90.289062 101.980469 90.289062 91.257812 L 90.289062 77.855469 C 90.289062 67.132812 81.578125 58.433594 70.828125 58.433594 C 60.078125 58.433594 51.367188 67.132812 51.367188 77.855469 Z M 51.367188 91.257812 "/>
<path style=" stroke:none;fill-rule:nonzero;fill:rgb(25.489807%,19.999695%,28.239441%);fill-opacity:1;" d="M 44.777344 200.453125 C 44.777344 190.960938 44.777344 140.640625 44.777344 140.640625 C 44.777344 127.320312 54.613281 116.523438 66.75 116.523438 L 71.816406 116.523438 C 83.953125 116.523438 93.785156 127.320312 93.785156 140.640625 L 93.785156 218.445312 C 93.785156 218.445312 72.46875 218.445312 62 218.445312 C 51.53125 218.445312 44.777344 209.949219 44.777344 200.453125 Z M 44.777344 200.453125 "/>
<g clip-path="url(#clip5)" clip-rule="nonzero">
<path style=" stroke:none;fill-rule:nonzero;fill:rgb(76.469421%,72.549438%,86.268616%);fill-opacity:1;" d="M 26.746094 227.441406 C 26.746094 232.402344 30.78125 236.4375 35.765625 236.4375 L 105.890625 236.4375 C 110.875 236.4375 114.910156 232.40625 114.910156 227.441406 C 114.910156 222.472656 110.875 218.449219 105.890625 218.449219 L 35.765625 218.449219 C 30.78125 218.445312 26.746094 222.472656 26.746094 227.441406 Z M 26.746094 227.441406 "/>
</g>
<path style=" stroke:none;fill-rule:nonzero;fill:rgb(25.489807%,19.999695%,28.239441%);fill-opacity:1;" d="M 63.3125 206.054688 C 63.3125 212.894531 68.875 218.449219 75.730469 218.449219 L 124.027344 218.449219 C 130.886719 218.449219 136.445312 212.894531 136.445312 206.054688 C 136.445312 199.210938 130.886719 193.660156 124.027344 193.660156 L 75.730469 193.660156 C 68.875 193.660156 63.3125 199.210938 63.3125 206.054688 Z M 63.3125 206.054688 "/>
<path style=" stroke:none;fill-rule:nonzero;fill:rgb(25.489807%,19.999695%,28.239441%);fill-opacity:1;" d="M 124.027344 193.660156 C 117.167969 193.660156 111.609375 199.210938 111.609375 206.054688 L 111.609375 288.707031 C 111.609375 295.554688 117.167969 301.097656 124.027344 301.097656 C 130.886719 301.097656 136.445312 295.554688 136.445312 288.707031 L 136.445312 206.050781 C 136.445312 199.210938 130.886719 193.660156 124.027344 193.660156 Z M 124.027344 193.660156 "/>
<g clip-path="url(#clip6)" clip-rule="nonzero">
<path style=" stroke:none;fill-rule:nonzero;fill:rgb(76.469421%,72.549438%,86.268616%);fill-opacity:1;" d="M 35.765625 108.679688 C 30.78125 108.679688 26.746094 112.703125 26.746094 117.671875 L 26.746094 226.546875 C 26.746094 231.511719 30.78125 235.539062 35.765625 235.539062 C 40.746094 235.539062 44.777344 231.515625 44.777344 226.546875 L 44.777344 117.671875 C 44.777344 112.707031 40.746094 108.679688 35.765625 108.679688 Z M 35.765625 108.679688 "/>
</g>
<path style=" stroke:none;fill-rule:nonzero;fill:rgb(76.469421%,72.549438%,86.268616%);fill-opacity:1;" d="M 70.75 227.441406 L 80.769531 227.441406 L 80.769531 281.183594 L 70.75 281.183594 Z M 70.75 227.441406 "/>
<path style=" stroke:none;fill-rule:nonzero;fill:rgb(76.469421%,72.549438%,86.268616%);fill-opacity:1;" d="M 94.421875 295.796875 L 86.40625 295.796875 C 86.40625 289.941406 81.632812 285.179688 75.761719 285.179688 C 69.890625 285.179688 65.117188 289.941406 65.117188 295.796875 L 57.101562 295.796875 C 57.101562 285.53125 65.472656 277.183594 75.761719 277.183594 C 86.050781 277.183594 94.421875 285.535156 94.421875 295.796875 Z M 94.421875 295.796875 "/>
<g clip-path="url(#clip7)" clip-rule="nonzero">
<path style=" stroke:none;fill-rule:nonzero;fill:rgb(76.469421%,72.549438%,86.268616%);fill-opacity:1;" d="M 54.597656 299.167969 C 54.597656 302.757812 57.515625 305.664062 61.109375 305.664062 C 64.710938 305.664062 67.621094 302.757812 67.621094 299.167969 C 67.621094 295.582031 64.710938 292.671875 61.109375 292.671875 C 57.515625 292.671875 54.597656 295.582031 54.597656 299.167969 Z M 54.597656 299.167969 "/>
</g>
<g clip-path="url(#clip8)" clip-rule="nonzero">
<path style=" stroke:none;fill-rule:nonzero;fill:rgb(76.469421%,72.549438%,86.268616%);fill-opacity:1;" d="M 96.925781 299.167969 C 96.925781 299.597656 96.886719 300.019531 96.800781 300.4375 C 96.71875 300.855469 96.59375 301.261719 96.429688 301.65625 C 96.265625 302.050781 96.066406 302.425781 95.828125 302.777344 C 95.59375 303.132812 95.320312 303.460938 95.019531 303.761719 C 94.71875 304.066406 94.386719 304.335938 94.03125 304.570312 C 93.675781 304.808594 93.300781 305.007812 92.90625 305.171875 C 92.511719 305.335938 92.105469 305.457031 91.683594 305.542969 C 91.265625 305.625 90.84375 305.664062 90.414062 305.667969 C 89.988281 305.664062 89.5625 305.625 89.144531 305.542969 C 88.726562 305.457031 88.316406 305.335938 87.921875 305.171875 C 87.527344 305.007812 87.152344 304.808594 86.796875 304.570312 C 86.441406 304.335938 86.113281 304.066406 85.808594 303.761719 C 85.507812 303.460938 85.238281 303.132812 85 302.777344 C 84.761719 302.425781 84.5625 302.050781 84.398438 301.65625 C 84.234375 301.261719 84.109375 300.855469 84.027344 300.4375 C 83.945312 300.019531 83.902344 299.597656 83.902344 299.167969 C 83.902344 298.742188 83.945312 298.320312 84.027344 297.902344 C 84.109375 297.484375 84.234375 297.078125 84.398438 296.683594 C 84.5625 296.289062 84.761719 295.914062 85 295.5625 C 85.238281 295.207031 85.507812 294.878906 85.808594 294.578125 C 86.113281 294.273438 86.441406 294.003906 86.796875 293.769531 C 87.152344 293.53125 87.527344 293.332031 87.921875 293.167969 C 88.316406 293.003906 88.726562 292.882812 89.144531 292.796875 C 89.5625 292.714844 89.988281 292.671875 90.414062 292.671875 C 90.84375 292.671875 91.265625 292.714844 91.683594 292.796875 C 92.105469 292.882812 92.511719 293.003906 92.90625 293.167969 C 93.300781 293.332031 93.675781 293.53125 94.03125 293.769531 C 94.386719 294.003906 94.71875 294.273438 95.019531 294.578125 C 95.320312 294.878906 95.589844 295.207031 95.828125 295.5625 C 96.066406 295.914062 96.265625 296.289062 96.429688 296.683594 C 96.59375 297.078125 96.71875 297.484375 96.800781 297.902344 C 96.886719 298.320312 96.925781 298.742188 96.925781 299.167969 Z M 96.925781 299.167969 "/>
</g>
<path style=" stroke:none;fill-rule:nonzero;fill:rgb(25.489807%,19.999695%,28.239441%);fill-opacity:1;" d="M 187.578125 175.226562 L 204.273438 175.226562 L 204.273438 301.097656 L 187.578125 301.097656 Z M 187.578125 175.226562 "/>
<path style=" stroke:none;fill-rule:nonzero;fill:rgb(25.489807%,19.999695%,28.239441%);fill-opacity:1;" d="M 290.363281 40.480469 C 290.363281 41.800781 290.269531 43.121094 290.078125 44.4375 C 289.890625 45.753906 289.605469 47.0625 289.226562 48.359375 C 288.847656 49.65625 288.378906 50.9375 287.816406 52.203125 C 287.253906 53.46875 286.601562 54.710938 285.859375 55.933594 C 285.117188 57.15625 284.289062 58.351562 283.375 59.515625 C 282.460938 60.683594 281.464844 61.816406 280.390625 62.917969 C 279.3125 64.015625 278.160156 65.078125 276.929688 66.101562 C 275.699219 67.121094 274.398438 68.101562 273.03125 69.035156 C 271.660156 69.972656 270.222656 70.859375 268.726562 71.699219 C 267.226562 72.535156 265.671875 73.324219 264.0625 74.058594 C 262.449219 74.792969 260.789062 75.472656 259.078125 76.097656 C 257.371094 76.71875 255.621094 77.285156 253.828125 77.789062 C 252.039062 78.296875 250.214844 78.742188 248.359375 79.125 C 246.503906 79.511719 244.628906 79.832031 242.726562 80.089844 C 240.824219 80.347656 238.910156 80.539062 236.980469 80.671875 C 235.050781 80.800781 233.117188 80.863281 231.179688 80.863281 C 229.242188 80.863281 227.308594 80.800781 225.378906 80.671875 C 223.449219 80.539062 221.535156 80.347656 219.632812 80.089844 C 217.734375 79.832031 215.855469 79.511719 214 79.125 C 212.144531 78.742188 210.324219 78.296875 208.53125 77.789062 C 206.742188 77.285156 204.992188 76.71875 203.28125 76.097656 C 201.570312 75.472656 199.910156 74.792969 198.300781 74.058594 C 196.6875 73.324219 195.132812 72.535156 193.632812 71.699219 C 192.136719 70.859375 190.703125 69.972656 189.332031 69.035156 C 187.960938 68.101562 186.660156 67.121094 185.429688 66.101562 C 184.199219 65.078125 183.046875 64.015625 181.972656 62.917969 C 180.894531 61.816406 179.898438 60.683594 178.984375 59.515625 C 178.070312 58.351562 177.242188 57.15625 176.5 55.933594 C 175.761719 54.710938 175.109375 53.46875 174.546875 52.203125 C 173.980469 50.9375 173.511719 49.65625 173.132812 48.359375 C 172.753906 47.0625 172.472656 45.753906 172.28125 44.4375 C 172.089844 43.121094 171.996094 41.800781 171.996094 40.480469 C 171.996094 39.15625 172.089844 37.835938 172.28125 36.519531 C 172.472656 35.207031 172.753906 33.898438 173.132812 32.601562 C 173.511719 31.304688 173.980469 30.023438 174.546875 28.757812 C 175.109375 27.492188 175.761719 26.246094 176.5 25.023438 C 177.242188 23.804688 178.070312 22.609375 178.984375 21.441406 C 179.898438 20.277344 180.894531 19.144531 181.972656 18.042969 C 183.046875 16.941406 184.199219 15.882812 185.429688 14.859375 C 186.660156 13.835938 187.960938 12.859375 189.332031 11.921875 C 190.703125 10.988281 192.136719 10.101562 193.632812 9.261719 C 195.132812 8.421875 196.6875 7.636719 198.300781 6.902344 C 199.910156 6.167969 201.570312 5.488281 203.28125 4.863281 C 204.992188 4.238281 206.742188 3.675781 208.53125 3.167969 C 210.324219 2.664062 212.144531 2.21875 214 1.832031 C 215.855469 1.449219 217.734375 1.128906 219.632812 0.871094 C 221.535156 0.613281 223.449219 0.417969 225.378906 0.289062 C 227.308594 0.160156 229.242188 0.09375 231.179688 0.09375 C 233.117188 0.09375 235.050781 0.160156 236.980469 0.289062 C 238.910156 0.417969 240.824219 0.613281 242.726562 0.871094 C 244.628906 1.128906 246.503906 1.449219 248.359375 1.832031 C 250.214844 2.21875 252.039062 2.664062 253.828125 3.167969 C 255.621094 3.675781 257.371094 4.238281 259.078125 4.863281 C 260.789062 5.488281 262.449219 6.167969 264.0625 6.902344 C 265.671875 7.636719 267.226562 8.421875 268.726562 9.261719 C 270.222656 10.101562 271.660156 10.988281 273.03125 11.921875 C 274.398438 12.859375 275.699219 13.835938 276.929688 14.859375 C 278.160156 15.882812 279.3125 16.941406 280.390625 18.042969 C 281.464844 19.144531 282.460938 20.277344 283.375 21.441406 C 284.289062 22.609375 285.117188 23.804688 285.859375 25.023438 C 286.601562 26.246094 287.253906 27.492188 287.816406 28.757812 C 288.378906 30.023438 288.847656 31.304688 289.226562 32.601562 C 289.605469 33.898438 289.890625 35.207031 290.078125 36.519531 C 290.269531 37.835938 290.363281 39.15625 290.363281 40.480469 Z M 290.363281 40.480469 "/>
<path style=" stroke:none;fill-rule:nonzero;fill:rgb(25.489807%,19.999695%,28.239441%);fill-opacity:1;" d="M 279.554688 97.167969 L 237.441406 71.625 L 264.757812 69.351562 Z M 279.554688 97.167969 "/>
<path style=" stroke:none;fill-rule:nonzero;fill:rgb(76.469421%,72.549438%,86.268616%);fill-opacity:1;" d="M 208.988281 40.683594 C 208.988281 41.074219 208.949219 41.464844 208.871094 41.847656 C 208.796875 42.230469 208.683594 42.605469 208.53125 42.964844 C 208.382812 43.328125 208.199219 43.671875 207.980469 43.996094 C 207.761719 44.320312 207.515625 44.621094 207.238281 44.898438 C 206.960938 45.175781 206.65625 45.421875 206.332031 45.640625 C 206.003906 45.859375 205.660156 46.042969 205.300781 46.191406 C 204.9375 46.339844 204.5625 46.453125 204.179688 46.53125 C 203.792969 46.605469 203.40625 46.644531 203.011719 46.644531 C 202.621094 46.644531 202.230469 46.605469 201.847656 46.53125 C 201.460938 46.453125 201.089844 46.339844 200.726562 46.191406 C 200.363281 46.042969 200.019531 45.859375 199.691406 45.640625 C 199.367188 45.421875 199.066406 45.175781 198.789062 44.898438 C 198.511719 44.621094 198.261719 44.320312 198.042969 43.996094 C 197.828125 43.671875 197.640625 43.328125 197.492188 42.964844 C 197.34375 42.605469 197.230469 42.230469 197.152344 41.847656 C 197.074219 41.464844 197.039062 41.074219 197.039062 40.683594 C 197.039062 40.292969 197.074219 39.90625 197.152344 39.523438 C 197.230469 39.136719 197.34375 38.765625 197.492188 38.402344 C 197.640625 38.042969 197.828125 37.699219 198.042969 37.375 C 198.261719 37.046875 198.511719 36.746094 198.789062 36.46875 C 199.066406 36.191406 199.367188 35.945312 199.691406 35.730469 C 200.019531 35.511719 200.363281 35.328125 200.726562 35.179688 C 201.089844 35.027344 201.460938 34.914062 201.847656 34.839844 C 202.230469 34.761719 202.621094 34.722656 203.011719 34.722656 C 203.40625 34.722656 203.792969 34.761719 204.179688 34.839844 C 204.5625 34.914062 204.9375 35.027344 205.300781 35.179688 C 205.660156 35.328125 206.003906 35.511719 206.332031 35.730469 C 206.65625 35.945312 206.960938 36.191406 207.238281 36.46875 C 207.515625 36.746094 207.761719 37.046875 207.980469 37.375 C 208.199219 37.699219 208.382812 38.042969 208.53125 38.402344 C 208.683594 38.765625 208.796875 39.136719 208.871094 39.523438 C 208.949219 39.90625 208.988281 40.292969 208.988281 40.683594 Z M 208.988281 40.683594 "/>
<path style=" stroke:none;fill-rule:nonzero;fill:rgb(76.469421%,72.549438%,86.268616%);fill-opacity:1;" d="M 234.371094 40.683594 C 234.371094 41.074219 234.332031 41.464844 234.257812 41.847656 C 234.179688 42.230469 234.066406 42.605469 233.917969 42.964844 C 233.765625 43.328125 233.582031 43.671875 233.363281 43.996094 C 233.148438 44.324219 232.898438 44.625 232.621094 44.902344 C 232.34375 45.175781 232.042969 45.425781 231.714844 45.640625 C 231.390625 45.859375 231.046875 46.042969 230.683594 46.191406 C 230.320312 46.34375 229.945312 46.457031 229.5625 46.53125 C 229.175781 46.609375 228.789062 46.648438 228.394531 46.648438 C 228.003906 46.648438 227.613281 46.609375 227.230469 46.53125 C 226.84375 46.457031 226.472656 46.34375 226.109375 46.191406 C 225.746094 46.042969 225.402344 45.859375 225.074219 45.640625 C 224.75 45.425781 224.445312 45.175781 224.167969 44.902344 C 223.890625 44.625 223.644531 44.324219 223.425781 43.996094 C 223.207031 43.671875 223.023438 43.328125 222.875 42.964844 C 222.722656 42.605469 222.609375 42.230469 222.535156 41.847656 C 222.457031 41.464844 222.417969 41.074219 222.417969 40.683594 C 222.417969 40.292969 222.457031 39.90625 222.535156 39.519531 C 222.609375 39.136719 222.722656 38.765625 222.875 38.402344 C 223.023438 38.042969 223.207031 37.699219 223.425781 37.371094 C 223.644531 37.046875 223.890625 36.746094 224.167969 36.46875 C 224.445312 36.191406 224.75 35.945312 225.074219 35.726562 C 225.402344 35.507812 225.746094 35.324219 226.109375 35.175781 C 226.472656 35.027344 226.84375 34.914062 227.230469 34.835938 C 227.613281 34.761719 228.003906 34.722656 228.394531 34.722656 C 228.789062 34.722656 229.175781 34.761719 229.5625 34.835938 C 229.945312 34.914062 230.320312 35.027344 230.683594 35.175781 C 231.046875 35.324219 231.390625 35.511719 231.714844 35.726562 C 232.042969 35.945312 232.34375 36.191406 232.621094 36.46875 C 232.898438 36.746094 233.148438 37.046875 233.363281 37.371094 C 233.582031 37.699219 233.765625 38.042969 233.917969 38.402344 C 234.066406 38.765625 234.179688 39.136719 234.257812 39.519531 C 234.332031 39.90625 234.371094 40.292969 234.371094 40.683594 Z M 234.371094 40.683594 "/>
<path style=" stroke:none;fill-rule:nonzero;fill:rgb(76.469421%,72.549438%,86.268616%);fill-opacity:1;" d="M 259.753906 40.683594 C 259.753906 41.074219 259.71875 41.464844 259.640625 41.847656 C 259.5625 42.230469 259.449219 42.605469 259.300781 42.964844 C 259.148438 43.328125 258.964844 43.671875 258.75 43.996094 C 258.53125 44.320312 258.28125 44.621094 258.003906 44.898438 C 257.726562 45.175781 257.425781 45.421875 257.101562 45.640625 C 256.773438 45.859375 256.429688 46.042969 256.066406 46.191406 C 255.703125 46.339844 255.332031 46.453125 254.945312 46.53125 C 254.5625 46.605469 254.171875 46.644531 253.78125 46.644531 C 253.386719 46.644531 253 46.605469 252.613281 46.53125 C 252.230469 46.453125 251.855469 46.339844 251.492188 46.191406 C 251.132812 46.042969 250.785156 45.859375 250.460938 45.640625 C 250.132812 45.421875 249.832031 45.175781 249.554688 44.898438 C 249.277344 44.621094 249.03125 44.320312 248.8125 43.996094 C 248.59375 43.671875 248.410156 43.328125 248.261719 42.964844 C 248.109375 42.605469 247.996094 42.230469 247.921875 41.847656 C 247.84375 41.464844 247.804688 41.074219 247.804688 40.683594 C 247.804688 40.292969 247.84375 39.90625 247.921875 39.523438 C 247.996094 39.136719 248.109375 38.765625 248.261719 38.402344 C 248.410156 38.042969 248.59375 37.699219 248.8125 37.375 C 249.03125 37.046875 249.277344 36.746094 249.554688 36.46875 C 249.832031 36.191406 250.132812 35.945312 250.460938 35.730469 C 250.785156 35.511719 251.132812 35.328125 251.492188 35.179688 C 251.855469 35.027344 252.230469 34.914062 252.613281 34.839844 C 253 34.761719 253.386719 34.722656 253.78125 34.722656 C 254.171875 34.722656 254.5625 34.761719 254.945312 34.839844 C 255.332031 34.914062 255.703125 35.027344 256.066406 35.179688 C 256.429688 35.328125 256.773438 35.511719 257.101562 35.730469 C 257.425781 35.945312 257.726562 36.191406 258.003906 36.46875 C 258.28125 36.746094 258.53125 37.046875 258.75 37.375 C 258.964844 37.699219 259.148438 38.042969 259.300781 38.402344 C 259.449219 38.765625 259.5625 39.136719 259.640625 39.523438 C 259.71875 39.90625 259.753906 40.292969 259.753906 40.683594 Z M 259.753906 40.683594 "/>
</g>
</svg>
