<svg xmlns="http://www.w3.org/2000/svg" xmlns:xlink="http://www.w3.org/1999/xlink" width="286.334" height="202.569" viewBox="0 0 286.334 202.569">
  <defs>
    <linearGradient id="linear-gradient" x1="0.5" y1="1" x2="0.5" gradientUnits="objectBoundingBox">
      <stop offset="0" stop-color="gray" stop-opacity="0.251"/>
      <stop offset="0.54" stop-color="gray" stop-opacity="0.122"/>
      <stop offset="1" stop-color="gray" stop-opacity="0.102"/>
    </linearGradient>
    <linearGradient id="linear-gradient-2" x1="0.5" y1="1" x2="0.5" y2="0" xlink:href="#linear-gradient"/>
  </defs>
  <g id="Group_6429" data-name="Group 6429" transform="translate(-44.515 -147.5)">
    <g id="Group_6428" data-name="Group 6428">
      <ellipse id="Ellipse_4" data-name="Ellipse 4" cx="25.217" cy="4.05" rx="25.217" ry="4.05" transform="translate(114.734 341.854)" fill="#1f8ced" opacity="0.1"/>
      <ellipse id="Ellipse_5" data-name="Ellipse 5" cx="31.467" cy="4.05" rx="31.467" ry="4.05" transform="translate(245.559 341.968)" fill="#1f8ced" opacity="0.1"/>
      <path id="Path_1246" data-name="Path 1246" d="M59.538,396.83H85.8v35.8H61.461c-.065.367-.127.738-.194,1.108H85.8v28.871c-.044-.013-.083-.028-.124-.044-.694-.274-1.382-.564-2.07-.875l-.44-.2q-1.035-.489-2.07-1.035c-.241-.127-.481-.259-.719-.393A43.067,43.067,0,0,1,70.058,452c-.088-.085-.171-.176-.259-.259-.419-.456-.831-.916-1.229-1.387l-.44-.518c-.471-.577-.926-1.17-1.369-1.77-.065-.088-.127-.176-.194-.259a38.528,38.528,0,0,1-4.451-8.048c-.036-.085-.067-.179-.1-.259q-.533-1.372-.945-2.769c-.119-.391-.233-.776-.331-1.183-.036-.119-.067-.235-.1-.352C59.173,429.456,59,423.5,59,417.577v-2.07c0-2.394.028-4.8.07-7.21,0-.624.026-1.245.039-1.871q.054-2.383.155-4.767c.016-.443.036-.882.06-1.322a7.492,7.492,0,0,1,.039-.761C59.424,398.654,59.476,397.741,59.538,396.83Z" transform="translate(-11.081 -161.805)" fill="#1f8ced" opacity="0.1"/>
      <path id="Path_1247" data-name="Path 1247" d="M121.307,190.659H106.9a109.212,109.212,0,0,1,7.663-10.548c2.14-2.629,4.4-5.191,6.744-7.66Z" transform="translate(-46.585 4.507)" fill="#1f8ced" opacity="0.1"/>
      <path id="Path_1248" data-name="Path 1248" d="M87.582,247.09v37.644H61.4c0-.109.018-.22.026-.329.023-.3.047-.6.072-.89.028-.347.06-.7.093-1.035s.07-.753.109-1.128.075-.756.119-1.131.083-.75.129-1.123.088-.751.137-1.123c.039-.311.08-.619.122-.929.06-.437.122-.877.189-1.312a1.21,1.21,0,0,1,.028-.194,89.521,89.521,0,0,1,1.928-9.451,69.9,69.9,0,0,1,3.248-9.575,71.883,71.883,0,0,1,4.886-9.41Z" transform="translate(-12.86 -50.816)" fill="#1f8ced" opacity="0.1"/>
      <path id="Path_1249" data-name="Path 1249" d="M186.8,146.146v35.8h56.1v-35.8Zm0,36.906V213.8c.321.067.639.132.955.186.43.083.857.158,1.294.223.083.013.168.026.259.034.171.028.347.052.518.075.432.06.862.109,1.294.148.2.021.411.039.619.054l.5.039h0c.272.021.541.036.807.044.166,0,.331.016.5.021h1.845c.223,0,.445,0,.665-.021h.016a3.486,3.486,0,0,0,.463-.021,1.083,1.083,0,0,0,.129,0,2.676,2.676,0,0,0,.383-.018h.091l.867-.067c.285-.026.572-.06.862-.091l.59-.07a51.618,51.618,0,0,0,7.1-1.511c5.233-1.46,10.352-3.5,15.582-5,6.762-1.928,14.234-2.875,20.768-.518V183.052Zm56.1-76.763V58.628a72.118,72.118,0,0,0-18.227,2.138c-14.205,3.569-26.951,11.309-37.872,21.2v24.326h2.816v1.105H186.8v37.649h56.1V107.395H201.176V106.29Zm72.055-16.1a23.236,23.236,0,0,1-10.168-2.955c-6.043-3.287-10.869-8.362-16.263-12.645a74.666,74.666,0,0,0-39.36-15.639V106.29h80.083l.2-.21Zm7.3-1.294,7.735,8.488V86.671a30.691,30.691,0,0,0-7.725,2.215Zm7.735,132.535V183.052H313.5c-.044-.163-.088-.329-.14-.494.049.166.091.331.137.494H249.174v27.755c.611.453,1.214.929,1.812,1.413h0c.644.518,1.281,1.064,1.92,1.6l.644.533c.308.259.619.518.932.761q.932.756,1.881,1.491c.313.259.634.492.952.735a129.719,129.719,0,0,0,15.949,10.432q1.871,1.035,3.776,2.021c.846.432,1.7.862,2.552,1.278q1.925.939,3.882,1.812h0a142.553,142.553,0,0,0,37.784,11.006q4.345.642,8.724,1.009v-23.47h.259Zm-80.81-114.037v37.646h80.821V107.395Zm0,38.752v35.8h80.821v-35.8Zm87.094-59.522V98.575l9.873-10.833q-4.907-.792-9.873-1.131Zm0,59.535v35.788h78.608v-35.8Zm78.321,78.114.277-41.22h-78.6V245.31a140.964,140.964,0,0,0,15.191-.181h.088q3.623-.228,7.213-.662h.054a132.823,132.823,0,0,0,37.059-9.888m34.16-82.537c-.295-.7-.6-1.387-.916-2.07-.585-1.294-1.2-2.552-1.84-3.809h-6.133v35.786h15.507a77.358,77.358,0,0,0-6.61-29.919Zm-8.889,31.024V218.52a50.789,50.789,0,0,0,10.717-14.453,49.687,49.687,0,0,0,4.777-21.006Zm0-47.338v9.316H426.7a100.937,100.937,0,0,0-5.551-9.329Zm-53.311-42.08c-.409-.155-.818-.313-1.229-.466a112.217,112.217,0,0,0-13.279-3.991l-15.108,16.581h0l-.29.308.194.212h53.772a115.011,115.011,0,0,0-24.052-12.658Zm25.636,13.76h-56.1l-1.1,1.009v36.624h78.618V127.3a112.006,112.006,0,0,0-21.41-19.906Z" transform="translate(-105.807 88.876)" fill="#1f8ced" opacity="0.1"/>
      <path id="Path_1250" data-name="Path 1250" d="M87.582,320.46v18.656H61.4c0-.109.018-.22.026-.329.023-.3.047-.6.072-.89.028-.347.06-.7.093-1.035s.07-.753.109-1.128.075-.756.119-1.131.083-.75.129-1.123.088-.75.137-1.123c.039-.311.08-.619.122-.929.06-.437.122-.877.189-1.312a1.21,1.21,0,0,1,.028-.194,89.518,89.518,0,0,1,1.928-9.451Z" transform="translate(-12.86 -105.199)" fill="#1f8ced" opacity="0.1"/>
      <path id="Path_1251" data-name="Path 1251" d="M59.538,396.83H85.8v35.8H61.461c-.065.367-.127.738-.194,1.108H85.8v28.871c-.044-.013-.083-.028-.124-.044-.694-.274-1.382-.564-2.07-.875l-.44-.2q-1.035-.489-2.07-1.035c-.241-.127-.481-.259-.719-.393A43.067,43.067,0,0,1,70.058,452c-.088-.085-.171-.176-.259-.259-.419-.456-.831-.916-1.229-1.387l-.44-.518c-.471-.577-.926-1.17-1.369-1.77-.065-.088-.127-.176-.194-.259a38.528,38.528,0,0,1-4.451-8.048c-.036-.085-.067-.179-.1-.259q-.533-1.372-.945-2.769c-.119-.391-.233-.776-.331-1.183-.036-.119-.067-.235-.1-.352C59.173,429.456,59,423.5,59,417.577v-2.07c0-2.394.028-4.8.07-7.21,0-.624.026-1.245.039-1.871q.054-2.383.155-4.767c.016-.443.036-.882.06-1.322a7.492,7.492,0,0,1,.039-.761C59.424,398.654,59.476,397.741,59.538,396.83Z" transform="translate(-11.081 -161.805)" fill="#1f8ced" opacity="0.1"/>
      <path id="Path_1252" data-name="Path 1252" d="M159.308,178v32.256H139.56V178h2.816V167.08h11.558V178Z" transform="translate(-58.567 23.661)" fill="#1f8ced" opacity="0.1"/>
      <rect id="Rectangle_3814" data-name="Rectangle 3814" width="19.746" height="35.799" transform="translate(80.995 235.023)" fill="#1f8ced" opacity="0.1"/>
      <path id="Path_1253" data-name="Path 1253" d="M186.8,539.44h19.748V569.2a51.553,51.553,0,0,1-7.1,1.509l-.59.072c-.29.034-.577.062-.862.091s-.58.049-.867.067h-.091c-.124,0-.259.016-.38.018h-.132c-.155,0-.311.016-.466.021h0c-.22.013-.44.016-.665.018H193.56l-.5-.018c-.259,0-.538-.028-.807-.047h0l-.5-.036-.619-.057c-.435-.039-.867-.088-1.294-.148l-.518-.072-.259-.036c-.432-.067-.859-.14-1.294-.223-.318-.054-.634-.122-.955-.186Z" transform="translate(-105.807 -267.509)" fill="#1f8ced" opacity="0.1"/>
      <rect id="Rectangle_3815" data-name="Rectangle 3815" width="16.283" height="36.063" transform="translate(207.904 197.852)" fill="#6c63ff" opacity="0.1"/>
      <path id="Path_1254" data-name="Path 1254" d="M461.4,338.19v35.8H380.58V358.549h43.05v9.109h21.488V338.19Z" transform="translate(-237.213 -103.167)" fill="#1f8ced" opacity="0.1"/>
      <path id="Path_1255" data-name="Path 1255" d="M508.9,576.408h-.259v23.485q-4.374-.37-8.721-1.007a142.56,142.56,0,0,1-37.8-11.03q-5.21-2.345-10.207-5.119a130.26,130.26,0,0,1-15.952-10.432q-1.9-1.46-3.76-2.986c-.857-.707-1.708-1.431-2.57-2.135-.6-.484-1.2-.96-1.812-1.416V538.024h64.323c-.044-.166-.088-.331-.135-.494.049.163.1.329.14.494h16.493v38.369C508.729,576.4,508.814,576.4,508.9,576.408Z" transform="translate(-284.453 -266.093)" fill="#1f8ced" opacity="0.1"/>
      <path id="Path_1256" data-name="Path 1256" d="M873.83,205.238H863.22v-3.3h4.757V192.12q.619.225,1.232.463v9.358h4.622Z" transform="translate(-607.175 -10.072)" fill="#1f8ced" opacity="0.1"/>
      <path id="Path_1257" data-name="Path 1257" d="M826.118,284.734h-52.09l.018.013-.023-.013H764.36V248.671H767.1v26.656h12.513V259.54h10.336V247.09h10.61v12.461h10.336v15.786h15.225Z" transform="translate(-533.899 -50.816)" fill="#1f8ced" opacity="0.1"/>
      <path id="Path_1258" data-name="Path 1258" d="M764.36,396.82v35.8h61.758v-35.8Zm78.523,77.943.085-28.338h-16.85V433.744H764.36v62.239a140.946,140.946,0,0,0,15.191-.181h.088q3.623-.228,7.213-.662h.054a132.823,132.823,0,0,0,37.059-9.888" transform="translate(-533.899 -161.797)" fill="#1f8ced" opacity="0.1"/>
      <path id="Path_1259" data-name="Path 1259" d="M1093.457,539.44h14.407a49.844,49.844,0,0,1-4.78,21A50.806,50.806,0,0,1,1092.37,574.9V552.123h1.087Z" transform="translate(-777.023 -267.509)" fill="#1f8ced" opacity="0.1"/>
      <path id="Path_1260" data-name="Path 1260" d="M1110.985,449.469H1096.57V419.55h7.8A77.454,77.454,0,0,1,1110.985,449.469Z" transform="translate(-780.136 -178.645)" fill="#1f8ced" opacity="0.1"/>
      <rect id="Rectangle_3816" data-name="Rectangle 3816" width="8.724" height="11.307" transform="translate(215.466 207.878)" fill="#6c63ff" opacity="0.1"/>
      <rect id="Rectangle_3817" data-name="Rectangle 3817" width="8.724" height="2.603" transform="translate(215.466 231.314)" fill="#1f8ced" opacity="0.1"/>
      <rect id="Rectangle_3818" data-name="Rectangle 3818" width="8.724" height="7.596" transform="translate(215.466 235.023)" fill="#1f8ced" opacity="0.1"/>
      <rect id="Rectangle_3819" data-name="Rectangle 3819" width="8.724" height="11.307" transform="translate(215.466 254.75)" fill="#1f8ced" opacity="0.1"/>
      <rect id="Rectangle_3820" data-name="Rectangle 3820" width="8.724" height="11.307" transform="translate(215.466 278.186)" fill="#1f8ced" opacity="0.1"/>
      <path id="Path_1261" data-name="Path 1261" d="M715.141,662.847a1.438,1.438,0,0,1,.259.016h-.259v2.627H706.42V654.17h8.721Z" transform="translate(-490.954 -352.547)" fill="#1f8ced" opacity="0.1"/>
      <path id="Path_1262" data-name="Path 1262" d="M715.141,744.71v8.734q-4.374-.37-8.721-1.007V744.71Z" transform="translate(-490.954 -419.656)" fill="#1f8ced" opacity="0.1"/>
      <rect id="Rectangle_3821" data-name="Rectangle 3821" width="37.388" height="0.831" transform="translate(143.367 269.993)" fill="#1f8ced" opacity="0.1"/>
      <rect id="Rectangle_3822" data-name="Rectangle 3822" width="37.388" height="3.183" transform="translate(143.367 271.929)" fill="#1f8ced" opacity="0.1"/>
      <rect id="Rectangle_3823" data-name="Rectangle 3823" width="37.388" height="5.119" transform="translate(143.367 285.547)" fill="#1f8ced" opacity="0.1"/>
      <path id="Path_1263" data-name="Path 1263" d="M470.386,652.15v5.119H441.143q-1.9-1.455-3.763-2.987c-.857-.706-1.705-1.431-2.57-2.132Z" transform="translate(-289.634 -351.05)" fill="#1f8ced" opacity="0.1"/>
      <path id="Path_1264" data-name="Path 1264" d="M534.211,712.218v5.114h-3.087q-5.2-2.347-10.2-5.122Z" transform="translate(-353.46 -395.567)" fill="#1f8ced" opacity="0.1"/>
      <rect id="Rectangle_3824" data-name="Rectangle 3824" width="7.36" height="7.36" transform="translate(245.654 238.493)" fill="#1f8ced" opacity="0.1"/>
      <rect id="Rectangle_3825" data-name="Rectangle 3825" width="7.36" height="7.36" transform="translate(86.295 204.2)" fill="#1f8ced" opacity="0.1"/>
      <rect id="Rectangle_3826" data-name="Rectangle 3826" width="7.36" height="7.36" transform="translate(86.295 221.296)" fill="#1f8ced" opacity="0.1"/>
      <rect id="Rectangle_3827" data-name="Rectangle 3827" width="7.36" height="7.36" transform="translate(86.295 238.392)" fill="#1f8ced" opacity="0.1"/>
      <rect id="Rectangle_3828" data-name="Rectangle 3828" width="7.36" height="7.36" transform="translate(86.295 255.485)" fill="#1f8ced" opacity="0.1"/>
      <rect id="Rectangle_3829" data-name="Rectangle 3829" width="7.36" height="7.36" transform="translate(86.295 272.581)" fill="#1f8ced" opacity="0.1"/>
      <rect id="Rectangle_3830" data-name="Rectangle 3830" width="7.36" height="7.36" transform="translate(86.295 289.677)" fill="#1f8ced" opacity="0.1"/>
      <rect id="Rectangle_3831" data-name="Rectangle 3831" width="7.36" height="7.36" transform="translate(273.751 238.493)" fill="#6c63ff" opacity="0.1"/>
      <rect id="Rectangle_3832" data-name="Rectangle 3832" width="7.36" height="7.36" transform="translate(245.654 256.647)" fill="#1f8ced" opacity="0.1"/>
      <rect id="Rectangle_3833" data-name="Rectangle 3833" width="7.36" height="7.36" transform="translate(273.751 256.647)" fill="#6c63ff" opacity="0.1"/>
      <rect id="Rectangle_3834" data-name="Rectangle 3834" width="7.36" height="7.36" transform="translate(245.654 274.799)" fill="#1f8ced" opacity="0.1"/>
      <rect id="Rectangle_3835" data-name="Rectangle 3835" width="7.36" height="7.36" transform="translate(273.751 274.799)" fill="#6c63ff" opacity="0.1"/>
      <rect id="Rectangle_3836" data-name="Rectangle 3836" width="7.36" height="7.36" transform="translate(245.654 292.953)" fill="#1f8ced" opacity="0.1"/>
      <rect id="Rectangle_3837" data-name="Rectangle 3837" width="7.36" height="7.36" transform="translate(273.751 292.953)" fill="#6c63ff" opacity="0.1"/>
      <rect id="Rectangle_3838" data-name="Rectangle 3838" width="7.36" height="7.36" transform="translate(245.654 311.107)" fill="#1f8ced" opacity="0.1"/>
      <rect id="Rectangle_3839" data-name="Rectangle 3839" width="7.36" height="7.36" transform="translate(273.751 311.107)" fill="#1f8ced" opacity="0.1"/>
      <path id="Path_1265" data-name="Path 1265" d="M775.83,707.076V702.33h7.357V706.4Z" transform="translate(-530.176 -373.071)" fill="#1f8ced" opacity="0.1"/>
      <path id="Path_1266" data-name="Path 1266" d="M65.24,357v4.211H90.428V357Zm2.51,3.947H65.7v-3.688h2.07Zm2.508,0h-2.07v-3.688h2.07Zm2.5,0H70.69v-3.688h2.07Zm2.508,0H73.2v-3.688h2.07Zm2.505,0H75.7v-3.688h2.07Zm2.508,0h-2.07v-3.688h2.07Zm2.508,0h-2.07v-3.688h2.07Zm2.505,0h-2.07v-3.688h2.07Zm2.505,0h-2.07v-3.688H87.8Zm2.505,0h-2.07v-3.688H90.3Z" transform="translate(-15.706 -132.283)" fill="#1f8ced" opacity="0.1"/>
      <path id="Path_1267" data-name="Path 1267" d="M65.24,404.34v4.211H90.428V404.34Zm2.51,3.944H65.7v-3.677h2.07Zm2.508,0h-2.07v-3.677h2.07Zm2.5,0H70.69v-3.677h2.07Zm2.508,0H73.2v-3.677h2.07Zm2.505,0H75.7v-3.677h2.07Zm2.508,0h-2.07v-3.677h2.07Zm2.508,0h-2.07v-3.677h2.07Zm2.505,0h-2.07v-3.677h2.07Zm2.505,0h-2.07v-3.677H87.8Zm2.505,0h-2.07v-3.677H90.3Z" transform="translate(-15.706 -167.371)" fill="#1f8ced" opacity="0.1"/>
      <path id="Path_1268" data-name="Path 1268" d="M65.24,451.7v4.218H90.428V451.7Zm2.51,3.944H65.7v-3.68h2.07Zm2.508,0h-2.07v-3.68h2.07Zm2.5,0H70.69v-3.68h2.07Zm2.508,0H73.2v-3.68h2.07Zm2.505,0H75.7v-3.68h2.07Zm2.508,0h-2.07v-3.68h2.07Zm2.508,0h-2.07v-3.68h2.07Zm2.505,0h-2.07v-3.68h2.07Zm2.505,0h-2.07v-3.68H87.8Zm2.505,0h-2.07v-3.68H90.3Z" transform="translate(-15.706 -202.475)" fill="#1f8ced" opacity="0.1"/>
      <path id="Path_1269" data-name="Path 1269" d="M65.24,499.06v4.205H90.428V499.06ZM67.75,503H65.7v-3.683h2.07Zm2.508,0h-2.07v-3.683h2.07Zm2.5,0H70.69v-3.683h2.07Zm2.508,0H73.2v-3.683h2.07Zm2.505,0H75.7v-3.683h2.07Zm2.508,0h-2.07v-3.683h2.07Zm2.508,0h-2.07v-3.683h2.07Zm2.505,0h-2.07v-3.683h2.07Zm2.505,0h-2.07v-3.683H87.8Zm2.505,0h-2.07v-3.683H90.3Z" transform="translate(-15.706 -237.579)" fill="#1f8ced" opacity="0.1"/>
      <path id="Path_1270" data-name="Path 1270" d="M65.66,546.41c.1.4.215.792.334,1.183v-.919h2.07v3.68H66.957c.034.085.067.179.1.259H90.74v-4.2Zm4.917,3.944h-2.07v-3.68h2.07Zm2.5,0h-2.07v-3.68h2.07Zm2.508,0H73.512v-3.68h2.07Zm2.505,0h-2.07v-3.68h2.07Zm2.508,0H78.53v-3.68H80.6Zm2.508,0h-2.07v-3.68h2.07Zm2.505,0h-2.07v-3.68h2.07Zm2.505,0h-2.07v-3.68h2.07Zm2.505,0h-2.07v-3.68h2.07Z" transform="translate(-16.017 -272.675)" fill="#1f8ced" opacity="0.1"/>
      <path id="Path_1271" data-name="Path 1271" d="M88.26,593.77c.065.083.127.176.194.259h1.369V595.8c.148.176.292.352.443.518v-2.3h2.07v3.693H91.5c.083.085.163.176.259.259H107.5v-4.2Zm6.576,3.941h-2.07v-3.677h2.07Zm2.508,0h-2.07v-3.677h2.07Zm2.508,0h-2.07v-3.677h2.07Zm2.505,0h-2.07v-3.677h2.07Zm2.505,0h-2.07v-3.677h2.07Zm2.505,0H105.3v-3.677h2.07Z" transform="translate(-32.769 -307.778)" fill="#1f8ced" opacity="0.1"/>
      <path id="Path_1272" data-name="Path 1272" d="M141.65,641.12c.236.135.476.259.719.393v-.129h2.07v1.165l.44.2v-1.369h2.07v2.239a.645.645,0,0,0,.124.047V641.12Z" transform="translate(-72.342 -342.875)" fill="#6c63ff" opacity="0.1"/>
      <path id="Path_1273" data-name="Path 1273" d="M354.03,281.539Zm-15.942,76.38Zm-16.633-38.863c.049.166.091.331.137.494h0C321.552,319.388,321.508,319.222,321.456,319.056Zm32.574-37.525ZM197.72,242.78v1.105h11.56V242.78ZM338.089,357.919Zm-16.633-38.863c.049.166.091.331.137.494h0C321.552,319.388,321.508,319.222,321.456,319.056Zm32.574-37.525Zm-15.942,76.38Zm-16.633-38.855c.049.166.091.331.137.494h0C321.552,319.388,321.508,319.222,321.456,319.056Z" transform="translate(-113.901 -47.622)" fill="#1f8ced" opacity="0.1"/>
      <path id="Path_1274" data-name="Path 1274" d="M350.8,275.13s-1.02-.142-1.02-1.628a23.271,23.271,0,0,0-.73-4.26h0c0-.013-.631-4.832-1.5-5.6s-1.993-5.264-1.993-5.264a10.611,10.611,0,0,0-.582-2.966,25.2,25.2,0,0,1-1.7-3.646c-.779-1.835-4.027-3.106-4.027-3.106s-5.872-3.406-7.536-4.516h0a2.557,2.557,0,0,1-.422-.318c-.29-.38-1.553-.388-1.553-.388a25.461,25.461,0,0,1-.3-2.658,2.031,2.031,0,0,0-.013-.279,8.954,8.954,0,0,0,3.936-4.87c.031-.1.057-.2.085-.3a.841.841,0,0,0,.5-.455,9.49,9.49,0,0,1,.339-1.035,3.9,3.9,0,0,1,.957-.841,3.623,3.623,0,0,0,1-2.948c-.026-.867-.166-1.742-.111-2.6l.016-.217c.016-.129.034-.259.057-.383.127-.642.4-1.247.559-1.884a2.423,2.423,0,0,0-.191-1.9,3.306,3.306,0,0,0-2.606-1.048c-1.1-.093-2.083.028-2.787-.885a9.931,9.931,0,0,0-1.108-1.338c-.145-.135-1.553-.994-1.553-1.051a6.291,6.291,0,0,0-4.387-.336c-.73.212-1.418.559-2.158.732-1.6.378-3.434-.031-4.79.882a5.63,5.63,0,0,0-1.633,2.143q-.518.991-1.051,1.98a12.826,12.826,0,0,0-1.395,3.388,5.379,5.379,0,0,0-.093.792h0v.422a1.394,1.394,0,0,0,.016.259c.016.08.013.106.021.16s.021.176.036.259.047.228.078.342c.013.049.031.1.047.142.026.088.057.173.091.259.018.044.036.091.057.135a2.414,2.414,0,0,0,.132.259c.021.036.036.07.057.1a3.435,3.435,0,0,0,.238.347c.554.691,1.369,1.131,1.972,1.778v.29a8.858,8.858,0,0,0,4.032,7.233c0,.1.013.2.018.3a14.8,14.8,0,0,1-.029,2.306,1.087,1.087,0,0,0-.859-.383,1.238,1.238,0,0,0-.331.028l-.023-.018h0v.023c-.569.14-1.271.732-1.941,2.417,0,0-2.039,2.3-3.592,2.2s-5.484,2.391-5.484,2.391-3.835,2.49-4.658,5.026a35.417,35.417,0,0,1-1.651,4.213l-4.741,9.769h0l-.875,7.751a35.969,35.969,0,0,1,.388,3.972c-.1.525,1.99,5.264,1.99,5.264s6.892,12.109,9.707,12.73l.2-.142a1.652,1.652,0,0,0,.38.142l.58-.409a6.316,6.316,0,0,1-.044,1.366c-.388,1.2.145,9,.823,10.528s.437,21.583.437,21.583l-.1,1.77a.75.75,0,0,0,.023.155l-.023.419.07.036a4.984,4.984,0,0,1-.07,1.685,18.734,18.734,0,0,0-.342,2.971s-1.938,12.391-1.02,14.881,1.7,5.217,1.7,5.217.97,3.106.047,3.636-3.551,1.421-3.01,2.715c.492,1.2,2.358,4.4,2.635,4.868l-.023.246-.38,4.123a5.175,5.175,0,0,0,.437,1.573,2.711,2.711,0,0,0,2.766,1.729c.259-.018.559-.049.849-.088a36.68,36.68,0,0,0,6.289-1.636,2.564,2.564,0,0,1-.492-.406h0a1.42,1.42,0,0,1-.432-1.035c.041-.75-1.364-4.327-1.713-5.207-.054-.127-.083-.2-.083-.2s3.2-3.349,2.671-6.317c0,0-3.545-2.07-2.378-3.206a36.155,36.155,0,0,0,3.253-4.4s.1-12.2,0-14.024a15.09,15.09,0,0,1,.179-3.786c.039-.189.085-.373.135-.554a33.793,33.793,0,0,0,4.876.37c.6,0,1.2,0,1.812-.036q0,.259.023.559c.135,3.023.386,8.323.59,10.292.29,2.823,1.892,10.432,1.892,10.432s-3.056,1.962.533,6.8a6.552,6.552,0,0,1-.238,2.006h0a21.93,21.93,0,0,0-.613,2.526,4.453,4.453,0,0,0,.031,2.311c.582,1.144,4.076,1.051,4.076,1.051h0l.085-.016a5.008,5.008,0,0,1,3.7,1.115c1.328,1.066,6.366.6,9.094.259,1.069-.135,1.783-.259,1.783-.259a1.037,1.037,0,0,0,.036-.373h0c-.029-.67-.554-2.14-4.115-3.452,0,0-3.349-2.251-3.3-4.213h-.458a3.634,3.634,0,0,1,.463,0s-1.312-4.788-.776-5.176-1.069-5.693-1.069-5.693-.919-8.9-.968-9.526a5.435,5.435,0,0,1,.241-1.579l-.241-4.881s-.047-1.623,0-2.151a10.736,10.736,0,0,0-.111-1.369c-.023-.181-.047-.37-.072-.556,1.255-.318,2.07-.613,2.07-.613l-.145-16.99c1.066-2.07,1.263-6.612,1.258-9.834,0-2.07-.093-3.6-.093-3.6l1.457-2.378s.336-2.847-.2-3.47a.6.6,0,0,1,.065-.815,2.711,2.711,0,0,1,.318-.217s-.016-.023-.034-.057a2.569,2.569,0,0,1,.324-.23s-.518-.8-.054-1.141c.435.3.823.518,1.118.7-.021.189-.041.3-.041.3l.124-.259.458.259s2.283-4.547,2.233-5.217,1.553-3.494,1.553-3.494a3.5,3.5,0,0,1,1.069-2.1c.875-.621.678-5.121.678-5.121a11.032,11.032,0,0,1,.826-3.3C351.912,276.421,350.8,275.13,350.8,275.13Zm-43.674-2,.044,1.084-.445-.717Z" transform="translate(-186.465 -29.372)" fill="url(#linear-gradient)"/>
      <path id="Path_1275" data-name="Path 1275" d="M469.546,494.224l-.559,2.381s-4.477-2.285-5.285-5.189a3.284,3.284,0,0,1,1.351-4.006l4.172,1.768Z" transform="translate(-310.915 -228.943)" fill="#fff"/>
      <path id="Path_1276" data-name="Path 1276" d="M469.546,494.224l-.559,2.381s-4.477-2.285-5.285-5.189a3.284,3.284,0,0,1,1.351-4.006l4.172,1.768Z" transform="translate(-310.915 -228.943)" opacity="0.1"/>
      <path id="Path_1277" data-name="Path 1277" d="M360.7,799.848a32.172,32.172,0,0,1-6.987,1.713A2.659,2.659,0,0,1,351,799.843a5.2,5.2,0,0,1-.427-1.566l.37-4.1.2-2.184,6.048-1.571.857,2.619.08.2c.344.875,1.724,4.433,1.682,5.176a1.413,1.413,0,0,0,.424,1.022,2.461,2.461,0,0,0,.471.411Z" transform="translate(-227.195 -453.537)" fill="#fff"/>
      <path id="Path_1278" data-name="Path 1278" d="M445.763,796.984a1.033,1.033,0,0,1-.036.37s-8.856,1.478-10.667,0a4.8,4.8,0,0,0-3.727-1.092s-3.426.093-4-1.035a4.493,4.493,0,0,1-.029-2.3,21.888,21.888,0,0,1,.6-2.513l.137-.109.815-.655,9.544-.282h.073c-.047,1.951,3.24,4.19,3.24,4.19C445.206,794.854,445.721,796.316,445.763,796.984Z" transform="translate(-283.975 -452.758)" fill="#fff"/>
      <path id="Path_1279" data-name="Path 1279" d="M445.767,807.175a1.057,1.057,0,0,1-.039.37s-8.853,1.478-10.665,0a4.8,4.8,0,0,0-3.724-1.092s-3.429.093-4-1.035a4.488,4.488,0,0,1-.031-2.3c1.32.132,3.4.461,4.221,1.245a9.371,9.371,0,0,0,4.619,2.477C437.157,806.906,443.179,807.1,445.767,807.175Z" transform="translate(-283.979 -462.95)" opacity="0.1"/>
      <path id="Path_1280" data-name="Path 1280" d="M361.93,825.708a32.171,32.171,0,0,1-6.987,1.713,2.652,2.652,0,0,1-2.712-1.721c1.053.355,2.515.727,3.284.386a29.283,29.283,0,0,1,5.952-.776A2.548,2.548,0,0,0,361.93,825.708Z" transform="translate(-228.425 -479.398)" opacity="0.1"/>
      <path id="Path_1281" data-name="Path 1281" d="M393.732,308.527c-3.416-1.328-7.81-5.714-6.713-7.764a4.585,4.585,0,0,0,.427-1.646,15.025,15.025,0,0,0,.031-2.329,31.887,31.887,0,0,0-.458-3.789s10.665.241,10.044,1.811a5.875,5.875,0,0,0-.16,2.156c.049.9.179,1.907.313,2.764.186,1.175.373,2.07.373,2.07s-.652.914-1.035.963S398.633,310.419,393.732,308.527Z" transform="translate(-254.084 -84.845)" fill="#cf6f80"/>
      <path id="Path_1282" data-name="Path 1282" d="M359.151,793.238l-.08.088c-3.188-3.856-7.044.95-7.044.95l-.057-.1.2-2.184,6.048-1.571.857,2.619Z" transform="translate(-228.232 -453.537)" opacity="0.1"/>
      <path id="Path_1283" data-name="Path 1283" d="M440.585,789.612a6.125,6.125,0,0,0-3.571,1.048c-1.242,1.1-7.246.238-6.987,0a.853.853,0,0,0,.135-.393l.815-.655,9.544-.282C440.557,789.5,440.585,789.612,440.585,789.612Z" transform="translate(-286.083 -452.729)" opacity="0.1"/>
      <path id="Path_1284" data-name="Path 1284" d="M355.574,658.771a7.2,7.2,0,0,0-.393,1.328,15.191,15.191,0,0,0-.179,3.768c.1,1.812,0,13.952,0,13.952a37.143,37.143,0,0,1-3.188,4.379c-1.141,1.141,2.329,3.191,2.329,3.191.518,2.95-2.619,6.284-2.619,6.284-3.188-3.856-7.044.952-7.044.952s-2.1-3.623-2.619-4.917,2.047-2.189,2.95-2.715-.044-3.623-.044-3.623-.763-2.715-1.669-5.191,1-14.805,1-14.805a19.11,19.11,0,0,1,.334-2.953,4.935,4.935,0,0,0,.07-1.677c-.016-.189-.034-.347-.047-.453s-.023-.155-.023-.155l.036-.062,1.294-2.412S356.2,657.252,355.574,658.771Z" transform="translate(-220.688 -352.169)" fill="#1f8ced"/>
      <path id="Path_1285" data-name="Path 1285" d="M432.574,696.017A6.178,6.178,0,0,0,429,697.052c-1.242,1.084-7.246.238-6.987,0s.238-2,.238-2c-3.522-4.808-.518-6.76-.518-6.76s-1.573-7.57-1.858-10.378c-.2-1.962-.445-7.233-.577-10.243-.057-1.294-.091-2.184-.091-2.184l2.878-.58.37-.075,6.941-1.392s.191,1.294.321,2.352a11.019,11.019,0,0,1,.109,1.364c-.047.518,0,2.138,0,2.138l.236,4.857a5.516,5.516,0,0,0-.236,1.571c.047.619.95,9.474.95,9.474s1.571,5.285,1.035,5.665S432.574,696.017,432.574,696.017Z" transform="translate(-278.071 -359.418)" fill="#1f8ced"/>
      <path id="Path_1286" data-name="Path 1286" d="M397.554,294.811a5.874,5.874,0,0,0-.16,2.156,8.864,8.864,0,0,1-9.425-.176A31.9,31.9,0,0,0,387.51,293S398.175,293.235,397.554,294.811Z" transform="translate(-254.575 -84.845)" opacity="0.1"/>
      <path id="Path_1287" data-name="Path 1287" d="M391.537,252.536a8.766,8.766,0,0,1-.435,2.746,8.856,8.856,0,0,1-17.272-2.534v-.212a8.855,8.855,0,1,1,17.71,0Z" transform="translate(-244.435 -48.289)" fill="#cf6f80"/>
      <path id="Path_1288" data-name="Path 1288" d="M393.732,326.05c-3.416-1.328-7.81-5.714-6.713-7.764a4.586,4.586,0,0,0,.427-1.646l4.676,3.843,2.893,2.373,2.2-5.6c.186,1.175.373,2.07.373,2.07s-.652.914-1.035.963S398.633,327.941,393.732,326.05Z" transform="translate(-254.084 -102.367)" opacity="0.1"/>
      <path id="Path_1289" data-name="Path 1289" d="M349.4,283.226l-3.905,65.6-5.093.334-13.188-38.04,2.164-45.162.455-9.542,5.864,4.816,2.9,2.373,2.264-5.763,4.211,3.67Z" transform="translate(-197.655 -42.559)" fill="#1f8ced"/>
      <path id="Path_1290" data-name="Path 1290" d="M363.141,658.83a7.193,7.193,0,0,0-.393,1.328,37.525,37.525,0,0,1-10.678-3.336l-.07-.036.023-.417.013-.217,1.294-2.412S363.762,657.311,363.141,658.83Z" transform="translate(-228.255 -352.229)" opacity="0.1"/>
      <path id="Path_1291" data-name="Path 1291" d="M422.1,671.6a26.2,26.2,0,0,1-2.862.326c-.057-1.294-.091-2.184-.091-2.184l2.878-.58Z" transform="translate(-278.027 -363.658)" opacity="0.1"/>
      <path id="Path_1292" data-name="Path 1292" d="M438.962,665.842a20.087,20.087,0,0,1-7.225.681l-.036-1.641,6.941-1.392S438.832,664.771,438.962,665.842Z" transform="translate(-287.329 -359.455)" opacity="0.1"/>
      <path id="Path_1293" data-name="Path 1293" d="M335.555,408.522c-10.61,1.812-20.328-3.382-20.328-3.382l.093-1.76s.241-19.95-.427-21.48-1.188-9.285-.81-10.476-1.379-19.042-1.379-19.042l-.285-7.246L302,340.916l4.658-9.71a35.043,35.043,0,0,0,1.62-4.192c.81-2.521,4.57-5,4.57-5s3.856-2.474,5.38-2.381,3.522-2.189,3.522-2.189c1.475-3.76,2.81-2.057,2.81-2.057a3.36,3.36,0,0,1-.072.556c-.518,4.128,8.369,17.171,8.5,17.4h0l.846,20.615.857,26.089Z" transform="translate(-191.194 -101.155)" opacity="0.1"/>
      <path id="Path_1294" data-name="Path 1294" d="M334.433,408.478c-10.61,1.812-20.331-3.382-20.331-3.382l.1-1.76s.241-19.95-.43-21.48-1.188-9.285-.807-10.476-1.379-19.042-1.379-19.042l-.287-7.246-10.424-4.236,4.658-9.71a35.588,35.588,0,0,0,1.62-4.192c.807-2.521,4.57-5,4.57-5s3.856-2.474,5.378-2.381,3.522-2.189,3.522-2.189c1.478-3.76,3.105-2.057,3.105-2.057,0,.179-.155.259-.072.556,1.139,4,8.085,17.171,8.211,17.4h0l.857,20.615.857,26.089Z" transform="translate(-190.357 -101.11)" fill="#fff"/>
      <path id="Path_1295" data-name="Path 1295" d="M391.515,335.59c-1.141-.476-7.187-7.378-7.187-7.378v-1.571c-.22-.518-1.527-.2-2.588.16l.456-9.542.518.43C383.847,321.69,391.383,335.36,391.515,335.59Z" transform="translate(-250.298 -102.827)" opacity="0.1"/>
      <path id="Path_1296" data-name="Path 1296" d="M392.617,333.38c-1.144-.476-7.189-7.378-7.189-7.378v-1.571c-.22-.518-1.527-.2-2.588.16l.458-9.542.518.43C384.952,319.48,392.49,333.152,392.617,333.38Z" transform="translate(-251.114 -101.189)" fill="#fff"/>
      <path id="Path_1297" data-name="Path 1297" d="M351.442,516.711c.142,0,7.378-.761,7.378-.761s4.381,8.615,4.094,10.711-.807,3.952-2.57,3.623-9.485.259-9.485.259Z" transform="translate(-227.41 -250.098)" opacity="0.1"/>
      <path id="Path_1298" data-name="Path 1298" d="M350.332,514.5c.142,0,7.378-.761,7.378-.761s4.379,8.618,4.094,10.711-.81,3.952-2.57,3.623-9.485.259-9.485.259Z" transform="translate(-226.587 -248.459)" fill="#fff"/>
      <path id="Path_1299" data-name="Path 1299" d="M361.737,501.05s6.641,3.569,6.783,4.658-3.38-.476-4.141-.665a9.488,9.488,0,0,0-1.524-.238l-5.075.137Z" transform="translate(-232.539 -239.053)" fill="#cf6f80"/>
      <circle id="Ellipse_6" data-name="Ellipse 6" cx="0.699" cy="0.699" r="0.699" transform="translate(138.665 231.811)" opacity="0.1"/>
      <circle id="Ellipse_7" data-name="Ellipse 7" cx="0.699" cy="0.699" r="0.699" transform="translate(138.665 231.526)" fill="#3f3d56"/>
      <circle id="Ellipse_8" data-name="Ellipse 8" cx="0.699" cy="0.699" r="0.699" transform="translate(139.951 262.059)" opacity="0.1"/>
      <circle id="Ellipse_9" data-name="Ellipse 9" cx="0.699" cy="0.699" r="0.699" transform="translate(139.951 261.771)" fill="#3f3d56"/>
      <circle id="Ellipse_10" data-name="Ellipse 10" cx="0.699" cy="0.699" r="0.699" transform="translate(139.361 246.935)" opacity="0.1"/>
      <circle id="Ellipse_11" data-name="Ellipse 11" cx="0.699" cy="0.699" r="0.699" transform="translate(139.361 246.65)" fill="#3f3d56"/>
      <path id="Path_1300" data-name="Path 1300" d="M439.938,369.618s.476.714,0,1.048.047,1.141.047,1.141-1.188.7-.665,1.322.191,3.455.191,3.455l-1.429,2.365s.085,1.524.091,3.584c0,3.214-.189,7.733-1.234,9.793l.145,16.9s-5,1.827-9.19,1.271l-.621-27.121s.906-15.38,1.24-18.33a30.713,30.713,0,0,0,.238-4.619,51.613,51.613,0,0,0-.621-6.76s-.518-9.283-.569-11.853c-.023-1.229.041-4.816.114-8.227.08-3.729.171-7.246.171-7.246l-.945-7.474s.945-.1,1.229.285a2.728,2.728,0,0,0,.414.318h0c1.63,1.1,7.391,4.493,7.391,4.493s3.188,1.268,3.952,3.085a26.883,26.883,0,0,0,1.664,3.623,11.182,11.182,0,0,1,.572,2.95s1.1,4.477,1.954,5.235,1.483,5.582,1.483,5.582l-7.57,5.952s-.665,9.9-.807,10.284S439.938,369.618,439.938,369.618Z" transform="translate(-283.771 -104.012)" fill="#fff"/>
      <path id="Path_1301" data-name="Path 1301" d="M440.173,369.382s.474.714,0,1.048.044,1.141.044,1.141-1.18.7-.663,1.33.192,3.455.192,3.455l-1.429,2.365s.085,1.524.093,3.584c0,3.214-.189,7.733-1.234,9.793l.142,16.9s-5.01,1.827-9.192,1.271l-.619-27.121s.906-15.38,1.24-18.33a30.433,30.433,0,0,0,.236-4.619,51.927,51.927,0,0,0-.618-6.76s-.518-9.283-.572-11.853c-.023-1.229.044-4.816.114-8.227.08-3.729.171-7.246.171-7.246l-1.247-7.575s1.247,0,1.535.386a2.454,2.454,0,0,0,.414.318h0c1.63,1.1,7.394,4.493,7.394,4.493s3.186,1.268,3.949,3.085a26.458,26.458,0,0,0,1.667,3.623,11.051,11.051,0,0,1,.569,2.95s1.1,4.477,1.954,5.235,1.475,5.572,1.475,5.572l-7.57,5.952s-.665,9.9-.81,10.284S440.173,369.382,440.173,369.382Z" transform="translate(-283.719 -103.776)" fill="#fff"/>
      <path id="Path_1302" data-name="Path 1302" d="M431.931,329.935l.683,1.993-3.6,3.623c.08-3.727.171-7.246.171-7.246l-1.247-7.575s1.247,0,1.535.386a2.359,2.359,0,0,0,.414.316h0l3.059,8.825Z" transform="translate(-284.542 -105.399)" opacity="0.1"/>
      <path id="Path_1303" data-name="Path 1303" d="M430.821,327.725l.686,1.993-3.6,3.623c.08-3.729.171-7.246.171-7.246l-1.25-7.575s1.25,0,1.535.386a2.591,2.591,0,0,0,.414.318h0l3.062,8.822Z" transform="translate(-283.719 -103.761)" fill="#fff"/>
      <path id="Path_1304" data-name="Path 1304" d="M391.537,252.536a8.764,8.764,0,0,1-.435,2.746.37.37,0,0,1-.279-.07,11.425,11.425,0,0,0-2.624-6.377,6.7,6.7,0,0,0-1.423-1.475,2.784,2.784,0,0,0-1.931-.546c-.776.106-1.462.634-2.246.7-1.035.085-1.962-.631-2.989-.668a2.937,2.937,0,0,0-2.2,1.02,6.027,6.027,0,0,0-1.178,2.184,12.779,12.779,0,0,0-.657,3.768c-.013.725-.083,1.633-.756,1.9a3.866,3.866,0,0,0-.976-2.953l-.016-.016v-.212a8.855,8.855,0,1,1,17.71,0Z" transform="translate(-244.435 -48.289)" opacity="0.1"/>
      <path id="Path_1305" data-name="Path 1305" d="M378.6,221.909a6.1,6.1,0,0,0-4.3-.336c-.717.212-1.392.556-2.119.73-1.553.375-3.364-.031-4.7.877a5.618,5.618,0,0,0-1.6,2.13l-1.035,1.972a12.8,12.8,0,0,0-1.369,3.364,4.3,4.3,0,0,0,.66,3.473c.549.7,1.359,1.134,1.954,1.788a3.882,3.882,0,0,1,.973,2.95c.675-.259.74-1.17.756-1.894a12.779,12.779,0,0,1,.657-3.768,6.007,6.007,0,0,1,1.178-2.184,2.943,2.943,0,0,1,2.2-1.02c1.035.036,1.964.75,2.989.665.776-.065,1.465-.6,2.246-.7a2.774,2.774,0,0,1,1.931.546,6.631,6.631,0,0,1,1.421,1.475,11.4,11.4,0,0,1,2.627,6.377c.292.215.714-.065.859-.4a9.464,9.464,0,0,1,.334-1.035,3.817,3.817,0,0,1,.937-.833,3.663,3.663,0,0,0,.978-2.932,14.609,14.609,0,0,1-.036-3.188c.122-.642.4-1.242.546-1.876a2.453,2.453,0,0,0-.186-1.892,3.187,3.187,0,0,0-2.557-1.035c-1.079-.093-2.044.026-2.733-.883a9.916,9.916,0,0,0-1.087-1.33C379.988,222.82,378.6,221.966,378.6,221.909Z" transform="translate(-236.689 -31.722)" fill="#512e4e"/>
      <path id="Path_1306" data-name="Path 1306" d="M303.321,420.13l-2.7-5-.857,7.715a35.756,35.756,0,0,1,.38,3.952c-.1.525,1.951,5.235,1.951,5.235s6.762,12.044,9.524,12.665l9.329-6.666-2.474-3.142s-.857-.334-1.071,0c0,0-4.594-7.9-5.07-8.475a2.855,2.855,0,0,1-.383-1.713s-.714-.761-.476-1.475-1.379-3.191-1.379-3.191l1.475-1.379Z" transform="translate(-189.534 -175.369)" opacity="0.1"/>
      <path id="Path_1307" data-name="Path 1307" d="M299.121,412.93l-.714.569-.857,7.715a35.763,35.763,0,0,1,.38,3.952c-.1.525,1.954,5.235,1.954,5.235s6.76,12.044,9.521,12.665l9.332-6.667-2.477-3.142s-.857-.334-1.071,0c0,0-4.594-7.9-5.07-8.475a2.846,2.846,0,0,1-.38-1.713s-.714-.761-.476-1.475-1.382-3.191-1.382-3.191l1.475-1.379Z" transform="translate(-187.896 -173.738)" fill="#fff"/>
      <path id="Path_1308" data-name="Path 1308" d="M459.426,516.509c.518.629.191,3.452.191,3.452l-1.428,2.365s.085,1.527.091,3.584l-2.4.751a1.426,1.426,0,0,1-1.85-1.405l.414-13.356,5.6,2.143c-.476.331.047,1.144.047,1.144S458.9,515.88,459.426,516.509Z" transform="translate(-303.878 -247.096)" opacity="0.1"/>
      <path id="Path_1309" data-name="Path 1309" d="M460.529,515.406c.518.629.191,3.455.191,3.455l-1.429,2.365s.085,1.524.093,3.584l-2.446.763a1.4,1.4,0,0,1-1.812-1.377l.417-13.4,5.605,2.143c-.479.331.044,1.141.044,1.141S460.012,514.78,460.529,515.406Z" transform="translate(-304.694 -246.28)" fill="#fff"/>
      <path id="Path_1310" data-name="Path 1310" d="M470.332,498.031s-.38,2.43-1.333,2.572-1.379,3.931-2.329,3.8-.321-3.522-.287-4.18-1.035-3.38-.236-4,3.331,0,3.331,0Z" transform="translate(-312.641 -235.272)" fill="#cf6f80"/>
      <path id="Path_1311" data-name="Path 1311" d="M469.56,421.313l1.8-3.623a23.524,23.524,0,0,1,.714,4.236c0,1.475,1,1.62,1,1.62s1.095,1.294.518,2.236a10.852,10.852,0,0,0-.81,3.287s.189,4.475-.668,5.093a3.466,3.466,0,0,0-1.035,2.1s-1.573,2.808-1.524,3.476-2.189,5.189-2.189,5.189,1.095-5.618-5.285-8.046c0,0-.049-1.907.427-2.43s1.219-.761.753-3.4a30.862,30.862,0,0,1-.135-6.434,40.514,40.514,0,0,1,1.429-4.588Z" transform="translate(-309.843 -177.266)" opacity="0.1"/>
      <path id="Path_1312" data-name="Path 1312" d="M471.886,415.69l1.568.518a23.446,23.446,0,0,1,.717,4.236c0,1.475,1,1.62,1,1.62s1.095,1.294.518,2.236a10.825,10.825,0,0,0-.807,3.287s.189,4.475-.668,5.093a3.514,3.514,0,0,0-1.048,2.1s-1.571,2.808-1.522,3.476-2.192,5.189-2.192,5.189,1.1-5.618-5.284-8.046c0,0-.047-1.907.43-2.43s1.219-.761.753-3.4a30.862,30.862,0,0,1-.135-6.434,40.515,40.515,0,0,1,1.429-4.588Z" transform="translate(-311.392 -175.784)" fill="#fff"/>
      <path id="Path_1313" data-name="Path 1313" d="M360.15,776.139s2.5-1.571,4.141-.43S360.15,776.139,360.15,776.139Z" transform="translate(-234.296 -442.325)" opacity="0.1"/>
      <path id="Path_1314" data-name="Path 1314" d="M435.21,759.75a5.06,5.06,0,0,1,4.071,1.716C441.139,763.466,435.21,759.75,435.21,759.75Z" transform="translate(-289.931 -430.794)" opacity="0.1"/>
      <g id="Group_4798" data-name="Group 4798" transform="translate(126.691 195.293)" opacity="0.1">
        <path id="Path_1315" data-name="Path 1315" d="M395.806,258.586a3.84,3.84,0,0,0-.939.836,9.471,9.471,0,0,0-.331,1.035c-.145.336-.567.611-.859.4a11.443,11.443,0,0,0-2.627-6.379A6.631,6.631,0,0,0,389.628,253a2.782,2.782,0,0,0-1.933-.546c-.776.106-1.46.634-2.244.7-1.035.088-1.964-.629-2.992-.665a2.93,2.93,0,0,0-2.195,1.022,5.994,5.994,0,0,0-1.178,2.182,12.8,12.8,0,0,0-.657,3.768c-.016.722-.083,1.623-.751,1.892a3.54,3.54,0,0,1,0,.575c.673-.259.74-1.17.756-1.894a12.781,12.781,0,0,1,.657-3.768,6.007,6.007,0,0,1,1.177-2.184,2.938,2.938,0,0,1,2.195-1.02c1.035.036,1.967.751,2.992.665.776-.065,1.465-.6,2.244-.7a2.782,2.782,0,0,1,1.933.546,6.63,6.63,0,0,1,1.421,1.475,11.412,11.412,0,0,1,2.627,6.377c.292.215.714-.065.859-.4a10.05,10.05,0,0,1,.331-1.035,3.831,3.831,0,0,1,.939-.833,3.663,3.663,0,0,0,.978-2.932v-.1A3.4,3.4,0,0,1,395.806,258.586Z" transform="translate(-373.98 -250.076)"/>
        <path id="Path_1316" data-name="Path 1316" d="M366.106,264.285c-.6-.655-1.408-1.092-1.954-1.786a3.789,3.789,0,0,1-.753-2.12,3.985,3.985,0,0,0,.753,2.689c.546.7,1.359,1.133,1.954,1.788a3.882,3.882,0,0,1,.976,2.308A3.882,3.882,0,0,0,366.106,264.285Z" transform="translate(-363.385 -255.96)"/>
        <path id="Path_1317" data-name="Path 1317" d="M451.65,243.812c-.153.634-.424,1.237-.549,1.876a5.978,5.978,0,0,0-.08,1.294,5.032,5.032,0,0,1,.08-.735c.124-.642.4-1.242.549-1.876a3.182,3.182,0,0,0,.085-1.071A3.6,3.6,0,0,1,451.65,243.812Z" transform="translate(-428.337 -243.3)"/>
      </g>
      <ellipse id="Ellipse_12" data-name="Ellipse 12" cx="25.217" cy="4.05" rx="25.217" ry="4.05" transform="translate(54.009 336.236)" fill="#1f8ced" opacity="0.1"/>
      <rect id="Rectangle_3840" data-name="Rectangle 3840" width="1.623" height="36.534" transform="translate(78.415 262.7)" fill="#535461"/>
      <path id="Path_1318" data-name="Path 1318" d="M159.46,637.409l-.1,1.646-.145,2.329-.059.968-.142,2.329-.062.968-.145,2.329-1.636,26.415a4.477,4.477,0,0,1-4.467,4.2h-8.5a4.474,4.474,0,0,1-4.464-4.2l-1.628-26.433-.145-2.329-.06-.968-.145-2.329-.06-.968-.145-2.329-.1-1.646a2.329,2.329,0,0,1,2.329-2.461h17.393a2.314,2.314,0,0,1,2.288,2.479Z" transform="translate(-69.225 -338.286)" fill="#3f3d56"/>
      <path id="Path_1319" data-name="Path 1319" d="M112.4,592.24l-.145,2.321H90.725l-.145-2.321Z" transform="translate(-22.263 -291.471)" fill="#9d9cb5"/>
      <path id="Path_1320" data-name="Path 1320" d="M112.777,604.95l-.142,2.324H91.515l-.145-2.324Z" transform="translate(-22.848 -300.892)" fill="#9d9cb5"/>
      <path id="Path_1321" data-name="Path 1321" d="M113.158,617.68,113.016,620H92.3l-.145-2.321Z" transform="translate(-23.434 -310.328)" fill="#9d9cb5"/>
      <path id="Path_1322" data-name="Path 1322" d="M68.583,535.985c9.448,6.837,13.392,17.531,13.392,17.531s-11.387-.391-20.838-7.228S47.75,528.76,47.75,528.76,59.132,529.148,68.583,535.985Z" transform="translate(-2.742 -259.592)" fill="#1f8ced"/>
      <path id="Path_1323" data-name="Path 1323" d="M47.72,528.76s11.822,6.56,15.613,11.992,18.62,12.764,18.62,12.764" transform="translate(-2.72 -259.592)" fill="none" stroke="#535461" stroke-miterlimit="10" stroke-width="2"/>
      <path id="Path_1324" data-name="Path 1324" d="M119.34,492.194a22.977,22.977,0,0,1,7.293,9.539A20.828,20.828,0,0,1,108,488.26,22.914,22.914,0,0,1,119.34,492.194Z" transform="translate(-47.4 -229.574)" fill="#1f8ced"/>
      <path id="Path_1325" data-name="Path 1325" d="M108,488.26s6.434,3.571,8.5,6.527,10.137,6.946,10.137,6.946" transform="translate(-47.4 -229.574)" fill="none" stroke="#535461" stroke-miterlimit="10" stroke-width="2"/>
      <path id="Path_1326" data-name="Path 1326" d="M188.348,514.72A31.693,31.693,0,0,0,181.19,529.7a28.805,28.805,0,0,0,21.392-23.519A31.72,31.72,0,0,0,188.348,514.72Z" transform="translate(-101.649 -242.856)" fill="#1f8ced"/>
      <path id="Path_1327" data-name="Path 1327" d="M202.587,506.19s-7.7,6.656-9.653,11.242-11.744,12.275-11.744,12.275" transform="translate(-101.649 -242.863)" fill="none" stroke="#535461" stroke-miterlimit="10" stroke-width="2"/>
      <path id="Path_1328" data-name="Path 1328" d="M880.553,332.7s-4.273-21.257-2.637-23.9c0,0,.059-2.458-.039-5.592v-.36a7.955,7.955,0,0,0,.9.518,7.267,7.267,0,0,0,4.891.631l-1.294-1.441a2.389,2.389,0,0,1-.7-1.172,2.456,2.456,0,0,1,.28-1.268c1.229-3.105,1.294-7.011-1.074-9.381-2-1.993-2.487-4.565-4.658-6.384a13.456,13.456,0,0,1-3.281-5.176,29.11,29.11,0,0,1-1.8-4.9c-.31-1.322-.435-2.691-.862-3.983a5.069,5.069,0,0,0-2.477-3.124,9.344,9.344,0,0,1-1.346-.593,5.814,5.814,0,0,1-1.24-1.457c-1.959-2.588-8.519-1.064-11.625-.013a6.539,6.539,0,0,0-2.3,1.273l.028-.047c.023-.039.052-.078.078-.116a4.085,4.085,0,0,0-.869.97,23.261,23.261,0,0,0-1.02,2.329c-.456.919-2.989,3.483-1.9,4.516a.919.919,0,0,0,.259.166,2.238,2.238,0,0,0,1.294.129l-.047.111a7.562,7.562,0,0,0-.562,2.87,7.768,7.768,0,0,0,7.836,7.7,7.911,7.911,0,0,0,2.4-.37c.018.1.034.2.052.3a.9.9,0,0,0,.018.116h0l-.137.191a.268.268,0,0,0-.023-.034l-4.063,5.678c-.621.437-4.2,3.025-4.4,4.966-.212,2.125-.424,4.612-.424,4.612l-.028.533a1.6,1.6,0,0,1-1.294.349c-1.268-.207-1.268,4.658-1.268,4.658s-.844.776-1.423.1-2.112,1.607-2.112,1.607l-9.6.414h0l-.22.013-.518-1.6a.676.676,0,0,0-.846-.432.777.777,0,0,0-.116.049l-.036.021-.067.047-.034.031a.513.513,0,0,0-.052.054l-.031.036-.016.016h0a.652.652,0,0,0-.093.58l.445,1.374c-1.853.373-3.747,1.423-2.2,4.317l-7.831-1.447L825,313.309l13.079,2.7c-.173.31-.06.761.481,1.395,2.329,2.735,6.573,3.478,8.281,3.67a14.7,14.7,0,0,0,1.68,2.847l-.148,2.725s-4.324,20.771-5.116,21.824a12.3,12.3,0,0,0,1.095-1.441c-1.255,4.267-3.01,10.108-3.47,10.983-.74,1.4-1.426,7.052-.582,7.414a7.1,7.1,0,0,0,2.055-.023v.468l-.047,17.751s.212,10.887-.37,11.925a10.151,10.151,0,0,0-.738,3.214s-2.329,4.293-4.174,6.019a.276.276,0,0,1-.041.036l-.057-.4s-2.218,2.8-7.125,2.642c0,0-2.953,1.92,1.426,2.024s9.971-.155,9.971-.155,3.905-5.952,7.176-5.176v4.511h1v-4.583a4.107,4.107,0,0,0,1.783-2.7,3.281,3.281,0,0,0-1.17-3.036,1.941,1.941,0,0,1-.639-1.418l-.036.031a2.73,2.73,0,0,0-.034-.28c-.287-2.329-.647-7.135.624-10.691,1.742-4.876,2.27-11.666,1-15.709a36.121,36.121,0,0,1-1.007-3.936c-.031-.168-.06-.329-.085-.479a20.411,20.411,0,0,1,2.57.518c2.937.81,9.363.96,14.849.916.013.15.028.308.047.466a16.956,16.956,0,0,0,.611,3.24c.688,2.07,1,11.2,1,11.2s.888,7.5.4,10.559c-.259,1.7-.518,3.4-.665,5.116v.034s-1.454,4.141-2.518,6.39c-.026.057-.054.114-.08.168a3.362,3.362,0,0,0-.831.184s-1.426,2.847-2.847,3.318-.95,2.021,2.267,1.452,8.074-1.035,8.074-1.035l.21-2.9.989-1.237-.259,2.9,1.053-.207-.14-3.522,1.617-2.024s1.954-1.739-.95-5.16v.075c-.031-.049-.06-.1-.093-.15v-.016c-.481-.745-.864-2.135-.163-4.6,1.268-4.456,2.006-8.5,2.006-8.5s2.831-10.836-.572-15.962h.15a8.623,8.623,0,0,1-.732-2.277q-.026-.14-.047-.287a18.673,18.673,0,0,0,7.005-1.584C882.771,362.508,881.557,336.795,880.553,332.7Zm-31.969-17.934v.052l-.518.026Zm-1.775.246a.572.572,0,0,0-.233.111,2.3,2.3,0,0,0-.406,1.064l-.807-.181s-.567-.122-1.382-.259l-.386-.388C844.656,315.271,845.759,315.142,846.809,315.012Z" transform="translate(-576.971 -63.122)" fill="url(#linear-gradient-2)"/>
      <path id="Path_1329" data-name="Path 1329" d="M971.628,742.048l-.308,3.667,1.033-.207-.155-3.978Z" transform="translate(-675.074 -402.126)" fill="#1d2366"/>
      <path id="Path_1330" data-name="Path 1330" d="M888.393,672c-1.245,3.545-.893,8.33-.613,10.654.1.859.2,1.382.2,1.382s-1.861,4.239-2.016,4.4-5.476,3.408-5.476,3.408l-3.719,2.171S873,692.365,874.8,691.8a2.747,2.747,0,0,0,.976-.665c1.811-1.721,4.086-6,4.086-6a10.318,10.318,0,0,1,.725-3.2c.569-1.033.362-11.884.362-11.884L881,652.356V650.05l7.078.052a16.019,16.019,0,0,0,.305,2.329,35.6,35.6,0,0,0,.986,3.923C890.614,660.389,890.1,667.146,888.393,672Z" transform="translate(-615.397 -349.494)" fill="#ffb0b1"/>
      <path id="Path_1331" data-name="Path 1331" d="M887.979,777.447s-1.861,4.239-2.016,4.4-5.476,3.408-5.476,3.408l-3.719,2.171S873,785.772,874.8,785.2a2.748,2.748,0,0,0,.976-.665l.16,1.131,1.24-.052,10.61-9.547C887.883,776.924,887.979,777.447,887.979,777.447Z" transform="translate(-615.397 -442.901)" opacity="0.1"/>
      <path id="Path_1332" data-name="Path 1332" d="M869.022,777l-10.67,9.611-1.24.052-.259-1.811s-2.169,2.79-6.987,2.634c0,0-2.893,1.913,1.395,2.016s9.764-.155,9.764-.155,3.825-5.952,7.026-5.176v4.5h.983V784.13a4.086,4.086,0,0,0,1.744-2.691,3.3,3.3,0,0,0-1.141-3.023A1.948,1.948,0,0,1,869.022,777Z" transform="translate(-596.57 -443.59)" fill="#1d2366"/>
      <path id="Path_1333" data-name="Path 1333" d="M996.025,676.979c-.688,2.458-.313,3.843.158,4.586v.016a8.478,8.478,0,0,1,1.237,3.02l.041.233-4.855,7.078-2.635,1.035s-4.236-1.447-3.463-1.861a3.964,3.964,0,0,0,.844-1.382c1.035-2.239,2.464-6.369,2.464-6.369V683.3c.15-1.705.388-3.406.652-5.1.474-3.046-.4-10.522-.4-10.522s-.311-9.091-.983-11.159a17.056,17.056,0,0,1-.6-3.219c-.14-1.294-.171-2.36-.171-2.36s2.79-3.882,7.9.31a5.632,5.632,0,0,1,1.069,1.159c3.532,5.026.688,16.1.688,16.1S997.265,672.535,996.025,676.979Z" transform="translate(-698.488 -348.941)" fill="#ffb0b1"/>
      <path id="Path_1334" data-name="Path 1334" d="M997.492,777.05l-4.855,7.078L990,785.164s-4.236-1.447-3.463-1.861a3.967,3.967,0,0,0,.844-1.382,3.348,3.348,0,0,1,2.722,1.693l2.272-.362s3-5.89,3.67-6.25.1-2.689.1-2.689v-.593c.018.021.034.044.054.065v.016a8.471,8.471,0,0,1,1.237,3.02Z" transform="translate(-698.51 -441.159)" opacity="0.1"/>
      <path id="Path_1335" data-name="Path 1335" d="M980.258,784.2a3.163,3.163,0,0,0-3.773-1.5s-1.395,2.847-2.79,3.307-.929,2.013,2.223,1.447,7.9-1.035,7.9-1.035l.207-2.9,3.2-4.081s1.91-1.731-.932-5.14v.593s.569,2.329-.1,2.689-3.659,6.252-3.659,6.252Z" transform="translate(-688.507 -441.589)" fill="#1d2366"/>
      <path id="Path_1336" data-name="Path 1336" d="M907.226,650.082a16.049,16.049,0,0,0,.305,2.329,32.468,32.468,0,0,0-7.391-.075V650.03Z" transform="translate(-634.54 -349.479)" opacity="0.1"/>
      <path id="Path_1337" data-name="Path 1337" d="M1003.049,653.049s-4.141.2-9.078.243c-.14-1.294-.171-2.36-.171-2.36s2.79-3.882,7.9.311a5.628,5.628,0,0,1,1.069,1.159A6.311,6.311,0,0,0,1003.049,653.049Z" transform="translate(-703.962 -348.934)" opacity="0.1"/>
      <path id="Path_1338" data-name="Path 1338" d="M926.786,522.749s-18.136.877-23.664-.673-11.006-.207-11.832-.567-.155-5.994.569-7.389,4.7-15.5,4.7-15.5l3.825-19.943,4.029-1.11.285-.08,7.021-1.936,5.145-1.421s10.23,39.939,9.353,42.884a7.541,7.541,0,0,0-.15,3.465A8.646,8.646,0,0,0,926.786,522.749Z" transform="translate(-627.699 -219.1)" fill="#1f8ced"/>
      <path id="Path_1339" data-name="Path 1339" d="M870.54,439s-3.623,3.882-.88,6.045,4.547.207,4.547.207Z" transform="translate(-611.188 -193.062)" fill="#c7daf5"/>
      <path id="Path_1340" data-name="Path 1340" d="M870.54,439s-3.623,3.882-.88,6.045,4.547.207,4.547.207Z" transform="translate(-611.188 -193.062)" opacity="0.1"/>
      <path id="Path_1341" data-name="Path 1341" d="M966.911,320.114s-.424.4-1.064,1c-.911.851-2.259,2.1-3.455,3.139-1.656,1.441-3.023,2.5-2.534,1.6a6.977,6.977,0,0,0,.153-3.949c-.018-.1-.034-.2-.052-.292a27.142,27.142,0,0,0-.8-3.2,55.339,55.339,0,0,1,4.156-4.821c.551-.518.937-.73.96-.37a12.028,12.028,0,0,0,.838,2.686c.013.036.026.07.042.106.3.776.639,1.573.937,2.262C966.548,319.327,966.911,320.114,966.911,320.114Z" transform="translate(-678.286 -99.698)" fill="#ffb0b1"/>
      <path id="Path_1342" data-name="Path 1342" d="M965.156,316.018a7.681,7.681,0,0,1-5.145,5.89,26.918,26.918,0,0,0-.851-3.491s5.039-6.509,5.116-5.191A12.319,12.319,0,0,0,965.156,316.018Z" transform="translate(-678.286 -99.706)" opacity="0.1"/>
      <path id="Path_1343" data-name="Path 1343" d="M932.759,351.369l.652-.919s.432,2.634,2.021,1.473,1.667,8.745,1.667,8.745l-1.706,25.5-12.324-.738.349-12.321,1.395-6.211,3.45-9.029,2.052-2.984Z" transform="translate(-651.536 -127.428)" opacity="0.1"/>
      <path id="Path_1344" data-name="Path 1344" d="M937.121,361.24,935.569,384.3l-.163,2.443-6.871-.411-.259-.016L923.1,386l.349-12.324,1.395-6.211,3.45-9.029,2.052-2.984,2.443-3.527.652-.916s.432,2.635,2.021,1.473l.034-.023h0C937.049,351.476,937.121,361.24,937.121,361.24Z" transform="translate(-651.559 -127.843)" fill="#1f8ced"/>
      <path id="Path_1345" data-name="Path 1345" d="M884.77,406.26a1.886,1.886,0,0,1-1.861,1.084c-1.242-.21-1.24,4.658-1.24,4.658s-.826.776-1.395.1-2.07,1.6-2.07,1.6l-9.4.414s4.185,1.912,3.364,7.7c0,0,14.208-.88,14.673-2.223S884.77,406.26,884.77,406.26Z" transform="translate(-611.311 -168.794)" fill="#fff"/>
      <path id="Path_1346" data-name="Path 1346" d="M884.77,406.26a1.886,1.886,0,0,1-1.861,1.084c-1.242-.21-1.24,4.658-1.24,4.658s-.826.776-1.395.1-2.07,1.6-2.07,1.6l-9.4.414s4.185,1.912,3.364,7.7c0,0,14.208-.88,14.673-2.223S884.77,406.26,884.77,406.26Z" transform="translate(-611.311 -168.794)" opacity="0.03"/>
      <path id="Path_1347" data-name="Path 1347" d="M777.66,389.76l2.479,2.117,20.408,4.288-2.531-2.583Z" transform="translate(-531.532 -141.392)" fill="#fff"/>
      <path id="Path_1348" data-name="Path 1348" d="M918.344,350.22a52.2,52.2,0,0,0-2.119,5.481c-.675,1.928-1.24,3.623-1.24,3.623s-1.317,8.576-1.99,10.127-.308,7.6-.308,7.6l-2.508,14.93a74.466,74.466,0,0,1-2.891,12.3,22.393,22.393,0,0,1-3.719,6.716c.776-1.051,5.008-21.738,5.008-21.738l1.4-26.091s.2-2.479.411-4.6,4.4-5.013,4.4-5.013l4.042-5.748C919.235,348.344,918.963,349.291,918.344,350.22Z" transform="translate(-637.083 -125.463)" fill="#fff"/>
      <path id="Path_1349" data-name="Path 1349" d="M893.071,470.328s-5.952-.259-8.835-3.721,6.664-1.382,6.664-1.382l2.482.569Z" transform="translate(-622.35 -212.04)" fill="#ffb0b1"/>
      <path id="Path_1350" data-name="Path 1350" d="M964.893,429.78a7.541,7.541,0,0,0-.15,3.465,49.33,49.33,0,0,1-13.439-1.294,30.184,30.184,0,0,1-4.7,2.945l-1.858-23.032c-1.188-3.105-1.654-19.376-1.654-19.376s.106-.851.259-2.127a.247.247,0,0,1,.013-.1c.463-3.564,1.382-10.253,1.832-11.157.621-1.242-1.91-4.547-1.91-4.547l1.152-9.821.14-1.185c2.428-1.084,4.288-4.547,4.288-4.547l1.428-2.5h0c1.553-1,1.633,8.768,1.633,8.768l-1.553,23.056,5.145-1.421S965.77,426.835,964.893,429.78Z" transform="translate(-666.375 -131.863)" opacity="0.1"/>
      <path id="Path_1351" data-name="Path 1351" d="M972.447,413.705c-7.078,3.514-19.943.259-19.943.259a30.194,30.194,0,0,1-4.7,2.945l-1.861-23.032c-1.185-3.106-1.651-19.376-1.651-19.376s1.5-12.14,2.117-13.38a1.992,1.992,0,0,0-.122-1.48,18.732,18.732,0,0,1-1.134-8.667l.5-4.221.137-1.183c2.43-1.087,4.291-4.55,4.291-4.55l1.294-2.267,2.381-4.177,1.128-1.977.192.173,1.462,1.325,1.553,1.294c2.026,1.708,5.528,4.715,7.334,6.555,1.589,1.62,2.091,7.922,2.236,12.665.1,3.124.039,5.572.039,5.572-1.6,2.637,2.588,23.809,2.588,23.809C971.259,388.085,972.447,413.705,972.447,413.705Z" transform="translate(-667.265 -114.197)" fill="#fff"/>
      <path id="Path_1352" data-name="Path 1352" d="M938.212,363.895s-4.858,9.247-4.293,12.761,2.169,7.492,1.395,8.421a2.86,2.86,0,0,1-2.275,1.136,7.478,7.478,0,0,0-2.847,1.654,26.986,26.986,0,0,0-3.623.88,22.556,22.556,0,0,1-4.236,1.136s-4.917-.155-5.375.311-.929,3.253.052,5.476,2.07,3.882,2.893,4.185,6.045-1.447,10.282-1.861,8.835-3.771,8.835-3.771,5.064-1.812,5.952-4.857-1.084-19.787-1.084-19.787S942.4,361.775,938.212,363.895Z" transform="translate(-646.617 -137.122)" opacity="0.03"/>
      <path id="Path_1353" data-name="Path 1353" d="M935.833,360.9s-4.858,9.249-4.288,12.761,2.169,7.492,1.392,8.424a2.847,2.847,0,0,1-2.272,1.136,7.477,7.477,0,0,0-2.847,1.654,27.2,27.2,0,0,0-3.623.877,22.776,22.776,0,0,1-4.236,1.136s-4.917-.155-5.372.311-.932,3.256.052,5.476,2.07,3.882,2.893,4.185,6.045-1.447,10.282-1.858,8.835-3.773,8.835-3.773,5.062-1.812,5.939-4.855-1.084-19.79-1.084-19.79S940.018,358.78,935.833,360.9Z" transform="translate(-644.859 -134.901)" opacity="0.03"/>
      <path id="Path_1354" data-name="Path 1354" d="M937.637,362.1s-4.857,9.249-4.288,12.761,2.169,7.492,1.395,8.421a2.846,2.846,0,0,1-2.275,1.139,7.513,7.513,0,0,0-2.847,1.651,26.621,26.621,0,0,0-3.623.88,22.611,22.611,0,0,1-4.236,1.136s-4.917-.155-5.375.311-.929,3.256.052,5.476,2.07,3.882,2.893,4.185,6.045-1.447,10.282-1.861,8.835-3.771,8.835-3.771,5.064-1.812,5.952-4.858-1.072-19.787-1.072-19.787S941.819,360,937.637,362.1Z" transform="translate(-646.194 -135.798)" fill="#fff"/>
      <path id="Path_1355" data-name="Path 1355" d="M991.523,458.338s-3.882-.776-2.531.518,1.343,2.428,3,2.376S991.523,458.338,991.523,458.338Z" transform="translate(-700.187 -207.224)" opacity="0.1"/>
      <path id="Path_1356" data-name="Path 1356" d="M1023.627,566.58s-1.755,1.188,1.6,3.926S1023.627,566.58,1023.627,566.58Z" transform="translate(-725.73 -287.625)" opacity="0.1"/>
      <path id="Path_1357" data-name="Path 1357" d="M1011.784,604.31c0,.155-.621,5.693,1.7,7.078S1011.784,604.31,1011.784,604.31Z" transform="translate(-717.236 -315.591)" opacity="0.1"/>
      <path id="Path_1358" data-name="Path 1358" d="M856.787,436.59c-1.874.065-5.921.637-3.822,4.552,1.856,3.465,4.974,1.149,6.729-.608A6.611,6.611,0,0,0,856.787,436.59Z" transform="translate(-599.138 -191.275)" fill="#ffb0b1"/>
      <path id="Path_1359" data-name="Path 1359" d="M881.39,451Z" transform="translate(-620.643 -201.956)" fill="#ffb0b1"/>
      <path id="Path_1360" data-name="Path 1360" d="M880.74,451.48l.078-.08Z" transform="translate(-620.161 -202.253)" fill="#ffb0b1"/>
      <path id="Path_1361" data-name="Path 1361" d="M961.977,335.988c-1.988,1.359-3.654,2.505-3.98,2.743-.89.66-2.588,4.534-3.683,6.511-.872,1.592-3.706,2-4.775,2.1l.137-1.183c2.43-1.087,4.291-4.55,4.291-4.55l4.8-8.421,1.654,1.5Z" transform="translate(-671.156 -114.634)" opacity="0.1"/>
      <path id="Path_1362" data-name="Path 1362" d="M961.977,335.388c-1.988,1.359-3.654,2.505-3.98,2.746-.89.657-2.588,4.531-3.683,6.509-.872,1.592-3.706,2-4.775,2.1l.137-1.183c2.43-1.087,4.291-4.55,4.291-4.55l4.8-8.421,1.654,1.5S961.046,334.6,961.977,335.388Z" transform="translate(-671.156 -114.19)" fill="#dce7ff"/>
      <path id="Path_1363" data-name="Path 1363" d="M938.848,295.938a7.676,7.676,0,1,1-6.525-7.588A7.663,7.663,0,0,1,938.848,295.938Z" transform="translate(-651.852 -81.334)" fill="#ffb0b1"/>
      <path id="Path_1364" data-name="Path 1364" d="M953.84,321.752a6.822,6.822,0,0,1-2.477-2.66,7.006,7.006,0,0,0-1.457-2.446,6.471,6.471,0,0,0-2.381-.919,6.979,6.979,0,0,1-5.09-6.126c-.042-1.335.375-2.668.186-3.991a4.422,4.422,0,0,0-.864-2.057,7.1,7.1,0,0,0-.748-.8c-.362-.342-.743-.673-1.074-1.035a4.017,4.017,0,0,1-.543-.738,3.56,3.56,0,0,1-.3-.686c-.518-1.584-.047-3.463-.616-5.065l-.031-.088a1.647,1.647,0,0,0-1.26-1.183c-.608-.044-1.128.461-1.708.686-1.214.471-2.523-.331-3.535-1.149s-2.153-1.752-3.439-1.571a11.109,11.109,0,0,0-2.308,1,3.23,3.23,0,0,1-.546.158,7.675,7.675,0,0,1,14.627,4.462c.013.036.026.07.041.106.3.776.639,1.573.937,2.262l1.462,1.325,1.553,1.294c2.026,1.708,5.528,4.715,7.334,6.555C953.193,310.709,953.69,317.008,953.84,321.752Z" transform="translate(-653.449 -81.333)" opacity="0.1"/>
      <path id="Path_1365" data-name="Path 1365" d="M921.326,271.325c.37-.753.554-1.6,1-2.311a5.507,5.507,0,0,1,2.948-2.1c3.041-1.048,9.467-2.57,11.387,0a5.6,5.6,0,0,0,1.214,1.449,9.01,9.01,0,0,0,1.317.593,5.033,5.033,0,0,1,2.422,3.105c.417,1.278.541,2.65.846,3.967a29.182,29.182,0,0,0,1.76,4.883,13.449,13.449,0,0,0,3.212,5.155c2.12,1.812,2.588,4.376,4.555,6.364,2.329,2.36,2.254,6.255,1.053,9.348a2.566,2.566,0,0,0-.275,1.263,2.479,2.479,0,0,0,.686,1.17l1.273,1.436a7.159,7.159,0,0,1-7.823-3.608,7,7,0,0,0-1.46-2.446,6.454,6.454,0,0,0-2.378-.916,6.988,6.988,0,0,1-5.09-6.131c-.042-1.333.375-2.666.186-3.985a4.4,4.4,0,0,0-.867-2.07c-.712-.929-1.786-1.553-2.365-2.588-.981-1.731-.235-3.98-.942-5.838a1.651,1.651,0,0,0-1.26-1.183c-.608-.044-1.128.461-1.711.686-1.211.471-2.521-.329-3.532-1.149s-2.153-1.752-3.442-1.568a10.824,10.824,0,0,0-2.306,1c-.58.223-1.755.422-2.262-.067C918.4,274.8,920.878,272.246,921.326,271.325Z" transform="translate(-648.669 -64.464)" fill="#591d4b"/>
      <path id="Path_1366" data-name="Path 1366" d="M947.457,308.4A7,7,0,0,0,946,305.954a6.453,6.453,0,0,0-2.381-.919,6.989,6.989,0,0,1-5.09-6.128c-.041-1.333.375-2.668.189-3.988a4.425,4.425,0,0,0-.867-2.057c-.714-.929-1.788-1.553-2.365-2.588-.981-1.729-.235-3.978-.944-5.838a1.657,1.657,0,0,0-1.258-1.183c-.606-.047-1.131.463-1.711.688-1.211.471-2.523-.331-3.533-1.149s-2.156-1.752-3.442-1.571a11.033,11.033,0,0,0-2.306,1c-.58.223-1.757.424-2.264-.065-1.066-1.035,1.416-3.584,1.861-4.5a24.809,24.809,0,0,1,1-2.311c.023-.039.049-.078.075-.116a4.1,4.1,0,0,0-.851.968,25.143,25.143,0,0,0-1,2.311c-.448.916-2.929,3.473-1.861,4.5.518.492,1.682.29,2.262.067a10.65,10.65,0,0,1,2.306-1c1.294-.184,2.433.75,3.442,1.568s2.329,1.62,3.535,1.149c.58-.225,1.087-.732,1.708-.686a1.648,1.648,0,0,1,1.26,1.183c.706,1.858-.039,4.107.942,5.838.58,1.017,1.654,1.654,2.365,2.588a4.4,4.4,0,0,1,.867,2.07c.189,1.32-.228,2.653-.186,3.985a6.977,6.977,0,0,0,5.09,6.131,6.489,6.489,0,0,1,2.378.916,6.842,6.842,0,0,1,1.46,2.446,7.16,7.16,0,0,0,7.823,3.608l-.6-.678A7.237,7.237,0,0,1,947.457,308.4Z" transform="translate(-648.51 -71.674)" opacity="0.1"/>
      <path id="Path_1367" data-name="Path 1367" d="M949.846,350.746a52.262,52.262,0,0,0-2.119,5.481c-.758-.3-1.447-2.176-1.447-2.176l4.042-5.75C950.736,348.869,950.464,349.814,949.846,350.746Z" transform="translate(-668.74 -125.834)" opacity="0.1"/>
      <path id="Path_1368" data-name="Path 1368" d="M950.446,350.153a52.192,52.192,0,0,0-2.12,5.481c-.758-.292-1.447-2.176-1.447-2.176l4.042-5.748C951.336,348.277,951.064,349.224,950.446,350.153Z" transform="translate(-669.184 -125.397)" fill="#dce7ff"/>
      <path id="Path_1369" data-name="Path 1369" d="M863.331,436.6l-2.241-7.068a.66.66,0,0,1,.43-.831h0a.663.663,0,0,1,.828.43l2.241,7.06-.223,1.478Z" transform="translate(-605.573 -185.407)" fill="#be8b87"/>
      <path id="Path_1370" data-name="Path 1370" d="M861.607,428.943h0a.662.662,0,0,1,.831.43l2.241,7.06-.168,1.108.163.171.223-1.478-2.254-7.06a.663.663,0,0,0-.828-.43h0a.662.662,0,0,0-.344.259.9.9,0,0,1,.137-.06Z" transform="translate(-605.878 -185.437)" fill="#fff" opacity="0.1"/>
      <path id="Path_1371" data-name="Path 1371" d="M822.6,399.539l1.258-.4-.184,1.211-.039.267-.367-.383Z" transform="translate(-564.842 -148.344)" fill="#efc8c4"/>
      <path id="Path_1372" data-name="Path 1372" d="M872.42,461.757a.26.26,0,0,1,.08-.067.114.114,0,0,1,.122,0,.323.323,0,0,1,.044.07.223.223,0,0,0,.16.106l-.039.259Z" transform="translate(-613.994 -209.866)" fill="#727a9c"/>
      <path id="Path_1373" data-name="Path 1373" d="M861.13,441.7s4.5-.026,3.437,1.887a4.043,4.043,0,0,1-2.712,2.143Z" transform="translate(-605.626 -195.063)" fill="#ffb0b1"/>
      <path id="Path_1374" data-name="Path 1374" d="M583.726,110.05h-.194a22.135,22.135,0,0,0-18.48,10.116,22.135,22.135,0,0,0-18.48-10.116h-.194a22,22,0,0,0-21.788,21.984c0,7.2,3.152,17.409,9.3,25.812,11.71,16.011,31.164,30.02,31.164,30.02s19.453-14.006,31.161-30.02c6.149-8.4,9.3-18.615,9.3-25.812A22,22,0,0,0,583.726,110.05Zm-2.777,49.028a4.361,4.361,0,0,1-4.055-2.8h-4.617a1.46,1.46,0,0,1-1.374-.994l-1.418-4.273L565,166.692a1.452,1.452,0,0,1-1.392,1.048h-.091a1.434,1.434,0,0,1-1.346-1.2l-4.625-27.815-3.38,16.459a1.441,1.441,0,0,1-1.4,1.095h-6.5a1.447,1.447,0,1,1,0-2.891h5.365l4.788-22.129a1.452,1.452,0,0,1,2.847.119l4.723,28.374L568,145.722a1.423,1.423,0,0,1,1.353-1.035h.029a1.444,1.444,0,0,1,1.372.994l2.565,7.715h3.514a4.337,4.337,0,1,1,4.12,5.693Z" transform="translate(-356.18 50.759)" fill="#1f8ced"/>
    </g>
  </g>
</svg>
