<svg xmlns="http://www.w3.org/2000/svg" width="32.615" height="30.722" viewBox="0 0 32.615 30.722">
  <g id="Group_6435" data-name="Group 6435" transform="translate(-209.385 -688)">
    <g id="teeth" transform="translate(209.385 673.159)">
      <path id="Path_3474" data-name="Path 3474" d="M28.182,67.053a21.284,21.284,0,0,1-2.424,6.427c-.242.445-.488.884-.726,1.309a22.486,22.486,0,0,0-2.567,5.8l-.048.209A3.059,3.059,0,0,1,21.3,82.871a2.764,2.764,0,0,1-1.461.409,2.6,2.6,0,0,1-1.019-.2,2.152,2.152,0,0,1-.366-.2c-1.471-1-1.471-3.272-1.471-4.492a7.828,7.828,0,0,0-.26-2.1,4.539,4.539,0,0,0-.741-1.6,1.805,1.805,0,0,0-.4-.367,2.434,2.434,0,0,0-2.784,0,1.835,1.835,0,0,0-.4.367,4.561,4.561,0,0,0-.741,1.6,7.864,7.864,0,0,0-.26,2.1c0,1.221,0,3.492-1.471,4.492a2.708,2.708,0,0,1-2.846-.01,3.064,3.064,0,0,1-1.119-2.077c-.016-.071-.032-.141-.048-.209a22.5,22.5,0,0,0-2.567-5.8c-.238-.424-.485-.864-.726-1.308A21.3,21.3,0,0,1,.2,67.053a13.3,13.3,0,0,1,.487-6.508,7.913,7.913,0,0,1,4.244-4.916,7.9,7.9,0,0,1,5.756.087,11.441,11.441,0,0,0,7.01,0,9.863,9.863,0,0,1,1.043-.32,7.466,7.466,0,0,1,4.713.233,6.865,6.865,0,0,1,.781.4l.1.06,3.811,6.143.017.089A13.391,13.391,0,0,1,28.182,67.053Z" transform="translate(0 -37.717)" fill="#dceefe"/>
      <path id="Path_3475" data-name="Path 3475" d="M303.227,62.32a13.39,13.39,0,0,1,.022,4.734,21.284,21.284,0,0,1-2.424,6.427c-.242.445-.488.884-.726,1.309a22.488,22.488,0,0,0-2.567,5.8l-.048.209a3.059,3.059,0,0,1-1.118,2.076,2.764,2.764,0,0,1-1.461.409,2.6,2.6,0,0,1-1.019-.2,3.162,3.162,0,0,0,1.048-2.03c.017-.071.033-.141.049-.209a22.48,22.48,0,0,1,2.567-5.8c.238-.424.485-.864.726-1.308a21.3,21.3,0,0,0,2.425-6.427,13.307,13.307,0,0,0-.487-6.508,7.915,7.915,0,0,0-4.244-4.916A6.323,6.323,0,0,0,293.8,55.4a7.466,7.466,0,0,1,4.713.233,6.866,6.866,0,0,1,.781.4l.1.06,3.811,6.143Z" transform="translate(-275.067 -37.718)" fill="#bae4f6"/>
      <g id="Group_6401" data-name="Group 6401" transform="translate(16.954 14.841)">
        <path id="Path_3476" data-name="Path 3476" d="M331.546,20.967a.478.478,0,0,1-.262.427,12.259,12.259,0,0,0-5.436,5.436.478.478,0,0,1-.853,0,12.527,12.527,0,0,0-.8-1.353,12.236,12.236,0,0,0-4.641-4.083.478.478,0,0,1,0-.853,12.261,12.261,0,0,0,5.437-5.436.478.478,0,0,1,.853,0,12.24,12.24,0,0,0,4.083,4.641,12.516,12.516,0,0,0,1.353.8A.478.478,0,0,1,331.546,20.967Z" transform="translate(-315.885 -14.841)" fill="#b9f6d3"/>
        <path id="Path_3477" data-name="Path 3477" d="M403.261,93.38a12.259,12.259,0,0,0-5.436,5.436.478.478,0,0,1-.853,0,12.521,12.521,0,0,0-.8-1.353,15.538,15.538,0,0,1,5.732-5.732,12.521,12.521,0,0,0,1.353.8.478.478,0,0,1,0,.853Z" transform="translate(-387.862 -86.827)" fill="#93d8e4"/>
        <path id="Path_3478" data-name="Path 3478" d="M272.15,169.459a.479.479,0,0,1-.262.427,5.565,5.565,0,0,0-2.468,2.468.478.478,0,0,1-.853,0,5.643,5.643,0,0,0-.614-.959,5.563,5.563,0,0,0-1.854-1.509.478.478,0,0,1,0-.854,5.564,5.564,0,0,0,2.468-2.468.478.478,0,0,1,.853,0,5.571,5.571,0,0,0,2.468,2.468A.479.479,0,0,1,272.15,169.459Z" transform="translate(-265.835 -156.641)" fill="#b9f6d3"/>
        <path id="Path_3479" data-name="Path 3479" d="M303.223,200.532a.479.479,0,0,1-.262.427,5.565,5.565,0,0,0-2.468,2.468.478.478,0,0,1-.853,0,5.644,5.644,0,0,0-.614-.959A7.768,7.768,0,0,1,302,199.491a5.6,5.6,0,0,0,.959.614A.479.479,0,0,1,303.223,200.532Z" transform="translate(-296.908 -187.715)" fill="#93d8e4"/>
      </g>
    </g>
  </g>
</svg>
