<svg xmlns="http://www.w3.org/2000/svg" width="22.014" height="28.653" viewBox="0 0 22.014 28.653">
  <g id="Group_6436" data-name="Group 6436" transform="translate(-34.993 -789)">
    <g id="noun_homeopath_620889" transform="translate(18.153 782.16)">
      <path id="Path_3480" data-name="Path 3480" d="M37.58,16.9l-2.47-2.47a3.243,3.243,0,0,1-.956-2.294v-.1H21.54v.1a3.246,3.246,0,0,1-.953,2.294l-2.48,2.466a4.335,4.335,0,0,0-1.268,3.064V33.329A2.171,2.171,0,0,0,19,35.493H36.69a2.171,2.171,0,0,0,2.164-2.164V19.958A4.345,4.345,0,0,0,37.58,16.9Zm-3.207,2.476a1.786,1.786,0,1,1-1.786,1.792A1.786,1.786,0,0,1,34.373,19.374Zm-.332,5.673a1.8,1.8,0,1,1,.01,0Zm-1.789-9.255a1.792,1.792,0,1,1-1.786,1.786,1.792,1.792,0,0,1,1.786-1.786Zm-2.121,3.582a1.786,1.786,0,1,1-1.786,1.792,1.786,1.786,0,0,1,1.786-1.792ZM29.8,25.047a1.786,1.786,0,1,1-1.786-1.786A1.786,1.786,0,0,1,29.8,25.047Zm-2.124-3.88a1.792,1.792,0,1,1-1.786-1.792A1.792,1.792,0,0,1,27.675,21.167Zm-2.121,3.88a1.792,1.792,0,1,1-1.786-1.786A1.792,1.792,0,0,1,25.553,25.047Zm-1.786-9.255a1.789,1.789,0,1,1-1.268.521A1.792,1.792,0,0,1,23.768,15.792Zm-2.121,3.582a1.789,1.789,0,1,1-1.273.522A1.786,1.786,0,0,1,21.647,19.374Zm-2.134,3.887a1.792,1.792,0,1,1-1.786,1.786A1.792,1.792,0,0,1,19.512,23.261Zm0,10.987a1.789,1.789,0,1,1,1.272-.524A1.786,1.786,0,0,1,19.512,34.248Zm.173-5.616a1.792,1.792,0,1,1,1.786,1.786,1.792,1.792,0,0,1-1.786-1.786Zm4.083,5.616a1.789,1.789,0,1,1,1.265-.528A1.786,1.786,0,0,1,23.768,34.248Zm.163-5.62a1.789,1.789,0,1,1,.528,1.265,1.792,1.792,0,0,1-.528-1.265Zm4.08,5.62a1.789,1.789,0,1,1,1.265-.528,1.786,1.786,0,0,1-1.265.528Zm.169-5.62a1.786,1.786,0,1,1,1.786,1.786,1.786,1.786,0,0,1-1.786-1.786Zm4.073,5.62a1.789,1.789,0,1,1,1.274-.523,1.786,1.786,0,0,1-1.274.523Zm.173-5.616a1.792,1.792,0,1,1,1.786,1.786,1.792,1.792,0,0,1-1.786-1.786Zm4.083,5.616a1.789,1.789,0,1,1,1.265-.528,1.786,1.786,0,0,1-1.265.528Zm0-7.4a1.792,1.792,0,1,1,1.786-1.8,1.792,1.792,0,0,1-1.786,1.8ZM34.592,6.84h-13.5a.544.544,0,0,0-.548.541v3.3a.551.551,0,0,0,.548.524H34.6a.541.541,0,0,0,.531-.541V7.381a.538.538,0,0,0-.541-.541Z" fill="#a6ce39"/>
    </g>
  </g>
</svg>
