<svg xmlns="http://www.w3.org/2000/svg" width="18.857" height="38.201" viewBox="0 0 18.857 38.201">
  <g id="Group_6426" data-name="Group 6426" transform="translate(-216 -384)">
    <path id="Path_3518" data-name="Path 3518" d="M44.826,21.184c-.165-1.722-1.88-3.262-5.1-4.577.377-.2,1.2-.73,1.255-1.528.049-.715-.537-1.447-1.735-2.171l-3.338-2.433-.19-.084,0,.142c.082,2.987.287,8.054.746,8.426a10.386,10.386,0,0,1,2.012,2.578c.181.289.351.561.519.811a9.225,9.225,0,0,0,1.326,1.587l.045.041.055-.027a2.918,2.918,0,0,1,1.008-.3c.232,0,.282.1.3.129a.445.445,0,0,0,.429.241,1.8,1.8,0,0,0,.412-.068,1.337,1.337,0,0,1,.275-.05.1.1,0,0,1,.07.018.261.261,0,0,1,.011.327,1.628,1.628,0,0,1-1.137.766,1.351,1.351,0,0,1-.259.024,4.147,4.147,0,0,1-1.774-.606c-.038-.032-3.865-3.239-4.734-4.865s-1.733-6.476-1.741-6.525l0-.025L33.266,13a2.909,2.909,0,0,1-.741-2.125,1.8,1.8,0,0,1,1.2-1.181l.62-.255-.665.083a2.18,2.18,0,0,0-1.62.828c-.608.829-.723,2.31-.34,4.41a35.786,35.786,0,0,1,1.057,6.873c-.092.284-1.4,4.338-2.733,9.408-.016.049-1.587,4.971-3.093,8.383l-.056.126H43.323l-.051-.124c-.044-.106-4.337-10.708-1.111-13.98C42.28,25.366,45.053,23.555,44.826,21.184ZM39.077,6.878a.09.09,0,0,0,.011-.179c-.439-.052-.565-.6-.566-.6a.09.09,0,0,0-.175.038c.006.027.154.677.72.744ZM28.023,24.408s.717,4.436,3.051-1.219l.3-.965c.658-1.944.111-4.09-.2-7.227-.479-4.846,1.959-7.054,1.959-7.054,4.727-.589,3.372-2.616,3.954-2.8.748-.239,2.393-1.016,3.111-.6.633.369.081,1.7-.058,2.009a.071.071,0,0,0-.041-.012.09.09,0,0,0-.081.1l.093,1.043c-.08.035-.236.086-.314-.015a.091.091,0,0,0-.1-.032.09.09,0,0,0-.064.078,1.28,1.28,0,0,1-.161.607,3.4,3.4,0,0,1-.319-.166c-.341-.19-.442-.241-.515-.174a.108.108,0,0,0-.02.131,2.575,2.575,0,0,0,.391.48l-.849,1.13A8.491,8.491,0,0,1,36.294,8.2a.09.09,0,1,0-.162.078,9.332,9.332,0,0,0,2,1.642.09.09,0,0,0,.121-.021L39.2,8.638a.09.09,0,0,0-.008-.117c-.076-.075-.181-.187-.267-.287l.143.079a3.637,3.637,0,0,0,.342.177.172.172,0,0,0,.155-.015c.135-.084.2-.386.231-.589a.573.573,0,0,0,.454-.071.09.09,0,0,0,.044-.086l-.1-1.1c0-.005-.006-.008-.007-.014,2.848.043,1.341-2.244,1.341-2.244.523-2.723-3.9-3.021-3.9-3.021-2.782.359-3.171,3.65-3.171,3.65-1.391.135-7.777,7.569-8.375,10.949s1.765,6.612,1.765,6.612S29.49,24.858,28.023,24.408ZM35.129,5.691s-.764-.782,0-.764,0,.764,0,.764.782-.764.763,0c-.017.714-.67.092-.754.009.083.084.7.737-.009.754-.764.018,0-.763,0-.763s-.745.763-.764,0S35.129,5.691,35.129,5.691Z" transform="translate(190.018 382.656)" fill="#8b75ff"/>
  </g>
</svg>
