<svg xmlns="http://www.w3.org/2000/svg" width="19.886" height="35.264" viewBox="0 0 19.886 35.264">
  <g id="Group_6428" data-name="Group 6428" transform="translate(-226 -679.5)">
    <path id="Path_1570" data-name="Path 1570" d="M14608.486,2711.988c-1.954,1.411-1.127,2.735-.511,3.725a5.126,5.126,0,0,1,.431.778l.012.029,0,.035a.635.635,0,0,1-.032.365.431.431,0,0,1-.455.245h-.048a2.346,2.346,0,0,1-1.744-1.062,3.442,3.442,0,0,1-.645-2.033c0-.031,0-.055,0-.073a2.816,2.816,0,0,1,.676-1.589,6.392,6.392,0,0,1,1.689-1.424l.02-.01a.559.559,0,0,1,.575.022.576.576,0,0,1,.187.2.653.653,0,0,1,.081.249.584.584,0,0,1-.241.545Zm6.13-11.119a.258.258,0,0,1,.343-.121c2.7,1.107,3.646,1.252,3.526,1.6l-4.228,8.812c-.112.236-.222.438-.338.649-.015.028-.03.055-.1.194a4.723,4.723,0,0,0-.489,1.333,4.372,4.372,0,0,0-.057,1.278,1.983,1.983,0,0,0,.089.427c0,.007,0-.015.024.08a1.962,1.962,0,0,1-.01,1.228,1.68,1.68,0,0,1-.483.7,1.991,1.991,0,0,1-.753.4,2.559,2.559,0,0,1-1.573-.07,4.821,4.821,0,0,1-2.478-2.526c-.6-1.358.007-1.822.753-2.224.25-.135.288-.4.426-.583a2.719,2.719,0,0,0,.211-.419c.024-.054.047-.106.082-.181l5.059-10.575Zm9.017,3.333a.258.258,0,1,1,.452.248,33.082,33.082,0,0,1-5.587,6.835c-1,1.021-1.991,2.042-2.907,3.1l-.009.01a1.183,1.183,0,0,0-.218.315,1.216,1.216,0,0,0-.105.775,1.4,1.4,0,0,0,.43.713l0,0a13.222,13.222,0,0,1,4.2,8.588c.105.639.208,1.277.354,1.919.086.384.63,2.453,1.135,4.291.342,1.242.665,2.379.817,2.814a.258.258,0,1,1-.486.17c-.154-.443-.481-1.593-.827-2.849-.509-1.849-1.056-3.928-1.142-4.313-.148-.659-.255-1.3-.359-1.949a12.786,12.786,0,0,0-4.058-8.3h0a1.888,1.888,0,0,1-.577-.974,1.726,1.726,0,0,1,.143-1.1,1.573,1.573,0,0,1,.3-.436l.008-.011c.928-1.071,1.927-2.1,2.928-3.122a32.7,32.7,0,0,0,5.5-6.725Zm-13.842-5.155a.258.258,0,1,1,.468.216c-1.021,2.2-1.956,4.334-2.821,6.506s-1.667,4.4-2.427,6.794a9.186,9.186,0,0,0-.185,3.324,7.086,7.086,0,0,0,1.572,3.513l.013.017a70.035,70.035,0,0,1,3.7,6.485c1.336,2.571,2.717,5.387,3.905,7.85a.258.258,0,0,1-.464.224c-1.182-2.445-2.554-5.248-3.9-7.835a69.581,69.581,0,0,0-3.669-6.427,7.6,7.6,0,0,1-1.672-3.754,9.647,9.647,0,0,1,.2-3.527l.006-.022c.759-2.395,1.566-4.634,2.44-6.832s1.812-4.334,2.834-6.532Zm9.968,35.087c-.662.057-.812-.008-.865-.141l-4.569-11.549h0c-.024-.061-.048-.123-.066-.176a.7.7,0,0,0-.247-.366c-.807-.761-.588-1.234-.19-1.656.072-.076.147-.145.222-.215a2.585,2.585,0,0,0,.29-.3c.524-.3.854-1.312.875-1.322a.539.539,0,0,1,.394-.02.587.587,0,0,1,.295.235,1.166,1.166,0,0,1,.169.638c0,.228-.015.5-.03.773-.013.2-.024.408-.03.568,0,.1,0,.185-.009.271a3.363,3.363,0,0,0,.186,1.56c.809,1.779,2.543,6.6,3.62,9.595.245.68.455,1.26.64,1.769.049.134-.02.281-.684.334Zm-3.207.005c-1.446.058-1.6,0-1.653-.134l-4.251-10a5.345,5.345,0,0,0-.224-.516,3.913,3.913,0,0,0-.3-.466c-.268-.371-.572-.776-.876-1.181a10.54,10.54,0,0,1-1.775-2.771,1.4,1.4,0,0,1,.03-.784,1.662,1.662,0,0,1,.313-.572,1.394,1.394,0,0,1,.6-.416,1.943,1.943,0,0,1,1.857.4,1.817,1.817,0,0,0,.346.234,1.61,1.61,0,0,0,.691.145,3.942,3.942,0,0,0,1.1-.221,2.213,2.213,0,0,0,1.074-.8.721.721,0,0,1,.617,0,1.141,1.141,0,0,1,.455,1.76,6.5,6.5,0,0,1-.968,1.256,3.2,3.2,0,0,0-.344.406l-.01.02-.011.018c-.213.327.026.9.209,1.343.065.157.124.3.161.423h0l4.423,11.524c.052.133-.015.281-1.463.334Z" transform="translate(-14378.23 -2019.397)" fill="#fff"/>
  </g>
</svg>
