<svg xmlns="http://www.w3.org/2000/svg" width="29.001" height="25.033" viewBox="0 0 29.001 25.033">
  <g id="Group_6434" data-name="Group 6434" transform="translate(-31.5 -690)">
    <g id="lung" transform="translate(31.501 690)">
      <path id="Path_3467" data-name="Path 3467" d="M296.176,139.318a7.218,7.218,0,0,1-4.207-1.4l-.321,5.046a3.963,3.963,0,0,0,3.95,4.29h7.385a1.133,1.133,0,0,0,1.123-1.283c-.9-6.711-1.747-13.2-5.849-15.915a3,3,0,0,0-1.657-.5c-1.565,0-4.038,1.2-4.167,2.76l-.19,2.29a5.525,5.525,0,0,0,3.967,2.133Z" transform="translate(-275.116 -122.223)" fill="#cf4842"/>
      <path id="Path_3468" data-name="Path 3468" d="M362.648,147.257a1.133,1.133,0,0,0,1.123-1.283c-.9-6.711-1.747-13.2-5.849-15.915a3,3,0,0,0-1.657-.5,4.682,4.682,0,0,0-1.383.24,2.957,2.957,0,0,1,.477.257c4.1,2.718,4.95,9.2,5.849,15.915a1.133,1.133,0,0,1-1.123,1.283Zm0,0" transform="translate(-334.781 -122.223)" fill="#a83a36"/>
      <path id="Path_3469" data-name="Path 3469" d="M7.923,139.376h.018a7.392,7.392,0,0,0,4.206-1.639l.321,5.229a3.963,3.963,0,0,1-3.95,4.291H1.133A1.133,1.133,0,0,1,.01,145.974c.9-6.711,1.747-13.2,5.849-15.915a3,3,0,0,1,1.657-.5c1.565,0,4.038,1.2,4.167,2.76l.19,2.29a5.525,5.525,0,0,1-3.967,2.133l.035,2.631" transform="translate(0 -122.223)" fill="#cf4842"/>
      <g id="Group_6400" data-name="Group 6400" transform="translate(0 7.339)">
        <path id="Path_3470" data-name="Path 3470" d="M.01,145.974c.9-6.711,1.747-13.2,5.849-15.915a3,3,0,0,1,1.657-.5,4.68,4.68,0,0,1,1.384.24,2.946,2.946,0,0,0-.477.257c-4.1,2.718-4.95,9.2-5.849,15.915A1.133,1.133,0,0,0,3.7,147.257H1.133A1.133,1.133,0,0,1,.01,145.974Zm0,0" transform="translate(0 -129.562)" fill="#a83a36"/>
        <path id="Path_3471" data-name="Path 3471" d="M121.943,236.749c0-1.421-.5-2.573-1.126-2.573s-1.126,1.152-1.126,2.573.5,2.573,1.126,2.573S121.943,238.17,121.943,236.749Zm0,0" transform="translate(-112.912 -228.251)" fill="#a83a36"/>
        <path id="Path_3472" data-name="Path 3472" d="M354.806,236.749c0-1.421-.5-2.573-1.126-2.573s-1.126,1.152-1.126,2.573.5,2.573,1.126,2.573S354.806,238.17,354.806,236.749Zm0,0" transform="translate(-332.586 -228.251)" fill="#a83a36"/>
      </g>
      <path id="Path_3473" data-name="Path 3473" d="M144.821,12.753a.439.439,0,0,0-.847-.229,1.677,1.677,0,0,1-1.426,1.284.251.251,0,0,1-.064,0l-.09-.013a1.681,1.681,0,0,1-.785-.321,9.275,9.275,0,0,1-2.171-2.48,2.158,2.158,0,0,1-.319-1.133V1.287A1.287,1.287,0,0,0,137.831,0h-.057a1.287,1.287,0,0,0-1.287,1.287V9.865a2.154,2.154,0,0,1-.319,1.13,10.462,10.462,0,0,1-1.035,1.408,7.843,7.843,0,0,1-1.142,1.076,1.609,1.609,0,0,1-.858.321l-.02,0a.69.69,0,0,1-.172-.009,1.675,1.675,0,0,1-1.34-1.27.439.439,0,1,0-.847.229,2.541,2.541,0,0,0,1.309,1.662c-.121.028-.243.051-.366.068a.594.594,0,0,0-.517.591l.007,1.052a.947.947,0,0,0,1.1.929l.011,0c.007.3-.028,1.581-1.037,1.822a.448.448,0,0,0-.343.508.439.439,0,0,0,.431.361.446.446,0,0,0,.1-.011c1.491-.344,1.779-1.983,1.722-2.8h0a.107.107,0,0,1,.073-.11,8.663,8.663,0,0,0,3.574-2.358,1.358,1.358,0,0,1,1.97,0,8.681,8.681,0,0,0,3.543,2.347.1.1,0,0,1,.072.11v.011c-.056.818.231,2.457,1.722,2.8a.448.448,0,0,0,.1.011.439.439,0,0,0,.431-.361.448.448,0,0,0-.342-.508c-1.016-.242-1.044-1.533-1.037-1.828l.054.009a.946.946,0,0,0,1.089-.931l.007-1.052a.591.591,0,0,0-.51-.59c-.134-.018-.265-.043-.394-.074a2.541,2.541,0,0,0,1.3-1.657Zm0,0" transform="translate(-123.334 0)" fill="#e0726e"/>
    </g>
  </g>
</svg>
