<svg xmlns="http://www.w3.org/2000/svg" width="29.339" height="29.34" viewBox="0 0 29.339 29.34">
  <g id="Group_6440" data-name="Group 6440" transform="translate(-31.305 -988)">
    <g id="child" transform="translate(31.305 1049.958)">
      <path id="Path_3521" data-name="Path 3521" d="M451.165,16.214a.383.383,0,0,1-.271-.654l.676-.676a4.273,4.273,0,0,1,1.825-1.079.383.383,0,1,1,.214.736,3.5,3.5,0,0,0-1.5.885l-.676.676A.382.382,0,0,1,451.165,16.214Z" transform="translate(-427.738 -71.875)" fill="#495059"/>
      <circle id="Ellipse_116" data-name="Ellipse 116" cx="2.666" cy="2.666" r="2.666" transform="translate(10.849 -58.791)" fill="#f5d7b7"/>
      <circle id="Ellipse_117" data-name="Ellipse 117" cx="2.666" cy="2.666" r="2.666" transform="translate(10.849 -58.791)" opacity="0.1"/>
      <circle id="Ellipse_118" data-name="Ellipse 118" cx="2.666" cy="2.666" r="2.666" transform="translate(20.841 -48.799)" fill="#f5d7b7"/>
      <circle id="Ellipse_119" data-name="Ellipse 119" cx="2.666" cy="2.666" r="2.666" transform="translate(20.841 -48.799)" opacity="0.1"/>
      <circle id="Ellipse_120" data-name="Ellipse 120" cx="5.136" cy="5.136" r="5.136" transform="translate(0 -42.89)" fill="#38648c"/>
      <path id="Path_3522" data-name="Path 3522" d="M10.009,319.832a5.136,5.136,0,1,0-8.7-4.452,8.345,8.345,0,0,0,1.794.892c.669.259,1.486.527,2.41.794.266.925.535,1.742.794,2.41a8.347,8.347,0,0,0,.892,1.794A5.112,5.112,0,0,0,10.009,319.832Z" transform="translate(-1.242 -353.954)" opacity="0.1"/>
      <ellipse id="Ellipse_121" data-name="Ellipse 121" cx="7.871" cy="7.699" rx="7.871" ry="7.699" transform="translate(7.32 -50.827) rotate(-45)" fill="#f5d7b7"/>
      <g id="Group_6415" data-name="Group 6415" transform="translate(13.035 -55.638)">
        <ellipse id="Ellipse_122" data-name="Ellipse 122" cx="1.248" cy="1.567" rx="1.248" ry="1.567" transform="translate(0 1.764) rotate(-45)" fill="#f28b74"/>
        <ellipse id="Ellipse_123" data-name="Ellipse 123" cx="1.248" cy="1.567" rx="1.248" ry="1.567" transform="translate(9.985 8.22) rotate(135)" fill="#f28b74"/>
      </g>
      <g id="Group_6416" data-name="Group 6416" transform="translate(15.72 -55.091)">
        <path id="Path_3523" data-name="Path 3523" d="M308.966,74.41a.383.383,0,0,1-.271-.654.362.362,0,0,0-.512-.512.383.383,0,1,1-.542-.542,1.129,1.129,0,1,1,1.6,1.6A.382.382,0,0,1,308.966,74.41Z" transform="translate(-307.528 -72.37)" fill="#495059"/>
        <path id="Path_3524" data-name="Path 3524" d="M401.166,166.621a.383.383,0,0,1-.271-.654.362.362,0,0,0-.512-.512.383.383,0,1,1-.542-.542,1.129,1.129,0,0,1,1.6,1.6A.382.382,0,0,1,401.166,166.621Z" transform="translate(-395.015 -159.868)" fill="#495059"/>
        <path id="Path_3525" data-name="Path 3525" d="M342.33,136.058a1.432,1.432,0,0,1-1.429-1.531.383.383,0,0,1,.765.052.665.665,0,0,0,.71.71.383.383,0,0,1,.053.765Q342.379,136.058,342.33,136.058Z" transform="translate(-339.192 -131.011)" fill="#495059"/>
      </g>
      <path id="Path_3526" data-name="Path 3526" d="M211.973,7.63a7.973,7.973,0,0,0-3.353,2.008,7.786,7.786,0,0,0-.122,11.01,7.627,7.627,0,0,0,6.432,2.15C210.024,21.169,208.521,12.976,211.973,7.63Z" transform="translate(-195.734 -66.031)" opacity="0.05"/>
      <path id="Path_3527" data-name="Path 3527" d="M9.613,220.862c3.134.038,10.218.784,14.3,2.913a1.418,1.418,0,0,1,.672,1.757,18.783,18.783,0,0,1-3.873,5.737,3.894,3.894,0,0,1-2.946,1.1c-4.31-.245-13.82-2.434-14.513-3.853-.7-1.441,1.507-5.149,4.15-6.986A3.8,3.8,0,0,1,9.613,220.862Z" transform="translate(-2.959 -268.362)" fill="#76b7eb"/>
      <path id="Path_3528" data-name="Path 3528" d="M9.613,220.862c3.134.038,10.218.784,14.3,2.913a1.418,1.418,0,0,1,.672,1.757,18.783,18.783,0,0,1-3.873,5.737,3.894,3.894,0,0,1-2.946,1.1c-4.31-.245-13.82-2.434-14.513-3.853-.7-1.441,1.507-5.149,4.15-6.986A3.8,3.8,0,0,1,9.613,220.862Z" transform="translate(-2.959 -268.362)" opacity="0.1"/>
      <path id="Path_3529" data-name="Path 3529" d="M51.524,221.531a11.139,11.139,0,0,0-1.9,1.712,62.735,62.735,0,0,0,1.288,6.568c.038.152.077.3.115.45a55.787,55.787,0,0,0,10.81,2.106q.176-.226.337-.457a4.835,4.835,0,0,0,.861-2.835,49.2,49.2,0,0,0-.727-7.2,47.425,47.425,0,0,0-8.567-1.013A3.8,3.8,0,0,0,51.524,221.531Z" transform="translate(-47.083 -268.36)" opacity="0.1"/>
      <path id="Path_3530" data-name="Path 3530" d="M77.365,102.277c-.038-3.134-.784-10.218-2.913-14.3a1.418,1.418,0,0,0-1.757-.672,18.783,18.783,0,0,0-5.737,3.873,3.894,3.894,0,0,0-1.1,2.946c.245,4.31,2.434,13.82,3.853,14.513,1.441.7,5.149-1.507,6.986-4.15A3.8,3.8,0,0,0,77.365,102.277Z" transform="translate(-62.483 -141.55)" fill="#76b7eb"/>
      <g id="Group_6417" data-name="Group 6417" transform="translate(5.334 -50.811)" opacity="0.1">
        <path id="Path_3531" data-name="Path 3531" d="M104.9,284.73a.383.383,0,0,1-.376-.308c-.033-.163-.185-1.161-.185-1.355a.383.383,0,0,1,.767,0c0,.127.132,1.014.17,1.207a.383.383,0,0,1-.3.451A.392.392,0,0,1,104.9,284.73Zm.206-1.663h0Z" transform="translate(-104.342 -276.213)"/>
        <path id="Path_3532" data-name="Path 3532" d="M189.816,157.65a.384.384,0,0,1-.364-.506c.028-.084.1-.244.275-.595.047-.1.092-.189.108-.224a.383.383,0,1,1,.7.316c-.021.046-.064.134-.118.245-.075.154-.215.439-.238.5A.382.382,0,0,1,189.816,157.65Z" transform="translate(-185.082 -156.099)"/>
        <path id="Path_3533" data-name="Path 3533" d="M207.748,308.985a.382.382,0,0,1-.192-.052c-.187-.109-.711-.408-.881-.486a.383.383,0,1,1,.318-.7c.235.107.876.478.948.52a.383.383,0,0,1-.193.715Z" transform="translate(-201.231 -299.964)"/>
        <path id="Path_3534" data-name="Path 3534" d="M171.476,413.093a.383.383,0,0,1-.383-.383c0-.211-.055-1.008-.082-1.391-.008-.123-.015-.216-.017-.256a.383.383,0,0,1,.765-.046c0,.039.009.13.017.249.04.583.084,1.224.084,1.444A.383.383,0,0,1,171.476,413.093Z" transform="translate(-167.585 -397.644)"/>
        <path id="Path_3535" data-name="Path 3535" d="M321.456,301.025a.383.383,0,0,1-.127-.745,6.294,6.294,0,0,0,.72-.4,2.091,2.091,0,0,1,.554-.286.383.383,0,0,1,.189.742c-.057.027-.225.128-.348.2a6.018,6.018,0,0,1-.859.461A.384.384,0,0,1,321.456,301.025Zm1.3-.675h0Z" transform="translate(-309.993 -292.256)"/>
      </g>
    </g>
  </g>
</svg>
