<svg xmlns="http://www.w3.org/2000/svg" width="32.983" height="32.994" viewBox="0 0 32.983 32.994">
  <g id="Group_6425" data-name="Group 6425" transform="translate(-29.5 -386.504)">
    <g id="Group_6424" data-name="Group 6424">
      <g id="virus_1_" data-name="virus (1)" transform="translate(29.492 386.505)">
        <path id="Path_3517" data-name="Path 3517" d="M29.715,25.162a3.641,3.641,0,0,0-1.689-.064,1.23,1.23,0,0,1-1.017-.234l-.8-.644a1.212,1.212,0,0,1-.333-1.456,9.636,9.636,0,0,0,.53-1.472,1.506,1.506,0,0,1,1.959-1.046,3.4,3.4,0,0,0,2.792-.151,3.457,3.457,0,0,0,1.552-4.418,3.413,3.413,0,0,0-4.552-1.712,3.044,3.044,0,0,0-.494.3,1.554,1.554,0,0,1-2.295-.46A13.141,13.141,0,0,0,24.3,12.349a2.033,2.033,0,0,1-.22-2.206l.841-1.633A2.037,2.037,0,0,1,26.49,7.379a3.315,3.315,0,0,0,1.061-.291,3.457,3.457,0,0,0,2.012-2.675,3.414,3.414,0,1,0-6.513.937,2.133,2.133,0,0,1-.014,1.844l-.659,1.279a2.077,2.077,0,0,1-2.44,1.064,13.708,13.708,0,0,0-2.23-.366,1.055,1.055,0,0,1-.922-.805l-.65-2.731a1.074,1.074,0,0,1,.247-.949,2.807,2.807,0,0,0,.637-2.4A2.844,2.844,0,1,0,13.238,5.5a1.1,1.1,0,0,1,.709.762l.519,2.191a1.057,1.057,0,0,1-.681,1.236,9.608,9.608,0,0,0-2.052,1.031,1.286,1.286,0,0,1-1.5-.049,1.263,1.263,0,0,1-.343-1.5,4.551,4.551,0,1,0-5.038,2.7,4.612,4.612,0,0,0,2.27-.15,1.224,1.224,0,0,1,1.328.412l.228.283a1.244,1.244,0,0,1,.095,1.418,9.591,9.591,0,0,0-1.284,3.747A1.2,1.2,0,0,1,6.4,18.637l-1.08.1a1.255,1.255,0,0,1-.985-.379,2.519,2.519,0,0,0-1.61-.716,2.559,2.559,0,1,0,2,3.908,1.261,1.261,0,0,1,.968-.561l.928-.083a1.2,1.2,0,0,1,1.247.837,9.638,9.638,0,0,0,1.757,3.2A.874.874,0,0,1,9.6,26.078a.907.907,0,0,1-.961.237A3.133,3.133,0,1,0,10.758,28.7a.864.864,0,0,1,.21-.742l.447-.5a.87.87,0,0,1,1.059-.191q.417.227.859.413a1.554,1.554,0,0,1,.909,1.6,3.413,3.413,0,1,0,6.812.3,3.384,3.384,0,0,0-.061-.639,1.581,1.581,0,0,1,.754-1.71,9.634,9.634,0,0,0,1.571-1.086,1.226,1.226,0,0,1,1.076-.3,1.212,1.212,0,0,1,.868,1.613,3.7,3.7,0,1,0,4.453-2.294Z" transform="translate(0 0)" fill="#694f87"/>
        <circle id="Ellipse_97" data-name="Ellipse 97" cx="1" cy="1" r="1" transform="translate(17.508 13.495)" fill="#bf4d90"/>
        <circle id="Ellipse_98" data-name="Ellipse 98" cx="0.5" cy="0.5" r="0.5" transform="translate(12.508 20.495)" fill="#bf4d90"/>
        <ellipse id="Ellipse_99" data-name="Ellipse 99" cx="0.5" cy="1" rx="0.5" ry="1" transform="translate(23.508 21.495)" fill="#bf4d90"/>
        <circle id="Ellipse_100" data-name="Ellipse 100" cx="0.5" cy="0.5" r="0.5" transform="translate(27.508 16.495)" fill="#bf4d90"/>
        <ellipse id="Ellipse_101" data-name="Ellipse 101" cx="1" cy="0.5" rx="1" ry="0.5" transform="translate(20.508 11.495)" fill="#bf4d90"/>
        <ellipse id="Ellipse_102" data-name="Ellipse 102" cx="2.5" cy="3" rx="2.5" ry="3" transform="translate(15.508 20.495)" fill="#bf4d90"/>
        <circle id="Ellipse_103" data-name="Ellipse 103" cx="2" cy="2" r="2" transform="translate(11.508 13.495)" fill="#bf4d90"/>
        <ellipse id="Ellipse_104" data-name="Ellipse 104" cx="2" cy="1.5" rx="2" ry="1.5" transform="translate(20.508 16.495)" fill="#bf4d90"/>
        <ellipse id="Ellipse_105" data-name="Ellipse 105" cx="1.5" cy="1" rx="1.5" ry="1" transform="translate(16.508 24.495)" fill="#ef7bc3"/>
        <ellipse id="Ellipse_106" data-name="Ellipse 106" cx="1" cy="0.5" rx="1" ry="0.5" transform="translate(6.508 30.495)" fill="#ef7bc3"/>
        <circle id="Ellipse_107" data-name="Ellipse 107" cx="1" cy="1" r="1" transform="translate(2.508 17.495)" fill="#ef7bc3"/>
        <ellipse id="Ellipse_108" data-name="Ellipse 108" cx="0.5" cy="1" rx="0.5" ry="1" transform="translate(1.508 6.495)" fill="#ef7bc3"/>
        <circle id="Ellipse_109" data-name="Ellipse 109" cx="0.5" cy="0.5" r="0.5" transform="translate(12.508 1.495)" fill="#ef7bc3"/>
        <ellipse id="Ellipse_110" data-name="Ellipse 110" cx="0.5" cy="1" rx="0.5" ry="1" transform="translate(26.508 4.495)" fill="#ef7bc3"/>
        <ellipse id="Ellipse_111" data-name="Ellipse 111" cx="1.5" cy="0.5" rx="1.5" ry="0.5" transform="translate(27.508 30.495)" fill="#ef7bc3"/>
        <circle id="Ellipse_112" data-name="Ellipse 112" cx="0.5" cy="0.5" r="0.5" transform="translate(30.508 15.495)" fill="#ef7bc3"/>
        <ellipse id="Ellipse_113" data-name="Ellipse 113" cx="1" cy="0.5" rx="1" ry="0.5" transform="translate(17.508 30.495)" fill="#ef7bc3"/>
        <circle id="Ellipse_114" data-name="Ellipse 114" cx="0.5" cy="0.5" r="0.5" transform="translate(22.508 16.495)" fill="#ef7bc3"/>
        <circle id="Ellipse_115" data-name="Ellipse 115" cx="0.5" cy="0.5" r="0.5" transform="translate(12.508 16.495)" fill="#ef7bc3"/>
      </g>
    </g>
  </g>
</svg>
