<svg xmlns="http://www.w3.org/2000/svg" width="41.334" height="25.768" viewBox="0 0 41.334 25.768">
  <g id="Group_6439" data-name="Group 6439" transform="translate(-202.333 -890)">
    <g id="physiotherapy" transform="translate(202.333 889.5)">
      <path id="Path_3494" data-name="Path 3494" d="M197.946,5.526l-1.3-1.628a1.921,1.921,0,0,1,.3-2.7l.348-.278a1.921,1.921,0,0,1,2.7.3l1.3,1.628a1.921,1.921,0,0,1-.3,2.7l-.348.278a1.921,1.921,0,0,1-2.7-.3Zm0,0" transform="translate(-180.384 0)" fill="#fedfc5"/>
      <path id="Path_3495" data-name="Path 3495" d="M219.934,2.87l-1.3-1.628A1.921,1.921,0,0,0,216.5.629a1.91,1.91,0,0,1,.869.613l1.3,1.628a1.921,1.921,0,0,1-.3,2.7l-.348.278a1.915,1.915,0,0,1-.567.311,1.919,1.919,0,0,0,1.831-.311l.348-.278A1.921,1.921,0,0,0,219.934,2.87Zm0,0" transform="translate(-199.022 -0.02)" fill="#fecbaa"/>
      <path id="Path_3496" data-name="Path 3496" d="M312.184,160.9h-3l-.907-2.452-1.413-3.82a.737.737,0,0,0-.592-.475l-3.868-.524-.877-.119-.247,1.827-.879,6.508h-3.79v-8.393l1.388-1.5,4.078-2.588.007,0,0,0v0l2.705.63,4.534,1.056a.736.736,0,0,1,.548.54Zm0,0" transform="translate(-272.664 -136.856)" fill="#7f7ce8"/>
      <path id="Path_3497" data-name="Path 3497" d="M332.008,32.44l2.227.674,4.561-2.532a.761.761,0,0,1,.922.143l.361.383a.76.76,0,0,1-.04,1.083l-4.294,3.92-4.577-1.387Zm0,0" transform="translate(-304.433 -27.565)" fill="#fedfc5"/>
      <path id="Path_3498" data-name="Path 3498" d="M380.5,31.108l-.362-.383a.76.76,0,0,0-.922-.143l-.382.212.3.313a.76.76,0,0,1-.04,1.084L375.133,35.8l1.028.312,4.294-3.919a.76.76,0,0,0,.04-1.084Zm0,0" transform="translate(-344.849 -27.566)" fill="#fecbaa"/>
      <path id="Path_3499" data-name="Path 3499" d="M489.241,258.119v4.623h-2V259.6l.258-.305,1.228-1.45C488.922,257.617,489.241,257.787,489.241,258.119Zm0,0" transform="translate(-447.907 -236.474)" fill="#4f7693"/>
      <path id="Path_3500" data-name="Path 3500" d="M304.789,150.006l-2.387,3.628-.877-.119-.247,1.827L297,161.852h-.388v-8.393l1.388-1.5,4.078-2.588.007,0,0,0v0Zm0,0" transform="translate(-272.664 -136.856)" fill="#6666d3"/>
      <path id="Path_3501" data-name="Path 3501" d="M14.262,234.646l-1.232.161-1-.161a2.061,2.061,0,0,1-2.061-2.061v-.477a2.061,2.061,0,0,1,2.061-2.061h2.236a2.061,2.061,0,0,1,2.061,2.061v.477A2.061,2.061,0,0,1,14.262,234.646Zm0,0" transform="translate(-9.16 -211.016)" fill="#fedfc5"/>
      <path id="Path_3502" data-name="Path 3502" d="M60.886,241.574h.9a1.617,1.617,0,0,0,.971-.336l1.093-.818a1.591,1.591,0,0,1,1.164-.323l7.145.913v5.5h-11.1l-2.62-2.447Zm0,0" transform="translate(-53.724 -220.244)" fill="#badb47"/>
      <path id="Path_3503" data-name="Path 3503" d="M6.027,287.016H1.782A1.782,1.782,0,0,0,0,288.8v.486a.37.37,0,0,0,.37.37H7.44a.369.369,0,0,0,.37-.37V288.8a1.782,1.782,0,0,0-1.782-1.782Zm0,0" transform="translate(0 -263.386)" fill="#e4f4ff"/>
      <path id="Path_3504" data-name="Path 3504" d="M6.027,287.016H1.782A1.782,1.782,0,0,0,0,288.8v.486a.368.368,0,0,0,.1.251,1.782,1.782,0,0,1,1.683-1.2H6.027a1.782,1.782,0,0,1,1.683,1.2.369.369,0,0,0,.1-.251V288.8a1.782,1.782,0,0,0-1.782-1.782Zm0,0" transform="translate(0 -263.386)" fill="#bddff4"/>
      <path id="Path_3505" data-name="Path 3505" d="M45.8,230.047H44.273a2.061,2.061,0,0,1,2.061,2.061v.477a2.061,2.061,0,0,1-2.061,2.061H45.8a2.061,2.061,0,0,0,2.061-2.061v-.477A2.061,2.061,0,0,0,45.8,230.047Zm0,0" transform="translate(-40.699 -211.016)" fill="#fecbaa"/>
      <path id="Path_3506" data-name="Path 3506" d="M231.845,49.991l-4.988,3.165-.488.31-.355-.552-2.982-4.639a.209.209,0,0,0-.383.131L222.8,50.2l.406,4.818-1.859,2-.762-6.219-.579-4.723a2.39,2.39,0,0,1,.915-2.183l3.478-2.675a2.313,2.313,0,0,1,2.033-.4l3.372,1.041-.84,2.283-1.339-.4a.257.257,0,0,0-.247.411Zm0,0" transform="translate(-202.229 -36.993)" fill="#fedfc5"/>
      <path id="Path_3507" data-name="Path 3507" d="M231.845,49.99l-4.988,3.165-.843-.242-2.982-4.639a.209.209,0,0,0-.383.13L222.8,50.2l-2.214.6h0l-.579-4.723a2.39,2.39,0,0,1,.915-2.183L224.4,41.22a2.313,2.313,0,0,1,2.033-.395l3.372,1.041-.84,2.283-1.339-.4a.257.257,0,0,0-.247.411Zm0,0" transform="translate(-202.229 -36.991)" fill="#25bed3"/>
      <path id="Path_3508" data-name="Path 3508" d="M489.241,279.126v1.316h-2V277.3L487.5,277Zm0,0" transform="translate(-447.907 -254.175)" fill="#43657a"/>
      <path id="Path_3509" data-name="Path 3509" d="M249.244,253.9v3.141H235.676l-7.332-.081v-5.421l1.985.224,6.134.693Zm0,0" transform="translate(-209.909 -230.776)" fill="#fd82ac"/>
      <path id="Path_3510" data-name="Path 3510" d="M451.992,294.411l.03-2.219h3l1.813,2.219Zm0,0" transform="translate(-415.503 -268.143)" fill="#4f7693"/>
      <path id="Path_3511" data-name="Path 3511" d="M241.809,255.009l-3.016,4.584-4.633-.081v-3.563l1.515-1.633Zm0,0" transform="translate(-215.256 -233.325)" fill="#fd6096"/>
      <path id="Path_3512" data-name="Path 3512" d="M228.344,82.814v4.521H232.4l11.5-17.482L242.084,68Zm0,0" transform="translate(-209.91 -62.047)" fill="#fd82ac"/>
      <path id="Path_3513" data-name="Path 3513" d="M132.09,283.086l3.212.317v2.637H132.09" transform="translate(-121.426 -259.773)" fill="#badb47"/>
      <path id="Path_3514" data-name="Path 3514" d="M398.547,37.733l1.818,1.857,1.312-1.682-2.609-2.755a.244.244,0,0,0-.421.158Zm0,0" transform="translate(-366.372 -31.784)" fill="#4f7693"/>
      <path id="Path_3515" data-name="Path 3515" d="M171.875,287.016l10.778,1.1a.989.989,0,0,1,.787.678l.325.856H171.875Zm0,0" transform="translate(-157.999 -263.386)" fill="#fedfc5"/>
      <path id="Path_3516" data-name="Path 3516" d="M446.461,271.065l3.044-.455.433,1.742h-3Zm0,0" transform="translate(-410.418 -248.303)" fill="#7f7ce8"/>
    </g>
  </g>
</svg>
