<svg xmlns="http://www.w3.org/2000/svg" width="32.312" height="19" viewBox="0 0 32.312 19">
  <g id="Group_6429" data-name="Group 6429" transform="translate(-208.844 -494)">
    <g id="Group_6428" data-name="Group 6428">
      <g id="london-eye" transform="translate(208.845 388.533)">
        <path id="Path_3403" data-name="Path 3403" d="M16.155,105.467c-7.777,0-14.288,7.013-15.968,8.988a.79.79,0,0,0,0,1.024c1.679,1.975,8.191,8.988,15.968,8.988s14.288-7.013,15.968-8.988a.79.79,0,0,0,0-1.024C30.444,112.48,23.932,105.467,16.155,105.467Z" transform="translate(0 0)" fill="#35528c"/>
        <path id="Path_3404" data-name="Path 3404" d="M2.991,114.967c0-1.534,6.047-9.5,13.507-9.5-7.713,0-14.182,6.9-15.925,8.939a.863.863,0,0,0,0,1.123c1.744,2.039,8.212,8.939,15.925,8.939C9.038,124.467,2.991,116.5,2.991,114.967Z" transform="translate(-0.343 0)" fill="#1f3a60"/>
        <circle id="Ellipse_93" data-name="Ellipse 93" cx="9" cy="9" r="9" transform="translate(7.155 105.967)" fill="#99d3ff"/>
        <path id="Path_3405" data-name="Path 3405" d="M127.282,132.33a8.333,8.333,0,0,1,6.69-8.168,8.33,8.33,0,1,0,0,16.337,8.333,8.333,0,0,1-6.69-8.168Z" transform="translate(-116.175 -17.363)" fill="#5bb3ce"/>
        <circle id="Ellipse_94" data-name="Ellipse 94" cx="4.14" cy="4.14" r="4.14" transform="translate(11.927 110.827)" fill="#1f3a60"/>
      </g>
    </g>
  </g>
</svg>
