<svg xmlns="http://www.w3.org/2000/svg" xmlns:xlink="http://www.w3.org/1999/xlink" width="282.929" height="216.706" viewBox="0 0 282.929 216.706">
  <defs>
    <linearGradient id="linear-gradient" x1="0.5" y1="1" x2="0.5" gradientUnits="objectBoundingBox">
      <stop offset="0" stop-color="gray" stop-opacity="0.251"/>
      <stop offset="0.54" stop-color="gray" stop-opacity="0.122"/>
      <stop offset="1" stop-color="gray" stop-opacity="0.102"/>
    </linearGradient>
    <filter id="Ellipse_25" x="201.37" y="88.302" width="21.797" height="21.797" filterUnits="userSpaceOnUse">
      <feOffset input="SourceAlpha"/>
      <feGaussianBlur stdDeviation="1.5" result="blur"/>
      <feFlood flood-opacity="0.161"/>
      <feComposite operator="in" in2="blur"/>
      <feComposite in="SourceGraphic"/>
    </filter>
  </defs>
  <g id="Group_6431" data-name="Group 6431" transform="translate(-47.919 -147.5)">
    <path id="Path_1246" data-name="Path 1246" d="M59.538,396.83H85.8v35.8H61.461c-.065.367-.127.738-.194,1.108H85.8v28.871c-.044-.013-.083-.028-.124-.044-.694-.274-1.382-.564-2.07-.875l-.44-.2q-1.035-.489-2.07-1.035c-.241-.127-.481-.259-.719-.393A43.067,43.067,0,0,1,70.058,452c-.088-.085-.171-.176-.259-.259-.419-.456-.831-.916-1.229-1.387l-.44-.518c-.471-.577-.926-1.17-1.369-1.77-.065-.088-.127-.176-.194-.259a38.528,38.528,0,0,1-4.451-8.048c-.036-.085-.067-.179-.1-.259q-.533-1.372-.945-2.769c-.119-.391-.233-.776-.331-1.183-.036-.119-.067-.235-.1-.352C59.173,429.456,59,423.5,59,417.577v-2.07c0-2.394.028-4.8.07-7.21,0-.624.026-1.245.039-1.871q.054-2.383.155-4.767c.016-.443.036-.882.06-1.322a7.492,7.492,0,0,1,.039-.761C59.424,398.654,59.476,397.741,59.538,396.83Z" transform="translate(-11.081 -161.805)" fill="#1f8ced" opacity="0.1"/>
    <path id="Path_1247" data-name="Path 1247" d="M121.307,190.659H106.9a109.212,109.212,0,0,1,7.663-10.548c2.14-2.629,4.4-5.191,6.744-7.66Z" transform="translate(-46.585 4.507)" fill="#1f8ced" opacity="0.1"/>
    <path id="Path_1248" data-name="Path 1248" d="M87.582,247.09v37.644H61.4c0-.109.018-.22.026-.329.023-.3.047-.6.072-.89.028-.347.06-.7.093-1.035s.07-.753.109-1.128.075-.756.119-1.131.083-.75.129-1.123.088-.751.137-1.123c.039-.311.08-.619.122-.929.06-.437.122-.877.189-1.312a1.21,1.21,0,0,1,.028-.194,89.521,89.521,0,0,1,1.928-9.451,69.9,69.9,0,0,1,3.248-9.575,71.883,71.883,0,0,1,4.886-9.41Z" transform="translate(-12.86 -50.816)" fill="#1f8ced" opacity="0.1"/>
    <path id="Path_1249" data-name="Path 1249" d="M186.8,146.146v35.8h56.1v-35.8Zm0,36.906V213.8c.321.067.639.132.955.186.43.083.857.158,1.294.223.083.013.168.026.259.034.171.028.347.052.518.075.432.06.862.109,1.294.148.2.021.411.039.619.054l.5.039h0c.272.021.541.036.807.044.166,0,.331.016.5.021h1.845c.223,0,.445,0,.665-.021h.016a3.486,3.486,0,0,0,.463-.021,1.083,1.083,0,0,0,.129,0,2.676,2.676,0,0,0,.383-.018h.091l.867-.067c.285-.026.572-.06.862-.091l.59-.07a51.618,51.618,0,0,0,7.1-1.511c5.233-1.46,10.352-3.5,15.582-5,6.762-1.928,14.234-2.875,20.768-.518V183.052Zm56.1-76.763V58.628a72.118,72.118,0,0,0-18.227,2.138c-14.205,3.569-26.951,11.309-37.872,21.2v24.326h2.816v1.105H186.8v37.649h56.1V107.395H201.176V106.29Zm72.055-16.1a23.236,23.236,0,0,1-10.168-2.955c-6.043-3.287-10.869-8.362-16.263-12.645a74.666,74.666,0,0,0-39.36-15.639V106.29h80.083l.2-.21Zm7.3-1.294,7.735,8.488V86.671a30.691,30.691,0,0,0-7.725,2.215Zm7.735,132.535V183.052H313.5c-.044-.163-.088-.329-.14-.494.049.166.091.331.137.494H249.174v27.755c.611.453,1.214.929,1.812,1.413h0c.644.518,1.281,1.064,1.92,1.6l.644.533c.308.259.619.518.932.761q.932.756,1.881,1.491c.313.259.634.492.952.735a129.719,129.719,0,0,0,15.949,10.432q1.871,1.035,3.776,2.021c.846.432,1.7.862,2.552,1.278q1.925.939,3.882,1.812h0a142.553,142.553,0,0,0,37.784,11.006q4.345.642,8.724,1.009v-23.47h.259Zm-80.81-114.037v37.646h80.821V107.395Zm0,38.752v35.8h80.821v-35.8Zm87.094-59.522V98.575l9.873-10.833q-4.907-.792-9.873-1.131Zm0,59.535v35.788h78.608v-35.8Zm78.321,78.114.277-41.22h-78.6V245.31a140.964,140.964,0,0,0,15.191-.181h.088q3.623-.228,7.213-.662h.054a132.823,132.823,0,0,0,37.059-9.888m34.16-82.537c-.295-.7-.6-1.387-.916-2.07-.585-1.294-1.2-2.552-1.84-3.809h-6.133v35.786h15.507a77.358,77.358,0,0,0-6.61-29.919Zm-8.889,31.024V218.52a50.789,50.789,0,0,0,10.717-14.453,49.687,49.687,0,0,0,4.777-21.006Zm0-47.338v9.316H426.7a100.937,100.937,0,0,0-5.551-9.329Zm-53.311-42.08c-.409-.155-.818-.313-1.229-.466a112.217,112.217,0,0,0-13.279-3.991l-15.108,16.581h0l-.29.308.194.212h53.772a115.011,115.011,0,0,0-24.052-12.658Zm25.636,13.76h-56.1l-1.1,1.009v36.624h78.618V127.3a112.006,112.006,0,0,0-21.41-19.906Z" transform="translate(-105.807 88.876)" fill="#1f8ced" opacity="0.1"/>
    <path id="Path_1250" data-name="Path 1250" d="M87.582,320.46v18.656H61.4c0-.109.018-.22.026-.329.023-.3.047-.6.072-.89.028-.347.06-.7.093-1.035s.07-.753.109-1.128.075-.756.119-1.131.083-.75.129-1.123.088-.75.137-1.123c.039-.311.08-.619.122-.929.06-.437.122-.877.189-1.312a1.21,1.21,0,0,1,.028-.194,89.518,89.518,0,0,1,1.928-9.451Z" transform="translate(-12.86 -105.199)" fill="#1f8ced" opacity="0.1"/>
    <path id="Path_1251" data-name="Path 1251" d="M59.538,396.83H85.8v35.8H61.461c-.065.367-.127.738-.194,1.108H85.8v28.871c-.044-.013-.083-.028-.124-.044-.694-.274-1.382-.564-2.07-.875l-.44-.2q-1.035-.489-2.07-1.035c-.241-.127-.481-.259-.719-.393A43.067,43.067,0,0,1,70.058,452c-.088-.085-.171-.176-.259-.259-.419-.456-.831-.916-1.229-1.387l-.44-.518c-.471-.577-.926-1.17-1.369-1.77-.065-.088-.127-.176-.194-.259a38.528,38.528,0,0,1-4.451-8.048c-.036-.085-.067-.179-.1-.259q-.533-1.372-.945-2.769c-.119-.391-.233-.776-.331-1.183-.036-.119-.067-.235-.1-.352C59.173,429.456,59,423.5,59,417.577v-2.07c0-2.394.028-4.8.07-7.21,0-.624.026-1.245.039-1.871q.054-2.383.155-4.767c.016-.443.036-.882.06-1.322a7.492,7.492,0,0,1,.039-.761C59.424,398.654,59.476,397.741,59.538,396.83Z" transform="translate(-11.081 -161.805)" fill="#1f8ced" opacity="0.1"/>
    <path id="Path_1252" data-name="Path 1252" d="M159.308,178v32.256H139.56V178h2.816V167.08h11.558V178Z" transform="translate(-58.567 23.661)" fill="#1f8ced" opacity="0.1"/>
    <rect id="Rectangle_3814" data-name="Rectangle 3814" width="19.746" height="35.799" transform="translate(80.995 235.023)" fill="#1f8ced" opacity="0.1"/>
    <path id="Path_1253" data-name="Path 1253" d="M186.8,539.44h19.748V569.2a51.553,51.553,0,0,1-7.1,1.509l-.59.072c-.29.034-.577.062-.862.091s-.58.049-.867.067h-.091c-.124,0-.259.016-.38.018h-.132c-.155,0-.311.016-.466.021h0c-.22.013-.44.016-.665.018H193.56l-.5-.018c-.259,0-.538-.028-.807-.047h0l-.5-.036-.619-.057c-.435-.039-.867-.088-1.294-.148l-.518-.072-.259-.036c-.432-.067-.859-.14-1.294-.223-.318-.054-.634-.122-.955-.186Z" transform="translate(-105.807 -267.509)" fill="#1f8ced" opacity="0.1"/>
    <rect id="Rectangle_3815" data-name="Rectangle 3815" width="16.283" height="36.063" transform="translate(207.904 197.852)" fill="#1f8ced" opacity="0.1"/>
    <path id="Path_1254" data-name="Path 1254" d="M461.4,338.19v35.8H380.58V358.549h43.05v9.109h21.488V338.19Z" transform="translate(-237.213 -103.167)" fill="#1f8ced" opacity="0.1"/>
    <path id="Path_1255" data-name="Path 1255" d="M508.9,576.408h-.259v23.485q-4.374-.37-8.721-1.007a142.56,142.56,0,0,1-37.8-11.03q-5.21-2.345-10.207-5.119a130.26,130.26,0,0,1-15.952-10.432q-1.9-1.46-3.76-2.986c-.857-.707-1.708-1.431-2.57-2.135-.6-.484-1.2-.96-1.812-1.416V538.024h64.323c-.044-.166-.088-.331-.135-.494.049.163.1.329.14.494h16.493v38.369C508.729,576.4,508.814,576.4,508.9,576.408Z" transform="translate(-284.453 -266.093)" fill="#1f8ced" opacity="0.1"/>
    <path id="Path_1256" data-name="Path 1256" d="M873.83,205.238H863.22v-3.3h4.757V192.12q.619.225,1.232.463v9.358h4.622Z" transform="translate(-607.175 -10.072)" fill="#1f8ced" opacity="0.1"/>
    <path id="Path_1257" data-name="Path 1257" d="M826.118,284.734h-52.09l.018.013-.023-.013H764.36V248.671H767.1v26.656h12.513V259.54h10.336V247.09h10.61v12.461h10.336v15.786h15.225Z" transform="translate(-533.899 -50.816)" fill="#1f8ced" opacity="0.1"/>
    <path id="Path_1258" data-name="Path 1258" d="M764.36,396.82v35.8h61.758v-35.8Zm78.523,77.943.085-28.338h-16.85V433.744H764.36v62.239a140.946,140.946,0,0,0,15.191-.181h.088q3.623-.228,7.213-.662h.054a132.823,132.823,0,0,0,37.059-9.888" transform="translate(-533.899 -161.797)" fill="#1f8ced" opacity="0.1"/>
    <path id="Path_1259" data-name="Path 1259" d="M1093.457,539.44h14.407a49.844,49.844,0,0,1-4.78,21A50.806,50.806,0,0,1,1092.37,574.9V552.123h1.087Z" transform="translate(-777.023 -267.509)" fill="#1f8ced" opacity="0.1"/>
    <path id="Path_1260" data-name="Path 1260" d="M1110.985,449.469H1096.57V419.55h7.8A77.454,77.454,0,0,1,1110.985,449.469Z" transform="translate(-780.136 -178.645)" fill="#1f8ced" opacity="0.1"/>
    <rect id="Rectangle_3816" data-name="Rectangle 3816" width="8.724" height="11.307" transform="translate(215.466 207.878)" fill="#1f8ced" opacity="0.1"/>
    <rect id="Rectangle_3817" data-name="Rectangle 3817" width="8.724" height="2.603" transform="translate(215.466 231.314)" fill="#1f8ced" opacity="0.1"/>
    <rect id="Rectangle_3818" data-name="Rectangle 3818" width="8.724" height="7.596" transform="translate(215.466 235.023)" fill="#1f8ced" opacity="0.1"/>
    <rect id="Rectangle_3819" data-name="Rectangle 3819" width="8.724" height="11.307" transform="translate(215.466 254.75)" fill="#1f8ced" opacity="0.1"/>
    <rect id="Rectangle_3820" data-name="Rectangle 3820" width="8.724" height="11.307" transform="translate(215.466 278.186)" fill="#1f8ced" opacity="0.1"/>
    <path id="Path_1261" data-name="Path 1261" d="M715.141,662.847a1.438,1.438,0,0,1,.259.016h-.259v2.627H706.42V654.17h8.721Z" transform="translate(-490.954 -352.547)" fill="#1f8ced" opacity="0.1"/>
    <path id="Path_1262" data-name="Path 1262" d="M715.141,744.71v8.734q-4.374-.37-8.721-1.007V744.71Z" transform="translate(-490.954 -419.656)" fill="#1f8ced" opacity="0.1"/>
    <rect id="Rectangle_3821" data-name="Rectangle 3821" width="37.388" height="0.831" transform="translate(143.367 269.993)" fill="#1f8ced" opacity="0.1"/>
    <rect id="Rectangle_3822" data-name="Rectangle 3822" width="37.388" height="3.183" transform="translate(143.367 271.929)" fill="#1f8ced" opacity="0.1"/>
    <rect id="Rectangle_3823" data-name="Rectangle 3823" width="37.388" height="5.119" transform="translate(143.367 285.547)" fill="#1f8ced" opacity="0.1"/>
    <path id="Path_1263" data-name="Path 1263" d="M470.386,652.15v5.119H441.143q-1.9-1.455-3.763-2.987c-.857-.706-1.705-1.431-2.57-2.132Z" transform="translate(-289.634 -351.05)" fill="#1f8ced" opacity="0.1"/>
    <path id="Path_1264" data-name="Path 1264" d="M534.211,712.218v5.114h-3.087q-5.2-2.347-10.2-5.122Z" transform="translate(-353.46 -395.567)" fill="#1f8ced" opacity="0.1"/>
    <rect id="Rectangle_3824" data-name="Rectangle 3824" width="7.36" height="7.36" transform="translate(245.654 238.493)" fill="#1f8ced" opacity="0.1"/>
    <rect id="Rectangle_3825" data-name="Rectangle 3825" width="7.36" height="7.36" transform="translate(86.295 204.2)" fill="#1f8ced" opacity="0.1"/>
    <rect id="Rectangle_3826" data-name="Rectangle 3826" width="7.36" height="7.36" transform="translate(86.295 221.296)" fill="#1f8ced" opacity="0.1"/>
    <rect id="Rectangle_3827" data-name="Rectangle 3827" width="7.36" height="7.36" transform="translate(86.295 238.392)" fill="#1f8ced" opacity="0.1"/>
    <rect id="Rectangle_3828" data-name="Rectangle 3828" width="7.36" height="7.36" transform="translate(86.295 255.485)" fill="#1f8ced" opacity="0.1"/>
    <rect id="Rectangle_3829" data-name="Rectangle 3829" width="7.36" height="7.36" transform="translate(86.295 272.581)" fill="#1f8ced" opacity="0.1"/>
    <rect id="Rectangle_3830" data-name="Rectangle 3830" width="7.36" height="7.36" transform="translate(86.295 289.677)" fill="#1f8ced" opacity="0.1"/>
    <rect id="Rectangle_3831" data-name="Rectangle 3831" width="7.36" height="7.36" transform="translate(273.751 238.493)" fill="#1f8ced" opacity="0.1"/>
    <rect id="Rectangle_3832" data-name="Rectangle 3832" width="7.36" height="7.36" transform="translate(245.654 256.647)" fill="#1f8ced" opacity="0.1"/>
    <rect id="Rectangle_3833" data-name="Rectangle 3833" width="7.36" height="7.36" transform="translate(273.751 256.647)" fill="#1f8ced" opacity="0.1"/>
    <rect id="Rectangle_3834" data-name="Rectangle 3834" width="7.36" height="7.36" transform="translate(245.654 274.799)" fill="#1f8ced" opacity="0.1"/>
    <rect id="Rectangle_3835" data-name="Rectangle 3835" width="7.36" height="7.36" transform="translate(273.751 274.799)" fill="#1f8ced" opacity="0.1"/>
    <rect id="Rectangle_3836" data-name="Rectangle 3836" width="7.36" height="7.36" transform="translate(245.654 292.953)" fill="#1f8ced" opacity="0.1"/>
    <rect id="Rectangle_3837" data-name="Rectangle 3837" width="7.36" height="7.36" transform="translate(273.751 292.953)" fill="#1f8ced" opacity="0.1"/>
    <rect id="Rectangle_3838" data-name="Rectangle 3838" width="7.36" height="7.36" transform="translate(245.654 311.107)" fill="#1f8ced" opacity="0.1"/>
    <rect id="Rectangle_3839" data-name="Rectangle 3839" width="7.36" height="7.36" transform="translate(273.751 311.107)" fill="#1f8ced" opacity="0.1"/>
    <path id="Path_1265" data-name="Path 1265" d="M775.83,707.076V702.33h7.357V706.4Z" transform="translate(-530.176 -373.071)" fill="#1f8ced" opacity="0.1"/>
    <path id="Path_1266" data-name="Path 1266" d="M65.24,357v4.211H90.428V357Zm2.51,3.947H65.7v-3.688h2.07Zm2.508,0h-2.07v-3.688h2.07Zm2.5,0H70.69v-3.688h2.07Zm2.508,0H73.2v-3.688h2.07Zm2.505,0H75.7v-3.688h2.07Zm2.508,0h-2.07v-3.688h2.07Zm2.508,0h-2.07v-3.688h2.07Zm2.505,0h-2.07v-3.688h2.07Zm2.505,0h-2.07v-3.688H87.8Zm2.505,0h-2.07v-3.688H90.3Z" transform="translate(-15.706 -132.283)" fill="#1f8ced" opacity="0.1"/>
    <path id="Path_1267" data-name="Path 1267" d="M65.24,404.34v4.211H90.428V404.34Zm2.51,3.944H65.7v-3.677h2.07Zm2.508,0h-2.07v-3.677h2.07Zm2.5,0H70.69v-3.677h2.07Zm2.508,0H73.2v-3.677h2.07Zm2.505,0H75.7v-3.677h2.07Zm2.508,0h-2.07v-3.677h2.07Zm2.508,0h-2.07v-3.677h2.07Zm2.505,0h-2.07v-3.677h2.07Zm2.505,0h-2.07v-3.677H87.8Zm2.505,0h-2.07v-3.677H90.3Z" transform="translate(-15.706 -167.371)" fill="#1f8ced" opacity="0.1"/>
    <path id="Path_1268" data-name="Path 1268" d="M65.24,451.7v4.218H90.428V451.7Zm2.51,3.944H65.7v-3.68h2.07Zm2.508,0h-2.07v-3.68h2.07Zm2.5,0H70.69v-3.68h2.07Zm2.508,0H73.2v-3.68h2.07Zm2.505,0H75.7v-3.68h2.07Zm2.508,0h-2.07v-3.68h2.07Zm2.508,0h-2.07v-3.68h2.07Zm2.505,0h-2.07v-3.68h2.07Zm2.505,0h-2.07v-3.68H87.8Zm2.505,0h-2.07v-3.68H90.3Z" transform="translate(-15.706 -202.475)" fill="#1f8ced" opacity="0.1"/>
    <path id="Path_1269" data-name="Path 1269" d="M65.24,499.06v4.205H90.428V499.06ZM67.75,503H65.7v-3.683h2.07Zm2.508,0h-2.07v-3.683h2.07Zm2.5,0H70.69v-3.683h2.07Zm2.508,0H73.2v-3.683h2.07Zm2.505,0H75.7v-3.683h2.07Zm2.508,0h-2.07v-3.683h2.07Zm2.508,0h-2.07v-3.683h2.07Zm2.505,0h-2.07v-3.683h2.07Zm2.505,0h-2.07v-3.683H87.8Zm2.505,0h-2.07v-3.683H90.3Z" transform="translate(-15.706 -237.579)" fill="#1f8ced" opacity="0.1"/>
    <path id="Path_1270" data-name="Path 1270" d="M65.66,546.41c.1.4.215.792.334,1.183v-.919h2.07v3.68H66.957c.034.085.067.179.1.259H90.74v-4.2Zm4.917,3.944h-2.07v-3.68h2.07Zm2.5,0h-2.07v-3.68h2.07Zm2.508,0H73.512v-3.68h2.07Zm2.505,0h-2.07v-3.68h2.07Zm2.508,0H78.53v-3.68H80.6Zm2.508,0h-2.07v-3.68h2.07Zm2.505,0h-2.07v-3.68h2.07Zm2.505,0h-2.07v-3.68h2.07Zm2.505,0h-2.07v-3.68h2.07Z" transform="translate(-16.017 -272.675)" fill="#1f8ced" opacity="0.1"/>
    <path id="Path_1271" data-name="Path 1271" d="M88.26,593.77c.065.083.127.176.194.259h1.369V595.8c.148.176.292.352.443.518v-2.3h2.07v3.693H91.5c.083.085.163.176.259.259H107.5v-4.2Zm6.576,3.941h-2.07v-3.677h2.07Zm2.508,0h-2.07v-3.677h2.07Zm2.508,0h-2.07v-3.677h2.07Zm2.505,0h-2.07v-3.677h2.07Zm2.505,0h-2.07v-3.677h2.07Zm2.505,0H105.3v-3.677h2.07Z" transform="translate(-32.769 -307.778)" fill="#1f8ced" opacity="0.1"/>
    <path id="Path_1272" data-name="Path 1272" d="M141.65,641.12c.236.135.476.259.719.393v-.129h2.07v1.165l.44.2v-1.369h2.07v2.239a.645.645,0,0,0,.124.047V641.12Z" transform="translate(-72.342 -342.875)" fill="#6c63ff" opacity="0.1"/>
    <path id="Path_1273" data-name="Path 1273" d="M354.03,281.539Zm-15.942,76.38Zm-16.633-38.863c.049.166.091.331.137.494h0C321.552,319.388,321.508,319.222,321.456,319.056Zm32.574-37.525ZM197.72,242.78v1.105h11.56V242.78ZM338.089,357.919Zm-16.633-38.863c.049.166.091.331.137.494h0C321.552,319.388,321.508,319.222,321.456,319.056Zm32.574-37.525Zm-15.942,76.38Zm-16.633-38.855c.049.166.091.331.137.494h0C321.552,319.388,321.508,319.222,321.456,319.056Z" transform="translate(-113.901 -47.622)" fill="#1f8ced" opacity="0.1"/>
    <path id="Path_1359" data-name="Path 1359" d="M881.39,451Z" transform="translate(-620.643 -201.956)" fill="#ffb0b1"/>
    <path id="Path_1360" data-name="Path 1360" d="M880.74,451.48l.078-.08Z" transform="translate(-620.161 -202.253)" fill="#ffb0b1"/>
    <path id="Path_1370" data-name="Path 1370" d="M861.607,428.943h0a.662.662,0,0,1,.831.43l2.241,7.06-.168,1.108.163.171.223-1.478-2.254-7.06a.663.663,0,0,0-.828-.43h0a.662.662,0,0,0-.344.259.9.9,0,0,1,.137-.06Z" transform="translate(-605.878 -185.437)" fill="#fff" opacity="0.1"/>
    <path id="Path_1532" data-name="Path 1532" d="M267.81,317.87V452.322a4.694,4.694,0,0,0,4.694,4.694H465.447a4.694,4.694,0,0,0,4.694-4.694V317.87Z" transform="translate(-186.81 -113.623)" fill="#fff"/>
    <rect id="Rectangle_3841" data-name="Rectangle 3841" width="48.367" height="28.39" rx="8.65" transform="translate(97.011 216.283)" opacity="0.1"/>
    <rect id="Rectangle_3842" data-name="Rectangle 3842" width="48.367" height="28.39" rx="8.65" transform="translate(157.983 216.283)" opacity="0.1"/>
    <rect id="Rectangle_3843" data-name="Rectangle 3843" width="47.007" height="27.59" rx="8.65" transform="translate(97.69 216.682)" fill="#1f8ced"/>
    <rect id="Rectangle_3844" data-name="Rectangle 3844" width="47.007" height="27.59" rx="8.65" transform="translate(266.641 244.272) rotate(180)" fill="#1f8ced" opacity="0.1"/>
    <rect id="Rectangle_3845" data-name="Rectangle 3845" width="47.007" height="27.59" rx="8.65" transform="translate(205.669 244.272) rotate(180)" fill="#1f8ced"/>
    <rect id="Rectangle_3846" data-name="Rectangle 3846" width="47.007" height="27.59" rx="8.65" transform="translate(97.69 256.535)" fill="#1f8ced" opacity="0.1"/>
    <rect id="Rectangle_3847" data-name="Rectangle 3847" width="47.007" height="27.59" rx="8.65" transform="translate(266.641 284.125) rotate(180)" fill="#1f8ced" opacity="0.1"/>
    <path id="Path_1559" data-name="Path 1559" d="M8.65,0H38.357a8.65,8.65,0,0,1,8.65,8.65V18.94a8.65,8.65,0,0,1-8.65,8.65H8.65A8.65,8.65,0,0,1,0,18.94V8.65A8.65,8.65,0,0,1,8.65,0Z" transform="translate(205.669 284.125) rotate(180)" fill="#1f8ced" opacity="0.1"/>
    <rect id="Rectangle_3849" data-name="Rectangle 3849" width="47.007" height="27.59" rx="8.65" transform="translate(97.69 296.389)" fill="#1f8ced" opacity="0.1"/>
    <rect id="Rectangle_3850" data-name="Rectangle 3850" width="47.007" height="27.59" rx="8.65" transform="translate(266.641 323.982) rotate(180)" fill="#1f8ced" opacity="0.1"/>
    <rect id="Rectangle_3851" data-name="Rectangle 3851" width="47.007" height="27.59" rx="8.65" transform="translate(205.669 323.982) rotate(180)" fill="#1f8ced" opacity="0.1"/>
    <path id="Path_1533" data-name="Path 1533" d="M267.81,229.127v24.427H470.141V229.127a4.694,4.694,0,0,0-4.694-4.7H272.5a4.694,4.694,0,0,0-4.694,4.7Zm50.072,7.226a3.747,3.747,0,1,1,3.747-3.747,3.747,3.747,0,0,1-3.747,3.747Zm102.186,0a3.755,3.755,0,1,0-.006,0Z" transform="translate(-186.81 -48.625)" fill="#1f8ced"/>
    <path id="Path_1534" data-name="Path 1534" d="M422.182,236.74a4.429,4.429,0,1,0,4.426,4.428A4.429,4.429,0,0,0,422.182,236.74Zm0,8.176a3.747,3.747,0,1,1,3.747-3.747,3.747,3.747,0,0,1-3.747,3.747Z" transform="translate(-291.11 -57.188)" opacity="0.1"/>
    <path id="Path_1535" data-name="Path 1535" d="M757.879,236.74a4.429,4.429,0,1,0,4.429,4.429A4.429,4.429,0,0,0,757.879,236.74Zm0,8.176a3.747,3.747,0,1,1,3.747-3.747A3.747,3.747,0,0,1,757.879,244.916Z" transform="translate(-524.626 -57.188)" opacity="0.1"/>
    <path id="Path_1536" data-name="Path 1536" d="M836.91,520.077a9.743,9.743,0,0,0-2.258-1.269.466.466,0,0,0-.2-.052,34.75,34.75,0,0,1-4.657-4.012c.3-.244.584-.481.883-.715-1.826-.871-2.84-2.864-3.826-4.663A46,46,0,0,0,816.7,496.722c-.1-.387-.688-.3-1-.554a.8.8,0,0,1-.222-.776c.049-.28.177-.539.247-.813a5.486,5.486,0,0,0-.052-1.979,2.424,2.424,0,0,1,.4-1.89c.14-.161.32-.286.457-.451a1.717,1.717,0,0,0,.3-1.367,4.848,4.848,0,0,0-.3-1.385q2.237-6.088,4.471-12.2a28.765,28.765,0,0,0,2.2-8.779,10.492,10.492,0,0,0-2.015-6.824c.268-.064.536-.131.8-.207-1.741-2.307-1.93-5.363-1.975-8.27q-.037-2.173-.149-4.35c.505.222,1.017.42,1.54.591l.487.149a16.787,16.787,0,0,0,2.414.517c.359.052.724.091,1.087.116h0q-.785-1.966-1.568-3.939a5.383,5.383,0,0,1-.487-1.848h0v-.122a1.06,1.06,0,0,1,.015-.219,2.4,2.4,0,0,1,.119-.511,2.294,2.294,0,0,1,.094-.24,4.262,4.262,0,0,1,.39-.685c.109-.167.231-.329.353-.493a6.731,6.731,0,0,0,1.093-1.768,3.351,3.351,0,0,0,.167-1.008,4.968,4.968,0,0,0-.091-1.035c-.043-.225-.1-.454-.158-.673h0c-.04-.137-.082-.274-.125-.408l-.036-.11c-.034-.1-.067-.2-.1-.3l-.037-.1c-.04-.11-.079-.216-.122-.326l-.024-.064c-.581-1.495-1.355-2.919-1.826-4.456a11.738,11.738,0,0,1-.3-1.245c-.021-.107-.036-.216-.055-.323s-.027-.183-.04-.274-.027-.213-.04-.32l-.027-.3c0-.1-.015-.195-.021-.3,0-.186-.018-.371-.021-.557v-.846c0-.14.021-.28.034-.417a.618.618,0,0,1,.021-.2q.03-.3.082-.609h0c.03-.18.064-.362.1-.545a7.273,7.273,0,0,0,.17-1.522,1.5,1.5,0,0,0-.021-.3c-.021-.107-.024-.164-.039-.243a.584.584,0,0,1,0-.073.806.806,0,0,0-.04-.164.307.307,0,0,0-.024-.076c-.009-.024-.034-.107-.052-.158s-.015-.046-.024-.07-.043-.11-.067-.161l-.021-.055c-.03-.067-.064-.131-.1-.195h0a4.477,4.477,0,0,0-.408-.633h0c-1-1.315-2.666-2.316-3.583-3.765a8.383,8.383,0,0,1-1.026-3.044c-.046-.244-.085-.487-.128-.728s-.079-.478-.122-.715c-.027-.146-.055-.3-.085-.438l-.018-.094c-.024-.116-.049-.234-.076-.35l-.018-.082c-.027-.122-.055-.243-.085-.365l-.018-.064c-.03-.128-.064-.256-.1-.384a.254.254,0,0,1,0-.046c-.037-.134-.076-.268-.116-.4v-.027c-.043-.14-.085-.277-.131-.414h0c-.046-.14-.094-.283-.146-.423h0c-.055-.143-.106-.286-.164-.426h0a11.259,11.259,0,0,0-1.54-2.74,7.27,7.27,0,0,0-5.783-2.989,11.457,11.457,0,0,0-3.479.883l-2.931,1.081.819-.377a7.006,7.006,0,0,0-2.493.533,2.421,2.421,0,0,0-1.446,1.982c-.015.5.183,1,.119,1.5-.107.825-.865,1.385-1.257,2.116a2.722,2.722,0,0,0-.3,1.431v.195a.282.282,0,0,0,0,.049v.1c-1.218-.53-2.435-1.081-3.653-1.671a12.916,12.916,0,0,1-5.3-4.027c-.4-.609-.712-1.266-1.111-1.869a14.79,14.79,0,0,0-1.522-1.826l-3.735-4.042c-.286.539.082,1.175.371,1.711a7.344,7.344,0,0,1,.691,1.784.847.847,0,0,1-.018.624,1.217,1.217,0,0,1-.511.362,1.826,1.826,0,0,0-.77,2.091,2.313,2.313,0,0,0,1.726,1.5,3.131,3.131,0,0,1,.77.189c.45.222.664.74.986,1.126a4.427,4.427,0,0,0,2.414,1.2c1.382,1.6,2.819,3.123,4.2,4.718a30.241,30.241,0,0,0,6.958,6.5c.283.17.572.329.865.475a.477.477,0,0,1-.015.146,1.65,1.65,0,0,0,.131,1.065,1.673,1.673,0,0,0,1.193.581l2.064.368a7.034,7.034,0,0,1-.1.8c-.027.161-.061.32-.091.481h0l-.036.207v.03a.6.6,0,0,1-.021.167c-.021.058,0,.04,0,.058v.4a3.878,3.878,0,0,0,1.148,2.1l.289.35a4.869,4.869,0,0,0-.94,1.972,6.694,6.694,0,0,0-.134,1.373,2.383,2.383,0,0,0-.609.95,4.34,4.34,0,0,0-.158,1.537v.609a5.113,5.113,0,0,0,.353,2.131c.027.055.058.1.085.155a29.613,29.613,0,0,1-1.762,2.435,5.284,5.284,0,0,0,.484,6.051c.417.481.953.944,1,1.583a5.934,5.934,0,0,1-.085.864,6.467,6.467,0,0,0,.438,2.006,2.073,2.073,0,0,1-.167,1.662,2.435,2.435,0,0,0-.417,1.6,10.662,10.662,0,0,1-.262,2.6c-.027.374,0,.755-.034,1.129a6.356,6.356,0,0,1-.222,1.059.432.432,0,0,1-.03.116c-.752.332-1.5.676-2.216,1.074a1.944,1.944,0,0,0-.913.84,2.154,2.154,0,0,0-.049,1.157l.648,4.511-.113-.049q.076,1.108.158,2.225a3,3,0,0,0,.426,1.61,4.2,4.2,0,0,1,.46.587c.256.517-.049,1.12-.274,1.65s-.3,1.281.192,1.568a4.046,4.046,0,0,0,.831.444c-.609,2.539-.049,5.2.517,7.747q.648,2.922,1.3,5.838a14.171,14.171,0,0,1,.286,2.508v.365a14.05,14.05,0,0,0,.609,3.415c.676,2.277.027,5.01.24,7.491a22.218,22.218,0,0,0,.712,3.528,108.71,108.71,0,0,1,3.287,17.545,4.408,4.408,0,0,0,2.106,1.47c-.061.737.021,1.58,0,2.009a3.467,3.467,0,0,1-.164,1.047,2.516,2.516,0,0,1-1.592,1.355c-.213.073-.429.131-.648.183l.244-.207a5.436,5.436,0,0,0-4.051.712,1.6,1.6,0,0,0-.8.944,1.522,1.522,0,0,0,.28,1.093,4.983,4.983,0,0,0,2.816,2,14.768,14.768,0,0,0,3.47.484l2.149.125a.591.591,0,0,0,.14.764,1.5,1.5,0,0,0,.788.286,10.045,10.045,0,0,0,2.651.04,1.038,1.038,0,0,0,.609-.219.393.393,0,0,0,0-.581.642.642,0,0,0,.584-.426,1.729,1.729,0,0,0,.079-.77,8.265,8.265,0,0,0-.667-3.348.849.849,0,0,0-.941-.414,36.528,36.528,0,0,1-.609-5.4,13.193,13.193,0,0,0,1.565-.706c-1.495-2.414-1.522-5.479-1.065-8.285a25.087,25.087,0,0,0,.4-2.682,8.893,8.893,0,0,0-1.166-5.315,19.016,19.016,0,0,1,4.748,4.3c2.1,2.739,3.385,6.057,5.963,8.34q.508-.5,1.029-.986.816,1.382,1.543,2.822a10.734,10.734,0,0,1,.895,2.225,10.293,10.293,0,0,1,.082,3.589q-.106.95-.259,1.89a5.14,5.14,0,0,1-.186.791.549.549,0,0,0-.058-.237c-.161-.283-.609-.155-.852.04a3.761,3.761,0,0,0-1.05,1.218,1.311,1.311,0,0,0-.189.776,1.147,1.147,0,0,0,.609.761c1.129.661,2.548.183,3.759-.3a4.411,4.411,0,0,0,.95-.478c.609-.438.941-1.16,1.546-1.586a8.951,8.951,0,0,0,.934-.591c.563-.514.609-1.382,1.02-2.033.682-1.123,2.207-1.412,2.8-2.6C838.758,522.595,837.951,520.936,836.91,520.077Z" transform="translate(-544.761 -169.988)" fill="url(#linear-gradient)"/>
    <path id="Path_1537" data-name="Path 1537" d="M863.947,806.879a3.4,3.4,0,0,1-.167,1.035,2.5,2.5,0,0,1-1.589,1.336c-.676.234-1.394.3-2.082.508a1.828,1.828,0,0,0-.813.42,1.475,1.475,0,0,0,.469,2.158,4.043,4.043,0,0,0,2.466.38,32.47,32.47,0,0,0,5.333-.758c.633-.149,1.373-.441,1.473-1.084a1.774,1.774,0,0,0-.049-.609,35.982,35.982,0,0,1-.685-6.614,13.754,13.754,0,0,0-3.86-.027C863.706,804.109,863.986,806.13,863.947,806.879Z" transform="translate(-598.04 -451.432)" fill="#ffb0b1"/>
    <path id="Path_1538" data-name="Path 1538" d="M925.456,782.028q.877,1.452,1.647,2.962a10.482,10.482,0,0,1,.895,2.195,10.088,10.088,0,0,1,.082,3.54q-.106.935-.262,1.866a2.357,2.357,0,0,1-.782,1.65,1.8,1.8,0,0,0,1.552.137,4.472,4.472,0,0,0,1.367-.837,12.064,12.064,0,0,0,4.663-8.66,1.372,1.372,0,0,0-.143-.767,1.523,1.523,0,0,0-.457-.408,35.075,35.075,0,0,1-5.4-4.532.66.66,0,0,0-.4-.253.685.685,0,0,0-.353.1c-1,.5-2.676,1.218-3.093,2.359a1.6,1.6,0,0,1,.676.648Z" transform="translate(-643.805 -434.334)" fill="#ffb0b1"/>
    <path id="Path_1539" data-name="Path 1539" d="M862.889,823.224a27.1,27.1,0,0,1-6.937,1.555.948.948,0,0,1-.831-.152.633.633,0,0,1-.055-.712,1.857,1.857,0,0,1,.508-.56l1.574-1.318a5.479,5.479,0,0,0-4,.688,1.592,1.592,0,0,0-.8.913,1.486,1.486,0,0,0,.28,1.081,4.974,4.974,0,0,0,2.813,1.972,15.038,15.038,0,0,0,3.467.478l2.131.122a.575.575,0,0,0,.143.755,1.521,1.521,0,0,0,.791.289,10.147,10.147,0,0,0,2.648.037,1.014,1.014,0,0,0,.609-.216.384.384,0,0,0,0-.572.642.642,0,0,0,.585-.423,1.763,1.763,0,0,0,.079-.758,7.974,7.974,0,0,0-.667-3.3C864.709,822.244,863.625,822.92,862.889,823.224Z" transform="translate(-593.414 -464.244)" fill="#3f3d56"/>
    <path id="Path_1540" data-name="Path 1540" d="M937.489,794.634a9.8,9.8,0,0,0-2.259-1.251.268.268,0,0,0-.408.1A23.171,23.171,0,0,0,931.5,799.9a11.145,11.145,0,0,1-1.662,3.762c-.116.14-.3.283-.463.2-.228-.116-.088-.484-.216-.706-.158-.28-.591-.152-.849.04a3.652,3.652,0,0,0-1.047,1.218,1.217,1.217,0,0,0-.189.764,1.126,1.126,0,0,0,.594.749c1.129.654,2.548.183,3.756-.3a4.3,4.3,0,0,0,.947-.472c.609-.429.941-1.144,1.546-1.562a8.9,8.9,0,0,0,.934-.584c.56-.508.609-1.364,1.017-2.009.682-1.1,2.207-1.391,2.8-2.566C939.333,797.118,938.53,795.481,937.489,794.634Z" transform="translate(-645.395 -444.356)" fill="#3f3d56"/>
    <path id="Path_1541" data-name="Path 1541" d="M859.7,594.314c2.393,1.8,3.4,4.989,3.29,7.978a28.147,28.147,0,0,1-2.2,8.66q-2.237,6.018-4.468,12.032a4.961,4.961,0,0,1,.3,1.37,1.684,1.684,0,0,1-.3,1.345c-.14.161-.3.286-.457.444a2.384,2.384,0,0,0-.4,1.866,5.4,5.4,0,0,1,.052,1.951c-.07.271-.2.526-.247.8a.794.794,0,0,0,.222.767c.3.244.913.164,1,.548a45.493,45.493,0,0,1,10.136,12.48c.986,1.775,1.982,3.741,3.823,4.6a66.765,66.765,0,0,0-5.153,4.532c-2.572-2.252-3.854-5.531-5.954-8.219a18.873,18.873,0,0,0-4.742-4.24,8.675,8.675,0,0,1,1.166,5.242,24.356,24.356,0,0,1-.4,2.645c-.472,2.77-.429,5.783,1.065,8.176a8.945,8.945,0,0,1-5.208,1.2,4.431,4.431,0,0,1-2.837-1.619,107.053,107.053,0,0,0-3.284-17.311,21.279,21.279,0,0,1-.709-3.5c-.213-2.435.435-5.144-.243-7.391a13.779,13.779,0,0,1-.609-3.367v-.362a13.8,13.8,0,0,0-.286-2.472l-1.3-5.759c-.566-2.517-1.132-5.141-.521-7.646a4.065,4.065,0,0,1-.828-.435c-.5-.283-.417-1.023-.192-1.546s.527-1.117.274-1.629a3.979,3.979,0,0,0-.46-.581,2.925,2.925,0,0,1-.426-1.586l-.158-2.2a4.3,4.3,0,0,1,2.167,1.9c-1.2-1.857-.609-4.505.277-6.532a2.977,2.977,0,0,1,2.794-2.213C849.778,593.4,855.738,591.334,859.7,594.314Z" transform="translate(-584.595 -304.837)" fill="#3f3d56"/>
    <path id="Path_1542" data-name="Path 1542" d="M890.912,638.93s-2.4,1.6-2.4,2.8-.609,11.993-.609,11.993v7.61s.4,4,0,5,0,5.6,0,6.2.609-6.2.609-6.2v-7.208l.609-16.394Z" transform="translate(-618.031 -336.955)" opacity="0.1"/>
    <path id="Path_1543" data-name="Path 1543" d="M804.293,420.7l-1.4-.545c-2.855-1.145-5.713-2.292-8.477-3.634a12.96,12.96,0,0,1-5.3-3.972c-.4-.609-.712-1.248-1.111-1.848a14.735,14.735,0,0,0-1.522-1.805l-3.732-3.987c-.286.533.079,1.16.371,1.686a7.307,7.307,0,0,1,.691,1.762.815.815,0,0,1-.021.609,1.184,1.184,0,0,1-.508.359,1.787,1.787,0,0,0-.77,2.061,2.3,2.3,0,0,0,1.723,1.485,3.273,3.273,0,0,1,.77.186c.451.222.663.731.986,1.111a4.429,4.429,0,0,0,2.411,1.187c1.382,1.574,2.816,3.08,4.2,4.654a30.1,30.1,0,0,0,6.952,6.417,10.181,10.181,0,0,0,3.138,1.26A50.837,50.837,0,0,1,804.293,420.7Z" transform="translate(-544.79 -174.169)" fill="#a1616a"/>
    <path id="Path_1544" data-name="Path 1544" d="M804.293,420.7l-1.4-.545c-2.855-1.145-5.713-2.292-8.477-3.634a12.96,12.96,0,0,1-5.3-3.972c-.4-.609-.712-1.248-1.111-1.848a14.735,14.735,0,0,0-1.522-1.805l-3.732-3.987c-.286.533.079,1.16.371,1.686a7.307,7.307,0,0,1,.691,1.762.815.815,0,0,1-.021.609,1.184,1.184,0,0,1-.508.359,1.787,1.787,0,0,0-.77,2.061,2.3,2.3,0,0,0,1.723,1.485,3.273,3.273,0,0,1,.77.186c.451.222.663.731.986,1.111a4.429,4.429,0,0,0,2.411,1.187c1.382,1.574,2.816,3.08,4.2,4.654a30.1,30.1,0,0,0,6.952,6.417,10.181,10.181,0,0,0,3.138,1.26A50.837,50.837,0,0,1,804.293,420.7Z" transform="translate(-544.79 -174.169)" fill="#ffb0b1"/>
    <path id="Path_1545" data-name="Path 1545" d="M842.732,463.819a1.676,1.676,0,0,1-1.193-.572,1.6,1.6,0,0,1-.131-1.05,29.448,29.448,0,0,1,1.522-6.727,7.274,7.274,0,0,0,3.281,2.651,24.349,24.349,0,0,0,3.525,1.607c-.3-.1-1.05,4.584-1.47,4.87-.53.371-1.808-.131-2.4-.231Z" transform="translate(-585.786 -209.339)" fill="#1f8ced"/>
    <g transform="matrix(1, 0, 0, 1, 47.92, 147.5)" filter="url(#Ellipse_25)">
      <circle id="Ellipse_25-2" data-name="Ellipse 25" cx="6.398" cy="6.398" r="6.398" transform="translate(205.87 92.8)" fill="#ffb0b1"/>
    </g>
    <path id="Path_1546" data-name="Path 1546" d="M852.22,464.626s4.2,3.6,2.4,6-2.8,4-.4,4.2,10.395-4,10.395-4-7.4-6-6.2-9.594S852.22,464.626,852.22,464.626Z" transform="translate(-593.332 -212.629)" fill="#fbbebe"/>
    <path id="Path_1547" data-name="Path 1547" d="M850.272,482.956a4.965,4.965,0,0,0-3.674,3.7c-.472,2.155.53,4.566-.414,6.55a26.029,26.029,0,0,1-1.826,2.536,5.175,5.175,0,0,0,.481,5.969c.417.475.953.934,1,1.562a5.736,5.736,0,0,1-.085.852,6.322,6.322,0,0,0,.438,1.982,2.016,2.016,0,0,1-.167,1.638,2.371,2.371,0,0,0-.414,1.574,10.526,10.526,0,0,1-.265,2.563c-.027.371,0,.743-.034,1.114a6.5,6.5,0,0,1-.219,1.044l-.536,1.975a21.956,21.956,0,0,0,9.132,1.632,44.759,44.759,0,0,0,8.337-1.218c.837-.177,1.674-.353,2.5-.581-1.741-2.277-1.927-5.293-1.975-8.158a121.755,121.755,0,0,0-1.068-14.276,18.355,18.355,0,0,0,1.565-5.135,8.687,8.687,0,0,0,.195-2.17,11.548,11.548,0,0,0-1.47-4.347c-.627-1.26-1.306-2.587-2.7-3.132a2.149,2.149,0,0,0-2.079.228c-1.056.8-.743,2.173-1.014,3.348a4.494,4.494,0,0,1-3.254,3.044,10.578,10.578,0,0,1-3.421.32.609.609,0,0,1-.432-1C849.359,484.024,849.852,483.473,850.272,482.956Z" transform="translate(-587.357 -225.328)" fill="#1f8ced"/>
    <path id="Path_1548" data-name="Path 1548" d="M851.135,574.49a41.653,41.653,0,0,1-7.5,5.26c-1.6.8-3.309,1.4-4.87,2.262a1.945,1.945,0,0,0-.913.828,2.045,2.045,0,0,0-.049,1.141l.694,4.785c.192,1.3,1.437,2.131,2.435,2.959a1.751,1.751,0,0,1,.064-1.16,3.877,3.877,0,0,1,.234-.35,3.284,3.284,0,0,0,.338-2.25,12.492,12.492,0,0,1-.265-2.307.755.755,0,0,1,.323-.67c3.4-1.635,7.062-2.889,10.5-4.441a11.121,11.121,0,0,0,2.548-1.446,3.92,3.92,0,0,0,1.479-2.456.481.481,0,0,0-.061-.374.508.508,0,0,0-.259-.152C854.294,575.558,852.669,575.044,851.135,574.49Z" transform="translate(-583.264 -292.13)" fill="#ffb0b1"/>
    <path id="Path_1549" data-name="Path 1549" d="M853.31,508.493a3.442,3.442,0,0,0-2.81,1.933,4.3,4.3,0,0,0-.158,1.522,4.948,4.948,0,0,0,.356,2.109,5.955,5.955,0,0,0,.712,1.035c2.813,3.6,4.225,8.13,6.964,11.792.243.323.688.743.551,1.123a2.7,2.7,0,0,0-.131.3.609.609,0,0,0,.2.533,1.3,1.3,0,0,1,.332.484c.052.192-.076.441-.274.426a4.072,4.072,0,0,0,2.292,2.091,9.544,9.544,0,0,0,5.117,1.257,11.677,11.677,0,0,0,.609-4.188,10.874,10.874,0,0,0-1.02-2.971l-1.19-2.6a38.7,38.7,0,0,0-3.449-6.441,9.743,9.743,0,0,1-1.275-2.055c-.362-.941-1.358-1.6-1.96-2.408a14.92,14.92,0,0,0-3.026-3.315A2.734,2.734,0,0,0,853.31,508.493Z" transform="translate(-592.017 -246.211)" opacity="0.1"/>
    <path id="Path_1550" data-name="Path 1550" d="M853.31,506.523a3.445,3.445,0,0,0-2.81,1.93,4.318,4.318,0,0,0-.158,1.522,4.949,4.949,0,0,0,.356,2.109,5.954,5.954,0,0,0,.712,1.035c2.813,3.6,4.225,8.13,6.964,11.792.243.323.688.743.551,1.123a2.713,2.713,0,0,0-.131.3.609.609,0,0,0,.2.533,1.3,1.3,0,0,1,.332.484c.052.192-.076.441-.274.426a4.072,4.072,0,0,0,2.292,2.091,9.543,9.543,0,0,0,5.117,1.257,11.676,11.676,0,0,0,.609-4.188,10.872,10.872,0,0,0-1.02-2.971l-1.19-2.6a38.706,38.706,0,0,0-3.449-6.441,9.69,9.69,0,0,1-1.275-2.058c-.362-.938-1.358-1.6-1.96-2.4a14.92,14.92,0,0,0-3.026-3.315A2.746,2.746,0,0,0,853.31,506.523Z" transform="translate(-592.018 -244.84)" fill="#1f8ced"/>
    <path id="Path_1551" data-name="Path 1551" d="M839.011,419.2a7.045,7.045,0,0,0-2.49.524,2.4,2.4,0,0,0-1.446,1.954,11.626,11.626,0,0,1,.119,1.479c-.107.816-.865,1.367-1.254,2.088a3.74,3.74,0,0,0,.731,3.957c.883,1.108,2.079,1.96,2.986,3.062a7.914,7.914,0,0,1,1.65,6.368,5.05,5.05,0,0,0-.161,1.33,3.822,3.822,0,0,0,1.145,2.067,95.484,95.484,0,0,1,7.22,9.607,25.954,25.954,0,0,1,1.778,3.044,18.452,18.452,0,0,0,1.632,3.217,8.5,8.5,0,0,0,2.4,2.055,16.919,16.919,0,0,0,7.671,2.475l-1.568-3.887a4.463,4.463,0,0,1-.472-2.158c.174-1.4,1.586-2.319,2.046-3.653a4.431,4.431,0,0,0-.082-2.679c-.554-1.969-1.662-3.741-2.259-5.7a11.567,11.567,0,0,1-.341-5.3,8.186,8.186,0,0,0,.247-2.344c-.289-2.38-3.08-3.519-4.371-5.537a11.957,11.957,0,0,1-1.275-4.411,13.921,13.921,0,0,0-2.52-6.188,7.265,7.265,0,0,0-5.783-2.949,11.689,11.689,0,0,0-3.476.871l-2.934,1.068" transform="translate(-580.4 -183.006)" fill="#3f3d56"/>
    <g id="Group_4864" data-name="Group 4864" transform="translate(253.238 240.272)" opacity="0.1">
      <path id="Path_1552" data-name="Path 1552" d="M893.93,437.109a14.086,14.086,0,0,0,1.05,4.021c-.088-.475-.161-.953-.25-1.421a17.727,17.727,0,0,0-.98-3.488C893.826,436.515,893.878,436.811,893.93,437.109Z" transform="translate(-875.459 -436.22)"/>
      <path id="Path_1553" data-name="Path 1553" d="M911.713,475.931a11.625,11.625,0,0,0,.341,5.3,13.7,13.7,0,0,0,.5,1.37,11.588,11.588,0,0,1-.04-4.073,8.184,8.184,0,0,0,.247-2.344,3.652,3.652,0,0,0-.791-1.826C911.923,474.89,911.8,475.41,911.713,475.931Z" transform="translate(-887.842 -462.751)"/>
      <path id="Path_1554" data-name="Path 1554" d="M916.88,520.35a14.693,14.693,0,0,0-.609-1.68,3.735,3.735,0,0,1-.116,1.759c-.46,1.33-1.875,2.252-2.046,3.653a4.428,4.428,0,0,0,.472,2.158c.1.259.207.521.3.779a2.516,2.516,0,0,1,0-.338c.174-1.4,1.586-2.319,2.045-3.653A4.247,4.247,0,0,0,916.88,520.35Z" transform="translate(-889.609 -493.573)"/>
      <path id="Path_1555" data-name="Path 1555" d="M865.11,506.464a8.521,8.521,0,0,1-2.4-2.058,18.365,18.365,0,0,1-1.635-3.217,25.664,25.664,0,0,0-1.778-3.044,95.608,95.608,0,0,0-7.217-9.61c-.094-.107-.186-.216-.277-.326a3.126,3.126,0,0,0-.07.858,3.822,3.822,0,0,0,1.144,2.067,95.468,95.468,0,0,1,7.22,9.607,25.957,25.957,0,0,1,1.778,3.044A18.461,18.461,0,0,0,863.512,507a8.5,8.5,0,0,0,2.4,2.055,16.918,16.918,0,0,0,7.671,2.475l-1.065-2.618A16.936,16.936,0,0,1,865.11,506.464Z" transform="translate(-846.231 -472.385)"/>
      <path id="Path_1556" data-name="Path 1556" d="M836.876,449.5c-.913-1.1-2.1-1.939-2.986-3.059-.079-.1-.155-.21-.231-.323a4.432,4.432,0,0,0,1.032,2.919c.883,1.123,2.079,1.96,2.986,3.062a7.608,7.608,0,0,1,.913,1.388,7.913,7.913,0,0,0-1.714-3.987Z" transform="translate(-833.658 -443.107)"/>
    </g>
    <path id="Path_1557" data-name="Path 1557" d="M390.306,348.716,388.1,346.5a1.172,1.172,0,0,0-1.665,0l-13.859,13.731-5.863-5.905a1.169,1.169,0,0,0-1.653,0l-2.231,2.207a1.184,1.184,0,0,0,0,1.665l8.9,8.97a1.181,1.181,0,0,0,1.662,0l16.912-16.784a1.172,1.172,0,0,0,0-1.665Z" transform="translate(-252.668 -133.294)" fill="#024e91"/>
    <path id="Path_1558" data-name="Path 1558" d="M591.305,348.716,589.1,346.5a1.172,1.172,0,0,0-1.665,0l-13.859,13.731-5.862-5.905a1.169,1.169,0,0,0-1.653,0l-2.231,2.207a1.184,1.184,0,0,0,0,1.665l8.9,8.97a1.181,1.181,0,0,0,1.662,0l16.912-16.784a1.172,1.172,0,0,0,0-1.665Z" transform="translate(-392.485 -133.294)" fill="#024e91"/>
  </g>
</svg>
