<svg id="Group_6429" data-name="Group 6429" xmlns="http://www.w3.org/2000/svg" width="35" height="34.577" viewBox="0 0 35 34.577">
  <path id="Path_1571" data-name="Path 1571" d="M40,36.568s-2.306-.914-3.426-1.441a5.684,5.684,0,0,1-3.141-3.674c-.821-2.751-.288-5.458.227-8.165a13.544,13.544,0,0,0,.4-4.65c-.778-5.056-3.8-8.491-8.075-10.948a14.553,14.553,0,0,0-13.391-.48C9.987,8.489-.38,16.453,8.579,31.362c1.412,2.025,8.062,7.544,10.336,7.4-3.365-3.056-5.831-13.657-5.831-13.657s3.44,12.01,10.439,15.274c-.758-1.973-5.416-7.276-3.258-11.7a53.922,53.922,0,0,1,3.908-6.119c1.7-2.446,3.662-4.769,4.032-7.881a.747.747,0,0,1,.58.441,10.4,10.4,0,0,1,1.358,7.39,3.4,3.4,0,0,0-.03,1.829c1.445,3.594.317,6.89-1.253,10.1a3.117,3.117,0,0,1-3.311,1.765c-.791-.07-1.581-.148-2.4-.226C28.637,40.69,40,36.568,40,36.568Z" transform="translate(-5 -5.806)" fill="#fff"/>
</svg>
