<?xml version="1.0" encoding="iso-8859-1"?>
<!-- Generator: Adobe Illustrator 19.0.0, SVG Export Plug-In . SVG Version: 6.00 Build 0)  -->
<svg version="1.1" id="Layer_1" xmlns="http://www.w3.org/2000/svg" xmlns:xlink="http://www.w3.org/1999/xlink" x="0px" y="0px"
	 viewBox="0 0 512 512" style="enable-background:new 0 0 512 512;" xml:space="preserve">
<linearGradient id="SVGID_1_" gradientUnits="userSpaceOnUse" x1="-29.9375" y1="613.3125" x2="-29.9375" y2="643.3125" gradientTransform="matrix(16 0 0 -16 735 10309)">
	<stop  offset="0" style="stop-color:#FF5533"/>
	<stop  offset="1" style="stop-color:#FF9933"/>
</linearGradient>
<circle style="fill:url(#SVGID_1_);" cx="256" cy="256" r="240"/>
<path id="SVGCleanerId_0" style="fill:#CC2929;" d="M256,0C114.608,0,0,114.608,0,256s114.608,255.984,256,256
	c141.392,0,255.984-114.608,256-256C511.984,114.608,397.392,0,256,0z M414.384,414.384c-40.576,40.56-96.48,65.6-158.384,65.616
	c-61.904-0.016-117.808-25.056-158.4-65.616C57.04,373.808,32,317.904,32,256S57.04,138.192,97.6,97.6
	C138.192,57.04,194.096,32,256,32s117.808,25.04,158.384,65.6c40.56,40.592,65.6,96.496,65.616,158.4
	C479.984,317.904,454.944,373.808,414.384,414.384z"/>
<path id="SVGCleanerId_1" style="fill:#FFFFFF;" d="M113.616,400c8.08-71.808,68.448-128,142.384-128s134.304,56.192,142.384,128
	H113.616z"/>
<rect id="SVGCleanerId_2" x="127.994" y="130.742" transform="matrix(-0.7071 0.7071 -0.7071 -0.7071 370.2628 198.6272)" style="fill:#804040;" width="32" height="90.511"/>
<rect id="SVGCleanerId_3" x="322.718" y="160.014" transform="matrix(-0.7071 0.7071 -0.7071 -0.7071 752.6304 40.2778)" style="fill:#804040;" width="90.511" height="32"/>
<path id="SVGCleanerId_4" style="fill:#804040;" d="M414.288,398.208C405.328,318.48,338.272,256.032,256,256
	c-82.272,0.032-149.328,62.48-158.288,142.208l-2,17.792h17.904h302.672L414.288,398.208z M133.2,384
	c14.272-55.056,63.488-96.032,122.8-96c59.312-0.032,108.528,40.944,122.8,96H133.2z"/>
<linearGradient id="SVGID_2_" gradientUnits="userSpaceOnUse" x1="-29.9375" y1="613.3125" x2="-29.9375" y2="643.3125" gradientTransform="matrix(16 0 0 -16 735 10309)">
	<stop  offset="0" style="stop-color:#FF5533"/>
	<stop  offset="1" style="stop-color:#FF9933"/>
</linearGradient>
<circle style="fill:url(#SVGID_2_);" cx="256" cy="256" r="240"/>
<linearGradient id="SVGID_3_" gradientUnits="userSpaceOnUse" x1="-29.938" y1="634.3125" x2="-29.938" y2="642.3125" gradientTransform="matrix(16 0 0 -16 735 10309)">
	<stop  offset="0" style="stop-color:#FAFBFB;stop-opacity:0"/>
	<stop  offset="1" style="stop-color:#FAFBFB"/>
</linearGradient>
<path style="fill:url(#SVGID_3_);" d="M256,32c-61.904,0-117.808,27.392-158.4,67.952C80.816,116.736,66.896,144,56.096,160h399.792
	c-10.8-16-24.72-43.248-41.504-60.048C373.808,59.392,317.904,32,256,32z"/>
<g>
	<path id="SVGCleanerId_0_1_" style="fill:#CC2929;" d="M256,0C114.608,0,0,114.608,0,256s114.608,255.984,256,256
		c141.392,0,255.984-114.608,256-256C511.984,114.608,397.392,0,256,0z M414.384,414.384c-40.576,40.56-96.48,65.6-158.384,65.616
		c-61.904-0.016-117.808-25.056-158.4-65.616C57.04,373.808,32,317.904,32,256S57.04,138.192,97.6,97.6
		C138.192,57.04,194.096,32,256,32s117.808,25.04,158.384,65.6c40.56,40.592,65.6,96.496,65.616,158.4
		C479.984,317.904,454.944,373.808,414.384,414.384z"/>
</g>
<g>
	<path id="SVGCleanerId_1_1_" style="fill:#FFFFFF;" d="M113.616,400c8.08-71.808,68.448-128,142.384-128
		s134.304,56.192,142.384,128H113.616z"/>
</g>
<g>
	
		<rect id="SVGCleanerId_2_1_" x="127.994" y="130.742" transform="matrix(-0.7071 0.7071 -0.7071 -0.7071 370.2628 198.6272)" style="fill:#804040;" width="32" height="90.511"/>
</g>
<g>
	
		<rect id="SVGCleanerId_3_1_" x="322.718" y="160.014" transform="matrix(-0.7071 0.7071 -0.7071 -0.7071 752.6304 40.2778)" style="fill:#804040;" width="90.511" height="32"/>
</g>
<g>
	<path id="SVGCleanerId_4_1_" style="fill:#804040;" d="M414.288,398.208C405.328,318.48,338.272,256.032,256,256
		c-82.272,0.032-149.328,62.48-158.288,142.208l-2,17.792h17.904h302.672L414.288,398.208z M133.2,384
		c14.272-55.056,63.488-96.032,122.8-96c59.312-0.032,108.528,40.944,122.8,96H133.2z"/>
</g>
<g>
</g>
<g>
</g>
<g>
</g>
<g>
</g>
<g>
</g>
<g>
</g>
<g>
</g>
<g>
</g>
<g>
</g>
<g>
</g>
<g>
</g>
<g>
</g>
<g>
</g>
<g>
</g>
<g>
</g>
</svg>
