<?xml version="1.0" encoding="iso-8859-1"?>
<!-- Generator: Adobe Illustrator 19.0.0, SVG Export Plug-In . SVG Version: 6.00 Build 0)  -->
<svg version="1.1" id="Layer_1" xmlns="http://www.w3.org/2000/svg" xmlns:xlink="http://www.w3.org/1999/xlink" x="0px" y="0px"
	 viewBox="0 0 512 512" style="enable-background:new 0 0 512 512;" xml:space="preserve">
<linearGradient id="SVGID_1_" gradientUnits="userSpaceOnUse" x1="-29.9375" y1="613.3125" x2="-29.9375" y2="643.3125" gradientTransform="matrix(16 0 0 -16 735 10309)">
	<stop  offset="0" style="stop-color:#FFB533"/>
	<stop  offset="1" style="stop-color:#FFFF33"/>
</linearGradient>
<circle style="fill:url(#SVGID_1_);" cx="256" cy="256" r="240"/>
<path id="SVGCleanerId_0" style="fill:#CC7B29;" d="M256,0C114.608,0,0,114.608,0,256s114.608,255.984,256,256
	c141.392,0,255.984-114.608,256-256C511.984,114.608,397.392,0,256,0z M414.384,414.384c-40.576,40.56-96.48,65.6-158.384,65.616
	c-61.904-0.016-117.808-25.056-158.4-65.616C57.04,373.808,32,317.904,32,256S57.04,138.192,97.6,97.6
	C138.192,57.04,194.096,32,256,32s117.808,25.04,158.384,65.6c40.56,40.592,65.6,96.496,65.616,158.4
	C479.984,317.904,454.944,373.808,414.384,414.384z"/>
<path id="SVGCleanerId_1" style="fill:#806040;" d="M384,256c0,35.312-14.336,67.232-37.536,90.464
	C323.232,369.664,291.312,384,256,384v32c88.272-0.032,159.968-71.728,160-160H384L384,256z"/>
<path id="SVGCleanerId_2" style="fill:#806040;" d="M454.832,130.544L425.36,160H256c0,52.944,43.056,96,96,96
	c43.52,0,79.936-29.28,91.664-69.04l33.792-33.792L454.832,130.544z"/>
<path id="SVGCleanerId_3" style="fill:#806040;" d="M56.656,130.032l-22.624,22.624l34.304,34.304C80.064,226.72,116.48,256,160,256
	c52.944,0,96-43.056,96-96H86.624L56.656,130.032z"/>
<linearGradient id="SVGID_2_" gradientUnits="userSpaceOnUse" x1="-29.9375" y1="613.3125" x2="-29.9375" y2="643.3125" gradientTransform="matrix(16 0 0 -16 735 10309)">
	<stop  offset="0" style="stop-color:#FFB533"/>
	<stop  offset="1" style="stop-color:#FFFF33"/>
</linearGradient>
<circle style="fill:url(#SVGID_2_);" cx="256" cy="256" r="240"/>
<linearGradient id="SVGID_3_" gradientUnits="userSpaceOnUse" x1="-29.938" y1="634.3125" x2="-29.938" y2="642.3125" gradientTransform="matrix(16 0 0 -16 735 10309)">
	<stop  offset="0" style="stop-color:#FAFBFB;stop-opacity:0"/>
	<stop  offset="1" style="stop-color:#FAFBFB"/>
</linearGradient>
<path style="fill:url(#SVGID_3_);" d="M256,32c-61.904,0-117.808,27.392-158.4,67.952C80.816,116.736,66.896,144,56.096,160h399.792
	c-10.8-16-24.72-43.248-41.504-60.048C373.808,59.392,317.904,32,256,32z"/>
<g>
	<path id="SVGCleanerId_0_1_" style="fill:#CC7B29;" d="M256,0C114.608,0,0,114.608,0,256s114.608,255.984,256,256
		c141.392,0,255.984-114.608,256-256C511.984,114.608,397.392,0,256,0z M414.384,414.384c-40.576,40.56-96.48,65.6-158.384,65.616
		c-61.904-0.016-117.808-25.056-158.4-65.616C57.04,373.808,32,317.904,32,256S57.04,138.192,97.6,97.6
		C138.192,57.04,194.096,32,256,32s117.808,25.04,158.384,65.6c40.56,40.592,65.6,96.496,65.616,158.4
		C479.984,317.904,454.944,373.808,414.384,414.384z"/>
</g>
<g>
	<path id="SVGCleanerId_1_1_" style="fill:#806040;" d="M384,256c0,35.312-14.336,67.232-37.536,90.464
		C323.232,369.664,291.312,384,256,384v32c88.272-0.032,159.968-71.728,160-160H384L384,256z"/>
</g>
<g>
	<path id="SVGCleanerId_2_1_" style="fill:#806040;" d="M454.832,130.544L425.36,160H256c0,52.944,43.056,96,96,96
		c43.52,0,79.936-29.28,91.664-69.04l33.792-33.792L454.832,130.544z"/>
</g>
<g>
	<path id="SVGCleanerId_3_1_" style="fill:#806040;" d="M56.656,130.032l-22.624,22.624l34.304,34.304
		C80.064,226.72,116.48,256,160,256c52.944,0,96-43.056,96-96H86.624L56.656,130.032z"/>
</g>
<g>
</g>
<g>
</g>
<g>
</g>
<g>
</g>
<g>
</g>
<g>
</g>
<g>
</g>
<g>
</g>
<g>
</g>
<g>
</g>
<g>
</g>
<g>
</g>
<g>
</g>
<g>
</g>
<g>
</g>
</svg>
