<svg xmlns="http://www.w3.org/2000/svg" width="18.75" height="37.5" viewBox="0 0 18.75 37.5">
  <g id="Group_6433" data-name="Group 6433" transform="translate(-215.625 -584.25)">
    <g id="Group_6432" data-name="Group 6432">
      <g id="diabetes" transform="translate(199.625 584.25)">
        <path id="Path_3432" data-name="Path 3432" d="M25.789,1A8.789,8.789,0,0,0,17,9.789V20.336a8.789,8.789,0,0,0,17.578,0V9.789A8.789,8.789,0,0,0,25.789,1Z" transform="translate(-0.414 -0.414)" fill="#94c1ff"/>
        <path id="Path_3433" data-name="Path 3433" d="M35.758,36A1.758,1.758,0,1,1,34,37.758,1.755,1.755,0,0,1,35.758,36Z" transform="translate(-7.453 -14.906)" fill="#d7e9ff"/>
        <path id="Path_3434" data-name="Path 3434" d="M34.578,36.344a8.785,8.785,0,0,1-7.617,8.707,8.412,8.412,0,0,1-2.344,0A8.785,8.785,0,0,1,17,36.344V34a8.789,8.789,0,0,0,17.578,0Z" transform="translate(-0.414 -14.078)" fill="#5c9eff"/>
        <path id="Path_3435" data-name="Path 3435" d="M32.344,52.866V57.63H30V52.86a8.412,8.412,0,0,0,2.344,0Z" transform="translate(-5.797 -21.887)" fill="#d7e9ff"/>
        <path id="Path_3436" data-name="Path 3436" d="M25.758,36A1.758,1.758,0,1,1,24,37.758,1.755,1.755,0,0,1,25.758,36Z" transform="translate(-3.313 -14.906)" fill="#d7e9ff"/>
        <path id="Path_3437" data-name="Path 3437" d="M21,14H33.891V24.547H21Z" transform="translate(-2.07 -5.797)" fill="#d7e9ff"/>
        <g id="Group_6399" data-name="Group 6399" transform="translate(16)">
          <path id="Path_3438" data-name="Path 3438" d="M34.164,9.961a.586.586,0,0,1-.586-.586,8.2,8.2,0,0,0-16.406,0,.586.586,0,0,1-1.172,0,9.375,9.375,0,0,1,18.75,0A.586.586,0,0,1,34.164,9.961Z" transform="translate(-16)" fill="#116fff"/>
          <path id="Path_3439" data-name="Path 3439" d="M25.375,42.96A9.386,9.386,0,0,1,16,33.585a.586.586,0,0,1,1.172,0,8.2,8.2,0,0,0,16.406,0,.586.586,0,1,1,1.172,0A9.386,9.386,0,0,1,25.375,42.96Z" transform="translate(-16 -13.664)" fill="#116fff"/>
          <path id="Path_3440" data-name="Path 3440" d="M25.375,46.96A9.386,9.386,0,0,1,16,37.585a.586.586,0,0,1,1.172,0,8.2,8.2,0,0,0,16.406,0,.586.586,0,1,1,1.172,0A9.386,9.386,0,0,1,25.375,46.96Z" transform="translate(-16 -15.32)" fill="#116fff"/>
          <path id="Path_3441" data-name="Path 3441" d="M46.586,26.718A.585.585,0,0,1,46,26.132V15.586a.586.586,0,0,1,1.172,0V26.132A.585.585,0,0,1,46.586,26.718Z" transform="translate(-28.422 -6.211)" fill="#116fff"/>
          <path id="Path_3442" data-name="Path 3442" d="M16.586,26.718A.585.585,0,0,1,16,26.132V15.586a.586.586,0,0,1,1.172,0V26.132A.585.585,0,0,1,16.586,26.718Z" transform="translate(-16 -6.211)" fill="#116fff"/>
          <path id="Path_3443" data-name="Path 3443" d="M16.586,36.515A.585.585,0,0,1,16,35.929V33.585a.586.586,0,0,1,1.172,0v2.344A.585.585,0,0,1,16.586,36.515Z" transform="translate(-16 -13.664)" fill="#116fff"/>
          <path id="Path_3444" data-name="Path 3444" d="M46.586,36.515A.585.585,0,0,1,46,35.929V33.585a.586.586,0,1,1,1.172,0v2.344A.585.585,0,0,1,46.586,36.515Z" transform="translate(-28.422 -13.664)" fill="#116fff"/>
          <path id="Path_3445" data-name="Path 3445" d="M33.476,24.72H20.585A.586.586,0,0,1,20,24.134V13.586A.586.586,0,0,1,20.585,13H33.476a.586.586,0,0,1,.586.586V24.134A.586.586,0,0,1,33.476,24.72ZM21.171,23.548H32.89V14.172H21.171Z" transform="translate(-17.656 -5.383)" fill="#116fff"/>
          <path id="Path_3446" data-name="Path 3446" d="M24.757,17.172H23.585a.586.586,0,1,1,0-1.172h1.172a.586.586,0,0,1,0,1.172Z" transform="translate(-18.898 -6.625)" fill="#116fff"/>
          <path id="Path_3447" data-name="Path 3447" d="M24.757,29.174H23.585a.586.586,0,1,1,0-1.172h1.172a.586.586,0,0,1,0,1.172Z" transform="translate(-18.898 -11.595)" fill="#116fff"/>
          <path id="Path_3448" data-name="Path 3448" d="M38.771,17.172H37.6A.586.586,0,0,1,37.6,16h1.172a.586.586,0,0,1,0,1.172Z" transform="translate(-24.701 -6.625)" fill="#116fff"/>
          <path id="Path_3449" data-name="Path 3449" d="M38.771,29.174H37.6A.586.586,0,1,1,37.6,28h1.172a.586.586,0,0,1,0,1.172Z" transform="translate(-24.701 -11.595)" fill="#116fff"/>
          <path id="Path_3450" data-name="Path 3450" d="M25.583,21.93A.586.586,0,0,1,25,21.344V19.586a.586.586,0,0,1,1.172,0v1.758A.586.586,0,0,1,25.583,21.93Z" transform="translate(-19.725 -7.867)" fill="#116fff"/>
          <path id="Path_3451" data-name="Path 3451" d="M27.341,23.172H25.583a.586.586,0,1,1,0-1.172h1.758a.586.586,0,0,1,0,1.172Z" transform="translate(-19.725 -9.109)" fill="#116fff"/>
          <path id="Path_3452" data-name="Path 3452" d="M28.583,23.688A.586.586,0,0,1,28,23.1V19.586a.586.586,0,0,1,1.172,0V23.1A.586.586,0,0,1,28.583,23.688Z" transform="translate(-20.968 -7.867)" fill="#116fff"/>
          <path id="Path_3453" data-name="Path 3453" d="M36.347,20.172H34.589a.586.586,0,0,1,0-1.172h1.758a.586.586,0,0,1,0,1.172Z" transform="translate(-23.454 -7.867)" fill="#116fff"/>
          <path id="Path_3454" data-name="Path 3454" d="M34.589,21.93A.586.586,0,0,1,34,21.344V19.586a.586.586,0,0,1,1.172,0v1.758A.586.586,0,0,1,34.589,21.93Z" transform="translate(-23.454 -7.867)" fill="#116fff"/>
          <path id="Path_3455" data-name="Path 3455" d="M36.347,23.173H34.589a.586.586,0,0,1,0-1.172h1.758a.586.586,0,0,1,0,1.172Z" transform="translate(-23.454 -9.11)" fill="#116fff"/>
          <path id="Path_3456" data-name="Path 3456" d="M37.589,24.93A.586.586,0,0,1,37,24.344V22.587a.586.586,0,1,1,1.172,0v1.757A.586.586,0,0,1,37.589,24.93Z" transform="translate(-24.697 -9.11)" fill="#116fff"/>
          <path id="Path_3457" data-name="Path 3457" d="M36.347,26.172H34.589a.586.586,0,0,1,0-1.172h1.758a.586.586,0,0,1,0,1.172Z" transform="translate(-23.454 -10.352)" fill="#116fff"/>
          <path id="Path_3458" data-name="Path 3458" d="M31.614,26.172A.586.586,0,0,1,31.607,25h.006a.586.586,0,0,1,0,1.172Z" transform="translate(-22.221 -10.352)" fill="#116fff"/>
          <path id="Path_3459" data-name="Path 3459" d="M32.273,7.172H27.586a.586.586,0,1,1,0-1.172h4.687a.586.586,0,0,1,0,1.172Z" transform="translate(-20.555 -2.484)" fill="#116fff"/>
          <path id="Path_3460" data-name="Path 3460" d="M31.93,10.172H29.586a.586.586,0,0,1,0-1.172H31.93a.586.586,0,0,1,0,1.172Z" transform="translate(-21.383 -3.727)" fill="#116fff"/>
          <path id="Path_3461" data-name="Path 3461" d="M25.343,39.688a2.344,2.344,0,1,1,2.344-2.344A2.346,2.346,0,0,1,25.343,39.688Zm0-3.516a1.172,1.172,0,1,0,1.172,1.172A1.173,1.173,0,0,0,25.343,36.173Z" transform="translate(-18.898 -14.493)" fill="#116fff"/>
          <path id="Path_3462" data-name="Path 3462" d="M35.344,39.688a2.344,2.344,0,1,1,2.344-2.344A2.346,2.346,0,0,1,35.344,39.688Zm0-3.516a1.172,1.172,0,1,0,1.172,1.172A1.173,1.173,0,0,0,35.344,36.173Z" transform="translate(-23.039 -14.493)" fill="#116fff"/>
          <path id="Path_3463" data-name="Path 3463" d="M33.587,57.8A.585.585,0,0,1,33,57.218V52.453a.586.586,0,0,1,1.172,0v4.765A.585.585,0,0,1,33.587,57.8Z" transform="translate(-23.039 -21.476)" fill="#116fff"/>
          <path id="Path_3464" data-name="Path 3464" d="M29.586,57.8A.585.585,0,0,1,29,57.218V52.453a.586.586,0,0,1,1.172,0v4.765A.585.585,0,0,1,29.586,57.8Z" transform="translate(-21.383 -21.476)" fill="#116fff"/>
          <path id="Path_3465" data-name="Path 3465" d="M31.93,61.171H29.586a.586.586,0,0,1,0-1.172H31.93a.586.586,0,0,1,0,1.172Z" transform="translate(-21.383 -24.843)" fill="#116fff"/>
          <path id="Path_3466" data-name="Path 3466" d="M31.586,62.344A.585.585,0,0,1,31,61.758V60.586a.586.586,0,0,1,1.172,0v1.172A.585.585,0,0,1,31.586,62.344Z" transform="translate(-22.211 -24.844)" fill="#116fff"/>
        </g>
      </g>
    </g>
  </g>
</svg>
