<svg xmlns="http://www.w3.org/2000/svg" width="28.167" height="31.357" viewBox="0 0 28.167 31.357">
  <g id="Group_6437" data-name="Group 6437" transform="translate(-208.917 -787)">
    <g id="lungs" transform="translate(192.917 763.024)">
      <path id="Path_3481" data-name="Path 3481" d="M96.447,45.415v9.919H72V45.415a4.252,4.252,0,0,1,3.278-4.139l4.937-1.162a1.063,1.063,0,0,0,.82-1.034V37.8H79.44a1.063,1.063,0,0,1-1.063-1.063V33.544H76.783s1.628-4.438,1.691-4.783a5.846,5.846,0,1,1,10.385,4.617A6.606,6.606,0,0,0,87.412,37.4v1.68a1.063,1.063,0,0,0,.82,1.034l1.139.268,3.8.894A4.252,4.252,0,0,1,96.447,45.415Z" transform="translate(-52.28 0)" fill="#348fd9"/>
      <path id="Path_3482" data-name="Path 3482" d="M96.447,275.963v9.919H72v-2.746A42.863,42.863,0,0,0,89.37,270.93l3.8.894a4.252,4.252,0,0,1,3.278,4.139Z" transform="translate(-52.28 -230.548)" fill="#3086cd"/>
      <path id="Path_3483" data-name="Path 3483" d="M123.247,331.16H120v-5.311a4.252,4.252,0,0,1,1.052-2.8l2.231-2.55a1.462,1.462,0,0,1,2.563.963v7.1A2.6,2.6,0,0,1,123.247,331.16Z" transform="translate(-97.091 -276.358)" fill="#f35244"/>
      <path id="Path_3484" data-name="Path 3484" d="M306.6,331.16h3.247v-5.311a4.252,4.252,0,0,0-1.052-2.8l-2.231-2.55a1.462,1.462,0,0,0-2.563.963v7.1A2.6,2.6,0,0,0,306.6,331.16Z" transform="translate(-268.868 -276.358)" fill="#f35244"/>
      <path id="Path_3485" data-name="Path 3485" d="M145.594,138.126v2.126h4.252a.531.531,0,0,1,.531.531v9.035l-2.126,1.594v2.657l3.189-2.126,3.189,2.126v-2.657l-2.126-1.594V138.126A2.126,2.126,0,0,0,150.377,136h-5.605c-.4,1.1-.772,2.126-.772,2.126Z" transform="translate(-119.497 -104.582)" fill="#48add9"/>
      <path id="Path_3486" data-name="Path 3486" d="M16,198.377a.531.531,0,0,0,.907.376l1.594-1.594-.751-.751-.472.472a5.324,5.324,0,0,1,5.1-3.817h.531V192h-.531A6.384,6.384,0,0,0,16,198.377Z" transform="translate(0 -156.862)" fill="#4db7e5"/>
      <path id="Path_3487" data-name="Path 3487" d="M23.285,85.47,21.69,83.876l-.751.751.625.625A5.323,5.323,0,0,1,17.063,80H16a6.384,6.384,0,0,0,6.377,6.377h.531a.531.531,0,0,0,.376-.907Z" transform="translate(0 -52.302)" fill="#4db7e5"/>
      <g id="Group_6402" data-name="Group 6402" transform="translate(24.503 46.886)">
        <path id="Path_3488" data-name="Path 3488" d="M145.3,368.844l-.475.951,1.347.674-.728.445H144v1.063h.89l-.869,3.043,1.022.292.342-1.2.9.9.751-.751-1.314-1.314.33-1.154,2.2-1.349V369.2l-1.011.619Z" transform="translate(-144 -368.844)" fill="#c9392d"/>
        <path id="Path_3489" data-name="Path 3489" d="M306.2,371.792l.329,1.152-1.314,1.314.751.751.9-.9.342,1.2,1.022-.292-.869-3.043h.89v-1.063h-1.445l-.731-.443,1.352-.676-.475-.951-1.951.975-1-.606v1.243Z" transform="translate(-293.371 -368.844)" fill="#c9392d"/>
      </g>
    </g>
  </g>
</svg>
