<svg xmlns="http://www.w3.org/2000/svg" xmlns:xlink="http://www.w3.org/1999/xlink" width="282.929" height="241.106" viewBox="0 0 282.929 241.106">
  <defs>
    <linearGradient id="linear-gradient" x1="0.505" y1="1.007" x2="0.505" gradientUnits="objectBoundingBox">
      <stop offset="0" stop-color="gray" stop-opacity="0.251"/>
      <stop offset="0.54" stop-color="gray" stop-opacity="0.122"/>
      <stop offset="1" stop-color="gray" stop-opacity="0.102"/>
    </linearGradient>
    <linearGradient id="linear-gradient-2" x1="0.5" y1="1" x2="0.5" y2="0" xlink:href="#linear-gradient"/>
  </defs>
  <g id="Group_6454" data-name="Group 6454" transform="translate(-46 -310.5)">
    <g id="Group_6453" data-name="Group 6453">
      <g id="Group_6452" data-name="Group 6452">
        <g id="Group_6451" data-name="Group 6451">
          <g id="Group_6410" data-name="Group 6410" transform="translate(-8904 -2630)">
            <g id="successful" transform="translate(8904 2644)">
              <g id="Group_6179" data-name="Group 6179" transform="translate(-4641.919 155)">
                <path id="Path_3259" data-name="Path 3259" d="M59.538,396.83H85.8v35.8H61.461c-.065.367-.127.738-.194,1.108H85.8v28.871c-.044-.013-.083-.028-.124-.044-.694-.274-1.382-.564-2.07-.875l-.44-.2q-1.035-.489-2.07-1.035c-.241-.127-.481-.259-.719-.393A43.067,43.067,0,0,1,70.058,452c-.088-.085-.171-.176-.259-.259-.419-.456-.831-.916-1.229-1.387l-.44-.518c-.471-.577-.926-1.17-1.369-1.77-.065-.088-.127-.176-.194-.259a38.528,38.528,0,0,1-4.451-8.048c-.036-.085-.067-.179-.1-.259q-.533-1.372-.945-2.769c-.119-.391-.233-.776-.331-1.183-.036-.119-.067-.235-.1-.352C59.173,429.456,59,423.5,59,417.577v-2.07c0-2.394.028-4.8.07-7.21,0-.624.026-1.245.039-1.871q.054-2.383.155-4.767c.016-.443.036-.882.06-1.322a7.492,7.492,0,0,1,.039-.761C59.424,398.654,59.476,397.741,59.538,396.83Z" transform="translate(4628.919 -141.805)" fill="#1f8ced" opacity="0.1"/>
                <path id="Path_3260" data-name="Path 3260" d="M121.307,190.659H106.9a109.212,109.212,0,0,1,7.663-10.548c2.14-2.629,4.4-5.191,6.744-7.66Z" transform="translate(4593.416 24.507)" fill="#1f8ced" opacity="0.1"/>
                <path id="Path_3261" data-name="Path 3261" d="M87.582,247.09v37.644H61.4c0-.109.018-.22.026-.329.023-.3.047-.6.072-.89.028-.347.06-.7.093-1.035s.07-.753.109-1.128.075-.756.119-1.131.083-.75.129-1.123.088-.751.137-1.123c.039-.311.08-.619.122-.929.06-.437.122-.877.189-1.312a1.21,1.21,0,0,1,.028-.194,89.521,89.521,0,0,1,1.928-9.451,69.9,69.9,0,0,1,3.248-9.575,71.883,71.883,0,0,1,4.886-9.41Z" transform="translate(4627.14 -30.816)" fill="#1f8ced" opacity="0.1"/>
                <path id="Path_3220" data-name="Path 3220" d="M186.8,146.146v35.8h56.1v-35.8Zm0,36.906V213.8c.321.067.639.132.955.186.43.083.857.158,1.294.223.083.013.168.026.259.034.171.028.347.052.518.075.432.06.862.109,1.294.148.2.021.411.039.619.054l.5.039h0c.272.021.541.036.807.044.166,0,.331.016.5.021h1.845c.223,0,.445,0,.665-.021h.016a3.486,3.486,0,0,0,.463-.021,1.083,1.083,0,0,0,.129,0,2.676,2.676,0,0,0,.383-.018h.091l.867-.067c.285-.026.572-.06.862-.091l.59-.07a51.618,51.618,0,0,0,7.1-1.511c5.233-1.46,10.352-3.5,15.582-5,6.762-1.928,14.234-2.875,20.768-.518V183.052Zm56.1-76.763V58.628a72.118,72.118,0,0,0-18.227,2.138c-14.205,3.569-26.951,11.309-37.872,21.2v24.326h2.816v1.105H186.8v37.649h56.1V107.395H201.176V106.29Zm72.055-16.1a23.236,23.236,0,0,1-10.168-2.955c-6.043-3.287-10.869-8.362-16.263-12.645a74.666,74.666,0,0,0-39.36-15.639V106.29h80.083l.2-.21Zm7.3-1.294,7.735,8.488V86.671a30.691,30.691,0,0,0-7.725,2.215Zm7.735,132.535V183.052H313.5c-.044-.163-.088-.329-.14-.494.049.166.091.331.137.494H249.174v27.755c.611.453,1.214.929,1.812,1.413h0c.644.518,1.281,1.064,1.92,1.6l.644.533c.308.259.619.518.932.761q.932.756,1.881,1.491c.313.259.634.492.952.735a129.719,129.719,0,0,0,15.949,10.432q1.871,1.035,3.776,2.021c.846.432,1.7.862,2.552,1.278q1.925.939,3.882,1.812h0a142.553,142.553,0,0,0,37.784,11.006q4.345.642,8.724,1.009v-23.47h.259Zm-80.81-114.037v37.646h80.821V107.395Zm0,38.752v35.8h80.821v-35.8Zm87.094-59.522V98.575l9.873-10.833q-4.907-.792-9.873-1.131Zm0,59.535v35.788h78.608v-35.8Zm78.321,78.114.277-41.22h-78.6V245.31a140.964,140.964,0,0,0,15.191-.181h.088q3.623-.228,7.213-.662h.054a132.823,132.823,0,0,0,37.059-9.888m34.16-82.537c-.295-.7-.6-1.387-.916-2.07-.585-1.294-1.2-2.552-1.84-3.809h-6.133v35.786h15.507a77.358,77.358,0,0,0-6.61-29.919Zm-8.889,31.024V218.52a50.789,50.789,0,0,0,10.717-14.453,49.687,49.687,0,0,0,4.777-21.006Zm0-47.338v9.316H426.7a100.937,100.937,0,0,0-5.551-9.329Zm-53.311-42.08c-.409-.155-.818-.313-1.229-.466a112.217,112.217,0,0,0-13.279-3.991l-15.108,16.581h0l-.29.308.194.212h53.772a115.011,115.011,0,0,0-24.052-12.658Zm25.636,13.76h-56.1l-1.1,1.009v36.624h78.618V127.3a112.006,112.006,0,0,0-21.41-19.906Z" transform="translate(4534.193 108.876)" fill="#1f8ced" opacity="0.1"/>
                <path id="Path_3262" data-name="Path 3262" d="M87.582,320.46v18.656H61.4c0-.109.018-.22.026-.329.023-.3.047-.6.072-.89.028-.347.06-.7.093-1.035s.07-.753.109-1.128.075-.756.119-1.131.083-.75.129-1.123.088-.75.137-1.123c.039-.311.08-.619.122-.929.06-.437.122-.877.189-1.312a1.21,1.21,0,0,1,.028-.194,89.518,89.518,0,0,1,1.928-9.451Z" transform="translate(4627.14 -85.199)" fill="#1f8ced" opacity="0.1"/>
                <path id="Path_3263" data-name="Path 3263" d="M59.538,396.83H85.8v35.8H61.461c-.065.367-.127.738-.194,1.108H85.8v28.871c-.044-.013-.083-.028-.124-.044-.694-.274-1.382-.564-2.07-.875l-.44-.2q-1.035-.489-2.07-1.035c-.241-.127-.481-.259-.719-.393A43.067,43.067,0,0,1,70.058,452c-.088-.085-.171-.176-.259-.259-.419-.456-.831-.916-1.229-1.387l-.44-.518c-.471-.577-.926-1.17-1.369-1.77-.065-.088-.127-.176-.194-.259a38.528,38.528,0,0,1-4.451-8.048c-.036-.085-.067-.179-.1-.259q-.533-1.372-.945-2.769c-.119-.391-.233-.776-.331-1.183-.036-.119-.067-.235-.1-.352C59.173,429.456,59,423.5,59,417.577v-2.07c0-2.394.028-4.8.07-7.21,0-.624.026-1.245.039-1.871q.054-2.383.155-4.767c.016-.443.036-.882.06-1.322a7.492,7.492,0,0,1,.039-.761C59.424,398.654,59.476,397.741,59.538,396.83Z" transform="translate(4628.919 -141.805)" fill="#1f8ced" opacity="0.1"/>
                <path id="Path_3255" data-name="Path 3255" d="M159.308,178v32.256H139.56V178h2.816V167.08h11.558V178Z" transform="translate(4581.433 43.661)" fill="#1f8ced" opacity="0.1"/>
                <rect id="Rectangle_3925" data-name="Rectangle 3925" width="19.746" height="35.799" transform="translate(4720.996 255.023)" fill="#1f8ced" opacity="0.1"/>
                <path id="Path_3256" data-name="Path 3256" d="M186.8,539.44h19.748V569.2a51.553,51.553,0,0,1-7.1,1.509l-.59.072c-.29.034-.577.062-.862.091s-.58.049-.867.067h-.091c-.124,0-.259.016-.38.018h-.132c-.155,0-.311.016-.466.021h0c-.22.013-.44.016-.665.018H193.56l-.5-.018c-.259,0-.538-.028-.807-.047h0l-.5-.036-.619-.057c-.435-.039-.867-.088-1.294-.148l-.518-.072-.259-.036c-.432-.067-.859-.14-1.294-.223-.318-.054-.634-.122-.955-.186Z" transform="translate(4534.193 -247.509)" fill="#1f8ced" opacity="0.1"/>
                <rect id="Rectangle_3918" data-name="Rectangle 3918" width="16.283" height="36.063" transform="translate(4847.904 217.852)" fill="#1f8ced" opacity="0.1"/>
                <path id="Path_3232" data-name="Path 3232" d="M461.4,338.19v35.8H380.58V358.549h43.05v9.109h21.488V338.19Z" transform="translate(4402.787 -83.167)" fill="#1f8ced" opacity="0.1"/>
                <path id="Path_3233" data-name="Path 3233" d="M508.9,576.408h-.259v23.485q-4.374-.37-8.721-1.007a142.56,142.56,0,0,1-37.8-11.03q-5.21-2.345-10.207-5.119a130.26,130.26,0,0,1-15.952-10.432q-1.9-1.46-3.76-2.986c-.857-.707-1.708-1.431-2.57-2.135-.6-.484-1.2-.96-1.812-1.416V538.024h64.323c-.044-.166-.088-.331-.135-.494.049.163.1.329.14.494h16.493v38.369C508.729,576.4,508.814,576.4,508.9,576.408Z" transform="translate(4355.547 -246.093)" fill="#1f8ced" opacity="0.1"/>
                <path id="Path_3257" data-name="Path 3257" d="M873.83,205.238H863.22v-3.3h4.757V192.12q.619.225,1.232.463v9.358h4.622Z" transform="translate(4032.825 9.928)" fill="#1f8ced" opacity="0.1"/>
                <path id="Path_3252" data-name="Path 3252" d="M826.118,284.734h-52.09l.018.013-.023-.013H764.36V248.671H767.1v26.656h12.513V259.54h10.336V247.09h10.61v12.461h10.336v15.786h15.225Z" transform="translate(4106.101 -30.816)" fill="#1f8ced" opacity="0.1"/>
                <path id="Path_3221" data-name="Path 3221" d="M764.36,396.82v35.8h61.758v-35.8Zm78.523,77.943.085-28.338h-16.85V433.744H764.36v62.239a140.946,140.946,0,0,0,15.191-.181h.088q3.623-.228,7.213-.662h.054a132.823,132.823,0,0,0,37.059-9.888" transform="translate(4106.101 -141.797)" fill="#1f8ced" opacity="0.1"/>
                <path id="Path_3227" data-name="Path 3227" d="M1093.457,539.44h14.407a49.844,49.844,0,0,1-4.78,21A50.806,50.806,0,0,1,1092.37,574.9V552.123h1.087Z" transform="translate(3862.977 -247.509)" fill="#1f8ced" opacity="0.1"/>
                <path id="Path_3234" data-name="Path 3234" d="M1110.985,449.469H1096.57V419.55h7.8A77.454,77.454,0,0,1,1110.985,449.469Z" transform="translate(3859.864 -158.645)" fill="#1f8ced" opacity="0.1"/>
                <rect id="Rectangle_3919" data-name="Rectangle 3919" width="8.724" height="11.307" transform="translate(4855.466 227.878)" fill="#1f8ced" opacity="0.1"/>
                <rect id="Rectangle_3920" data-name="Rectangle 3920" width="8.724" height="2.603" transform="translate(4855.466 251.314)" fill="#1f8ced" opacity="0.1"/>
                <rect id="Rectangle_3909" data-name="Rectangle 3909" width="8.724" height="7.596" transform="translate(4855.466 255.023)" fill="#1f8ced" opacity="0.1"/>
                <rect id="Rectangle_3901" data-name="Rectangle 3901" width="8.724" height="11.307" transform="translate(4855.466 274.75)" fill="#1f8ced" opacity="0.1"/>
                <rect id="Rectangle_3902" data-name="Rectangle 3902" width="8.724" height="11.307" transform="translate(4855.466 298.186)" fill="#1f8ced" opacity="0.1"/>
                <path id="Path_3235" data-name="Path 3235" d="M715.141,662.847a1.438,1.438,0,0,1,.259.016h-.259v2.627H706.42V654.17h8.721Z" transform="translate(4149.046 -332.547)" fill="#1f8ced" opacity="0.1"/>
                <path id="Path_3236" data-name="Path 3236" d="M715.141,744.71v8.734q-4.374-.37-8.721-1.007V744.71Z" transform="translate(4149.046 -399.656)" fill="#1f8ced" opacity="0.1"/>
                <rect id="Rectangle_3910" data-name="Rectangle 3910" width="37.388" height="0.831" transform="translate(4783.367 289.993)" fill="#1f8ced" opacity="0.1"/>
                <rect id="Rectangle_3911" data-name="Rectangle 3911" width="37.388" height="3.183" transform="translate(4783.367 291.929)" fill="#1f8ced" opacity="0.1"/>
                <rect id="Rectangle_3912" data-name="Rectangle 3912" width="37.388" height="5.119" transform="translate(4783.367 305.547)" fill="#1f8ced" opacity="0.1"/>
                <path id="Path_3243" data-name="Path 3243" d="M470.386,652.15v5.119H441.143q-1.9-1.455-3.763-2.987c-.857-.706-1.705-1.431-2.57-2.132Z" transform="translate(4350.366 -331.05)" fill="#1f8ced" opacity="0.1"/>
                <path id="Path_3244" data-name="Path 3244" d="M534.211,712.218v5.114h-3.087q-5.2-2.347-10.2-5.122Z" transform="translate(4286.541 -375.567)" fill="#1f8ced" opacity="0.1"/>
                <rect id="Rectangle_3913" data-name="Rectangle 3913" width="7.36" height="7.36" transform="translate(4885.654 258.493)" fill="#1f8ced" opacity="0.1"/>
                <rect id="Rectangle_3926" data-name="Rectangle 3926" width="7.36" height="7.36" transform="translate(4726.295 224.2)" fill="#1f8ced" opacity="0.1"/>
                <rect id="Rectangle_3927" data-name="Rectangle 3927" width="7.36" height="7.36" transform="translate(4726.295 241.296)" fill="#1f8ced" opacity="0.1"/>
                <rect id="Rectangle_3928" data-name="Rectangle 3928" width="7.36" height="7.36" transform="translate(4726.295 258.392)" fill="#1f8ced" opacity="0.1"/>
                <rect id="Rectangle_3929" data-name="Rectangle 3929" width="7.36" height="7.36" transform="translate(4726.295 275.485)" fill="#1f8ced" opacity="0.1"/>
                <rect id="Rectangle_3930" data-name="Rectangle 3930" width="7.36" height="7.36" transform="translate(4726.295 292.581)" fill="#1f8ced" opacity="0.1"/>
                <rect id="Rectangle_3931" data-name="Rectangle 3931" width="7.36" height="7.36" transform="translate(4726.295 309.677)" fill="#1f8ced" opacity="0.1"/>
                <rect id="Rectangle_3914" data-name="Rectangle 3914" width="7.36" height="7.36" transform="translate(4913.751 258.493)" fill="#1f8ced" opacity="0.1"/>
                <rect id="Rectangle_3903" data-name="Rectangle 3903" width="7.36" height="7.36" transform="translate(4885.654 276.647)" fill="#1f8ced" opacity="0.1"/>
                <rect id="Rectangle_3904" data-name="Rectangle 3904" width="7.36" height="7.36" transform="translate(4913.751 276.647)" fill="#1f8ced" opacity="0.1"/>
                <rect id="Rectangle_3905" data-name="Rectangle 3905" width="7.36" height="7.36" transform="translate(4885.654 294.799)" fill="#1f8ced" opacity="0.1"/>
                <rect id="Rectangle_3906" data-name="Rectangle 3906" width="7.36" height="7.36" transform="translate(4913.751 294.799)" fill="#1f8ced" opacity="0.1"/>
                <rect id="Rectangle_3897" data-name="Rectangle 3897" width="7.36" height="7.36" transform="translate(4885.654 312.953)" fill="#1f8ced" opacity="0.1"/>
                <rect id="Rectangle_3898" data-name="Rectangle 3898" width="7.36" height="7.36" transform="translate(4913.751 312.953)" fill="#1f8ced" opacity="0.1"/>
                <rect id="Rectangle_3899" data-name="Rectangle 3899" width="7.36" height="7.36" transform="translate(4885.654 331.107)" fill="#1f8ced" opacity="0.1"/>
                <rect id="Rectangle_3896" data-name="Rectangle 3896" width="7.36" height="7.36" transform="translate(4913.751 331.107)" fill="#1f8ced" opacity="0.1"/>
                <path id="Path_3228" data-name="Path 3228" d="M775.83,707.076V702.33h7.357V706.4Z" transform="translate(4109.824 -353.071)" fill="#1f8ced" opacity="0.1"/>
                <path id="Path_3264" data-name="Path 3264" d="M65.24,357v4.211H90.428V357Zm2.51,3.947H65.7v-3.688h2.07Zm2.508,0h-2.07v-3.688h2.07Zm2.5,0H70.69v-3.688h2.07Zm2.508,0H73.2v-3.688h2.07Zm2.505,0H75.7v-3.688h2.07Zm2.508,0h-2.07v-3.688h2.07Zm2.508,0h-2.07v-3.688h2.07Zm2.505,0h-2.07v-3.688h2.07Zm2.505,0h-2.07v-3.688H87.8Zm2.505,0h-2.07v-3.688H90.3Z" transform="translate(4624.294 -112.283)" fill="#1f8ced" opacity="0.1"/>
                <path id="Path_3265" data-name="Path 3265" d="M65.24,404.34v4.211H90.428V404.34Zm2.51,3.944H65.7v-3.677h2.07Zm2.508,0h-2.07v-3.677h2.07Zm2.5,0H70.69v-3.677h2.07Zm2.508,0H73.2v-3.677h2.07Zm2.505,0H75.7v-3.677h2.07Zm2.508,0h-2.07v-3.677h2.07Zm2.508,0h-2.07v-3.677h2.07Zm2.505,0h-2.07v-3.677h2.07Zm2.505,0h-2.07v-3.677H87.8Zm2.505,0h-2.07v-3.677H90.3Z" transform="translate(4624.294 -147.371)" fill="#1f8ced" opacity="0.1"/>
                <path id="Path_3266" data-name="Path 3266" d="M65.24,451.7v4.218H90.428V451.7Zm2.51,3.944H65.7v-3.68h2.07Zm2.508,0h-2.07v-3.68h2.07Zm2.5,0H70.69v-3.68h2.07Zm2.508,0H73.2v-3.68h2.07Zm2.505,0H75.7v-3.68h2.07Zm2.508,0h-2.07v-3.68h2.07Zm2.508,0h-2.07v-3.68h2.07Zm2.505,0h-2.07v-3.68h2.07Zm2.505,0h-2.07v-3.68H87.8Zm2.505,0h-2.07v-3.68H90.3Z" transform="translate(4624.294 -182.475)" fill="#1f8ced" opacity="0.1"/>
                <path id="Path_3267" data-name="Path 3267" d="M65.24,499.06v4.205H90.428V499.06ZM67.75,503H65.7v-3.683h2.07Zm2.508,0h-2.07v-3.683h2.07Zm2.5,0H70.69v-3.683h2.07Zm2.508,0H73.2v-3.683h2.07Zm2.505,0H75.7v-3.683h2.07Zm2.508,0h-2.07v-3.683h2.07Zm2.508,0h-2.07v-3.683h2.07Zm2.505,0h-2.07v-3.683h2.07Zm2.505,0h-2.07v-3.683H87.8Zm2.505,0h-2.07v-3.683H90.3Z" transform="translate(4624.294 -217.579)" fill="#1f8ced" opacity="0.1"/>
                <path id="Path_3268" data-name="Path 3268" d="M65.66,546.41c.1.4.215.792.334,1.183v-.919h2.07v3.68H66.957c.034.085.067.179.1.259H90.74v-4.2Zm4.917,3.944h-2.07v-3.68h2.07Zm2.5,0h-2.07v-3.68h2.07Zm2.508,0H73.512v-3.68h2.07Zm2.505,0h-2.07v-3.68h2.07Zm2.508,0H78.53v-3.68H80.6Zm2.508,0h-2.07v-3.68h2.07Zm2.505,0h-2.07v-3.68h2.07Zm2.505,0h-2.07v-3.68h2.07Zm2.505,0h-2.07v-3.68h2.07Z" transform="translate(4623.983 -252.675)" fill="#1f8ced" opacity="0.1"/>
                <path id="Path_3269" data-name="Path 3269" d="M88.26,593.77c.065.083.127.176.194.259h1.369V595.8c.148.176.292.352.443.518v-2.3h2.07v3.693H91.5c.083.085.163.176.259.259H107.5v-4.2Zm6.576,3.941h-2.07v-3.677h2.07Zm2.508,0h-2.07v-3.677h2.07Zm2.508,0h-2.07v-3.677h2.07Zm2.505,0h-2.07v-3.677h2.07Zm2.505,0h-2.07v-3.677h2.07Zm2.505,0H105.3v-3.677h2.07Z" transform="translate(4607.231 -287.778)" fill="#1f8ced" opacity="0.1"/>
                <path id="Path_3270" data-name="Path 3270" d="M141.65,641.12c.236.135.476.259.719.393v-.129h2.07v1.165l.44.2v-1.369h2.07v2.239a.645.645,0,0,0,.124.047V641.12Z" transform="translate(4567.658 -322.875)" fill="#6c63ff" opacity="0.1"/>
                <path id="Path_3237" data-name="Path 3237" d="M354.03,281.539Zm-15.942,76.38Zm-16.633-38.863c.049.166.091.331.137.494h0C321.552,319.388,321.508,319.222,321.456,319.056Zm32.574-37.525ZM197.72,242.78v1.105h11.56V242.78ZM338.089,357.919Zm-16.633-38.863c.049.166.091.331.137.494h0C321.552,319.388,321.508,319.222,321.456,319.056Zm32.574-37.525Zm-15.942,76.38Zm-16.633-38.855c.049.166.091.331.137.494h0C321.552,319.388,321.508,319.222,321.456,319.056Z" transform="translate(4526.099 -27.622)" fill="#1f8ced" opacity="0.1"/>
                <path id="Path_3245" data-name="Path 3245" d="M881.39,451Z" transform="translate(4019.357 -181.956)" fill="#ffb0b1"/>
                <path id="Path_3246" data-name="Path 3246" d="M880.74,451.48l.078-.08Z" transform="translate(4019.839 -182.253)" fill="#ffb0b1"/>
              </g>
              <g id="undraw_order_confirmed_1m3v" transform="translate(-11.16 196.039)">
                <rect id="Rectangle_3932" data-name="Rectangle 3932" width="2.89" height="23.818" rx="1.445" transform="translate(252.901 162.226)" fill="#3a3768"/>
                <rect id="Rectangle_3933" data-name="Rectangle 3933" width="1.621" height="7.841" rx="0.811" transform="translate(156.864 143.565)" fill="#3a3768"/>
                <rect id="Rectangle_3934" data-name="Rectangle 3934" width="1.827" height="13.647" rx="0.913" transform="translate(156.805 157.924)" fill="#3a3768"/>
                <rect id="Rectangle_3935" data-name="Rectangle 3935" width="1.739" height="13.765" rx="0.869" transform="translate(156.834 176.346)" fill="#3a3768"/>
                <path id="Path_3319" data-name="Path 3319" d="M12.718,0H83.962A12.718,12.718,0,0,1,96.68,12.718V183.77a12.718,12.718,0,0,1-12.718,12.718H12.718A12.718,12.718,0,0,1,0,183.77V12.718A12.718,12.718,0,0,1,12.718,0Z" transform="translate(157.78 117.653)" fill="#003165"/>
                <path id="Path_3272" data-name="Path 3272" d="M541.79,199H530.7v1.334a6.321,6.321,0,0,1-6.325,6.321h-35.27a6.321,6.321,0,0,1-6.325-6.321V199H472.4a7.678,7.678,0,0,0-7.678,7.678V377.587a7.678,7.678,0,0,0,7.678,7.678H541.79a7.678,7.678,0,0,0,7.678-7.678v-170.9A7.678,7.678,0,0,0,541.79,199Z" transform="translate(-300.967 -76.242)" fill="#dceefe"/>
                <rect id="Rectangle_3937" data-name="Rectangle 3937" width="13.501" height="2.74" rx="1.37" transform="translate(196.795 123.521)" fill="#e6e8ec"/>
                <circle id="Ellipse_49" data-name="Ellipse 49" cx="1.556" cy="1.556" r="1.556" transform="translate(212.337 123.336)" fill="#e6e8ec"/>
                <path id="Path_3273" data-name="Path 3273" d="M794.831,156.856S767.367,155.2,770.6,174.444a4.676,4.676,0,0,0,2.44,4.945s.049-1.425,2.818-.939a12.885,12.885,0,0,0,2.985.144,6.217,6.217,0,0,0,3.647-1.491h0s7.721-3.19,10.722-15.807c0,0,2.221-2.753,2.133-3.461l-4.635,1.98s1.585,3.343.326,6.122c0,0-.15-6-1.041-5.871-.179.026-2.407,1.158-2.407,1.158s2.724,5.822.669,10.056c0,0,.78-7.176-1.52-9.635l-3.262,1.9s3.183,6.015,1.024,10.924c0,0,.555-7.528-1.712-10.461l-2.955,2.306s2.991,5.927,1.168,10c0,0-.238-8.761-1.807-9.423,0,0-2.587,2.283-2.981,3.216,0,0,2.048,4.306.776,6.576,0,0-.78-5.839-1.419-5.871,0,0-2.577,3.868-2.844,6.524a14.055,14.055,0,0,1,2.221-6.889A7.765,7.765,0,0,0,771,172.49s.4-2.733,4.583-2.975c0,0,2.13-2.936,2.7-3.112,0,0-4.156-.349-6.677.77,0,0,2.218-2.58,7.44-1.406l2.919-2.384s-5.473-.747-7.8.078c0,0,2.671-2.283,8.582-.62l3.177-1.9a29.147,29.147,0,0,0-7.447-.652s2.936-1.582,8.38.134l2.283-1.021s-3.418-.672-4.42-.78-1.054-.382-1.054-.382a11.856,11.856,0,0,1,6.422.714S794.913,157.159,794.831,156.856Z" transform="translate(-506.898 -47.82)" fill="#1f8ced"/>
                <path id="Path_3274" data-name="Path 3274" d="M736.2,130.657s-12.395-.747-10.947,7.949a2.121,2.121,0,0,0,1.1,2.234s.023-.652,1.275-.427a5.71,5.71,0,0,0,1.347.065,2.792,2.792,0,0,0,1.647-.678h0s3.49-1.442,4.847-7.143c0,0,1-1.243.962-1.562l-2.094.894a3.764,3.764,0,0,1,.153,2.766s-.068-2.711-.47-2.649c-.081,0-1.089.525-1.089.525s1.233,2.632.3,4.544c0,0,.352-3.242-.688-4.355l-1.474.874s1.438,2.717.463,4.935c0,0,.251-3.4-.773-4.726l-1.334,1.044s1.35,2.678.528,4.518c0,0-.111-3.96-.819-4.26a8.182,8.182,0,0,0-1.347,1.455s.926,1.957.352,2.971c0,0-.352-2.639-.652-2.652a8.781,8.781,0,0,0-1.285,2.936,6.366,6.366,0,0,1,1-3.112,3.51,3.51,0,0,0-1.784.923s.183-1.236,2.071-1.344a8.922,8.922,0,0,1,1.22-1.409,7.648,7.648,0,0,0-3.017.349s1-1.164,3.36-.636l1.3-1.076a11.257,11.257,0,0,0-3.523.036s1.207-1.031,3.878-.281l1.435-.858a13.071,13.071,0,0,0-3.366-.29,5.17,5.17,0,0,1,3.787.059l1.027-.46s-1.546-.3-2-.352-.476-.173-.476-.173a5.346,5.346,0,0,1,2.9.326A13.277,13.277,0,0,0,736.2,130.657Z" transform="translate(-476.443 -30.18)" fill="#1f8ced"/>
                <ellipse id="Ellipse_50" data-name="Ellipse 50" cx="8.784" cy="1.484" rx="8.784" ry="1.484" transform="translate(316.324 318.457)" fill="#1f8ced" opacity="0.1"/>
                <ellipse id="Ellipse_51" data-name="Ellipse 51" cx="8.784" cy="1.484" rx="8.784" ry="1.484" transform="translate(64.16 330.636)" fill="#1f8ced" opacity="0.1"/>
                <ellipse id="Ellipse_52" data-name="Ellipse 52" cx="8.784" cy="1.484" rx="8.784" ry="1.484" transform="translate(98.138 338.598)" fill="#1f8ced" opacity="0.1"/>
                <ellipse id="Ellipse_53" data-name="Ellipse 53" cx="13.116" cy="2.218" rx="13.116" ry="2.218" transform="translate(292.764 333.627)" fill="#1f8ced" opacity="0.1"/>
                <path id="Path_3275" data-name="Path 3275" d="M892.02,828.672a3.82,3.82,0,0,0,1.249-1.889,1.684,1.684,0,0,0-.874-1.921c-.8-.307-1.66.251-2.309.812a3.084,3.084,0,0,1-2.247,1.083,3.418,3.418,0,0,0,1.06-3.2,1.347,1.347,0,0,0-.3-.652c-.444-.476-1.253-.274-1.784.1-1.7,1.191-2.169,3.5-2.179,5.568a10.469,10.469,0,0,1-.033-2.283,2.359,2.359,0,0,0-.861-2.032,2.591,2.591,0,0,0-1.3-.307,2.717,2.717,0,0,0-2.133.607,2.1,2.1,0,0,0,.085,2.609,8.307,8.307,0,0,0,2.208,1.768,4.892,4.892,0,0,1,1.575,1.5,1.354,1.354,0,0,1,.117.271h4.765a13.392,13.392,0,0,0,2.962-2.042Z" transform="translate(-580.716 -496.454)" fill="#1f8ced"/>
                <path id="Path_3276" data-name="Path 3276" d="M281.69,753.45s1.794,2.345-.825,5.871-4.779,6.524-3.914,8.732c0,0,3.953-6.573,7.176-6.664S285.229,757.4,281.69,753.45Z" transform="translate(-174.314 -449.841)" fill="#1f8ced"/>
                <path id="Path_3277" data-name="Path 3277" d="M281.907,753.45a2.881,2.881,0,0,1,.365.737c3.138,3.686,4.811,7.127,1.794,7.212-2.808.082-6.178,5.1-6.987,6.374.026.1.059.193.095.29,0,0,3.953-6.573,7.176-6.664S285.447,757.4,281.907,753.45Z" transform="translate(-174.532 -449.841)" opacity="0.1"/>
                <path id="Path_3278" data-name="Path 3278" d="M301.241,761.519c0,.825-.091,1.494-.205,1.494s-.206-.669-.206-1.494.114-.437.228-.437S301.241,760.693,301.241,761.519Z" transform="translate(-190.535 -454.922)" fill="#ffd037"/>
                <path id="Path_3279" data-name="Path 3279" d="M302.682,764.458c-.724.395-1.357.633-1.409.532s.486-.5,1.21-.9.44-.108.493,0S303.406,764.064,302.682,764.458Z" transform="translate(-190.831 -456.876)" fill="#ffd037"/>
                <path id="Path_3280" data-name="Path 3280" d="M254.548,753.45s-1.794,2.345.825,5.871,4.779,6.524,3.914,8.732c0,0-3.95-6.573-7.176-6.664S251,757.4,254.548,753.45Z" transform="translate(-156.635 -449.841)" fill="#1f8ced"/>
                <path id="Path_3281" data-name="Path 3281" d="M254.534,753.45a2.935,2.935,0,0,0-.369.737c-3.138,3.686-4.808,7.127-1.794,7.212,2.812.082,6.181,5.1,6.99,6.374a2.531,2.531,0,0,1-.1.29s-3.95-6.573-7.176-6.664S250.988,757.4,254.534,753.45Z" transform="translate(-156.62 -449.841)" opacity="0.1"/>
                <path id="Path_3282" data-name="Path 3282" d="M252.65,761.519c0,.825.095,1.494.209,1.494s.205-.669.205-1.494-.114-.437-.228-.437S252.65,760.693,252.65,761.519Z" transform="translate(-158.07 -454.922)" fill="#ffd037"/>
                <path id="Path_3283" data-name="Path 3283" d="M248.238,764.458c.724.395,1.354.633,1.409.532s-.489-.5-1.213-.9-.437-.108-.493,0S247.514,764.064,248.238,764.458Z" transform="translate(-154.8 -456.876)" fill="#ffd037"/>
                <path id="Path_3284" data-name="Path 3284" d="M254.4,791.715s5.01-.157,6.524-1.23,7.708-2.361,8.08-.636,7.531,8.575,1.876,8.621-13.145-.881-14.652-1.8S254.4,791.715,254.4,791.715Z" transform="translate(-159.25 -473.8)" fill="#a8a8a8"/>
                <path id="Path_3285" data-name="Path 3285" d="M270.976,803.452c-5.656.046-13.145-.881-14.652-1.8-1.145-.7-1.6-3.21-1.758-4.364H254.4s.326,4.038,1.823,4.958,9,1.843,14.652,1.8c1.631,0,2.2-.594,2.166-1.455C272.813,803.119,272.19,803.442,270.976,803.452Z" transform="translate(-159.25 -479.381)" opacity="0.2"/>
                <path id="Path_3286" data-name="Path 3286" d="M377.46,474.88a.3.3,0,0,0,.356.046A1.258,1.258,0,0,1,377.46,474.88Z" transform="translate(-242.17 -262.135)" fill="url(#linear-gradient)"/>
                <path id="Path_3287" data-name="Path 3287" d="M305.9,235.687c-.688-.2-1.667-.532-2.851-.946a15.275,15.275,0,0,0,2.642-5.392l-.1.039c.033-.121.068-.238.1-.359-2.264.933-4.772-.652-6.367-2.678s-2.681-4.547-4.426-6.416a20.454,20.454,0,0,0-2.345-2.045,3.117,3.117,0,0,0-1.7-.845c-1.018-.029-1.817.979-2.8,1.282a3.79,3.79,0,0,1-1.957-.072c-2.534-.59-4.978-1.677-7.551-1.957a8.725,8.725,0,0,0-4.1.466c-1.3.5-1.892,1.5-2.936,2.283-1.132.855-3.386.835-4.72.979a33.8,33.8,0,0,1-4.873.205,11.051,11.051,0,0,0-2.805.1c-1.937.431-3.493,1.99-4.945,3.49a2.609,2.609,0,0,0-.819,1.3,1.731,1.731,0,0,0,0,.431,2.8,2.8,0,0,0,.2,1.142,15.138,15.138,0,0,0,1.859,3.8,11.4,11.4,0,0,1,1.631,2.688,5.293,5.293,0,0,1,.251,1.549,11.886,11.886,0,0,1-.173,1.667,21.2,21.2,0,0,1-1.256,4.433,8.524,8.524,0,0,0-.734,2.339,4.212,4.212,0,0,0,0,.5c-.1,2.554,2.45,4.4,2.936,6.938a4.624,4.624,0,0,1,.072.636A4.337,4.337,0,0,1,255.87,255c.114.046.232.085.349.127a3.67,3.67,0,0,1-.349.2c.238.091.483.17.731.241a17.164,17.164,0,0,0-3.722,4.625c-4.39,8.327-34.314,24.663-34.314,24.663s.17.095.444.258c-.111.068-.228.147-.359.235-2.59,1.748-8.67,6.85-3.174,13.282,0,0,4.289-6.866,7.293-9.785.137-.13.267-.251.395-.365a.891.891,0,0,1,.117.7L242.96,277.97s6.993-4.964,8.944-6.087a16.055,16.055,0,0,1,4.433-1.928l-.228.1a8.855,8.855,0,0,1,2.257-.326c3.484.055,7.254,2.642,8.5,12.887,1.667,13.719.894,16.192.359,16.531a.938.938,0,0,1-.2-.036.294.294,0,0,0,.052.039.947.947,0,0,1-.215-.039.3.3,0,0,0,.287.072.281.281,0,0,0,.219-.026h.264c0,.124-.02.254-.029.382-.026,0-.157.075,0,.085h0c-.039.773-.036,1.631,0,2.5-1.732.1-3.461.2-4.978.3l.137-.727.062-.326c1.328-.108,2.59-.5,2.737-1.6.326-2.4-2.936-3.683-5.692-3.842s-19.352.962-19.352.962-2.489,3.262,5.4,4.276c.235.124.479.261.727.4a87.456,87.456,0,0,1,9.29,6.7l.28.225-.9.727c4.893,1.122,9.6,20.021,12.2,28.668s8.295,8.327,13.011,7.049c4.42-1.2,4.984-14.215,5.036-15.849v-.166l7.858,9.821.6.747c.232.121.457.235.678.343a7.6,7.6,0,0,0,10.656-8.895c-1.889-6.328-4.824-15.68-6.781-19.633-1.631-3.311-3.754-8.807-5.039-12.258a4.521,4.521,0,0,0,.486-.235s-.029-.153-.082-.437l.082-.042a123.6,123.6,0,0,1-2-17.04v-.6c1.422-.326,2.322-.457,2.322-.457l.026-.307-.166.036.789-9.179s2.9-6.259.682-8.869a5.545,5.545,0,0,1-1.3-2.711c-.372-2.4,0-6.4,5.176-9.72,7.969-5.124,11.061-9.29,11.061-9.29S310.776,237.129,305.9,235.687Zm-15.826,6.367v-4.24c1.478-.072,2.988.1,4.472,0a11.276,11.276,0,0,0,2.159-.365l.359.251A39.373,39.373,0,0,1,290.07,242.054Zm-22.591,66.479c.584.411,1.171.838,1.748,1.266.359,2.091.675,3.568.7,3.67A29.431,29.431,0,0,0,267.479,308.533Z" transform="translate(-131.52 -87.852)" fill="url(#linear-gradient-2)"/>
                <path id="Path_3288" data-name="Path 3288" d="M380.2,491l-.352,1.911-.271,1.461-.493,2.675-4.775,3.343s-.431-.369-1.142-.949a83.217,83.217,0,0,0-9.091-6.654,10.176,10.176,0,0,0-2.5-1.151Z" transform="translate(-231.47 -272.997)" fill="#ffbdc6"/>
                <path id="Path_3289" data-name="Path 3289" d="M380.2,491l-.352,1.911a14.917,14.917,0,0,1-3.151-.163l-11.142.16c-.525-.033-1.018-.072-1.478-.121a10.175,10.175,0,0,0-2.5-1.151Z" transform="translate(-231.47 -272.997)" opacity="0.1"/>
                <path id="Path_3290" data-name="Path 3290" d="M368.717,484.493s5.568.956,5.894-1.422-2.867-3.663-5.571-3.823-18.941.956-18.941.956-2.864,3.82,7.479,4.459Z" transform="translate(-223.488 -265.068)" fill="#474463"/>
                <path id="Path_3291" data-name="Path 3291" d="M380.2,491l-.352,1.911-.271,1.461-.493,2.675-4.775,3.343s-.431-.369-1.142-.949a83.217,83.217,0,0,0-9.091-6.654,10.176,10.176,0,0,0-2.5-1.151Z" transform="translate(-231.47 -272.997)" opacity="0.1"/>
                <path id="Path_3292" data-name="Path 3292" d="M380.2,491l-.352,1.911a14.917,14.917,0,0,1-3.151-.163l-11.142.16c-.525-.033-1.018-.072-1.478-.121a10.175,10.175,0,0,0-2.5-1.151Z" transform="translate(-231.47 -272.997)" opacity="0.1"/>
                <path id="Path_3293" data-name="Path 3293" d="M368.71,484.452s5.571.952,5.891-1.435-2.867-3.66-5.571-3.82-18.941.956-18.941.956-2.864,3.82,7.479,4.456Z" transform="translate(-223.481 -265.034)" opacity="0.1"/>
                <rect id="Rectangle_3938" data-name="Rectangle 3938" width="29.128" height="34.539" transform="translate(128.277 140.959)" fill="#474463"/>
                <rect id="Rectangle_3939" data-name="Rectangle 3939" width="29.128" height="34.539" transform="translate(128.277 141.116)" opacity="0.1"/>
                <path id="Path_3294" data-name="Path 3294" d="M228.383,430.14a4.662,4.662,0,0,0-1.774,1.256c-2.936,2.906-7.14,9.727-7.14,9.727-5.375-6.4.574-11.462,3.108-13.2.617-.421,1.031-.652,1.031-.652Z" transform="translate(-134.244 -230.055)" fill="#ffbdc6"/>
                <path id="Path_3295" data-name="Path 3295" d="M385.8,288.22s1.432,10.027,6.367,12.414-6.367,6.85-6.367,6.85L370.36,301.75s8.755-2.867,7-11.3Z" transform="translate(-237.386 -136.36)" fill="#ffbdc6"/>
                <path id="Path_3296" data-name="Path 3296" d="M328.445,473.16l-.349,1.9-.284,1.468-.493,2.675-4.775,3.34s-.431-.365-1.142-.946a82.958,82.958,0,0,0-9.094-6.654,10.111,10.111,0,0,0-2.5-1.151Z" transform="translate(-196.586 -260.976)" fill="#ffbdc6"/>
                <path id="Path_3297" data-name="Path 3297" d="M328.472,473.16l-.349,1.9a14.919,14.919,0,0,1-3.151-.163l-11.142.16c-.525-.033-1.021-.072-1.481-.121a10.111,10.111,0,0,0-2.5-1.151Z" transform="translate(-196.613 -260.976)" opacity="0.1"/>
                <path id="Path_3298" data-name="Path 3298" d="M316.988,466.662s5.571.952,5.888-1.432-2.864-3.663-5.571-3.823-18.938.956-18.938.956-2.867,3.82,7.479,4.459Z" transform="translate(-188.63 -253.047)" fill="#474463"/>
                <path id="Path_3299" data-name="Path 3299" d="M351.759,483.271l-.493,2.675-4.775,3.34s-.431-.365-1.142-.946l6.315-5.18Z" transform="translate(-220.533 -267.714)" opacity="0.1"/>
                <path id="Path_3300" data-name="Path 3300" d="M382.092,505.1c-.219-.108-.437-.219-.652-.326l-.587-.74-7.7-9.766v.17c-.052,1.631-.607,14.554-4.932,15.748-4.615,1.272-10.183,1.592-12.721-7s-7.176-27.376-11.938-28.492l7.085-5.809s4.69,5.486,6.6,10.738c-.072-.326-3.311-15.461-.652-18.139h23.24s3.588,10.219,6.047,15.282c1.915,3.93,4.788,13.223,6.638,19.512A7.465,7.465,0,0,1,382.092,505.1Z" transform="translate(-219.327 -253.106)" fill="#024e91"/>
                <path id="Path_3301" data-name="Path 3301" d="M406.113,424.195c-3.588,2.123-19.339,1.259-24.464.913l-1.4-.1c-.15,0,.023-.085.023-.085l.144-1.445,3.82-9.707,20.452-11.86a17.806,17.806,0,0,0-.519,5.349A124.222,124.222,0,0,0,406.113,424.195Z" transform="translate(-244.011 -212.966)" opacity="0.1"/>
                <path id="Path_3302" data-name="Path 3302" d="M405.761,422.745c-3.588,2.123-19.339,1.259-24.464.913l-1.4-.1-.232-.02.254-.065,1.259-.326,2.7-10.823,20.452-11.857a17.806,17.806,0,0,0-.519,5.349A124.148,124.148,0,0,0,405.761,422.745Z" transform="translate(-243.659 -211.996)" fill="#f2f1f2"/>
                <path id="Path_3303" data-name="Path 3303" d="M404.259,405.813c-4.159.959-13.311,3.774-16.828,10.568-2.345,4.524-4.319,6.465-5.7,7.277l-1.4-.1a.816.816,0,0,0,.023-.085l1.259-.326,2.7-10.823,20.452-11.857A17.841,17.841,0,0,0,404.259,405.813Z" transform="translate(-244.11 -211.996)" opacity="0.1"/>
                <path id="Path_3304" data-name="Path 3304" d="M234.531,427.29l4.775,2.864a4.663,4.663,0,0,0-1.774,1.256c-.4-1.161-2.9-2.782-4.032-3.474C234.116,427.522,234.531,427.29,234.531,427.29Z" transform="translate(-145.167 -230.068)" opacity="0.1"/>
                <path id="Path_3305" data-name="Path 3305" d="M377.056,471.736a.284.284,0,0,1-.326-.046A1.131,1.131,0,0,0,377.056,471.736Z" transform="translate(-241.678 -259.986)" opacity="0.1"/>
                <path id="Path_3306" data-name="Path 3306" d="M291.149,274.043a9.464,9.464,0,0,1-7.323-2.707S271.105,275,266.8,283.274s-33.6,24.512-33.6,24.512,5.095,2.864,4.615,4.3l19.261-11.142s6.85-4.932,8.751-6.047,12.418-7.959,14.646,10.663,0,16.394,0,16.394,3.184,1.116,7.8-7.8,18.938-10.982,18.938-10.982l.8-9.387s2.841-6.224.652-8.807a5.545,5.545,0,0,1-1.275-2.694c-.362-2.384,0-6.357,5.069-9.658,7.8-5.095,10.823-9.231,10.823-9.231s.16-3.027-4.615-4.459-24.193-9.231-24.193-9.231l-.652,2.707,15.321,10.813s-7.639,6.2-13.7,6.047C295.435,269.268,296.561,273.883,291.149,274.043Z" transform="translate(-144.965 -110.404)" fill="#1f8ced"/>
                <path id="Path_3307" data-name="Path 3307" d="M400.258,293.568a31.09,31.09,0,0,1-.881-3.888l-8.435,2.228a9.247,9.247,0,0,1-.192,4.867A9.071,9.071,0,0,0,400.258,293.568Z" transform="translate(-251.125 -137.344)" opacity="0.1"/>
                <circle id="Ellipse_54" data-name="Ellipse 54" cx="9.071" cy="9.071" r="9.071" transform="translate(133.056 141.119)" fill="#ffbdc6"/>
                <path id="Path_3308" data-name="Path 3308" d="M362.207,219.7c2.518.284,4.909,1.367,7.388,1.957a3.666,3.666,0,0,0,1.911.075c.962-.3,1.745-1.3,2.743-1.275a2.917,2.917,0,0,1,1.664.838,20.139,20.139,0,0,1,2.283,2.035c1.709,1.856,2.769,4.355,4.328,6.374s4.019,3.588,6.233,2.662c-1.507,5.871-6.442,10.343-11.782,10.709-2.13.143-4.312-.3-6.374.326a5.63,5.63,0,0,1-1.608.391c-1.187,0-2.143-1.089-2.883-2.15-1.735-2.492-3.109-5.323-5.062-7.6a4.173,4.173,0,0,0-2.319-1.6,4.291,4.291,0,0,0-2.564.718,12.087,12.087,0,0,0-3.751,2.609,5.192,5.192,0,0,0-1.266,4.567,10.672,10.672,0,0,1,.77,2.557c.02,1.445-1.259,2.505-1.51,3.914a14.7,14.7,0,0,0-.062,1.781,7.287,7.287,0,0,1-2.691,4.726,3.4,3.4,0,0,0-1.233,1.709c-.1.5,0,1.024-.065,1.527a2.783,2.783,0,0,1-2.547,2.055,7.414,7.414,0,0,1-3.823-.453,4.412,4.412,0,0,0,2.14-4.677c-.493-2.583-3.089-4.436-2.867-7.068a8.224,8.224,0,0,1,.718-2.326,21.224,21.224,0,0,0,1.226-4.4,7.426,7.426,0,0,0-.075-3.513,10.867,10.867,0,0,0-1.585-2.671,15.156,15.156,0,0,1-1.836-3.764,2.609,2.609,0,0,1-.176-1.243,2.557,2.557,0,0,1,.8-1.3c1.419-1.491,2.936-3.043,4.837-3.467a10.74,10.74,0,0,1,2.746-.108,31.969,31.969,0,0,0,4.772-.2c1.3-.153,3.51-.13,4.615-.979,1.031-.793,1.611-1.781,2.88-2.283a8.422,8.422,0,0,1,4.025-.444Z" transform="translate(-215.256 -90.137)" opacity="0.1"/>
                <path id="Path_3309" data-name="Path 3309" d="M428.67,507.07s5.251,10.346,3.66,13.527" transform="translate(-276.676 -283.825)" opacity="0.1"/>
                <path id="Path_3310" data-name="Path 3310" d="M441.841,567.321l-7.691-9.753v.17s-.444-3.157,1.021-2.1c3.21,2.322,8.344,6.129,8.455,6.785S442.585,565.7,441.841,567.321Z" transform="translate(-280.326 -316.406)" opacity="0.1"/>
                <g id="Group_6180" data-name="Group 6180" transform="translate(88.408 139.283)" opacity="0.1">
                  <path id="Path_3311" data-name="Path 3311" d="M421.528,309.427s.652,2.688-1.448,4.032a3.582,3.582,0,0,0,3.262-4.159A10.245,10.245,0,0,1,421.528,309.427Z" transform="translate(-359.296 -289.847)"/>
                  <path id="Path_3312" data-name="Path 3312" d="M235.482,352.38s29.284-16.234,33.6-24.509c3.082-5.94,10.513-9.5,14.46-11.041-2.877.979-12.571,4.668-16.211,11.677-4.3,8.275-33.6,24.512-33.6,24.512Z" transform="translate(-233.73 -294.92)"/>
                  <path id="Path_3313" data-name="Path 3313" d="M426.927,267.975a34.5,34.5,0,0,0,9.746-5.418l-15.291-10.829.349-1.481-1.465-.587-.636,2.707,15.282,10.823A36.922,36.922,0,0,1,426.927,267.975Z" transform="translate(-358.993 -249.66)"/>
                  <path id="Path_3314" data-name="Path 3314" d="M442.27,414.5a38.01,38.01,0,0,1,5.989-1.513l.026-.307a40.619,40.619,0,0,0-6.015,1.82Z" transform="translate(-374.248 -359.506)"/>
                  <path id="Path_3315" data-name="Path 3315" d="M358.834,408.968h-.14a.287.287,0,0,1-.326-.046,1.145,1.145,0,0,0,.326.046c.522-.3,1.3-2.681-.326-16.44-1.755-14.678-8.66-13.533-12.437-11.844,3.862-1.063,9.175-.144,10.686,12.48,1.647,13.758.861,16.136.326,16.44A3.526,3.526,0,0,0,358.834,408.968Z" transform="translate(-309.333 -337.299)"/>
                  <path id="Path_3316" data-name="Path 3316" d="M379.016,471.246a1.145,1.145,0,0,1-.326-.046A.287.287,0,0,0,379.016,471.246Z" transform="translate(-331.407 -398.938)"/>
                </g>
                <path id="Path_3317" data-name="Path 3317" d="M362.208,218.728c2.518.287,4.909,1.367,7.388,1.957a3.666,3.666,0,0,0,1.911.072c.962-.3,1.745-1.3,2.743-1.275a3.042,3.042,0,0,1,1.664.838,20.463,20.463,0,0,1,2.283,2.035c1.709,1.856,2.769,4.354,4.328,6.374s4.019,3.588,6.233,2.662c-1.507,5.871-6.442,10.343-11.782,10.708-2.13.147-4.312-.3-6.374.326a5.523,5.523,0,0,1-1.608.391c-1.187,0-2.143-1.089-2.883-2.15-1.735-2.492-3.108-5.32-5.062-7.593a4.163,4.163,0,0,0-2.319-1.6,4.294,4.294,0,0,0-2.564.721,12.034,12.034,0,0,0-3.751,2.609,5.192,5.192,0,0,0-1.266,4.567,10.671,10.671,0,0,1,.77,2.557c.02,1.448-1.259,2.505-1.51,3.914a14.677,14.677,0,0,0-.062,1.781,7.294,7.294,0,0,1-2.691,4.726,3.388,3.388,0,0,0-1.233,1.706c-.1.5,0,1.024-.065,1.53a2.776,2.776,0,0,1-2.547,2.052,7.349,7.349,0,0,1-3.823-.453,4.407,4.407,0,0,0,2.14-4.674c-.492-2.583-3.089-4.439-2.867-7.068a8.191,8.191,0,0,1,.718-2.326,21.3,21.3,0,0,0,1.226-4.407,7.428,7.428,0,0,0-.075-3.513,10.925,10.925,0,0,0-1.585-2.671,15.191,15.191,0,0,1-1.836-3.761,2.646,2.646,0,0,1-.176-1.246,2.57,2.57,0,0,1,.8-1.288c1.419-1.491,2.936-3.04,4.837-3.467a10.888,10.888,0,0,1,2.746-.1,32.415,32.415,0,0,0,4.772-.2c1.3-.153,3.51-.134,4.615-.979,1.031-.789,1.611-1.781,2.88-2.283a8.481,8.481,0,0,1,4.025-.46Z" transform="translate(-215.257 -89.489)" fill="#474463"/>
                <circle id="Ellipse_55" data-name="Ellipse 55" cx="18.289" cy="18.289" r="18.289" transform="translate(188.422 200.021)" fill="#fff"/>
                <path id="Path_3318" data-name="Path 3318" d="M569.1,434.054a24.444,24.444,0,1,1-24.444-24.444A24.444,24.444,0,0,1,569.1,434.054Zm-27.269,12.94,18.132-18.132a1.575,1.575,0,0,0,0-2.231l-2.231-2.215a1.572,1.572,0,0,0-2.228,0L540.714,439.2l-6.905-6.922a1.582,1.582,0,0,0-2.231,0l-2.231,2.244a1.582,1.582,0,0,0,0,2.231L539.6,447.007a1.575,1.575,0,0,0,2.231,0Z" transform="translate(-338.358 -218.155)" fill="#3acc6c"/>
              </g>
            </g>
          </g>
        </g>
      </g>
    </g>
  </g>
</svg>
