<svg xmlns="http://www.w3.org/2000/svg" width="28.445" height="23.988" viewBox="0 0 28.445 23.988">
  <g id="Group_6438" data-name="Group 6438" transform="translate(-31.305 -891.779)">
    <g id="Group_6403" data-name="Group 6403" transform="translate(-7544.761 -2622.221)">
      <path id="Path_3493" data-name="Path 3493" d="M0,0H12V10H0Z" transform="translate(7583.761 3524.221)" fill="#218721"/>
      <g id="buddhism" transform="translate(7576.065 3514)">
        <path id="Path_3490" data-name="Path 3490" d="M144.543,195.932a9.181,9.181,0,0,1-3.279.5A3.224,3.224,0,0,0,144.543,195.932Z" transform="translate(-128.062 -179.849)" fill="#024e91"/>
        <path id="Path_3491" data-name="Path 3491" d="M109.139,177.169a9.172,9.172,0,0,1-1.874,2.738A3.228,3.228,0,0,0,109.139,177.169Z" transform="translate(-97.24 -162.84)" fill="#024e91"/>
        <path id="Path_3492" data-name="Path 3492" d="M28.262,27.351a.671.671,0,0,0-.146-1.038l-4.01-2.375a.672.672,0,0,0-.981.371L22,27.775l-3.56,5.368H.671A.671.671,0,0,0,0,33.814,13.775,13.775,0,0,0,7.34,45.983v.152a1.7,1.7,0,0,0,1.7,1.7h9.45a1.7,1.7,0,0,0,1.7-1.7v-.152a13.775,13.775,0,0,0,7.34-12.169.671.671,0,0,0-.671-.671H24.115L25.763,30ZM17.517,41.371a3.4,3.4,0,0,1-3.406.618,4.706,4.706,0,0,1-1.652-1.123,3.547,3.547,0,0,1-.764.446,3.2,3.2,0,0,1-2.028.312,4.723,4.723,0,0,1-.422-.922,2.8,2.8,0,0,1,1.16-3.267,7.279,7.279,0,0,0,1.6-.927A1.622,1.622,0,0,0,12.49,35.3c-.012-.191-.044-.383-.068-.573a6.242,6.242,0,0,1,1.239,3.681,3.708,3.708,0,0,1-.04.383A2.848,2.848,0,0,1,16,38.333a6.213,6.213,0,0,0,1.874.531,1.947,1.947,0,0,0,1.483-.914A6.24,6.24,0,0,1,17.517,41.371Z" transform="translate(0 -23.845)" fill="#024e91"/>
      </g>
    </g>
  </g>
</svg>
