<svg xmlns="http://www.w3.org/2000/svg" width="25.69" height="15.833" viewBox="0 0 25.69 15.833">
  <g id="Group_6435" data-name="Group 6435" transform="translate(-18 -430.167)">
    <g id="Group_6434" data-name="Group 6434" transform="translate(3 1)">
      <g id="Group_6433" data-name="Group 6433">
        <g id="Group_6432" data-name="Group 6432">
          <g id="Group_6431" data-name="Group 6431">
            <g id="Group_6430" data-name="Group 6430">
              <g id="Group_6429" data-name="Group 6429">
                <g id="sunset" transform="translate(15 401.03)">
                  <g id="Group_6117" data-name="Group 6117" transform="translate(0.015 36.259)">
                    <g id="Group_6116" data-name="Group 6116">
                      <path id="Path_3192" data-name="Path 3192" d="M25.523,186.83H20.366a7.265,7.265,0,0,0-14.507,0H.7a.428.428,0,1,0,0,.856h24.82a.428.428,0,1,0,0-.856Zm-18.808,0a6.411,6.411,0,0,1,12.795,0Z" transform="translate(-0.275 -179.974)" fill="#1f8ced"/>
                    </g>
                  </g>
                  <g id="Group_6129" data-name="Group 6129" transform="translate(0 37.118)">
                    <g id="Group_6128" data-name="Group 6128">
                      <path id="Path_3198" data-name="Path 3198" d="M5.326,197.789l-.029-.011L.589,196.067a.428.428,0,0,0-.322.793l.029.011L5,198.582a.428.428,0,0,0,.322-.793Z" transform="translate(0 -196.035)" fill="#1f8ced"/>
                    </g>
                  </g>
                  <g id="Group_6131" data-name="Group 6131" transform="translate(7.72 31.138)">
                    <g id="Group_6130" data-name="Group 6130">
                      <path id="Path_3199" data-name="Path 3199" d="M146.421,87.489l-1.284-3a.428.428,0,0,0-.787.337l1.284,3a.428.428,0,0,0,.393.259.418.418,0,0,0,.169-.035A.428.428,0,0,0,146.421,87.489Z" transform="translate(-144.318 -84.24)" fill="#1f8ced"/>
                    </g>
                  </g>
                  <g id="Group_6133" data-name="Group 6133" transform="translate(15.42 31.132)">
                    <g id="Group_6132" data-name="Group 6132">
                      <path id="Path_3200" data-name="Path 3200" d="M290.155,84.171a.428.428,0,0,0-.562.225l-1.284,3a.428.428,0,0,0,.225.562.42.42,0,0,0,.169.035.428.428,0,0,0,.393-.259l1.284-3A.428.428,0,0,0,290.155,84.171Z" transform="translate(-288.274 -84.136)" fill="#1f8ced"/>
                    </g>
                  </g>
                  <g id="Group_6135" data-name="Group 6135" transform="translate(20.127 36.267)">
                    <g id="Group_6134" data-name="Group 6134">
                      <path id="Path_3201" data-name="Path 3201" d="M381.774,180.357a.428.428,0,0,0-.581-.171l-4.707,2.568a.428.428,0,0,0,.41.751l4.707-2.568A.428.428,0,0,0,381.774,180.357Z" transform="translate(-376.263 -180.134)" fill="#1f8ced"/>
                    </g>
                  </g>
                  <g id="Group_6137" data-name="Group 6137" transform="translate(2.588 31.994)">
                    <g id="Group_6136" data-name="Group 6136">
                      <path id="Path_3202" data-name="Path 3202" d="M53.378,104.634,49.1,100.355a.428.428,0,0,0-.605.605l4.279,4.279a.428.428,0,0,0,.605-.605Z" transform="translate(-48.374 -100.235)" fill="#1f8ced"/>
                    </g>
                  </g>
                  <g id="Group_6139" data-name="Group 6139" transform="translate(12.425 28.137)">
                    <g id="Group_6138" data-name="Group 6138">
                      <path id="Path_3203" data-name="Path 3203" d="M232.7,28.137a.428.428,0,0,0-.428.428v5.563a.428.428,0,0,0,.856,0V28.565A.428.428,0,0,0,232.7,28.137Z" transform="translate(-232.275 -28.137)" fill="#1f8ced"/>
                    </g>
                  </g>
                  <g id="Group_6141" data-name="Group 6141" transform="translate(17.983 31.988)">
                    <g id="Group_6140" data-name="Group 6140" transform="translate(0 0)">
                      <path id="Path_3204" data-name="Path 3204" d="M341.192,100.264a.428.428,0,0,0-.605,0l-4.279,4.279a.428.428,0,0,0,.595.616l.01-.01,4.279-4.279A.428.428,0,0,0,341.192,100.264Z" transform="translate(-336.177 -100.139)" fill="#1f8ced"/>
                    </g>
                  </g>
                </g>
              </g>
            </g>
          </g>
        </g>
      </g>
    </g>
  </g>
</svg>
