<svg xmlns="http://www.w3.org/2000/svg" width="28.666" height="24.635" viewBox="0 0 28.666 24.635">
  <g id="Group_6427" data-name="Group 6427" transform="translate(-31 -491)">
    <g id="noun_Heart_1649002" transform="translate(31 482)">
      <g id="Group_6395" data-name="Group 6395" transform="translate(0 9)">
        <path id="Path_3402" data-name="Path 3402" d="M2.21,22.327,13.7,33.375a.889.889,0,0,0,1.257,0L26.456,22.327a8.1,8.1,0,0,0,0-11.117,7.541,7.541,0,0,0-10.666,0l-1.457,1.456L12.878,11.21a7.543,7.543,0,0,0-10.669,0A8.1,8.1,0,0,0,2.21,22.327Zm8.093-.955,1.164-2.383a.229.229,0,0,1,.2-.126.224.224,0,0,1,.2.131l.94,2.068L13.96,15.45a.224.224,0,0,1,.442.021l1.1,10.227.845-4.085a.224.224,0,0,1,.417-.06l1.019,1.906.972-1.991a.224.224,0,0,1,.2-.126h7.429l-.409.448H19.1L18,24.048a.224.224,0,0,1-.2.126.219.219,0,0,1-.2-.118l-.934-1.747-1.008,4.876a.224.224,0,0,1-.219.179h-.011a.224.224,0,0,1-.212-.2l-1.1-10.217-1,4.88a.224.224,0,0,1-.423.048L11.66,19.613l-1.017,2.082a.224.224,0,0,1-.2.126H2.7l-.389-.448Z" transform="translate(0 -9)" fill="#ff4747"/>
      </g>
    </g>
  </g>
</svg>
