<?xml version="1.0" encoding="iso-8859-1"?>
<!-- Generator: Adobe Illustrator 19.0.0, SVG Export Plug-In . SVG Version: 6.00 Build 0)  -->
<svg version="1.1" id="Layer_1" xmlns="http://www.w3.org/2000/svg" xmlns:xlink="http://www.w3.org/1999/xlink" x="0px" y="0px"
	 viewBox="0 0 512 512" style="enable-background:new 0 0 512 512;" xml:space="preserve">
<linearGradient id="SVGID_1_" gradientUnits="userSpaceOnUse" x1="-29.9375" y1="613.3125" x2="-29.9375" y2="643.3125" gradientTransform="matrix(16 0 0 -16 735 10309)">
	<stop  offset="0" style="stop-color:#FFB533"/>
	<stop  offset="1" style="stop-color:#FFFF33"/>
</linearGradient>
<circle style="fill:url(#SVGID_1_);" cx="256" cy="256" r="240"/>
<image style="overflow:visible;enable-background:new    ;" width="5" height="4" xlink:href="4E8E48D4.jpg"  transform="matrix(12.288 0 0 -11.52 227.84 52.48)">
</image>
<path id="SVGCleanerId_0" style="fill:#CC7B29;" d="M256,0C114.608,0.016,0.016,114.608,0,256c0.016,141.392,114.608,256,256,256
	s256-114.608,256-256S397.392,0.016,256,0z M414.4,414.384C373.792,454.944,317.904,480,256,480s-117.808-25.04-158.4-65.6
	C57.04,373.792,32.016,317.904,32,256c0.016-61.904,25.04-117.808,65.6-158.4C138.192,57.04,194.096,32,256,32
	s117.792,25.04,158.4,65.6C454.944,138.192,480,194.096,480,256S454.944,373.792,414.4,414.384z"/>
<path id="SVGCleanerId_1" style="fill:#FF3333;" d="M192,384v32c0,35.28,28.704,64,64,64s64-28.72,64-64v-32H192z"/>
<g>
	<circle style="fill:#806040;" cx="160" cy="192" r="32"/>
	<circle style="fill:#806040;" cx="352" cy="192" r="32"/>
</g>
<rect id="SVGCleanerId_2" x="128" y="352" style="fill:#806040;" width="256" height="32"/>
<linearGradient id="SVGID_2_" gradientUnits="userSpaceOnUse" x1="-29.9375" y1="613.3125" x2="-29.9375" y2="643.3125" gradientTransform="matrix(16 0 0 -16 735 10309)">
	<stop  offset="0" style="stop-color:#FFB533"/>
	<stop  offset="1" style="stop-color:#FFFF33"/>
</linearGradient>
<circle style="fill:url(#SVGID_2_);" cx="256" cy="256" r="240"/>
<linearGradient id="SVGID_3_" gradientUnits="userSpaceOnUse" x1="-29.938" y1="634.3125" x2="-29.938" y2="642.3125" gradientTransform="matrix(16 0 0 -16 735 10309)">
	<stop  offset="0" style="stop-color:#FAFBFB;stop-opacity:0"/>
	<stop  offset="1" style="stop-color:#FAFBFB"/>
</linearGradient>
<path style="fill:url(#SVGID_3_);" d="M256,32c-61.904,0-117.808,27.392-158.4,67.952C80.816,116.736,66.896,144,56.096,160h399.792
	c-10.8-16-24.72-43.248-41.504-60.048C373.808,59.392,317.904,32,256,32z"/>
<g>
	<path id="SVGCleanerId_0_1_" style="fill:#CC7B29;" d="M256,0C114.608,0.016,0.016,114.608,0,256
		c0.016,141.392,114.608,256,256,256s256-114.608,256-256S397.392,0.016,256,0z M414.4,414.384C373.792,454.944,317.904,480,256,480
		s-117.808-25.04-158.4-65.6C57.04,373.792,32.016,317.904,32,256c0.016-61.904,25.04-117.808,65.6-158.4
		C138.192,57.04,194.096,32,256,32s117.792,25.04,158.4,65.6C454.944,138.192,480,194.096,480,256S454.944,373.792,414.4,414.384z"
		/>
</g>
<g>
	<path id="SVGCleanerId_1_1_" style="fill:#FF3333;" d="M192,384v32c0,35.28,28.704,64,64,64s64-28.72,64-64v-32H192z"/>
</g>
<g>
	<circle style="fill:#806040;" cx="160" cy="192" r="32"/>
	<circle style="fill:#806040;" cx="352" cy="192" r="32"/>
</g>
<g>
	<rect id="SVGCleanerId_2_1_" x="128" y="352" style="fill:#806040;" width="256" height="32"/>
</g>
<g>
</g>
<g>
</g>
<g>
</g>
<g>
</g>
<g>
</g>
<g>
</g>
<g>
</g>
<g>
</g>
<g>
</g>
<g>
</g>
<g>
</g>
<g>
</g>
<g>
</g>
<g>
</g>
<g>
</g>
</svg>
