<svg xmlns="http://www.w3.org/2000/svg" width="27.913" height="31.126" viewBox="0 0 27.913 31.126">
  <g id="Group_6425" data-name="Group 6425" transform="translate(-38.087 -684.271)">
    <g id="Group_6424" data-name="Group 6424">
      <g id="Group_6423" data-name="Group 6423">
        <g id="Group_6422" data-name="Group 6422">
          <g id="Group_6421" data-name="Group 6421">
            <g id="Group_6099" data-name="Group 6099" transform="translate(38.087 684.271)">
              <g id="Group_6092" data-name="Group 6092" transform="translate(10.041 11.998)">
                <path id="Path_1563" data-name="Path 1563" d="M424.371,424.3a9.729,9.729,0,0,1-17.871,5.324c.1-.109.184-.222.268-.335h0l5.077-7.042,7.93,7.93a.524.524,0,0,0,.369.155.507.507,0,0,0,.369-.155.523.523,0,0,0,0-.741l-8.043-8.052,4.675-6.485A9.728,9.728,0,0,1,424.371,424.3Z" transform="translate(-406.5 -414.9)" fill="#fff"/>
              </g>
              <g id="Group_6098" data-name="Group 6098">
                <g id="Group_6094" data-name="Group 6094" transform="translate(9.928 1.973)">
                  <g id="Group_6093" data-name="Group 6093">
                    <path id="Path_1564" data-name="Path 1564" d="M414.122,175.617l.017.008.008-.025ZM403.8,183.17l.021.017c.017-.025.038-.046.054-.071Z" transform="translate(-403.8 -175.6)" fill="#fff"/>
                    <path id="Path_1565" data-name="Path 1565" d="M414.122,175.617l.017.008.008-.025ZM403.8,183.17l.021.017c.017-.025.038-.046.054-.071Zm10.322-7.553.017.008.008-.025ZM403.8,183.17l.021.017c.017-.025.038-.046.054-.071Zm10.322-7.553.017.008.008-.025ZM403.8,183.17l.021.017c.017-.025.038-.046.054-.071Zm10.322-7.553.017.008.008-.025ZM403.8,183.17l.021.017c.017-.025.038-.046.054-.071Zm10.322-7.553.017.008.008-.025ZM403.8,183.17l.021.017c.017-.025.038-.046.054-.071Zm10.322-7.553.017.008.008-.025ZM403.8,183.17l.021.017c.017-.025.038-.046.054-.071Zm10.322-7.553.017.008.008-.025ZM403.8,183.17l.021.017c.017-.025.038-.046.054-.071Zm10.322-7.553.017.008.008-.025ZM403.8,183.17l.021.017c.017-.025.038-.046.054-.071Zm10.322-7.553.017.008.008-.025ZM403.8,183.17l.021.017c.017-.025.038-.046.054-.071Zm10.322-7.553.017.008.008-.025ZM403.8,183.17l.021.017c.017-.025.038-.046.054-.071Zm10.322-7.553.017.008.008-.025ZM403.8,183.17l.021.017c.017-.025.038-.046.054-.071Zm10.322-7.553.017.008.008-.025Zm0,0,.017.008.008-.025Zm0,0,.017.008.008-.025Zm0,0,.017.008.008-.025Zm0,0,.017.008.008-.025Zm0,0,.017.008.008-.025Zm0,0,.017.008.008-.025ZM403.8,183.17l.021.017c.017-.025.038-.046.054-.071Zm10.322-7.553.017.008.008-.025ZM403.8,183.17l.021.017c.017-.025.038-.046.054-.071Zm10.322-7.553.017.008.008-.025ZM403.8,183.17l.021.017c.017-.025.038-.046.054-.071Zm10.322-7.553.017.008.008-.025ZM403.8,183.17l.021.017c.017-.025.038-.046.054-.071Zm10.322-7.553.017.008.008-.025ZM403.8,183.17l.021.017c.017-.025.038-.046.054-.071Zm10.322-7.553.017.008.008-.025ZM403.8,183.17l.021.017c.017-.025.038-.046.054-.071Zm10.322-7.553.017.008.008-.025ZM403.8,183.17l.021.017c.017-.025.038-.046.054-.071Zm10.322-7.553.017.008.008-.025ZM403.8,183.17l.021.017c.017-.025.038-.046.054-.071Z" transform="translate(-403.8 -175.6)" fill="#fff"/>
                  </g>
                </g>
                <g id="Group_6097" data-name="Group 6097">
                  <g id="Group_6095" data-name="Group 6095" transform="translate(9.924 9.488)">
                    <path id="Path_1566" data-name="Path 1566" d="M403.775,355c-.017.025-.038.046-.054.071l-.021-.017Z" transform="translate(-403.7 -355)" fill="#fff"/>
                  </g>
                  <g id="Group_6096" data-name="Group 6096">
                    <path id="Path_1567" data-name="Path 1567" d="M650.225,175.5l-.008.025-.017,0Z" transform="translate(-629.95 -173.531)" fill="#fff"/>
                    <path id="Path_1568" data-name="Path 1568" d="M190.05,133.087a5.851,5.851,0,0,0-2.1-3.28c-.071-.059-.147-.113-.218-.168-.1-.075-.209-.147-.314-.209a5.956,5.956,0,0,0-3.159-.93,5.16,5.16,0,0,0-1.839.331,4.481,4.481,0,0,0-2.04,1.55l-6.418,8.906-.025.038-.08.1-.038.054-.013.017-.034.042h0l-.034.042-.109.155-.331.461-5.655,7.851a4.419,4.419,0,0,0-.809,2.162c-.008.071-.013.138-.021.209s-.008.155-.008.226c0,.134,0,.26.013.385,0,.029,0,.059.008.08,0,.059.008.109.013.155.021.18.054.364.092.549a5.846,5.846,0,0,0,2.325,3.444,5.979,5.979,0,0,0,3.473,1.144,5.16,5.16,0,0,0,1.839-.331,4.5,4.5,0,0,0,1.935-1.416c.038-.046.071-.092.1-.138l5.136-7.126.62-.859,4.461-6.187,2.518-3.494A4.619,4.619,0,0,0,190.05,133.087Zm-8.311,12.823-.62.859-5.052,7.021-.163.226a3.634,3.634,0,0,1-1.646,1.248,4.326,4.326,0,0,1-1.537.276,5.1,5.1,0,0,1-2.962-.98,5,5,0,0,1-1.99-2.932c-.021-.1-.038-.193-.059-.293-.013-.075-.021-.138-.029-.205-.008-.109-.017-.222-.021-.335,0-.071,0-.134,0-.193a3.612,3.612,0,0,1,.67-2.044l5.5-7.624.163-.23.239-.335,3.791,2.736.838.607,2.434,1.755.5.36Zm5.329-15.416-.017-.008-.264-.13-.05-.021-.239-.1-.1-.038c-.067-.025-.134-.054-.2-.08l-.151-.05c-.05-.017-.1-.034-.155-.05-.1-.029-.2-.063-.306-.084a2.709,2.709,0,0,0-.31-.063c-.05-.013-.1-.017-.159-.025s-.1-.017-.155-.021l-.159-.017c-.05,0-.1,0-.155-.008s-.08,0-.117,0h-.2c-.054,0-.1,0-.159.008l-.155.013c-.1.013-.209.029-.31.05s-.205.046-.306.075-.2.067-.3.1-.193.084-.285.13a2.548,2.548,0,0,0-.268.163,2.134,2.134,0,0,0-.243.193l-1.378,1.889-1.391,1.885-1.391,1.881c-.008.008-.013.017-.021.025-.218.3-.44.591-.658.888h0l-.666.892c-.017.025-.038.046-.054.071l-.021-.017-.021-.017c.042-.088.092-.172.138-.264s.092-.172.138-.26c.017-.029.029-.054.046-.08h0c.08-.147.159-.293.243-.431l.151-.256.151-.256c.1-.168.205-.335.306-.5s.205-.335.31-.5l.318-.49.318-.49.327-.482c.109-.163.222-.323.331-.482l.168-.243.168-.239.339-.473.344-.473c.113-.159.23-.314.348-.469s.23-.314.348-.469l.356-.465c.117-.159.243-.31.36-.461l.025-.038.017-.017c.013-.013.021-.017.025-.025l.021-.017a.367.367,0,0,1,.042-.034.585.585,0,0,1,.08-.063,1.3,1.3,0,0,1,.159-.1,3.452,3.452,0,0,1,.323-.176c.109-.054.218-.1.331-.142a3.228,3.228,0,0,1,.344-.1c.117-.025.23-.054.348-.071s.23-.029.348-.038l.176-.008h.176a1.185,1.185,0,0,1,.172.013c.059,0,.117.008.172.017s.113.017.168.021l.168.029c.059.008.113.025.168.034s.113.025.163.042c.109.029.218.063.323.1s.209.075.31.117a1.64,1.64,0,0,1,.151.067c.05.021.1.046.151.071.1.05.189.1.281.151,0,0,0,0,0,0,.092.054.189.113.276.172a0,0,0,0,1,0,0c.088.059.176.121.26.184Z" transform="translate(-166.8 -128.5)" fill="#fff"/>
                  </g>
                </g>
              </g>
            </g>
          </g>
        </g>
      </g>
    </g>
  </g>
</svg>
