<svg xmlns="http://www.w3.org/2000/svg" width="132.448" height="132.448" viewBox="0 0 132.448 132.448">
  <g id="Group_6425" data-name="Group 6425" transform="translate(-121.552 -245.552)">
    <g id="Group_6424" data-name="Group 6424">
      <g id="noun_QR_Code_1926" data-name="noun_QR Code_1926" transform="translate(119.828 242.827)">
        <path id="Path_1241" data-name="Path 1241" d="M44.432,2.725h6.307V9.032h6.307V2.725H69.66V9.032H63.353v6.307H69.66v6.307H63.353v6.307H57.046V15.339H50.739V27.953H44.432V21.646H38.125V15.339h6.307Q44.432,9.033,44.432,2.725Z" transform="translate(14.056)" fill="#1f8ced" fill-rule="evenodd"/>
        <path id="Path_1242" data-name="Path 1242" d="M1.725,2.725V46.873H45.873V2.725ZM39.566,40.566H8.032V9.032H39.566Z" transform="translate(0)" fill="#1f8ced" fill-rule="evenodd"/>
        <path id="Path_1243" data-name="Path 1243" d="M65.425,2.725V46.873h44.15V2.725Zm37.841,37.841H71.732V9.032h31.535Z" transform="translate(24.597)" fill="#1f8ced" fill-rule="evenodd"/>
        <path id="Path_1244" data-name="Path 1244" d="M10.825,11.825H29.746V30.746H10.825Q10.825,21.285,10.825,11.825Z" transform="translate(3.514 3.514)" fill="#1f8ced" fill-rule="evenodd"/>
        <path id="Path_1245" data-name="Path 1245" d="M74.525,11.825H93.444V30.746H74.525Z" transform="translate(28.111 3.514)" fill="#1f8ced" fill-rule="evenodd"/>
        <path id="Path_1246" data-name="Path 1246" d="M47.225,20.925h6.307v6.307H47.225Z" transform="translate(17.57 7.028)" fill="#1f8ced" fill-rule="evenodd"/>
        <path id="Path_1247" data-name="Path 1247" d="M77.408,20.925h6.307V46.153H77.408V52.46H64.795v6.307H71.1V71.38H58.486V65.073H39.567V58.766H58.486V52.46H33.259V65.075h6.307v6.307H52.179v6.307H33.259V71.382H26.952v6.307H20.645V65.075h6.307V58.768H14.338V52.461H8.031v6.307h6.307v6.307H1.724V46.154H20.645v6.307h6.307V46.154H52.179V33.54h6.307v6.307h6.307v6.307H71.1V39.847h6.307Q77.409,30.385,77.408,20.925Z" transform="translate(0 7.028)" fill="#1f8ced" fill-rule="evenodd"/>
        <path id="Path_1248" data-name="Path 1248" d="M47.225,30.025h6.307v6.307H47.225Z" transform="translate(17.57 10.541)" fill="#1f8ced" fill-rule="evenodd"/>
        <path id="Path_1249" data-name="Path 1249" d="M60.875,39.125H73.489v6.307H79.8v6.307H67.182V45.432H60.875Q60.875,42.28,60.875,39.125Z" transform="translate(22.84 14.055)" fill="#1f8ced" fill-rule="evenodd"/>
        <path id="Path_1250" data-name="Path 1250" d="M83.625,39.125h6.307v6.307H83.625Z" transform="translate(31.625 14.055)" fill="#1f8ced" fill-rule="evenodd"/>
        <path id="Path_1251" data-name="Path 1251" d="M96.239,43.675h6.308V56.29H96.239V62.6H89.932V56.29H83.625V49.983H96.239Q96.239,46.829,96.239,43.675Z" transform="translate(31.625 15.812)" fill="#1f8ced" fill-rule="evenodd"/>
        <path id="Path_1252" data-name="Path 1252" d="M56.325,48.225h6.307v6.307H56.325Z" transform="translate(21.083 17.569)" fill="#1f8ced" fill-rule="evenodd"/>
        <path id="Path_1253" data-name="Path 1253" d="M74.525,48.225h6.307V60.839H74.525Z" transform="translate(28.111 17.569)" fill="#1f8ced" fill-rule="evenodd"/>
        <path id="Path_1254" data-name="Path 1254" d="M65.425,52.775h6.307v6.307H78.04v6.307h6.307V84.31H78.04V71.694H71.732V65.387H65.425Z" transform="translate(24.597 19.326)" fill="#1f8ced" fill-rule="evenodd"/>
        <path id="Path_1255" data-name="Path 1255" d="M1.725,57.325H8.032v6.307H1.725Q1.725,60.478,1.725,57.325Z" transform="translate(0 21.083)" fill="#1f8ced" fill-rule="evenodd"/>
        <path id="Path_1256" data-name="Path 1256" d="M56.325,57.325h6.307v6.307H56.325Z" transform="translate(21.083 21.083)" fill="#1f8ced" fill-rule="evenodd"/>
        <path id="Path_1257" data-name="Path 1257" d="M79.075,57.325h6.307v6.307H79.075Z" transform="translate(29.868 21.083)" fill="#1f8ced" fill-rule="evenodd"/>
        <path id="Path_1258" data-name="Path 1258" d="M38.125,61.875h6.307V74.489h6.307V80.8H44.432V87.1H38.125Z" transform="translate(14.056 22.84)" fill="#1f8ced" fill-rule="evenodd"/>
        <path id="Path_1259" data-name="Path 1259" d="M57.046,61.875h6.307V74.489H69.66V61.875h6.307v6.307h6.307v6.307H75.967V80.8H88.582V87.1h6.307V80.8H101.2V93.411H94.889v6.307H101.2v12.615H94.889v-6.308H82.274v6.308H75.967V99.718H88.582V93.411H75.967V87.1H69.66V80.8H63.353V87.1H57.046v18.919H44.431v6.308H38.124V93.411h6.307v6.307h6.307V93.411H44.431V87.1h6.307V80.8h6.307V74.489H50.738V68.182h6.307Q57.047,65.028,57.046,61.875Z" transform="translate(14.055 22.84)" fill="#1f8ced" fill-rule="evenodd"/>
        <path id="Path_1260" data-name="Path 1260" d="M89.932,61.875h12.615V87.1H96.239V93.41H89.932V80.8h6.307V74.487H83.625V68.181h6.307Z" transform="translate(31.625 22.84)" fill="#1f8ced" fill-rule="evenodd"/>
        <path id="Path_1261" data-name="Path 1261" d="M1.725,66.425v44.15H45.873V66.425Zm37.841,37.841H8.032V72.732H39.566Z" transform="translate(0 24.597)" fill="#1f8ced" fill-rule="evenodd"/>
        <path id="Path_1262" data-name="Path 1262" d="M10.825,75.525H29.746V94.444H10.825Q10.825,84.986,10.825,75.525Z" transform="translate(3.514 28.111)" fill="#1f8ced" fill-rule="evenodd"/>
        <path id="Path_1263" data-name="Path 1263" d="M56.325,84.625h6.307v6.307H56.325Z" transform="translate(21.083 31.624)" fill="#1f8ced" fill-rule="evenodd"/>
        <path id="Path_1264" data-name="Path 1264" d="M83.625,84.625h6.307v6.307H83.625Z" transform="translate(31.625 31.624)" fill="#1f8ced" fill-rule="evenodd"/>
        <path id="Path_1265" data-name="Path 1265" d="M92.725,84.625h6.308v6.307H92.725Z" transform="translate(35.139 31.624)" fill="#1f8ced" fill-rule="evenodd"/>
        <path id="Path_1266" data-name="Path 1266" d="M88.175,89.175h6.307v6.307h6.308v6.308H88.175Q88.175,95.482,88.175,89.175Z" transform="translate(33.382 33.381)" fill="#1f8ced" fill-rule="evenodd"/>
        <path id="Path_1267" data-name="Path 1267" d="M56.325,93.725h6.307v6.308H56.325Z" transform="translate(21.083 35.138)" fill="#1f8ced" fill-rule="evenodd"/>
      </g>
    </g>
  </g>
</svg>
