<svg xmlns="http://www.w3.org/2000/svg" width="27.559" height="31.959" viewBox="0 0 27.559 31.959">
  <g id="Group_6442" data-name="Group 6442" transform="translate(-209.525 -987)">
    <g id="Group_6441" data-name="Group 6441">
      <g id="woman-hair" transform="translate(209.525 987)">
        <path id="Path_3536" data-name="Path 3536" d="M185.122,451.318c-1.065.722-2,1.674-3.384,1.674s-2.319-.952-3.384-1.674c-.52-.352-1.047-.7-1.56-1.057v3.834h9.918V450.24c-.523.37-1.061.72-1.59,1.078" transform="translate(-167.959 -422.136)" fill="#dbb38d"/>
        <path id="Path_3537" data-name="Path 3537" d="M124.279,158.426c-6.966-7.961-13.933-8.359-13.933-8.359-1.963,1,1.653,3.857,1.653,3.857a6.828,6.828,0,0,1-4.959-2.2,16.349,16.349,0,0,0-1.114,6.123c0,3.46.27,7.266,2.88,9.743a23.64,23.64,0,0,0,3.1,2.3c1.065.722,2,1.675,3.384,1.675s2.319-.952,3.384-1.675a24.629,24.629,0,0,0,3.1-2.3c2.578-2.416,2.874-6.542,2.89-8.1a1.591,1.591,0,0,0-.392-1.062" transform="translate(-101.514 -140.7)" fill="#fdd7ad"/>
        <path id="Path_3538" data-name="Path 3538" d="M62.8,15.428c.11-5.965-2.044-9.746-4.73-12.067a13.85,13.85,0,0,0-18.091,0c-2.655,2.356-4.84,6.1-4.73,12.067,0,0-.276,12.467,5.51,15.979,0,0-.276-3.857,2.2-3.857h.347c-.267-.21-.526-.429-.773-.664-2.61-2.477-2.88-6.283-2.88-9.743A16.356,16.356,0,0,1,40.77,11.02a6.828,6.828,0,0,0,4.959,2.2s-3.616-2.859-1.653-3.857c0,0,6.968.4,13.934,8.359a1.6,1.6,0,0,1,.392,1.062c-.016,1.556-.312,5.682-2.89,8.1-.25.234-.51.453-.779.664h.352c2.48,0,2.2,3.857,2.2,3.857C63.075,27.9,62.8,15.428,62.8,15.428" transform="translate(-35.245 0)" fill="#805333"/>
      </g>
    </g>
  </g>
</svg>
