<svg xmlns="http://www.w3.org/2000/svg" width="282.929" height="217.519" viewBox="0 0 282.929 217.519">
  <g id="Group_6430" data-name="Group 6430" transform="translate(-47.919 -147.5)">
    <path id="Path_1246" data-name="Path 1246" d="M59.538,396.83H85.8v35.8H61.461c-.065.367-.127.738-.194,1.108H85.8v28.871c-.044-.013-.083-.028-.124-.044-.694-.274-1.382-.564-2.07-.875l-.44-.2q-1.035-.489-2.07-1.035c-.241-.127-.481-.259-.719-.393A43.067,43.067,0,0,1,70.058,452c-.088-.085-.171-.176-.259-.259-.419-.456-.831-.916-1.229-1.387l-.44-.518c-.471-.577-.926-1.17-1.369-1.77-.065-.088-.127-.176-.194-.259a38.528,38.528,0,0,1-4.451-8.048c-.036-.085-.067-.179-.1-.259q-.533-1.372-.945-2.769c-.119-.391-.233-.776-.331-1.183-.036-.119-.067-.235-.1-.352C59.173,429.456,59,423.5,59,417.577v-2.07c0-2.394.028-4.8.07-7.21,0-.624.026-1.245.039-1.871q.054-2.383.155-4.767c.016-.443.036-.882.06-1.322a7.492,7.492,0,0,1,.039-.761C59.424,398.654,59.476,397.741,59.538,396.83Z" transform="translate(-11.081 -161.805)" fill="#1f8ced" opacity="0.1"/>
    <path id="Path_1247" data-name="Path 1247" d="M121.307,190.659H106.9a109.212,109.212,0,0,1,7.663-10.548c2.14-2.629,4.4-5.191,6.744-7.66Z" transform="translate(-46.585 4.507)" fill="#1f8ced" opacity="0.1"/>
    <path id="Path_1248" data-name="Path 1248" d="M87.582,247.09v37.644H61.4c0-.109.018-.22.026-.329.023-.3.047-.6.072-.89.028-.347.06-.7.093-1.035s.07-.753.109-1.128.075-.756.119-1.131.083-.75.129-1.123.088-.751.137-1.123c.039-.311.08-.619.122-.929.06-.437.122-.877.189-1.312a1.21,1.21,0,0,1,.028-.194,89.521,89.521,0,0,1,1.928-9.451,69.9,69.9,0,0,1,3.248-9.575,71.883,71.883,0,0,1,4.886-9.41Z" transform="translate(-12.86 -50.816)" fill="#1f8ced" opacity="0.1"/>
    <path id="Path_1249" data-name="Path 1249" d="M186.8,146.146v35.8h56.1v-35.8Zm0,36.906V213.8c.321.067.639.132.955.186.43.083.857.158,1.294.223.083.013.168.026.259.034.171.028.347.052.518.075.432.06.862.109,1.294.148.2.021.411.039.619.054l.5.039h0c.272.021.541.036.807.044.166,0,.331.016.5.021h1.845c.223,0,.445,0,.665-.021h.016a3.486,3.486,0,0,0,.463-.021,1.083,1.083,0,0,0,.129,0,2.676,2.676,0,0,0,.383-.018h.091l.867-.067c.285-.026.572-.06.862-.091l.59-.07a51.618,51.618,0,0,0,7.1-1.511c5.233-1.46,10.352-3.5,15.582-5,6.762-1.928,14.234-2.875,20.768-.518V183.052Zm56.1-76.763V58.628a72.118,72.118,0,0,0-18.227,2.138c-14.205,3.569-26.951,11.309-37.872,21.2v24.326h2.816v1.105H186.8v37.649h56.1V107.395H201.176V106.29Zm72.055-16.1a23.236,23.236,0,0,1-10.168-2.955c-6.043-3.287-10.869-8.362-16.263-12.645a74.666,74.666,0,0,0-39.36-15.639V106.29h80.083l.2-.21Zm7.3-1.294,7.735,8.488V86.671a30.691,30.691,0,0,0-7.725,2.215Zm7.735,132.535V183.052H313.5c-.044-.163-.088-.329-.14-.494.049.166.091.331.137.494H249.174v27.755c.611.453,1.214.929,1.812,1.413h0c.644.518,1.281,1.064,1.92,1.6l.644.533c.308.259.619.518.932.761q.932.756,1.881,1.491c.313.259.634.492.952.735a129.719,129.719,0,0,0,15.949,10.432q1.871,1.035,3.776,2.021c.846.432,1.7.862,2.552,1.278q1.925.939,3.882,1.812h0a142.553,142.553,0,0,0,37.784,11.006q4.345.642,8.724,1.009v-23.47h.259Zm-80.81-114.037v37.646h80.821V107.395Zm0,38.752v35.8h80.821v-35.8Zm87.094-59.522V98.575l9.873-10.833q-4.907-.792-9.873-1.131Zm0,59.535v35.788h78.608v-35.8Zm78.321,78.114.277-41.22h-78.6V245.31a140.964,140.964,0,0,0,15.191-.181h.088q3.623-.228,7.213-.662h.054a132.823,132.823,0,0,0,37.059-9.888m34.16-82.537c-.295-.7-.6-1.387-.916-2.07-.585-1.294-1.2-2.552-1.84-3.809h-6.133v35.786h15.507a77.358,77.358,0,0,0-6.61-29.919Zm-8.889,31.024V218.52a50.789,50.789,0,0,0,10.717-14.453,49.687,49.687,0,0,0,4.777-21.006Zm0-47.338v9.316H426.7a100.937,100.937,0,0,0-5.551-9.329Zm-53.311-42.08c-.409-.155-.818-.313-1.229-.466a112.217,112.217,0,0,0-13.279-3.991l-15.108,16.581h0l-.29.308.194.212h53.772a115.011,115.011,0,0,0-24.052-12.658Zm25.636,13.76h-56.1l-1.1,1.009v36.624h78.618V127.3a112.006,112.006,0,0,0-21.41-19.906Z" transform="translate(-105.807 88.876)" fill="#1f8ced" opacity="0.1"/>
    <path id="Path_1250" data-name="Path 1250" d="M87.582,320.46v18.656H61.4c0-.109.018-.22.026-.329.023-.3.047-.6.072-.89.028-.347.06-.7.093-1.035s.07-.753.109-1.128.075-.756.119-1.131.083-.75.129-1.123.088-.75.137-1.123c.039-.311.08-.619.122-.929.06-.437.122-.877.189-1.312a1.21,1.21,0,0,1,.028-.194,89.518,89.518,0,0,1,1.928-9.451Z" transform="translate(-12.86 -105.199)" fill="#1f8ced" opacity="0.1"/>
    <path id="Path_1251" data-name="Path 1251" d="M59.538,396.83H85.8v35.8H61.461c-.065.367-.127.738-.194,1.108H85.8v28.871c-.044-.013-.083-.028-.124-.044-.694-.274-1.382-.564-2.07-.875l-.44-.2q-1.035-.489-2.07-1.035c-.241-.127-.481-.259-.719-.393A43.067,43.067,0,0,1,70.058,452c-.088-.085-.171-.176-.259-.259-.419-.456-.831-.916-1.229-1.387l-.44-.518c-.471-.577-.926-1.17-1.369-1.77-.065-.088-.127-.176-.194-.259a38.528,38.528,0,0,1-4.451-8.048c-.036-.085-.067-.179-.1-.259q-.533-1.372-.945-2.769c-.119-.391-.233-.776-.331-1.183-.036-.119-.067-.235-.1-.352C59.173,429.456,59,423.5,59,417.577v-2.07c0-2.394.028-4.8.07-7.21,0-.624.026-1.245.039-1.871q.054-2.383.155-4.767c.016-.443.036-.882.06-1.322a7.492,7.492,0,0,1,.039-.761C59.424,398.654,59.476,397.741,59.538,396.83Z" transform="translate(-11.081 -161.805)" fill="#1f8ced" opacity="0.1"/>
    <path id="Path_1252" data-name="Path 1252" d="M159.308,178v32.256H139.56V178h2.816V167.08h11.558V178Z" transform="translate(-58.567 23.661)" fill="#1f8ced" opacity="0.1"/>
    <rect id="Rectangle_3814" data-name="Rectangle 3814" width="19.746" height="35.799" transform="translate(80.995 235.023)" fill="#1f8ced" opacity="0.1"/>
    <path id="Path_1253" data-name="Path 1253" d="M186.8,539.44h19.748V569.2a51.553,51.553,0,0,1-7.1,1.509l-.59.072c-.29.034-.577.062-.862.091s-.58.049-.867.067h-.091c-.124,0-.259.016-.38.018h-.132c-.155,0-.311.016-.466.021h0c-.22.013-.44.016-.665.018H193.56l-.5-.018c-.259,0-.538-.028-.807-.047h0l-.5-.036-.619-.057c-.435-.039-.867-.088-1.294-.148l-.518-.072-.259-.036c-.432-.067-.859-.14-1.294-.223-.318-.054-.634-.122-.955-.186Z" transform="translate(-105.807 -267.509)" fill="#1f8ced" opacity="0.1"/>
    <rect id="Rectangle_3815" data-name="Rectangle 3815" width="16.283" height="36.063" transform="translate(207.904 197.852)" fill="#1f8ced" opacity="0.1"/>
    <path id="Path_1254" data-name="Path 1254" d="M461.4,338.19v35.8H380.58V358.549h43.05v9.109h21.488V338.19Z" transform="translate(-237.213 -103.167)" fill="#1f8ced" opacity="0.1"/>
    <path id="Path_1255" data-name="Path 1255" d="M508.9,576.408h-.259v23.485q-4.374-.37-8.721-1.007a142.56,142.56,0,0,1-37.8-11.03q-5.21-2.345-10.207-5.119a130.26,130.26,0,0,1-15.952-10.432q-1.9-1.46-3.76-2.986c-.857-.707-1.708-1.431-2.57-2.135-.6-.484-1.2-.96-1.812-1.416V538.024h64.323c-.044-.166-.088-.331-.135-.494.049.163.1.329.14.494h16.493v38.369C508.729,576.4,508.814,576.4,508.9,576.408Z" transform="translate(-284.453 -266.093)" fill="#1f8ced" opacity="0.1"/>
    <path id="Path_1256" data-name="Path 1256" d="M873.83,205.238H863.22v-3.3h4.757V192.12q.619.225,1.232.463v9.358h4.622Z" transform="translate(-607.175 -10.072)" fill="#1f8ced" opacity="0.1"/>
    <path id="Path_1257" data-name="Path 1257" d="M826.118,284.734h-52.09l.018.013-.023-.013H764.36V248.671H767.1v26.656h12.513V259.54h10.336V247.09h10.61v12.461h10.336v15.786h15.225Z" transform="translate(-533.899 -50.816)" fill="#1f8ced" opacity="0.1"/>
    <path id="Path_1258" data-name="Path 1258" d="M764.36,396.82v35.8h61.758v-35.8Zm78.523,77.943.085-28.338h-16.85V433.744H764.36v62.239a140.946,140.946,0,0,0,15.191-.181h.088q3.623-.228,7.213-.662h.054a132.823,132.823,0,0,0,37.059-9.888" transform="translate(-533.899 -161.797)" fill="#1f8ced" opacity="0.1"/>
    <path id="Path_1259" data-name="Path 1259" d="M1093.457,539.44h14.407a49.844,49.844,0,0,1-4.78,21A50.806,50.806,0,0,1,1092.37,574.9V552.123h1.087Z" transform="translate(-777.023 -267.509)" fill="#1f8ced" opacity="0.1"/>
    <path id="Path_1260" data-name="Path 1260" d="M1110.985,449.469H1096.57V419.55h7.8A77.454,77.454,0,0,1,1110.985,449.469Z" transform="translate(-780.136 -178.645)" fill="#1f8ced" opacity="0.1"/>
    <rect id="Rectangle_3816" data-name="Rectangle 3816" width="8.724" height="11.307" transform="translate(215.466 207.878)" fill="#1f8ced" opacity="0.1"/>
    <rect id="Rectangle_3817" data-name="Rectangle 3817" width="8.724" height="2.603" transform="translate(215.466 231.314)" fill="#1f8ced" opacity="0.1"/>
    <rect id="Rectangle_3818" data-name="Rectangle 3818" width="8.724" height="7.596" transform="translate(215.466 235.023)" fill="#1f8ced" opacity="0.1"/>
    <rect id="Rectangle_3819" data-name="Rectangle 3819" width="8.724" height="11.307" transform="translate(215.466 254.75)" fill="#1f8ced" opacity="0.1"/>
    <rect id="Rectangle_3820" data-name="Rectangle 3820" width="8.724" height="11.307" transform="translate(215.466 278.186)" fill="#1f8ced" opacity="0.1"/>
    <path id="Path_1261" data-name="Path 1261" d="M715.141,662.847a1.438,1.438,0,0,1,.259.016h-.259v2.627H706.42V654.17h8.721Z" transform="translate(-490.954 -352.547)" fill="#1f8ced" opacity="0.1"/>
    <path id="Path_1262" data-name="Path 1262" d="M715.141,744.71v8.734q-4.374-.37-8.721-1.007V744.71Z" transform="translate(-490.954 -419.656)" fill="#1f8ced" opacity="0.1"/>
    <rect id="Rectangle_3821" data-name="Rectangle 3821" width="37.388" height="0.831" transform="translate(143.367 269.993)" fill="#1f8ced" opacity="0.1"/>
    <rect id="Rectangle_3822" data-name="Rectangle 3822" width="37.388" height="3.183" transform="translate(143.367 271.929)" fill="#1f8ced" opacity="0.1"/>
    <rect id="Rectangle_3823" data-name="Rectangle 3823" width="37.388" height="5.119" transform="translate(143.367 285.547)" fill="#1f8ced" opacity="0.1"/>
    <path id="Path_1263" data-name="Path 1263" d="M470.386,652.15v5.119H441.143q-1.9-1.455-3.763-2.987c-.857-.706-1.705-1.431-2.57-2.132Z" transform="translate(-289.634 -351.05)" fill="#1f8ced" opacity="0.1"/>
    <path id="Path_1264" data-name="Path 1264" d="M534.211,712.218v5.114h-3.087q-5.2-2.347-10.2-5.122Z" transform="translate(-353.46 -395.567)" fill="#1f8ced" opacity="0.1"/>
    <rect id="Rectangle_3824" data-name="Rectangle 3824" width="7.36" height="7.36" transform="translate(245.654 238.493)" fill="#1f8ced" opacity="0.1"/>
    <rect id="Rectangle_3825" data-name="Rectangle 3825" width="7.36" height="7.36" transform="translate(86.295 204.2)" fill="#1f8ced" opacity="0.1"/>
    <rect id="Rectangle_3826" data-name="Rectangle 3826" width="7.36" height="7.36" transform="translate(86.295 221.296)" fill="#1f8ced" opacity="0.1"/>
    <rect id="Rectangle_3827" data-name="Rectangle 3827" width="7.36" height="7.36" transform="translate(86.295 238.392)" fill="#1f8ced" opacity="0.1"/>
    <rect id="Rectangle_3828" data-name="Rectangle 3828" width="7.36" height="7.36" transform="translate(86.295 255.485)" fill="#1f8ced" opacity="0.1"/>
    <rect id="Rectangle_3829" data-name="Rectangle 3829" width="7.36" height="7.36" transform="translate(86.295 272.581)" fill="#1f8ced" opacity="0.1"/>
    <rect id="Rectangle_3830" data-name="Rectangle 3830" width="7.36" height="7.36" transform="translate(86.295 289.677)" fill="#1f8ced" opacity="0.1"/>
    <rect id="Rectangle_3831" data-name="Rectangle 3831" width="7.36" height="7.36" transform="translate(273.751 238.493)" fill="#1f8ced" opacity="0.1"/>
    <rect id="Rectangle_3832" data-name="Rectangle 3832" width="7.36" height="7.36" transform="translate(245.654 256.647)" fill="#1f8ced" opacity="0.1"/>
    <rect id="Rectangle_3833" data-name="Rectangle 3833" width="7.36" height="7.36" transform="translate(273.751 256.647)" fill="#1f8ced" opacity="0.1"/>
    <rect id="Rectangle_3834" data-name="Rectangle 3834" width="7.36" height="7.36" transform="translate(245.654 274.799)" fill="#1f8ced" opacity="0.1"/>
    <rect id="Rectangle_3835" data-name="Rectangle 3835" width="7.36" height="7.36" transform="translate(273.751 274.799)" fill="#1f8ced" opacity="0.1"/>
    <rect id="Rectangle_3836" data-name="Rectangle 3836" width="7.36" height="7.36" transform="translate(245.654 292.953)" fill="#1f8ced" opacity="0.1"/>
    <rect id="Rectangle_3837" data-name="Rectangle 3837" width="7.36" height="7.36" transform="translate(273.751 292.953)" fill="#1f8ced" opacity="0.1"/>
    <rect id="Rectangle_3838" data-name="Rectangle 3838" width="7.36" height="7.36" transform="translate(245.654 311.107)" fill="#1f8ced" opacity="0.1"/>
    <rect id="Rectangle_3839" data-name="Rectangle 3839" width="7.36" height="7.36" transform="translate(273.751 311.107)" fill="#1f8ced" opacity="0.1"/>
    <path id="Path_1265" data-name="Path 1265" d="M775.83,707.076V702.33h7.357V706.4Z" transform="translate(-530.176 -373.071)" fill="#1f8ced" opacity="0.1"/>
    <path id="Path_1266" data-name="Path 1266" d="M65.24,357v4.211H90.428V357Zm2.51,3.947H65.7v-3.688h2.07Zm2.508,0h-2.07v-3.688h2.07Zm2.5,0H70.69v-3.688h2.07Zm2.508,0H73.2v-3.688h2.07Zm2.505,0H75.7v-3.688h2.07Zm2.508,0h-2.07v-3.688h2.07Zm2.508,0h-2.07v-3.688h2.07Zm2.505,0h-2.07v-3.688h2.07Zm2.505,0h-2.07v-3.688H87.8Zm2.505,0h-2.07v-3.688H90.3Z" transform="translate(-15.706 -132.283)" fill="#1f8ced" opacity="0.1"/>
    <path id="Path_1267" data-name="Path 1267" d="M65.24,404.34v4.211H90.428V404.34Zm2.51,3.944H65.7v-3.677h2.07Zm2.508,0h-2.07v-3.677h2.07Zm2.5,0H70.69v-3.677h2.07Zm2.508,0H73.2v-3.677h2.07Zm2.505,0H75.7v-3.677h2.07Zm2.508,0h-2.07v-3.677h2.07Zm2.508,0h-2.07v-3.677h2.07Zm2.505,0h-2.07v-3.677h2.07Zm2.505,0h-2.07v-3.677H87.8Zm2.505,0h-2.07v-3.677H90.3Z" transform="translate(-15.706 -167.371)" fill="#1f8ced" opacity="0.1"/>
    <path id="Path_1268" data-name="Path 1268" d="M65.24,451.7v4.218H90.428V451.7Zm2.51,3.944H65.7v-3.68h2.07Zm2.508,0h-2.07v-3.68h2.07Zm2.5,0H70.69v-3.68h2.07Zm2.508,0H73.2v-3.68h2.07Zm2.505,0H75.7v-3.68h2.07Zm2.508,0h-2.07v-3.68h2.07Zm2.508,0h-2.07v-3.68h2.07Zm2.505,0h-2.07v-3.68h2.07Zm2.505,0h-2.07v-3.68H87.8Zm2.505,0h-2.07v-3.68H90.3Z" transform="translate(-15.706 -202.475)" fill="#1f8ced" opacity="0.1"/>
    <path id="Path_1269" data-name="Path 1269" d="M65.24,499.06v4.205H90.428V499.06ZM67.75,503H65.7v-3.683h2.07Zm2.508,0h-2.07v-3.683h2.07Zm2.5,0H70.69v-3.683h2.07Zm2.508,0H73.2v-3.683h2.07Zm2.505,0H75.7v-3.683h2.07Zm2.508,0h-2.07v-3.683h2.07Zm2.508,0h-2.07v-3.683h2.07Zm2.505,0h-2.07v-3.683h2.07Zm2.505,0h-2.07v-3.683H87.8Zm2.505,0h-2.07v-3.683H90.3Z" transform="translate(-15.706 -237.579)" fill="#1f8ced" opacity="0.1"/>
    <path id="Path_1270" data-name="Path 1270" d="M65.66,546.41c.1.4.215.792.334,1.183v-.919h2.07v3.68H66.957c.034.085.067.179.1.259H90.74v-4.2Zm4.917,3.944h-2.07v-3.68h2.07Zm2.5,0h-2.07v-3.68h2.07Zm2.508,0H73.512v-3.68h2.07Zm2.505,0h-2.07v-3.68h2.07Zm2.508,0H78.53v-3.68H80.6Zm2.508,0h-2.07v-3.68h2.07Zm2.505,0h-2.07v-3.68h2.07Zm2.505,0h-2.07v-3.68h2.07Zm2.505,0h-2.07v-3.68h2.07Z" transform="translate(-16.017 -272.675)" fill="#1f8ced" opacity="0.1"/>
    <path id="Path_1271" data-name="Path 1271" d="M88.26,593.77c.065.083.127.176.194.259h1.369V595.8c.148.176.292.352.443.518v-2.3h2.07v3.693H91.5c.083.085.163.176.259.259H107.5v-4.2Zm6.576,3.941h-2.07v-3.677h2.07Zm2.508,0h-2.07v-3.677h2.07Zm2.508,0h-2.07v-3.677h2.07Zm2.505,0h-2.07v-3.677h2.07Zm2.505,0h-2.07v-3.677h2.07Zm2.505,0H105.3v-3.677h2.07Z" transform="translate(-32.769 -307.778)" fill="#1f8ced" opacity="0.1"/>
    <path id="Path_1272" data-name="Path 1272" d="M141.65,641.12c.236.135.476.259.719.393v-.129h2.07v1.165l.44.2v-1.369h2.07v2.239a.645.645,0,0,0,.124.047V641.12Z" transform="translate(-72.342 -342.875)" fill="#6c63ff" opacity="0.1"/>
    <path id="Path_1273" data-name="Path 1273" d="M354.03,281.539Zm-15.942,76.38Zm-16.633-38.863c.049.166.091.331.137.494h0C321.552,319.388,321.508,319.222,321.456,319.056Zm32.574-37.525ZM197.72,242.78v1.105h11.56V242.78ZM338.089,357.919Zm-16.633-38.863c.049.166.091.331.137.494h0C321.552,319.388,321.508,319.222,321.456,319.056Zm32.574-37.525Zm-15.942,76.38Zm-16.633-38.855c.049.166.091.331.137.494h0C321.552,319.388,321.508,319.222,321.456,319.056Z" transform="translate(-113.901 -47.622)" fill="#1f8ced" opacity="0.1"/>
    <path id="Path_1359" data-name="Path 1359" d="M881.39,451Z" transform="translate(-620.643 -201.956)" fill="#ffb0b1"/>
    <path id="Path_1360" data-name="Path 1360" d="M880.74,451.48l.078-.08Z" transform="translate(-620.161 -202.253)" fill="#ffb0b1"/>
    <path id="Path_1370" data-name="Path 1370" d="M861.607,428.943h0a.662.662,0,0,1,.831.43l2.241,7.06-.168,1.108.163.171.223-1.478-2.254-7.06a.663.663,0,0,0-.828-.43h0a.662.662,0,0,0-.344.259.9.9,0,0,1,.137-.06Z" transform="translate(-605.878 -185.437)" fill="#fff" opacity="0.1"/>
    <g id="Group_4807" data-name="Group 4807" transform="translate(160.42 151.334)">
      <g id="Group_4806" data-name="Group 4806" transform="translate(0)">
        <g id="Group_4802" data-name="Group 4802" transform="translate(0 11.202)">
          <path id="Path_1375" data-name="Path 1375" d="M181.636,70.126c-9.7,4.92-21.276,20.521.263,32.4,29.15,16.077,52.549,3.079,58.12.048.475-.264,27.55-15.585-4.1-32.806C215.116,58.449,195.459,63.12,181.636,70.126Z" transform="translate(-169.66 -62.95)" fill="#c5c7cd"/>
          <path id="Path_1376" data-name="Path 1376" d="M251.259,100.078c.138,8.261-10.934,14.024-11.235,14.175-5.573,2.794-28.988,14.762-58.157-.042-8.75-4.439-12.041-9.449-12.213-14.133h-.012v120.8a.7.7,0,0,1,0,.1v.567l.014-.014c.212,4.661,3.512,9.633,12.208,14.045,29.171,14.8,52.583,2.835,58.153.037.3-.152,11.29-5.869,11.24-14.076l.009.008V100.078Z" transform="translate(-169.643 -76.35)" fill="#e8eaed"/>
          <g id="Group_4801" data-name="Group 4801" transform="translate(0 41.762)">
            <path id="Path_1377" data-name="Path 1377" d="M251.262,128.295c.134,8.258-10.938,14.025-11.239,14.175-5.572,2.8-28.985,14.764-58.157-.042-8.747-4.439-12.041-9.449-12.21-14.133h-.014v84.73a.7.7,0,0,1,0,.1v.565l.014-.012c.206,4.661,3.509,9.633,12.208,14.043,29.174,14.8,52.583,2.838,58.156.04.3-.151,11.287-5.87,11.238-14.076l.009.006v-85.4Z" transform="translate(-169.643 -128.295)" fill="#1f8ced"/>
            <path id="Path_1378" data-name="Path 1378" d="M169.643,143.98v3.706a62.824,62.824,0,0,0,81.625,0v-3.7a60.075,60.075,0,0,1-81.625,0Z" transform="translate(-169.643 -133.956)" fill="#005669"/>
            <path id="Path_1379" data-name="Path 1379" d="M169.643,250.881v3.705a62.822,62.822,0,0,0,81.625,0v-3.7a60.075,60.075,0,0,1-81.625,0Z" transform="translate(-169.643 -172.536)" fill="#005669"/>
          </g>
        </g>
        <g id="Group_4805" data-name="Group 4805" transform="translate(11.614)">
          <path id="Path_1380" data-name="Path 1380" d="M197.229,50.687c-6.785,3.61-14.881,15.057.185,23.77,20.386,11.8,36.75,2.26,40.645.038.336-.193,19.267-11.435-2.866-24.07C220.646,42.119,206.9,45.547,197.229,50.687Z" transform="translate(-188.198 -45.422)" fill="#5f5f64"/>
          <g id="Group_4804" data-name="Group 4804" transform="translate(0 15.639)">
            <g id="Group_4803" data-name="Group 4803" transform="translate(0 5.49)">
              <path id="Path_1381" data-name="Path 1381" d="M246.208,78.482c.1,6.451-7.822,10.954-8.041,11.073-3.989,2.183-20.741,11.532-41.612-.031-6.26-3.471-8.615-7.384-8.738-11.042h0v10.08l.006-.013c.15,3.64,2.512,7.523,8.734,10.972,20.87,11.561,37.623,2.212,41.612.031.215-.116,8.076-4.586,8.041-11l.006.006V78.482Z" transform="translate(-187.815 -78.482)" fill="#86858a"/>
            </g>
            <path id="Path_1382" data-name="Path 1382" d="M246.214,73.6a10.705,10.705,0,0,0-.862-3.707v4.6l-.006-.006c.033,5.7-7.592,9.669-7.8,9.775a43.133,43.133,0,0,1-40.383-.027c-6.034-3.064-8.333-6.518-8.474-9.752l-.012.01V74.1a.346.346,0,0,0,0-.073V69.9a6.171,6.171,0,0,0-.858,3.38v2.106h0c.123,3.658,2.478,7.571,8.738,11.042,20.87,11.563,37.623,2.214,41.612.031.219-.119,8.14-4.622,8.041-11.073h.006V73.6Z" transform="translate(-187.815 -69.892)" fill="#c7cacf"/>
            <path id="Path_1383" data-name="Path 1383" d="M238.026,84.192a43.135,43.135,0,0,1-40.383-.027c-6.034-3.064-8.333-6.516-8.474-9.752l-.012.012v1.236a.347.347,0,0,1,0,.073v.394l.012-.01c.142,3.234,2.44,6.688,8.474,9.752a43.133,43.133,0,0,0,40.383.027c.212-.106,7.837-4.077,7.8-9.775l.006.006v-1.7l-.006-.006C245.862,80.116,238.237,84.086,238.026,84.192Z" transform="translate(-188.299 -71.524)" fill="#454548"/>
          </g>
        </g>
      </g>
      <path id="Path_1384" data-name="Path 1384" d="M244.636,198.117a72.375,72.375,0,0,1-16.029,4.036v-17.3c-2.151,1.076-10.97,3.01-18.993-.115a.821.821,0,0,1-.109-.058v17.469a72.47,72.47,0,0,1-16.029-4.036v16.319a72.365,72.365,0,0,0,16.029,4.037v14.772a.831.831,0,0,0,.109.058c9.443,3.706,16.842,1.188,18.993.114V218.473a72.271,72.271,0,0,0,16.029-4.037Z" transform="translate(-178.245 -95.682)" fill="#fff"/>
    </g>
    <g id="Group_4809" data-name="Group 4809" transform="translate(98 273.441)">
      <path id="Path_1385" data-name="Path 1385" d="M81.156,331.45l-9.182-6.161V291.564l9.182,6.162Z" transform="translate(-71.974 -256.361)" fill="#b6b8bf"/>
      <path id="Path_1386" data-name="Path 1386" d="M86.341,315.055l48.633-35.194V246.136l-48.633,35.2Z" transform="translate(-77.159 -239.966)" fill="#f7f8f9"/>
      <g id="Group_4808" data-name="Group 4808" transform="translate(33.189 11.665)">
        <path id="Path_1387" data-name="Path 1387" d="M123.905,273.9l22.046-15.954v-3.208l-22.046,15.954Z" transform="translate(-123.905 -254.735)" fill="#c7cacf"/>
        <path id="Path_1388" data-name="Path 1388" d="M132.336,275.708v3.208l16.658-12.054v-3.208Z" transform="translate(-126.948 -257.954)" fill="#c7cacf"/>
        <path id="Path_1389" data-name="Path 1389" d="M145.5,278.537v3.208l8.242-5.964v-3.208Z" transform="translate(-131.701 -261.173)" fill="#c7cacf"/>
      </g>
      <path id="Path_1390" data-name="Path 1390" d="M120.606,236.482h0L71.974,271.7l9.182,6.16h0l48.633-35.194Z" transform="translate(-71.974 -236.482)" fill="#dbdee2"/>
      <path id="Path_1391" data-name="Path 1391" d="M110.216,296.282l-6,4.36v-8.291L98.8,296.32v8.25l-6,4.359v7.28l6-4.359v8.29l5.408-3.968v-8.248l6-4.359Z" transform="translate(-79.489 -256.645)" fill="#6bbed8"/>
    </g>
    <g id="Group_4810" data-name="Group 4810" transform="translate(132.178 320.61)">
      <path id="Path_1392" data-name="Path 1392" d="M147.107,311.673c-7.287,4.931-11.623,8.043-18.558,12.907-2.769,1.943-4.678,8.081-1.273,13.454,3.481,5.493,10.707,6.227,13.6,4.2,7.509-5.267,17.29-12.2,17.29-12.2,3.242-1.937,6.01-9.191,2.157-14.711C156.063,309.21,150.214,309.57,147.107,311.673Z" transform="translate(-125.452 -310.288)" fill="#1f8ced"/>
      <path id="Path_1393" data-name="Path 1393" d="M147.565,328.749c-3.289-4.714-7.345-5.884-10.683-5.336-3.991,2.786-5.387,3.793-8.333,5.859-2.769,1.943-4.678,8.081-1.273,13.454,3.481,5.493,10.707,6.227,13.6,4.2,2.42-1.7,3.312-2.41,6.858-4.9A12.332,12.332,0,0,0,147.565,328.749Z" transform="translate(-125.452 -314.98)" fill="#f7f8f9"/>
      <path id="Path_1394" data-name="Path 1394" d="M158.948,334.9s-9.783,6.938-17.29,12.2c-2.9,2.029-10.121,1.3-13.6-4.2a11.458,11.458,0,0,1-1.674-8.044,11.314,11.314,0,0,0,.892,10.647c3.479,5.493,10.706,6.227,13.6,4.2,7.506-5.267,17.29-12.2,17.29-12.2,1.716-1.025,3.3-3.542,3.838-6.5A8.349,8.349,0,0,1,158.948,334.9Z" transform="translate(-125.452 -317.763)" fill="#aaacb2" style="mix-blend-mode: multiply;isolation: isolate"/>
      <path id="Path_1395" data-name="Path 1395" d="M153.512,311.928l-9.268,6.387,10.206-5.163c6.72-3.223,12.507,1.954,12.507,1.954C162.624,309.306,157.009,309.411,153.512,311.928Z" transform="translate(-132.234 -310.288)" fill="#fff" style="mix-blend-mode: soft-light;isolation: isolate"/>
    </g>
    <g id="Group_4811" data-name="Group 4811" transform="translate(170.786 332.04)">
      <path id="Path_1396" data-name="Path 1396" d="M200.955,329.559c7.288,4.932,11.623,8.043,18.558,12.907,2.77,1.944,4.678,8.081,1.274,13.454-3.482,5.493-10.707,6.227-13.6,4.2-7.51-5.267-17.291-12.206-17.291-12.206-3.242-1.937-6.011-9.191-2.156-14.711C192,327.095,197.847,327.455,200.955,329.559Z" transform="translate(-185.863 -328.173)" fill="#1f8ced"/>
      <path id="Path_1397" data-name="Path 1397" d="M207.615,346.635c3.289-4.715,7.346-5.884,10.684-5.336,3.991,2.786,5.386,3.792,8.332,5.859,2.77,1.944,4.678,8.081,1.274,13.454-3.482,5.493-10.707,6.227-13.6,4.2-2.421-1.7-3.313-2.411-6.859-4.9A12.335,12.335,0,0,1,207.615,346.635Z" transform="translate(-192.98 -332.865)" fill="#f7f8f9"/>
      <path id="Path_1398" data-name="Path 1398" d="M189.224,352.785s9.784,6.938,17.291,12.2c2.894,2.03,10.12,1.3,13.6-4.2a11.462,11.462,0,0,0,1.673-8.044A11.313,11.313,0,0,1,220.9,363.4c-3.48,5.493-10.707,6.227-13.6,4.2-7.507-5.267-17.291-12.206-17.291-12.206-1.716-1.025-3.3-3.542-3.838-6.5A8.358,8.358,0,0,0,189.224,352.785Z" transform="translate(-185.972 -335.649)" fill="#aaacb2" style="mix-blend-mode: multiply;isolation: isolate"/>
      <path id="Path_1399" data-name="Path 1399" d="M202.476,329.814l9.267,6.387-10.205-5.163c-6.721-3.223-12.508,1.953-12.508,1.953C193.363,327.191,198.979,327.3,202.476,329.814Z" transform="translate(-187.006 -328.173)" fill="#fff" style="mix-blend-mode: soft-light;isolation: isolate"/>
    </g>
    <g id="Group_4826" data-name="Group 4826" transform="translate(211.629 152.184)">
      <g id="Group_4814" data-name="Group 4814" transform="translate(9.699 37.27)">
        <path id="Path_1400" data-name="Path 1400" d="M281.092,110.364l-7.713-5.3-8.434,4.322,11.237,7.685c1.736,1.3,4.4.52,5.7-1.215A3.927,3.927,0,0,0,281.092,110.364Z" transform="translate(-264.946 -105.068)" fill="#201a13"/>
        <g id="Group_4813" data-name="Group 4813" transform="translate(12.439 30.405)">
          <g id="Group_4812" data-name="Group 4812">
            <path id="Path_1401" data-name="Path 1401" d="M291.19,159.14a2.716,2.716,0,0,1-2.583-.286c-1.36-.955-4.2-2.728-4.2-2.993v-3.218H288.9s.008,1.6.008,1.708a1.71,1.71,0,0,0,.375,1.155c.5.471.768.773,1.58,1.563C291.716,157.9,291.794,158.806,291.19,159.14Z" transform="translate(-284.409 -152.643)" fill="#0e0d0a"/>
          </g>
        </g>
        <path id="Path_1402" data-name="Path 1402" d="M288.29,140.408l1.05-22.887a3.156,3.156,0,1,0-6.311,0l-.331,2.944,1.094,20.946Z" transform="translate(-271.353 -108.423)" fill="#201a13"/>
      </g>
      <g id="Group_4817" data-name="Group 4817" transform="translate(4.262 40.794)">
        <path id="Path_1403" data-name="Path 1403" d="M272.727,116.188l-7.713-5.3-8.1-.309s-.256,1.713-.444,2.875c-.2,1.256.628,2.12,2.273,3.26,1.887,1.308,9.076,6.181,9.076,6.181,1.734,1.3,4.4.518,5.7-1.216A3.923,3.923,0,0,0,272.727,116.188Z" transform="translate(-256.438 -110.582)" fill="#201a13"/>
        <g id="Group_4816" data-name="Group 4816" transform="translate(12.581 30.716)">
          <g id="Group_4815" data-name="Group 4815">
            <path id="Path_1404" data-name="Path 1404" d="M282.906,165.14a2.72,2.72,0,0,1-2.585-.286c-1.363-.955-4.2-2.727-4.2-2.993v-3.217h4.492s.006,1.6.006,1.708a1.727,1.727,0,0,0,.375,1.153c.5.47.768.772,1.58,1.563C283.431,163.9,283.509,164.8,282.906,165.14Z" transform="translate(-276.124 -158.644)" fill="#0e0d0a"/>
          </g>
        </g>
        <path id="Path_1405" data-name="Path 1405" d="M280,146.406l1.051-22.886a3.157,3.157,0,1,0-6.314,0l-.328,2.944,1.094,20.945Z" transform="translate(-262.925 -114.112)" fill="#201a13"/>
      </g>
      <g id="Group_4822" data-name="Group 4822" transform="translate(1.796)">
        <g id="Group_4820" data-name="Group 4820">
          <path id="Path_1406" data-name="Path 1406" d="M261.009,65.542l6.963-.15L266.744,76.8Z" transform="translate(-255.621 -53.479)" fill="#abdcf3"/>
          <g id="Group_4818" data-name="Group 4818" transform="translate(0 11.913)">
            <path id="Path_1407" data-name="Path 1407" d="M271.208,65.392,269.98,76.8l0,16.059s0,2.225,1.749,1.7a4.573,4.573,0,0,0,3.169-3.456c.21-5.581.2-5.487.2-15.227l-.006-7.727Z" transform="translate(-258.858 -65.392)" fill="#fff"/>
            <path id="Path_1408" data-name="Path 1408" d="M263.7,76.882l-5.735-11.255c-2.365,1.661-5.388,3.655-5.388,3.655l2.242,9.882,1.2,8.007s-.694,6.316-1.022,9.889c-.164,1.82,5.116,1.788,7.424-.224,1.016-.89,1.281-2.65,1.281-4.157Z" transform="translate(-252.579 -65.477)" fill="#fff"/>
          </g>
          <g id="Group_4819" data-name="Group 4819" transform="translate(4.248)">
            <path id="Path_1409" data-name="Path 1409" d="M266.958,52.9a5.032,5.032,0,0,0-2.007-.41,3.55,3.55,0,0,0-3.3,3.764v2.592c0,1.246,2.716,3.31,4.385,3.644a.946.946,0,0,0,.646-.045,1.488,1.488,0,0,0,.481-.55,4.078,4.078,0,0,0,.248-1.06Z" transform="translate(-260.101 -48.823)" fill="#de8a62"/>
            <path id="Path_1410" data-name="Path 1410" d="M264.482,46.752c-2.4,0-4.054,2.225-4.054,4.621v1.692c0,2.678,3.882,6.215,6.279,6.215,1.2,0,1.423-1.441,1.909-2.924.353-1.074.2-4.161.2-5.481A4.161,4.161,0,0,0,264.482,46.752Z" transform="translate(-259.66 -46.752)" fill="#f4ab81"/>
            <path id="Path_1411" data-name="Path 1411" d="M260.838,57.542c.333.666.292,1.361-.09,1.552s-.963-.19-1.3-.856-.294-1.361.088-1.553S260.506,56.876,260.838,57.542Z" transform="translate(-259.226 -50.319)" fill="#f4ab81"/>
          </g>
          <path id="Path_1412" data-name="Path 1412" d="M261.418,62.435a3.077,3.077,0,0,0,1.2,1.791c1.068.839,2.929,2.21,3.829,1.808L264.5,67.663s-3.5-2.308-3.5-3.382C261.009,63.249,260.972,62.811,261.418,62.435Z" transform="translate(-255.621 -52.412)" fill="#d1ebf8"/>
          <path id="Path_1413" data-name="Path 1413" d="M270.175,65.993a1.776,1.776,0,0,1-.653,1.108l1.25.881.272-2.59A1.576,1.576,0,0,1,270.175,65.993Z" transform="translate(-258.694 -53.479)" fill="#d1ebf8"/>
        </g>
        <path id="Path_1414" data-name="Path 1414" d="M263.252,51.663,261.03,50.2a5.133,5.133,0,0,0-.6,2.419v1.692c0,.016,0,.033,0,.05.778.288,1.031,1.4,1.031,1.4l.624-.438.008-1.059c.869-.112,1.6-1.648,1.875-2.3A7.708,7.708,0,0,1,263.252,51.663Z" transform="translate(-255.412 -47.995)" fill="#00032e"/>
        <path id="Path_1415" data-name="Path 1415" d="M269.193,51.125h0c0-.088,0-.173,0-.25a4.162,4.162,0,0,0-4.341-4.123,3.625,3.625,0,0,0-3.481,2.2l2.222,1.466S266.575,51.88,269.193,51.125Z" transform="translate(-255.752 -46.752)" fill="#00032e"/>
        <g id="Group_4821" data-name="Group 4821" transform="translate(9.41 13.622)">
          <path id="Path_1416" data-name="Path 1416" d="M269.154,69.519V68.37l-.433-.3-1.419,1.19.933.906Z" transform="translate(-267.303 -68.066)" fill="#011044"/>
          <path id="Path_1417" data-name="Path 1417" d="M268.435,70.982l-.58,4.937,1.361,2.663.434-3.919-.3-4.324Z" transform="translate(-267.502 -68.887)" fill="#011044"/>
        </g>
        <path id="Path_1418" data-name="Path 1418" d="M262.062,76.612l-3.157-9.864.884-.634,6.2,10.944Z" transform="translate(-254.862 -53.74)" fill="#e3e5e8" style="mix-blend-mode: multiply;isolation: isolate"/>
        <path id="Path_1419" data-name="Path 1419" d="M269.983,76.8l3.337-5.172-1.057-5.574-1.053-.659Z" transform="translate(-258.86 -53.479)" fill="#e3e5e8" style="mix-blend-mode: multiply;isolation: isolate"/>
        <path id="Path_1420" data-name="Path 1420" d="M265.985,76.882l-3.541-.788-3.539-9.521,1.344-.946Z" transform="translate(-254.862 -53.564)" fill="#fff"/>
        <path id="Path_1421" data-name="Path 1421" d="M269.983,76.8l2.9-5.308-.619-5.437a4.53,4.53,0,0,0-1.053-.66Z" transform="translate(-258.86 -53.479)" fill="#fff"/>
      </g>
      <g id="Group_4825" data-name="Group 4825" transform="translate(0 14.67)">
        <path id="Path_1422" data-name="Path 1422" d="M278.244,83.595c-.687-3.371-1.088-6.719-1.765-9.363-.989-3.86-2.012-3.945-3.028-4.526V83.549l-7.214-1.434-.771,2.536,8.942,2.537,1.19.357C277.776,88.155,278.808,86.367,278.244,83.595Z" transform="translate(-255.434 -69.706)" fill="#fff"/>
        <g id="Group_4823" data-name="Group 4823" transform="translate(10.762)" style="mix-blend-mode: multiply;isolation: isolate">
          <path id="Path_1423" data-name="Path 1423" d="M273.822,69.706c.044,1.154.08,2.307.1,3.461s.052,2.307.052,3.461c.02,2.307.026,4.614,0,6.921a.155.155,0,0,1-.155.155.148.148,0,0,1-.029,0c-1.2-.24-2.4-.506-3.6-.766s-2.393-.536-3.587-.819c1.211.194,2.422.393,3.628.614s2.414.429,3.616.668l-.185.152c-.024-2.307-.017-4.614,0-6.921,0-1.154.036-2.307.052-3.461S273.778,70.86,273.822,69.706Z" transform="translate(-266.608 -69.706)" fill="#c7cacf"/>
        </g>
        <path id="Path_1424" data-name="Path 1424" d="M272.463,92.87s2.1-2.411,2.559-1.824a3.333,3.333,0,0,0-.523-1.381c-.522-.687-1.278-.68-2.069-.135s-1.3.893-1.3.893Z" transform="translate(-257.48 -76.718)" fill="#f4ab81"/>
        <path id="Path_1425" data-name="Path 1425" d="M265.006,86.961s-4.384,2.064-7.658,3.515a1.986,1.986,0,0,1-2.4-1.035,76.243,76.243,0,0,1-4.8-11.986c-.927-3.36-.029-5.648,1.418-6.262,2.559-1.087,3.525,1.352,3.882,3.165.468,2.381,1.756,9.656,2.227,10.885.175.458.414.583.8.437a45.779,45.779,0,0,0,5.174-2.461A4.779,4.779,0,0,1,265.006,86.961Z" transform="translate(-249.769 -70.146)" fill="#fff"/>
        <g id="Group_4824" data-name="Group 4824" transform="translate(1.95 0.744)" style="mix-blend-mode: multiply;isolation: isolate">
          <path id="Path_1426" data-name="Path 1426" d="M252.821,71.174a2.869,2.869,0,0,1,1.458-.293,2.126,2.126,0,0,1,1.333.693,5.949,5.949,0,0,1,1.22,2.746c.405,1.949.757,3.906,1.15,5.854.185.976.371,1.952.575,2.923.1.486.206.971.326,1.449a5.6,5.6,0,0,0,.208.695c.086.212.208.367.4.342a3.878,3.878,0,0,0,.67-.222l.689-.275c.458-.19.911-.39,1.363-.6q1.36-.606,2.689-1.288a31.916,31.916,0,0,1-5.387,2.649.572.572,0,0,1-.45-.141,1.053,1.053,0,0,1-.243-.358,5.717,5.717,0,0,1-.229-.73c-.127-.485-.237-.971-.345-1.458-.213-.973-.412-1.948-.605-2.924l-1.071-5.868a5.783,5.783,0,0,0-1.083-2.685,2,2,0,0,0-1.218-.722A2.822,2.822,0,0,0,252.821,71.174Z" transform="translate(-252.821 -70.869)" fill="#c7cacf"/>
        </g>
        <path id="Path_1427" data-name="Path 1427" d="M263.7,89.155a17.965,17.965,0,0,0-4.678-.63.38.38,0,0,0,.013.761c.213,0,1.108.158,1.317.167-.1.036-.2.073-.305.12a.379.379,0,0,0,.314.69c.038-.015.072-.026.109-.042-.066.044-.13.084-.195.134a.376.376,0,0,0-.07.532.367.367,0,0,0,.3.149.376.376,0,0,0,.229-.078c.058-.043.114-.077.17-.113-.061.061-.124.118-.183.186a.381.381,0,0,0,.291.626.374.374,0,0,0,.289-.134,2.118,2.118,0,0,1,.477-.408,2.834,2.834,0,0,0-.278.256.38.38,0,0,0,.561.514,2.348,2.348,0,0,1,.992-.6Z" transform="translate(-252.975 -76.497)" fill="#f4ab81"/>
      </g>
    </g>
    <g id="Group_4848" data-name="Group 4848" transform="translate(122.65 206.877)">
      <g id="Group_4837" data-name="Group 4837" transform="translate(7.982 0)">
        <g id="Group_4832" data-name="Group 4832" transform="translate(2.566 36.735)">
          <g id="Group_4828" data-name="Group 4828" transform="translate(0 41.582)">
            <g id="Group_4827" data-name="Group 4827">
              <path id="Path_1428" data-name="Path 1428" d="M132.818,259.292a2.312,2.312,0,0,1-2.194-.245,31.191,31.191,0,0,1-3.574-2.547v-1.626h3.821s.006.248.006.343a1.471,1.471,0,0,0,.318.982c.427.4.654.657,1.346,1.329C133.265,258.233,133.335,259.005,132.818,259.292Z" transform="translate(-127.049 -254.873)" fill="#0e0d0a"/>
            </g>
          </g>
          <g id="Group_4829" data-name="Group 4829" transform="translate(0 4.354)">
            <path id="Path_1429" data-name="Path 1429" d="M130.988,234.335c0,.2-.722.752-1.889.98-.792.155-2.05-.284-2.05-.546,0-1.591.78-11.882.633-15.154-.245-5.486-.323-20.364-.323-20.364l6.842-2.631a26.88,26.88,0,0,1-.092,6.319c-.467,4.527-.274,10.6-.8,14.549C132.807,221.31,130.988,230.868,130.988,234.335Z" transform="translate(-127.049 -196.621)" fill="#201a13"/>
          </g>
          <g id="Group_4831" data-name="Group 4831" transform="translate(6.744 36.99)">
            <g id="Group_4830" data-name="Group 4830">
              <path id="Path_1430" data-name="Path 1430" d="M143.37,252.107a2.311,2.311,0,0,1-2.2-.245,30.953,30.953,0,0,1-3.572-2.547v-1.626h3.821s0,.249,0,.344a1.467,1.467,0,0,0,.32.981c.427.4.653.657,1.345,1.33C143.817,251.048,143.885,251.821,143.37,252.107Z" transform="translate(-137.601 -247.688)" fill="#0e0d0a"/>
            </g>
          </g>
          <path id="Path_1431" data-name="Path 1431" d="M141.5,227.051c-.062.6-.86,1.1-1.843,1.374-.778.216-2.378-.03-2.378-.416,0-1.592.745-12.159.6-15.432-.247-5.485.017-18.414.017-18.414l6.535-4.354a136.088,136.088,0,0,1-.925,15.4C143,209.034,141.846,223.6,141.5,227.051Z" transform="translate(-130.739 -189.809)" fill="#201a13"/>
        </g>
        <g id="Group_4835" data-name="Group 4835">
          <path id="Path_1432" data-name="Path 1432" d="M131.561,151.345l7.048-.152-1.244,11.543Z" transform="translate(-126.112 -139.138)" fill="#abdcf3"/>
          <g id="Group_4833" data-name="Group 4833" transform="translate(0 12.055)">
            <path id="Path_1433" data-name="Path 1433" d="M141.886,151.193l-1.244,11.542v16.252s0,2.254,1.77,1.724a4.623,4.623,0,0,0,3.2-3.5c.212-5.649.21-5.553.21-15.413l-.007-7.819Z" transform="translate(-129.388 -151.193)" fill="#f5f6f7"/>
            <path id="Path_1434" data-name="Path 1434" d="M134.287,162.821l-5.8-11.39c-2.39,1.682-5.45,3.7-5.45,3.7l2.267,10,1.212,8.1s-.7,6.394-1.031,10.008c-.168,1.841,5.175,1.809,7.507-.226,1.032-.9,1.3-2.682,1.3-4.208Z" transform="translate(-123.034 -151.279)" fill="#f5f6f7"/>
          </g>
          <g id="Group_4834" data-name="Group 4834" transform="translate(4.298)">
            <path id="Path_1435" data-name="Path 1435" d="M137.585,138.553a5.086,5.086,0,0,0-2.03-.414,3.59,3.59,0,0,0-3.341,3.808v2.623c0,1.26,2.749,3.348,4.438,3.689a.976.976,0,0,0,.654-.046,1.553,1.553,0,0,0,.487-.557,4.179,4.179,0,0,0,.249-1.073Z" transform="translate(-130.645 -134.426)" fill="#de8a62"/>
            <path id="Path_1436" data-name="Path 1436" d="M135.079,132.33c-2.425,0-4.1,2.252-4.1,4.676v1.712c0,2.712,3.929,6.289,6.353,6.289,1.213,0,1.442-1.457,1.934-2.959.358-1.086.207-4.211.207-5.546A4.21,4.21,0,0,0,135.079,132.33Z" transform="translate(-130.197 -132.33)" fill="#f4ab81"/>
            <path id="Path_1437" data-name="Path 1437" d="M131.391,143.249c.337.674.295,1.377-.093,1.571s-.975-.194-1.312-.867-.295-1.377.094-1.572S131.055,142.576,131.391,143.249Z" transform="translate(-129.759 -135.939)" fill="#f4ab81"/>
          </g>
          <path id="Path_1438" data-name="Path 1438" d="M131.977,148.2a3.105,3.105,0,0,0,1.216,1.812c1.081.849,2.966,2.236,3.875,1.83l-1.968,1.647s-3.541-2.334-3.541-3.422C131.561,149.026,131.525,148.582,131.977,148.2Z" transform="translate(-126.111 -138.058)" fill="#d1ebf8"/>
          <path id="Path_1439" data-name="Path 1439" d="M140.838,151.8a1.787,1.787,0,0,1-.658,1.122l1.265.889.275-2.62A1.607,1.607,0,0,1,140.838,151.8Z" transform="translate(-129.222 -139.138)" fill="#d1ebf8"/>
        </g>
        <path id="Path_1440" data-name="Path 1440" d="M133.831,137.3l-2.246-1.484a5.185,5.185,0,0,0-.61,2.447v1.712c0,.017,0,.034,0,.051.79.292,1.045,1.416,1.045,1.416l.631-.443.009-1.073c.879-.113,1.621-1.665,1.9-2.328C134.106,137.433,133.831,137.3,133.831,137.3Z" transform="translate(-125.9 -133.588)" fill="#171713"/>
        <path id="Path_1441" data-name="Path 1441" d="M139.844,136.755h0c0-.089,0-.175,0-.252a4.21,4.21,0,0,0-4.391-4.172,3.666,3.666,0,0,0-3.523,2.229l2.246,1.484S137.2,137.519,139.844,136.755Z" transform="translate(-126.244 -132.33)" fill="#171713"/>
        <g id="Group_4836" data-name="Group 4836" transform="translate(9.52 13.786)">
          <path id="Path_1442" data-name="Path 1442" d="M139.8,155.371v-1.162l-.436-.307-1.438,1.2.945.916Z" transform="translate(-137.93 -153.901)" fill="#011044"/>
          <path id="Path_1443" data-name="Path 1443" d="M139.078,156.851l-.587,5,1.374,2.693.441-3.966-.3-4.376Z" transform="translate(-138.132 -154.731)" fill="#011044"/>
        </g>
      </g>
      <g id="Group_4838" data-name="Group 4838" transform="translate(12.072 12.055)">
        <path id="Path_1444" data-name="Path 1444" d="M132.629,162.549l-3.2-9.983.894-.642L136.6,163Z" transform="translate(-129.433 -151.457)" fill="#e3e5e8" style="mix-blend-mode: multiply;isolation: isolate"/>
        <path id="Path_1445" data-name="Path 1445" d="M140.642,162.735l3.379-5.234-1.071-5.641-1.064-.668Z" transform="translate(-133.478 -151.193)" fill="#e3e5e8" style="mix-blend-mode: multiply;isolation: isolate"/>
        <path id="Path_1446" data-name="Path 1446" d="M136.6,162.821l-3.582-.8-3.581-9.635,1.361-.957Z" transform="translate(-129.433 -151.279)" fill="#fff"/>
        <path id="Path_1447" data-name="Path 1447" d="M140.642,162.735l2.938-5.372-.63-5.5a4.582,4.582,0,0,0-1.063-.668Z" transform="translate(-133.478 -151.193)" fill="#fff"/>
      </g>
      <g id="Group_4846" data-name="Group 4846" transform="translate(0 15.433)">
        <g id="Group_4844" data-name="Group 4844" transform="translate(0 29.698)">
          <g id="Group_4843" data-name="Group 4843">
            <g id="Group_4839" data-name="Group 4839">
              <path id="Path_1448" data-name="Path 1448" d="M126.636,227.444l-16.092-11.269V204.9l16.092,11.267Z" transform="translate(-110.544 -203.653)" fill="#241f17"/>
              <path id="Path_1449" data-name="Path 1449" d="M135.724,233.1l1.753-1.249V220.581l-1.753,1.248Z" transform="translate(-119.631 -209.311)"/>
              <path id="Path_1450" data-name="Path 1450" d="M112.3,202.946h0l-1.751,1.254,16.092,11.268h0l1.753-1.249Z" transform="translate(-110.544 -202.946)" fill="#4d4740"/>
            </g>
            <g id="Group_4842" data-name="Group 4842" transform="translate(5.391 0.37)">
              <g id="Group_4840" data-name="Group 4840" transform="translate(0.972 2.338)">
                <path id="Path_1451" data-name="Path 1451" d="M120.5,209.554l.821-.585v-1.2l-.821-.58Z" transform="translate(-120.5 -207.184)"/>
              </g>
              <g id="Group_4841" data-name="Group 4841">
                <path id="Path_1452" data-name="Path 1452" d="M118.979,204.446v3.47l.972.65V206.2l5.427,3.825v2.442l.972.651v-2.406l0-1.065Z" transform="translate(-118.979 -203.858)" fill="#241f17"/>
                <path id="Path_1453" data-name="Path 1453" d="M131.334,211.66h0l-.823.586v3.472l.823-.587Z" transform="translate(-123.141 -206.461)"/>
                <path id="Path_1454" data-name="Path 1454" d="M119.8,203.526h0l-.822.588,7.373,5.2h0l.821-.588Z" transform="translate(-118.979 -203.526)" fill="#4d4740"/>
              </g>
            </g>
            <path id="Path_1455" data-name="Path 1455" d="M126.636,219.751l-9.317-1.016-6.775-10.253V204.9l16.092,11.267Z" transform="translate(-110.544 -203.653)" fill="#322b23"/>
          </g>
          <path id="Path_1456" data-name="Path 1456" d="M126.163,206.069s.547,2.914-.936,3.16a3.03,3.03,0,0,1-1.736-.587,1.762,1.762,0,0,1-1.012-1.33,1.705,1.705,0,0,0,.645-1.8,4.443,4.443,0,0,1,.309-.507A8.231,8.231,0,0,0,126.163,206.069Z" transform="translate(-114.85 -203.69)" fill="#f4ab81"/>
        </g>
        <g id="Group_4845" data-name="Group 4845" transform="translate(5.849)">
          <path id="Path_1457" data-name="Path 1457" d="M120.522,172.637a2.433,2.433,0,0,0,2.461,2.4h0a2.435,2.435,0,0,0,2.4-2.463l.369-11.883c.107-2.694-1.141-4.241-3.036-4.215-1.344.019-3.251.92-3,3.92Z" transform="translate(-119.696 -156.479)" fill="#fff"/>
          <path id="Path_1458" data-name="Path 1458" d="M122.222,195.062c.072,1.342,4,2.751,3.931,1.409l-.51-15.076a2.432,2.432,0,0,0-2.558-2.3h0a2.429,2.429,0,0,0-2.3,2.558Z" transform="translate(-120.089 -164.64)" fill="#fff"/>
        </g>
      </g>
      <g id="Group_4847" data-name="Group 4847" transform="translate(23.601 14.846)">
        <path id="Path_1459" data-name="Path 1459" d="M150.235,201.321s-.623,4.107-2.763,5.246l.447-6.067Z" transform="translate(-147.472 -171.778)" fill="#f4ab81"/>
        <path id="Path_1460" data-name="Path 1460" d="M148.5,155.559a3.612,3.612,0,0,1,1.3.622,5.336,5.336,0,0,1,1.866,3.942c0,3.645.3,26.749.3,26.749a3.206,3.206,0,0,1-2.013-.323,9.917,9.917,0,0,1-1.82-1.915Z" transform="translate(-147.709 -155.559)" fill="#fff"/>
      </g>
    </g>
    <g id="Group_4851" data-name="Group 4851" transform="translate(238.106 267.615)">
      <path id="Path_1461" data-name="Path 1461" d="M297.59,230.941c-4.607,2.45-10.1,10.219.126,16.135,13.838,8.007,24.944,1.534,27.589.024.229-.131,13.079-7.762-1.945-16.337C313.485,225.125,304.151,227.45,297.59,230.941Z" transform="translate(-291.458 -227.366)" fill="#e8eaed"/>
      <path id="Path_1462" data-name="Path 1462" d="M330.583,261.754c.061,3.893-5.154,6.609-5.3,6.681a29.27,29.27,0,0,1-27.408-.021c-4.125-2.092-5.676-4.453-5.756-6.659h-.006v43.41c0,.016,0,.031,0,.048v.268l.006-.007c.1,2.2,1.655,4.541,5.754,6.619a29.266,29.266,0,0,0,27.408.019c.146-.072,5.32-2.767,5.3-6.634l0,0V261.754Z" transform="translate(-291.529 -239.777)" fill="#fb0"/>
      <path id="Path_1463" data-name="Path 1463" d="M330.582,279c.063,3.893-5.154,6.61-5.3,6.681a29.264,29.264,0,0,1-27.408-.019c-4.125-2.092-5.676-4.453-5.756-6.661h-.008v21.37c0,.017,0,.033,0,.048v.268l.008-.008c.1,2.2,1.655,4.541,5.754,6.621a29.268,29.268,0,0,0,27.408.017c.146-.072,5.32-2.767,5.3-6.633l0,0V279Z" transform="translate(-291.528 -246)" fill="#fff"/>
      <path id="Path_1464" data-name="Path 1464" d="M329.561,291.413C321.089,298,306.281,298,297,291.654v15.163c10.813,7.291,20.963,7.52,32.565-.244Z" transform="translate(-293.29 -250.481)" fill="#dbdee2"/>
      <g id="Group_4850" data-name="Group 4850" transform="translate(0 10.615)">
        <g id="Group_4849" data-name="Group 4849" transform="translate(0 3.727)">
          <path id="Path_1465" data-name="Path 1465" d="M330.837,249.808c.065,4.377-5.313,7.433-5.459,7.516a27.972,27.972,0,0,1-28.247-.022c-4.249-2.356-5.849-5.011-5.931-7.494h0v6.842l.005-.009c.1,2.471,1.706,5.107,5.929,7.447a27.961,27.961,0,0,0,28.245.02c.148-.079,5.482-3.113,5.458-7.464l0,.005v-6.842Z" transform="translate(-291.198 -249.808)" fill="#c7cacf"/>
        </g>
        <path id="Path_1466" data-name="Path 1466" d="M330.839,246.492a7.259,7.259,0,0,0-.587-2.516V247.1c.02,3.867-5.156,6.563-5.3,6.634a29.272,29.272,0,0,1-27.411-.019c-4.1-2.079-5.654-4.423-5.751-6.62l-.008.007v-.267c0-.017,0-.033,0-.049v-2.806a4.169,4.169,0,0,0-.584,2.294V247.7h0c.082,2.483,1.682,5.138,5.931,7.494a27.972,27.972,0,0,0,28.247.022c.146-.082,5.523-3.139,5.459-7.516h0v-.317S330.839,246.716,330.839,246.492Z" transform="translate(-291.198 -243.976)" fill="#fff"/>
        <path id="Path_1467" data-name="Path 1467" d="M325.282,253.681a29.273,29.273,0,0,1-27.411-.017c-4.1-2.081-5.654-4.424-5.751-6.621l-.008.009v.839c0,.017,0,.033,0,.049v.267l.008-.007c.1,2.2,1.653,4.541,5.751,6.62a29.272,29.272,0,0,0,27.411.019c.143-.072,5.319-2.767,5.3-6.634v-1.156C330.6,250.915,325.425,253.61,325.282,253.681Z" transform="translate(-291.528 -245.083)" fill="#929198"/>
      </g>
    </g>
    <g id="Group_4862" data-name="Group 4862" transform="translate(244.064 199.604)">
      <g id="Group_4853" data-name="Group 4853" transform="translate(13.388 79.832)">
        <g id="Group_4852" data-name="Group 4852">
          <path id="Path_1468" data-name="Path 1468" d="M321.813,250.374a2.362,2.362,0,0,0,2.243-.25,32,32,0,0,0,3.647-2.6v-1.66h-3.9s-.006.253-.006.35a1.5,1.5,0,0,1-.325,1c-.436.409-.668.672-1.373,1.359C321.354,249.295,321.287,250.083,321.813,250.374Z" transform="translate(-321.47 -245.864)" fill="#0e0d0a"/>
        </g>
      </g>
      <g id="Group_4854" data-name="Group 4854" transform="translate(12.187 41.821)">
        <path id="Path_1469" data-name="Path 1469" d="M323.005,224.894c0,.2.734.766,1.927,1,.807.158,2.094-.29,2.094-.556,0-1.627-.8-12.131-.649-15.475.25-5.6.331-20.791.331-20.791l-6.987-2.686a27.41,27.41,0,0,0,.1,6.452c.475,4.621.281,10.819.813,14.855C321.145,211.593,323.005,221.354,323.005,224.894Z" transform="translate(-319.591 -186.387)" fill="#201a13"/>
      </g>
      <g id="Group_4856" data-name="Group 4856" transform="translate(6.503 75.143)">
        <g id="Group_4855" data-name="Group 4855">
          <path id="Path_1470" data-name="Path 1470" d="M311.037,243.039a2.359,2.359,0,0,0,2.243-.251,31.74,31.74,0,0,0,3.65-2.6v-1.661h-3.9s-.006.254-.006.35a1.494,1.494,0,0,1-.324,1c-.436.409-.668.671-1.373,1.358C310.582,241.958,310.514,242.747,311.037,243.039Z" transform="translate(-310.697 -238.527)" fill="#0e0d0a"/>
        </g>
      </g>
      <path id="Path_1471" data-name="Path 1471" d="M312.348,217.456c.064.617.876,1.125,1.882,1.4.794.22,2.427-.032,2.427-.426,0-1.625-.761-12.416-.61-15.757.25-5.6-.02-18.8-.02-18.8l-6.672-4.446a138.671,138.671,0,0,0,.945,15.73C310.814,199.06,311.99,213.932,312.348,217.456Z" transform="translate(-303.709 -142.056)" fill="#201a13"/>
      <path id="Path_1472" data-name="Path 1472" d="M322.075,140.512l-7.2-.155,1.272,11.785Z" transform="translate(-305.702 -127.954)" fill="#abdcf3"/>
      <g id="Group_4857" data-name="Group 4857" transform="translate(5.155 12.403)">
        <path id="Path_1473" data-name="Path 1473" d="M312.606,140.357l1.272,11.785v16.593s0,2.3-1.807,1.759a4.72,4.72,0,0,1-3.272-3.569c-.216-5.767-.213-5.67-.213-15.735l.009-7.984Z" transform="translate(-308.587 -140.357)" fill="#f5f6f7"/>
        <path id="Path_1474" data-name="Path 1474" d="M316.866,152.23l5.927-11.63c2.44,1.716,5.563,3.776,5.563,3.776l-2.314,10.212-1.24,8.273s.719,6.527,1.056,10.219c.171,1.879-5.286,1.847-7.668-.231-1.054-.918-1.324-2.739-1.324-4.3Z" transform="translate(-311.575 -140.445)" fill="#fff"/>
      </g>
      <path id="Path_1475" data-name="Path 1475" d="M316.625,127.449a5.223,5.223,0,0,1,2.074-.422,3.67,3.67,0,0,1,3.415,3.888v2.678c0,1.288-2.81,3.42-4.534,3.767a.984.984,0,0,1-.666-.047,1.549,1.549,0,0,1-.5-.568,4.22,4.22,0,0,1-.257-1.1Z" transform="translate(-306.165 -123.143)" fill="#de8a62"/>
      <path id="Path_1476" data-name="Path 1476" d="M317.633,121.1c2.474,0,4.189,2.3,4.189,4.774v1.749c0,2.768-4.012,6.421-6.486,6.421-1.239,0-1.472-1.488-1.977-3.022-.363-1.109-.21-4.3-.21-5.662A4.3,4.3,0,0,1,317.633,121.1Z" transform="translate(-305.067 -121.003)" fill="#f4ab81"/>
      <path id="Path_1477" data-name="Path 1477" d="M322.54,137.3a3.184,3.184,0,0,1-1.245,1.851c-1.1.867-3.028,2.283-3.955,1.869l2.007,1.681s3.615-2.383,3.615-3.493C322.963,138.142,323,137.69,322.54,137.3Z" transform="translate(-306.591 -126.851)" fill="#d1ebf8"/>
      <path id="Path_1478" data-name="Path 1478" d="M315.778,140.978a1.815,1.815,0,0,0,.672,1.145l-1.292.908-.283-2.674A1.65,1.65,0,0,0,315.778,140.978Z" transform="translate(-305.702 -127.954)" fill="#d1ebf8"/>
      <g id="Group_4858" data-name="Group 4858" transform="translate(9.994 14.169)">
        <path id="Path_1479" data-name="Path 1479" d="M316.638,144.622v-1.187l.449-.314,1.467,1.229-.966.936Z" transform="translate(-316.332 -143.121)" fill="#011044"/>
        <path id="Path_1480" data-name="Path 1480" d="M317.415,146.134l.6,5.1-1.4,2.75-.452-4.049.306-4.468Z" transform="translate(-316.159 -143.969)" fill="#011044"/>
      </g>
      <path id="Path_1481" data-name="Path 1481" d="M320.917,151.95l3.264-10.192-.914-.656-6.4,11.308Z" transform="translate(-306.42 -128.223)" fill="#e3e5e8" style="mix-blend-mode: multiply;isolation: isolate"/>
      <path id="Path_1482" data-name="Path 1482" d="M314.918,152.142l-3.45-5.344,1.092-5.76,1.086-.681Z" transform="translate(-304.472 -127.954)" fill="#e3e5e8" style="mix-blend-mode: multiply;isolation: isolate"/>
      <path id="Path_1483" data-name="Path 1483" d="M316.866,152.229l3.659-.815,3.656-9.838-1.388-.977Z" transform="translate(-306.42 -128.042)" fill="#fff"/>
      <path id="Path_1484" data-name="Path 1484" d="M315.172,152.142l-3-5.485.642-5.618a4.662,4.662,0,0,1,1.086-.681Z" transform="translate(-304.726 -127.954)" fill="#fff"/>
      <g id="Group_4861" data-name="Group 4861" transform="translate(0 15.495)">
        <path id="Path_1485" data-name="Path 1485" d="M300.78,159.547c1.53-5.032,4.409-12.883,4.949-14.352v14.3l7.454-1.483.8,2.622-9.308,2.641-1.167.349C301.259,164.257,299.929,162.341,300.78,159.547Z" transform="translate(-300.521 -145.195)" fill="#f5f6f7"/>
        <g id="Group_4859" data-name="Group 4859" transform="translate(5.051)" style="mix-blend-mode: multiply;isolation: isolate">
          <path id="Path_1486" data-name="Path 1486" d="M308.543,145.2c.056,2.384.076,4.768.086,7.152s.047,4.768.027,7.152l-.135-.111q3.729-.735,7.468-1.423a.052.052,0,0,1,.059.036l.748,2.636-.847-2.606.06.036q-3.717.8-7.444,1.542a.114.114,0,0,1-.134-.089V159.5c-.02-2.384.018-4.768.027-7.152S308.487,147.579,308.543,145.2Z" transform="translate(-308.425 -145.195)" fill="#c7cacf"/>
        </g>
        <path id="Path_1487" data-name="Path 1487" d="M311.236,168.475s-2.174-2.492-2.642-1.885a3.431,3.431,0,0,1,.539-1.428c.539-.707,1.322-.7,2.138-.139l1.338.924Z" transform="translate(-303.435 -152.204)" fill="#f4ab81"/>
        <path id="Path_1488" data-name="Path 1488" d="M312.7,161.825a70.658,70.658,0,0,0,7.654,4.228,2.048,2.048,0,0,0,2.475-1.07c2.008-3.422,6.527-16.719,4.007-18.68-2.091-1.628-3.589,2.566-4.5,5.875-.665,2.418-1.832,7.2-2.318,8.47-.18.471-.424.6-.826.451a47.355,47.355,0,0,1-5.345-2.544A3.467,3.467,0,0,0,312.7,161.825Z" transform="translate(-304.896 -145.464)" fill="#fff"/>
        <g id="Group_4860" data-name="Group 4860" transform="translate(7.737 0.461)" style="mix-blend-mode: multiply;isolation: isolate">
          <path id="Path_1489" data-name="Path 1489" d="M326.827,146.294a1.327,1.327,0,0,0-1.407-.229,2.8,2.8,0,0,0-1.054,1.043,13.133,13.133,0,0,0-1.249,2.747c-.654,1.913-1.1,3.893-1.611,5.855-.249.983-.5,1.966-.773,2.942-.137.488-.275.977-.429,1.462a6.236,6.236,0,0,1-.267.73.8.8,0,0,1-.281.33.594.594,0,0,1-.445.063,39.183,39.183,0,0,1-5.5-2.64l.066,0a3.372,3.372,0,0,0-1.015,1.444,3.612,3.612,0,0,0-.166,1.779,3.643,3.643,0,0,1,.108-1.8,3.435,3.435,0,0,1,1-1.52.054.054,0,0,1,.061-.007l0,0a44.171,44.171,0,0,0,5.487,2.537.412.412,0,0,0,.488-.282,6.266,6.266,0,0,0,.249-.7c.15-.482.284-.97.418-1.458l.786-2.935c.533-1.954,1-3.931,1.683-5.849a12.259,12.259,0,0,1,1.306-2.755,2.863,2.863,0,0,1,1.117-1.032A1.353,1.353,0,0,1,326.827,146.294Z" transform="translate(-312.627 -145.916)" fill="#c7cacf"/>
        </g>
        <path id="Path_1490" data-name="Path 1490" d="M320.46,165.291a18.455,18.455,0,0,1,4.832-.65.392.392,0,0,1-.012.785c-.221,0-1.147.164-1.359.174a3.184,3.184,0,0,1,.314.122.393.393,0,0,1-.326.715c-.036-.017-.075-.028-.112-.045.068.046.137.088.2.138a.392.392,0,0,1,.072.55.384.384,0,0,1-.312.154.389.389,0,0,1-.237-.08c-.057-.044-.118-.079-.175-.118.064.062.128.122.189.193a.393.393,0,0,1-.043.552.394.394,0,0,1-.554-.043,2.083,2.083,0,0,0-.495-.423,2.622,2.622,0,0,1,.289.265.392.392,0,0,1-.291.658.388.388,0,0,1-.288-.127,2.465,2.465,0,0,0-1.025-.625Z" transform="translate(-307.717 -152.212)" fill="#f4ab81"/>
      </g>
      <path id="Path_1491" data-name="Path 1491" d="M319.1,128.769a3.682,3.682,0,0,1-.708,1.177,1.325,1.325,0,0,1-1.518.4,8.729,8.729,0,0,0-2.51-.551c-2.044-.161-2.183.159-2.183.159a7.316,7.316,0,0,0,.183,1.217c.423,1.557.907,2.817,1.976,2.817,1.763,0,4.311-1.86,5.627-3.931-.323-.25-.344-.91-.024-1.549a1.458,1.458,0,0,1,1.149-.933,4.75,4.75,0,0,0-4.782-6.622c-3.106.1-3.307,1.65-4.605,2.26a1.963,1.963,0,0,1-1.377.12c.151,1.132,1.03,2.218,3.437,2.218,1.8,0,2.749-.637,4.1.235A2.9,2.9,0,0,1,319.1,128.769Zm-2.868,3.006c-1.308.49-2.55.7-3.406-.456-.216-.293-.312-.619-.043-.638a9,9,0,0,1,1.58.053,5.92,5.92,0,0,1,1.837.553C316.37,131.374,316.5,131.673,316.228,131.776Z" transform="translate(-304.059 -120.95)" fill="#171713"/>
      <path id="Path_1492" data-name="Path 1492" d="M325.236,132.246c-.344.687-.3,1.4.1,1.6s1-.2,1.34-.886.3-1.4-.094-1.6S325.582,131.559,325.236,132.246Z" transform="translate(-309.357 -124.688)" fill="#f4ab81"/>
    </g>
  </g>
</svg>
